<?xml version="1.0" standalone="no"?>
<!DOCTYPE svg PUBLIC "-//W3C//DTD SVG 1.1//EN" "http://www.w3.org/Graphics/SVG/1.1/DTD/svg11.dtd" >
<svg xmlns="http://www.w3.org/2000/svg" xmlns:xlink="http://www.w3.org/1999/xlink" version="1.1">
<metadata>
Created by FontForge 20170910 at Thu May 21 22:12:45 2015
 By jimmywarting
Copyright (c) 2015 by Cyril Mikhailov. All rights reserved.
</metadata>
<defs>
<font id="JazzBall-Bold" horiz-adv-x="500" >
  <font-face 
    font-family="Jazz Ball"
    font-weight="700"
    font-stretch="normal"
    units-per-em="1000"
    panose-1="2 0 5 6 0 0 0 2 0 4"
    ascent="880"
    descent="-120"
    x-height="580"
    cap-height="807"
    bbox="-143.543 -577 1573.18 1293"
    underline-thickness="50"
    underline-position="-100"
    unicode-range="U+0002-F809"
  />
<missing-glyph horiz-adv-x="250" 
 />
    <glyph glyph-name=".notdef" horiz-adv-x="250" 
 />
    <glyph glyph-name=".null" horiz-adv-x="0" 
 />
    <glyph glyph-name=".null" horiz-adv-x="0" 
 />
    <glyph glyph-name="nonmarkingreturn" unicode="&#xd;" horiz-adv-x="250" 
 />
    <glyph glyph-name="space" unicode=" " horiz-adv-x="357" 
 />
    <glyph glyph-name="ampersand" unicode="&#x26;" horiz-adv-x="693" 
d="M615 241l-11 -11t-7 -10q1 -2 2 -2.5t3 -2.5q13 -13 28 -28.5t26 -33.5q28 -48 5 -90q-12 -25 -38 -39q-21 -12 -49 -12q-20 0 -38 6.5t-34 17.5h-1q-11 8 -20 17t-18 19q-5 -5 -10 -9l-10 -8q-19 -14 -38.5 -24.5t-39.5 -17.5h-1q-23 -8 -48 -11t-52 -3q-58 0 -110 15
q-2 0 -5 1t-7 2.5t-10 3.5q-1 1 -2 1t-3 1q-4 2 -7 2.5t-5 1.5q-1 0 -2 1q-5 1 -9 5q-46 26 -73 76q-28 51 -30 117q0 56 35 91q15 15 33.5 26t39.5 22q8 4 15 8t15 8q-42 51 -51 125q-5 40 0 80.5t21 78.5q26 63 75 102q55 43 124 43q28 0 55 -7q51 -11 88 -38.5t55 -66.5
q17 -34 15.5 -72t-21.5 -76q-32 -67 -116 -136v-1q3 -3 8 -7t10 -7q3 -2 6.5 -5t6.5 -5q4 -2 7 -4.5t6 -4.5q10 -7 19.5 -13.5t18.5 -13.5q6 16 8 34t4 38q2 31 8 62t28 54q19 24 51 24q19 0 34.5 -8t26.5 -16q26 -22 39 -47q31 -61 7 -152q-12 -45 -38 -81q-5 -5 -9.5 -10
t-9.5 -10zM337 584q3 32 -1 44t-6 14q-3 4 -8 4q-6 0 -15 -5t-19 -16q-9 -11 -14.5 -23.5t-5.5 -24.5q0 -6 1.5 -19t3.5 -27q3 -15 6 -22.5t5 -11.5q0 1 2 3q17 19 32.5 40t18.5 44zM247 262q-6 2 -5 2q-5 -2 -10 -9q-5 -6 -10.5 -18.5t-12.5 -34.5q0 -1 -1 -2
q1 -8 4.5 -14.5t7.5 -11.5q18 -18 44 -18h4q21 2 39.5 13t35.5 26l-18 12q-19 14 -38.5 27.5t-39.5 27.5z" />
    <glyph glyph-name="quotesingle" unicode="'" horiz-adv-x="236" 
d="M185 775q14 -60 12.5 -124.5t-15.5 -113.5q-4 -14 -9 -28t-12 -25.5t-16.5 -18.5t-21.5 -7q-27 0 -45 39q-5 10 -9 22.5t-4 19.5q0 25 -5.5 48t-13.5 47q-8 27 -15 55t-5 59q3 36 32 62q27 25 60 25q26 0 43.5 -16t23.5 -44z" />
    <glyph glyph-name="parenleft" unicode="(" horiz-adv-x="285" 
d="M221 631q-15 -32 -24 -67t-16 -72q-14 -67 -20.5 -144t15.5 -159q4 -14 9 -29.5t11 -32.5q9 -24 17 -49.5t13.5 -51t7 -50.5t-3.5 -48q-6 -30 -20 -38t-24 -8q-28 0 -66 44q-14 16 -24 31.5t-14 24.5l-1 1q-40 98 -57.5 179.5t-15.5 161.5q2 74 18 147t39 160l4 15
q11 42 25 85.5t40 81.5q14 20 32 31t38 11q31 0 52 -24q21 -22 24 -61q2 -32 -10.5 -57t-26.5 -45q-6 -10 -11.5 -18.5t-10.5 -18.5z" />
    <glyph glyph-name="parenright" unicode=")" horiz-adv-x="283" 
d="M268 451q1 -76 -9.5 -157t-33.5 -167q-14 -55 -31 -100t-37 -77q-42 -69 -87 -69q-18 0 -35 11l-3 3q-14 16 -22 36.5t-7 43.5q2 45 28 79h1q23 28 36 62t22 66q17 67 29.5 142.5t2.5 150.5q-5 35 -14 69.5t-20 70.5q-11 35 -21 72t-15 75q-6 47 13 69q12 14 32 14
q16 0 30 -8t25 -16q12 -11 22.5 -23.5t18.5 -26.5q72 -135 75 -320z" />
    <glyph glyph-name="asterisk" unicode="*" horiz-adv-x="357" 
d="M317 756q27 -28 23 -65v-1q-8 -55 -75 -55q-33 0 -61 10q-8 -20 -21 -32q-26 -26 -65 -26q-11 0 -21.5 2t-22.5 6q-33 11 -43 36q-5 13 -4.5 27t4.5 27.5t10 26t11 22.5l6 12q-9 8 -21 21.5t-21 30t-13.5 35t1.5 36.5q1 0 1 1q6 17 14.5 27t17.5 15.5t18 7t16 1.5
q25 0 49 -12.5t40 -26.5q20 11 45.5 20t51.5 9q30 0 53 -14q15 -10 20 -20.5t6 -18.5q2 -23 -14 -43.5t-33 -37.5q8 -5 15 -10t13 -11z" />
    <glyph glyph-name="plus" unicode="+" horiz-adv-x="605" 
d="M596 489q25 -37 13 -69q-8 -20 -27 -33.5t-43 -23t-51 -15.5t-49 -11q8 -14 16.5 -32t16.5 -39q24 -67 8 -114q-16 -46 -67 -64q-17 -6 -32 -6q-66 0 -120 92q-20 33 -33 67t-21 57q-5 2 -14 3.5t-17 2.5q-19 3 -41.5 7.5t-45.5 14.5q-55 22 -80 72q-26 55 -5 87
q21 33 85 33q44 0 102 -13q4 23 11 55.5t18 64.5q38 104 107 108h6q31 0 51 -21q12 -14 17 -33t6 -41t-1 -45.5t-5 -44.5q-2 -15 -3 -27q23 5 47 9t48 4q70 0 103 -45z" />
    <glyph glyph-name="comma" unicode="," horiz-adv-x="246" 
d="M240 135q6 -16 3.5 -33t-9 -33.5t-15.5 -32.5t-18 -29l-10 -16t-7 -13l-2 -5q-10 -22 -20.5 -44t-21.5 -40q-31 -46 -67 -46q-26 0 -54 26q-9 9 -17.5 21.5t-6.5 29.5q2 11 8.5 20.5t14.5 18.5q13 15 25.5 36t12.5 60q0 22 6 44.5t17 40.5q28 49 76 49q13 0 30 -5
q44 -15 55 -49z" />
    <glyph glyph-name="hyphen" unicode="-" horiz-adv-x="339" 
d="M325 302q10 -15 7 -29q-3 -27 -43 -52q-13 -8 -27.5 -14.5t-25.5 -8.5q-14 -2 -28.5 -3.5t-31.5 -1.5q-20 0 -39.5 2t-36 5t-29 6.5t-18.5 6.5q-4 2 -11.5 6.5t-15.5 12.5q-18 17 -23 35q-4 18 7 34q5 9 17 17t32 8q11 0 21 -2t19 -4q6 -2 10.5 -3t9.5 -1q4 -1 13 -1
q12 0 26 2.5t30 5.5t32.5 6t32.5 3q14 0 25 -2.5t22 -7.5q15 -8 25 -20z" />
    <glyph glyph-name="period" unicode="." horiz-adv-x="208" 
d="M181 168q23 -25 23 -64q0 -20 -6.5 -39t-19.5 -33q-23 -28 -60 -34q-4 -2 -7 -2h-10h-1h-1h-14q-5 0 -9 3q-19 3 -31.5 11t-20.5 16q-26 27 -24 65q0 20 7.5 39t21.5 34q11 11 30.5 22t51.5 11q27 0 44 -9t26 -20z" />
    <glyph glyph-name="slash" unicode="/" horiz-adv-x="405" 
d="M361 746q50 -27 44 -123q-2 -38 -10 -71t-12 -47q-11 -35 -23 -72.5t-23 -75.5l-18 -56t-17 -54q-5 -16 -10 -35t-10 -41q-11 -46 -24 -95t-33 -92q-11 -24 -23.5 -42.5t-26.5 -31.5q-35 -32 -77 -32q-29 0 -58 13q-31 14 -40 46q-15 51 35 149q20 41 46 82.5t51 79.5
q22 34 40 63t22 43q9 31 10.5 67t0.5 72q0 34 0.5 68t8.5 66q16 63 43 97t62 34q21 0 42 -12z" />
    <glyph glyph-name="zero" unicode="0" horiz-adv-x="559" 
d="M551 471q7 -80 -9 -153q-15 -75 -53 -143q-31 -57 -59 -93t-55 -55q-28 -19 -52 -22t-44 -3q-49 0 -96 30t-88 87q-35 50 -58 109.5t-28 117.5q-15 158 62 297q15 28 35 58t45.5 55t57.5 41.5t70 16.5q68 0 122 -33q24 -14 44.5 -35.5t37.5 -48.5q28 -44 45.5 -102
t22.5 -124zM356 462q1 59 -17 104q-8 20 -17 31t-17 11q-3 0 -12.5 -5t-24.5 -26q-11 -15 -20 -32.5t-16 -30.5l-7 -14q-9 -17 -17 -47t-10 -63.5t2.5 -66.5t21.5 -57q9 -14 16 -16t9 -2q23 0 53 39q14 18 24 37t13 31q8 27 13 54t6 53z" />
    <glyph glyph-name="one" unicode="1" horiz-adv-x="434" 
d="M391 266q16 -44 28.5 -91t1.5 -93q-8 -38 -43 -61q-30 -21 -70 -21q-41 0 -70 23v1q-43 37 -65 100q-17 51 -22 126q-3 62 2.5 124t12.5 113l-16 -10t-18 -10q-2 -2 -6 -4l-7.5 -3t-4.5 -2q-7 -2 -13.5 -3t-13.5 -1q-30 0 -51.5 17.5t-28.5 46.5q-13 45 2 75q14 28 56 49
q29 16 58 35.5t50 46.5l2 1q19 24 42 45.5t61 26.5h1q4 0 7.5 0.5t8.5 0.5q29 0 45 -11.5t24 -22.5q10 -16 13 -35.5t1 -40t-8 -40.5t-13 -36q-27 -63 -18 -144q4 -40 13.5 -78.5t20.5 -72.5q7 -24 18 -51z" />
    <glyph glyph-name="two" unicode="2" horiz-adv-x="565" 
d="M542 196q28 -56 22 -108q-3 -43 -26 -66q-20 -20 -54 -20q-31 0 -65 14t-60 28l-5 2q-39 19 -71 19q-31 0 -58 -17q-5 -3 -10 -6.5t-10 -6.5q-17 -13 -35.5 -23.5t-43.5 -10.5q-10 0 -22 3q-18 4 -33.5 10.5t-26.5 17.5q-24 21 -30 48q-7 31 7 64q7 16 18 30.5t26 25.5
q28 22 50 42.5t40.5 42.5t34 45.5t29.5 50.5q1 4 8 16q9 18 23.5 45.5t25.5 56.5q8 22 11.5 37t4.5 25t-0.5 15t-2.5 7t-4 4t-14 2h-1q-29 0 -46 -19t-33 -44q-14 -22 -30.5 -41t-42.5 -19q-29 0 -64 32q-58 52 -53 120q3 38 26 73.5t61 61.5q34 23 75 35t85 12
q85 0 151 -42q38 -23 59 -60q20 -34 23 -74q3 -38 -7 -77t-32 -74q-19 -30 -37 -60t-33 -56q-21 -35 -32.5 -57.5t-17.5 -36.5l20 15q14 11 18 13h1q20 11 43 11q32 0 67 -22q21 -15 39.5 -36.5t31.5 -47.5z" />
    <glyph glyph-name="three" unicode="3" horiz-adv-x="543" 
d="M516 352q21 -65 21 -114q2 -65 -34 -114q-46 -67 -114 -98q-56 -27 -127 -27q-48 0 -91.5 9.5t-78.5 20.5q-28 9 -53 36t-35 58q-14 46 13 79h1q19 24 57 24q20 0 40 -5.5t34 -9.5q19 -6 32.5 -9.5t27.5 -3.5q11 0 21 3t21 8q13 8 25 17.5t20 20.5q19 27 15 49
q-2 13 -8 17.5t-20 4.5q-11 0 -23 -2t-25 -5q-12 -2 -23 -4.5t-22 -2.5q-4 0 -5 1q-21 1 -36.5 9t-25.5 19.5t-15.5 25t-6.5 26.5v1q-3 42 38 77q17 14 37 25.5t40 22.5q19 10 35 19.5t26 18.5q6 5 14 16t15 23q8 16 9.5 25t0.5 12q-2 6 -19 4q-17 0 -31.5 -9.5t-30.5 -23.5
q-14 -13 -31 -25t-39 -17q-5 -2 -10 -2h-10q-43 0 -75 37q-17 21 -25 47.5t-3 51.5q14 73 97 105q54 21 118 21q62 0 114 -20.5t85 -58.5q12 -14 23 -32t18.5 -38.5t9.5 -42.5t-4 -43q-9 -35 -36.5 -63.5t-56.5 -51.5q17 -5 30 -10.5t24 -13.5q19 -14 30.5 -36.5t21.5 -51.5
z" />
    <glyph glyph-name="four" unicode="4" horiz-adv-x="626" 
d="M622 285q11 -47 -16 -80q-11 -14 -29 -20.5t-36 -11.5q-5 -2 -11.5 -3.5t-11.5 -3.5q0 -21 -3 -45.5t-11 -47.5q-9 -30 -27 -46q-21 -23 -51 -27q-6 -2 -11.5 -2h-10.5q-45 0 -72 31q-26 29 -32 85q-2 15 -2.5 29.5t0.5 27.5q-34 -9 -75 -16t-76 -7h-15q-21 2 -42 10
t-39 22q-17 14 -29.5 31.5t-17.5 37.5q-9 31 2.5 59t40.5 48q27 18 49 45.5t40.5 59.5t33.5 65.5t27 62.5l2 5q5 11 9 22.5t9 23.5q9 27 20 53.5t27 48.5q20 26 43 39q27 15 61 15q7 0 11 -1q70 -5 101 -58q12 -20 18 -47t8 -65q2 -35 1.5 -70t-2.5 -70q-1 -13 -1.5 -26
t-1.5 -26v-1q0 -8 -0.5 -17t-0.5 -18q23 -4 45 -15.5t39 -29.5q28 -29 37 -67zM322 349q9 41 15.5 82.5t5.5 82.5v11t-1 8q-2 -3 -4.5 -7.5t-4.5 -11.5q-6 -13 -14 -30t-16 -34.5l-16 -35t-15 -31.5q-6 -14 -11 -25t-7 -16l-2 -2q-5 -13 -7 -20q13 1 35 9.5t42 19.5z" />
    <glyph glyph-name="five" unicode="5" horiz-adv-x="528" 
d="M237 512q-1 -3 -1 -6q1 0 1.5 0.5t1.5 0.5l4 1q26 11 53 19t54 8q55 0 96 -44q36 -38 54 -93.5t13 -115.5q-6 -82 -41 -143q-31 -54 -81 -88q-26 -17 -53 -27.5t-51.5 -16t-46.5 -7.5t-37 -2q-65 0 -114 26q-58 32 -78 93q-14 49 7 84q19 32 56 39h1q5 1 8.5 1.5t8.5 0.5
q17 0 31 -4t28 -9q15 -6 30 -9t30 -3q35 0 59 16t35 45q10 31 -2 47q-11 16 -36 16q-11 0 -28 -5l-1 -1q-26 -9 -54 -17.5t-56 -8.5q-76 0 -98 80q-8 30 -1.5 49.5t15.5 37.5q3 5 5.5 10t4.5 10q11 26 10 54t-5 50q-2 5 -3 11t-3 13q-5 22 -9 48t-2 50q1 20 8 34t16 23.5
t20 14.5t22 7q16 3 33 3q20 0 38.5 -3t36.5 -7q17 -4 33.5 -7t32.5 -3h9q19 2 41 6q18 2 38.5 4.5t40.5 2.5q75 0 105 -46q17 -25 19 -56t-10 -57q-22 -48 -73 -54q-4 -1 -13 -1q-15 0 -34 3t-39 8q-23 4 -44.5 8t-39.5 4q-28 0 -37 -11q0 -1 -1 -3q-2 -3 -3 -12
q-1 -7 -1 -14.5v-15.5q-1 -11 -1 -20.5t-2 -17.5z" />
    <glyph glyph-name="six" unicode="6" horiz-adv-x="526" 
d="M275 584q-26 -20 -42 -48.5t-26 -58.5q11 10 23 17q55 35 107 35q27 0 51 -9q33 -14 56.5 -39.5t37.5 -58t21 -68t7 -68.5q3 -134 -70 -210q-39 -39 -91 -57q-23 -8 -47.5 -12t-50.5 -4q-33 0 -63.5 6.5t-51.5 19.5q-48 28 -80 82t-46 131q-10 59 -9 124t14 122
q12 57 40.5 111.5t69.5 98.5q42 46 94 74q57 31 115 35q8 1 16 1h16q91 0 132 -47q17 -21 21 -47t-5 -51q-9 -23 -27.5 -38.5t-42.5 -19.5q-18 -3 -39 -3q-8 0 -15 0.5t-15 0.5q-8 1 -14.5 1h-13.5q-17 0 -36 -3t-36 -17zM215 290q-5 -15 -6.5 -32t2.5 -32q2 -11 10 -25
t26 -14q9 0 22 5q41 19 55 46q8 14 9 27t-1 22q-5 23 -21 39t-36 16q-9 0 -21 -5q-17 -8 -25.5 -21.5t-13.5 -25.5z" />
    <glyph glyph-name="seven" unicode="7" horiz-adv-x="549" 
d="M457 501q11 -5 23.5 -14.5t19.5 -23.5q14 -27 -7 -54q-13 -17 -30 -21t-34 -4h-13h-12q-17 0 -22 -3.5t-7 -11.5q-9 -33 -11.5 -67.5t-3.5 -71.5q-2 -37 -4 -75t-13 -75q-12 -40 -47 -63q-32 -23 -72 -23q-32 0 -58 16t-40 45q-30 58 -7 130q9 31 24 59.5t32 55.5l6 10
t5 10q-41 0 -67 26q-30 31 -28 96q2 36 34 51q21 9 55 9q11 0 20.5 -0.5t17.5 -0.5q6 -1 11 -1.5t9 -0.5h1h2q23 0 31.5 8.5t19.5 30.5q2 5 5 9.5t6 10.5l3 3q11 19 13 24q-6 -2 -13.5 -6t-15.5 -8q-22 -12 -50.5 -25t-62.5 -13h-4q-51 2 -92.5 20.5t-63.5 50.5
q-33 47 -12 108q25 73 91 73q22 0 45 -7t46 -15q20 -8 38 -13.5t33 -5.5h4q10 1 27 6t37 12q33 11 68.5 21.5t66.5 10.5q29 0 49 -12q23 -13 31 -43q7 -27 1 -54t-19 -54t-30.5 -52.5t-34.5 -48.5q-5 -6 -8.5 -12t-7.5 -11l15 -6v0z" />
    <glyph glyph-name="eight" unicode="8" horiz-adv-x="501" 
d="M496 299q9 -70 -14 -137q-24 -69 -77 -109q-89 -66 -172 -66q-50 0 -94.5 23t-79.5 66q-29 35 -45.5 77t-16.5 80q0 59 44 103q14 14 31.5 26.5t34.5 23.5q-38 29 -58 84q-11 32 -14 67t3 66q14 73 63 128q27 29 59 46t67 22q8 1 14.5 1.5t13.5 0.5q71 0 126 -44
q25 -20 43 -46.5t27 -56.5q18 -60 0 -117q-15 -48 -53 -81q40 -24 65 -64.5t33 -92.5zM242 518q13 5 26 13.5t23 20t16 24.5t6 27q0 30 -11 37.5t-25 7.5q-8 0 -14 -1t-9 -2q-8 -2 -19.5 -9.5t-22.5 -27.5q-7 -15 -10.5 -31.5t-1.5 -30.5q3 -17 9 -24t16 -7q8 0 17 3z
M204 271q-21 -32 -15 -62q5 -17 18 -24.5t26 -7.5t25 6q37 17 54 39t12 46q-4 20 -20.5 33.5t-34.5 13.5q-8 0 -11 -1q-16 -6 -30 -17t-24 -26z" />
    <glyph glyph-name="nine" unicode="9" horiz-adv-x="492" 
d="M471 604q11 -42 13 -83t2 -70q0 -144 -32 -245q-48 -146 -161 -188q-45 -18 -98 -18q-61 0 -107 24q-54 26 -79 77q-11 22 -13 51.5t12 53.5q6 11 19 21.5t38 12.5q2 1 8 1q18 0 37 -6t39 -13q14 -5 28.5 -10t23.5 -5q49 0 74 52q10 20 16 52q-57 -48 -118 -48
q-41 0 -75 24q-34 23 -58 72q-43 89 -34 179q4 47 22 89.5t48 79.5q35 41 79 61q45 21 96 21q38 0 74.5 -13t65.5 -37q58 -49 80 -135zM183 515q5 -26 17.5 -42.5t23.5 -16.5q4 0 9 3q12 7 23.5 23t19 35.5t10.5 41.5t-2 41q-5 17 -12.5 20t-11.5 3q-9 0 -19 -3
q-25 -9 -38 -24t-18 -31t-4.5 -29.5t2.5 -20.5z" />
    <glyph glyph-name="colon" unicode=":" horiz-adv-x="211" 
d="M90 298q-20 0 -38 9t-32 26q-25 31 -25 71q0 41 26 67q10 11 29.5 20t51.5 9q4 0 23 -6t40.5 -18.5t38.5 -32t17 -45.5t-19 -45t-42.5 -31t-44.5 -18t-25 -6zM134 211q35 -5 55 -34t17 -71t-28 -72q-29 -35 -75 -35q-43 0 -74 28q-36 30 -36 73q0 11 9 30t42 45
q17 14 40 25.5t43 11.5q5 0 7 -1z" />
    <glyph glyph-name="semicolon" unicode=";" horiz-adv-x="302" 
d="M137 297q-31 0 -50.5 23.5t-19.5 60.5q0 21 7 41t20 36t32.5 26t44.5 10q44 0 73 -30q29 -29 29 -72q0 -19 -5.5 -31.5t-13.5 -20t-19 -12t-21 -7.5q-15 -4 -34 -12q-23 -12 -43 -12zM212 147q34 -11 46 -42q11 -27 5 -62q-6 -37 -28 -81.5t-54 -86.5q-8 -10 -22 -25.5
t-31.5 -30.5t-36.5 -25.5t-38 -10.5q-13 0 -25 6q-20 11 -24 32q-5 23 5 49q9 24 18 35q5 9 11.5 17.5t12.5 16.5q13 17 23.5 33t12.5 35q0 3 -0.5 9t-0.5 12q-1 12 -1.5 26.5t1 29t6 28t14.5 24.5q19 21 54 21q23 0 52 -10z" />
    <glyph glyph-name="equal" unicode="=" horiz-adv-x="580" 
d="M63 320q-11 5 -21 10.5t-19 14.5q-22 21 -22 55v1q2 38 38 55q25 11 61 11q11 0 21.5 -1t19.5 -3q37 -6 76 -6q35 0 69.5 4t69.5 9q46 8 94 12q5 1 9.5 1h9.5q37 0 63 -12q37 -16 42 -57v-1q2 -14 -6 -33t-37 -34q-17 -8 -36 -13t-34 -9q-2 -1 -5 -1t-5 -1
q-12 -3 -23.5 -6t-24.5 -6q-46 -11 -93 -21t-95 -10q-72 0 -129 29h-1q-5 4 -10.5 6.5t-11.5 5.5zM530 287q38 -21 43 -64q4 -28 -12 -46t-34 -28q-18 -11 -37.5 -17.5t-33.5 -10.5q-56 -16 -107 -20.5t-88 -4.5q-57 0 -105 7.5t-74 21.5l-3 1q-11 6 -24.5 13.5t-26 18
t-20.5 23.5t-8 29v1q3 32 35 46q21 8 50 8q12 0 22.5 -1t15.5 -2h1q24 -4 46 -6t42 -2q23 0 44 2.5t42 7.5q14 3 27 7t27 9q21 7 43.5 13.5t45.5 8.5q5 1 9.5 1h9.5q40 0 70 -16z" />
    <glyph glyph-name="question" unicode="?" horiz-adv-x="438" 
d="M249 217q23 0 38.5 -14.5t21.5 -40.5q4 -20 1.5 -43.5t-11 -46t-22 -40t-31.5 -25.5q-21 -8 -40 -8q-17 0 -32.5 5t-28.5 16q-29 23 -32 60v1q-2 23 7 44.5t29 41.5q16 15 35.5 27t40.5 19q6 2 12 3t12 1zM399 724q39 -56 34 -126q-2 -41 -19 -71t-37 -57
q-15 -21 -28 -42t-19 -46q-2 -10 -3 -19t-2 -20q-2 -24 -8 -49.5t-31 -46.5l-12 -9t-19.5 -11.5t-26 -10t-29.5 -4.5q-26 0 -43 13q-31 22 -34 62q-3 32 10 73q12 36 31 72t35 64q6 10 10.5 18.5t8.5 14.5v1l3 6q4 9 9.5 19.5t9.5 21t6 21t0 18.5q0 2 -2 4.5t-10 2.5
q-14 0 -22 -8q-9 -10 -14 -21.5t-10 -25.5l-10 -24t-14 -23q-22 -25 -58 -25q-73 2 -99 63q-8 21 -9.5 47t5.5 54q6 26 18 48.5t28 39.5q32 32 75.5 49t92.5 17q42 0 78 -13q67 -21 105 -77z" />
    <glyph glyph-name="at" unicode="@" horiz-adv-x="825" 
d="M817 483q4 -44 -2.5 -88t-22.5 -86q-17 -43 -43 -80t-60 -65q-13 -11 -30 -20.5t-36 -17.5q-9 -3 -17.5 -5.5t-17.5 -4.5q9 -5 17.5 -12.5t15.5 -17.5q14 -20 18 -42t-3 -43q-20 -65 -94 -95q-29 -13 -65.5 -19t-78.5 -6q-55 0 -109 10t-91 27q-59 28 -101.5 79.5
t-65.5 124.5q-20 60 -25 133q-2 32 0 65t7 65q11 71 41 138t77 123q51 61 113 99t132 51q21 4 42.5 6t41.5 2q72 0 132 -22q62 -21 110 -63q51 -44 80 -104t35 -132zM483 97q11 13 20 19q-18 5 -30 13q-11 6 -18.5 14t-14.5 18q-10 -10 -21.5 -18t-23.5 -15q-44 -25 -84 -25
q-50 0 -88 36q-45 41 -50 113q-5 59 18 120q21 63 64.5 114.5t101.5 84.5q13 7 29.5 15t35 14t38.5 10t39 4q74 0 100 -59q10 -22 12 -43.5t0 -43t-7.5 -42t-11.5 -39.5q-4 -14 -7.5 -26.5t-6.5 -25.5q-2 -8 -1 -12.5t2 -6.5h2q2 0 6.5 1.5t12.5 6.5q19 13 31 31t20 44
q0 1 1 1q24 69 23 117q-2 65 -42 98q-35 26 -79.5 38t-104.5 12h-12.5t-13.5 -1q-62 -3 -117 -37q-51 -32 -94 -89q-19 -27 -35 -58t-27 -63q-11 -33 -17 -66.5t-7 -65.5q-1 -51 10.5 -94.5t35.5 -76.5q52 -73 155 -84q6 0 11.5 -0.5t10.5 -0.5q44 0 75.5 16t57.5 51z
M382 292q18 8 31 23t22 31.5t15 32.5t9 26q0 1 0.5 2t0.5 3q7 20 -1 29q-6 9 -21 9q-13 0 -26 -7q-23 -17 -38 -44.5t-18 -62.5q-1 -37 8 -45q0 -2 4 -2q5 0 14 5z" />
    <glyph glyph-name="A" unicode="A" horiz-adv-x="563" 
d="M542 195q6 -16 12 -35t7.5 -38.5t-3 -40t-20.5 -39.5q0 -1 -1 -1q-18 -21 -43.5 -32.5t-51.5 -11.5q-14 0 -26 3h-1q-31 8 -51.5 24.5t-34.5 37t-22.5 44t-15.5 46.5q-5 17 -11 33q-1 0 -2 -0.5t-2 -0.5q-10 -4 -19.5 -7.5t-18.5 -8.5t-12.5 -8t-4.5 -4q2 -15 2.5 -32
t-2.5 -34q-6 -40 -32 -64q-28 -26 -68 -26h-3q-53 1 -85 39q-20 24 -28 56.5t-9 66t2.5 63.5t6.5 50q0 7 2 13q1 15 4.5 44.5t10.5 68t17.5 82.5t24.5 88q73 230 177 230q18 0 37 -8q31 -12 53.5 -40.5t40 -64t29.5 -75t22 -74.5q5 -16 9 -30.5t8 -25.5l18 -50t17 -50
q16 -47 32.5 -94t34.5 -94zM232 459q-3 15 -6 25t-5 15q-4 -6 -8.5 -22t-8.5 -49q-2 -25 -2.5 -50t-0.5 -43q23 11 41 24q0 5 -0.5 10.5t-0.5 11.5q-2 17 -3.5 37.5t-5.5 40.5z" />
    <glyph glyph-name="B" unicode="B" horiz-adv-x="559" 
d="M540 376q66 -180 -52 -277v-1q-60 -48 -136.5 -74t-162.5 -26h-15t-15 1q-21 1 -43.5 7t-43.5 16.5t-39 26t-29 36.5q-11 20 -13.5 50.5t20.5 70.5q15 24 22 55.5t8 71.5q0 36 -4 72.5t-9 70.5q-1 10 -2 19.5t-2 18.5q-15 118 0 183q18 82 84 99q1 0 1 0.5t1 0.5
q32 5 64 8.5t61 3.5q67 0 120 -15q65 -18 104 -55q25 -23 42.5 -60t9.5 -79q-5 -27 -22 -45t-35 -32q-5 -4 -9 -7.5t-8 -7.5q-4 -3 -7 -6t-6 -5q-6 -6 -9 -8q12 -5 30 -12q68 -27 95 -101zM265 320q-15 -7 -23 -13t-12.5 -14t-6 -19.5t-2.5 -27.5v-2q-2 -32 -1 -47t3 -20
q63 25 93 69q12 17 16.5 33t4.5 26q0 16 -6 22q-4 3 -9 4t-10 1q-22 0 -47 -12zM287 593q0 13 -4 18q-7 7 -26 7q-13 0 -25 -2.5t-19 -4.5q-1 0 -1 -0.5t-1 -0.5q-4 -1 -5.5 -2t-3.5 -2q-4 -6 -4.5 -15.5t0.5 -21t2.5 -23t3.5 -20.5q5 -22 5 -34q7 4 17.5 12.5t23.5 23.5
q16 18 25.5 35.5t11.5 29.5z" />
    <glyph glyph-name="C" unicode="C" horiz-adv-x="503" 
d="M389 332q14 0 32 -8t37 -35q13 -18 22.5 -42.5t14.5 -49t5 -47.5t-6 -39q-21 -62 -88 -96q-29 -15 -61.5 -22.5t-67.5 -7.5q-23 0 -44.5 3t-40.5 11q-56 20 -96 64q-36 39 -58 95q-24 58 -31 116.5t-7 101.5q3 104 44 204q22 52 52 96t67 76v1q33 28 73.5 43.5t82.5 15.5
q60 0 107.5 -31t70.5 -86q10 -25 12 -53q3 -35 -12 -57q-6 -9 -18.5 -18t-35.5 -10h-3q-24 0 -46 6.5t-42 14.5q-11 5 -20.5 8.5t-20.5 5.5h-1q-6 3 -13 3q-14 0 -26 -9.5t-21.5 -24t-17 -30.5t-12.5 -29q-15 -42 -23 -82t-10 -60q-2 -18 0 -42.5t9 -47.5t18.5 -39.5
t29.5 -18.5h2q14 0 28 17.5t27 35.5q11 17 22.5 32t25.5 24q20 11 40 11z" />
    <glyph glyph-name="D" unicode="D" horiz-adv-x="605" 
d="M617 439q7 -72 -19.5 -135t-73.5 -115t-109 -92t-126 -67q-9 -4 -24.5 -9.5t-34.5 -11t-40.5 -9.5t-43.5 -4q-26 0 -45 6t-32.5 15.5t-22 21t-12.5 22.5h-1q-10 24 -12 49t0 50.5t8 51t12 50.5q8 30 14 58.5t6 54.5q0 29 -8 60t-19 63q-8 26 -15.5 52t-10.5 52.5t-1 52.5
t14 52q24 53 77 82q47 26 106 26q17 0 33 -1.5t32 -6.5q149 -40 236 -125q97 -95 112 -243zM386 443q3 17 0.5 32.5t-8 28.5t-12 23t-12.5 17q-23 27 -53.5 44t-56.5 17h-2q-9 -2 -16 -10t-12 -19t-8 -23.5t-5 -24.5q-5 -34 -5 -68.5t2 -54.5v-8q0 -14 5 -31q2 -10 4.5 -19
t5.5 -18q8 -24 14 -49.5t1 -54.5q-2 -6 -2 -10v-7q4 2 11.5 6t20.5 13q28 21 50.5 45t39.5 49q38 57 38 118v4z" />
    <glyph glyph-name="E" unicode="E" horiz-adv-x="492" 
d="M494 137q10 -35 -0.5 -66.5t-39.5 -53.5v-1q-26 -18 -57 -18q-14 0 -28 3t-28 7q-11 3 -21.5 5.5t-20.5 2.5q-3 1 -8 1q-14 0 -29 -2.5t-31 -6.5q-15 -3 -31 -6t-32 -4h-7q-65 0 -109 46q-26 28 -40 66t-12 79q1 23 7 42.5t13 37.5q5 13 9.5 25t6.5 25q6 38 1.5 76
t-12.5 69q-25 109 -16 183q7 65 47 111q33 40 95 40q16 0 31.5 -2t29.5 -4l6 -1q22 -3 48 -3q16 0 32 1t33 2h2h1q8 1 15.5 1.5t15.5 0.5q18 0 42.5 -4t44.5 -21q27 -24 30 -65q2 -41 -22 -68q-21 -23 -50 -28t-51 -5q-11 0 -21 0.5t-20 0.5q-6 1 -12 1h-11h-1q-6 1 -12 1.5
t-14 1.5l-16 2t-16 1q-16 0 -23 -4t-10 -8q-7 -10 -8.5 -23.5t0 -29t5.5 -32t9 -32.5q2 -7 3.5 -13.5t3.5 -13.5q13 9 30 21q23 16 46.5 29t51.5 13h11t10 -2q18 -4 32.5 -16t22.5 -29q9 -18 9 -38.5t-8 -37.5q-14 -31 -44 -51.5t-57 -33.5q-26 -11 -55.5 -20t-56.5 -13
q-2 -6 -2 -9q-6 -18 -9 -36q-3 -19 -2 -23q0 -4 2 -6q1 -1 6 -1q14 0 34.5 8t40.5 17q23 10 43.5 18t37.5 8q5 0 8 -1q44 -6 80 -39q17 -16 29 -35.5t18 -39.5z" />
    <glyph glyph-name="F" unicode="F" horiz-adv-x="482" 
d="M480 729q6 -23 4.5 -46.5t-11.5 -43.5q-11 -21 -29 -29q-16 -8 -36 -8q-15 0 -31 3t-30 7q-10 2 -18.5 4t-16.5 3h-17q-29 0 -51 -7t-33 -21t-10 -33.5t5 -42.5v-2q24 19 52 33t57 14q23 0 40 -10.5t24 -28.5q14 -40 0.5 -78t-52.5 -68h-1q-10 -7 -20.5 -12t-21.5 -10
q-29 -13 -43 -24.5t-14 -40.5v-19q0 -35 -1.5 -78t-12.5 -83q-14 -45 -39 -72q-31 -32 -80 -37q-4 -1 -7.5 -1h-6.5q-29 0 -44.5 10t-23.5 21q-27 37 -12 116q5 31 14 59t16 47l3 9q24 71 17 157q-3 41 -11.5 81.5t-17.5 80.5l-1 4q-14 69 -8 115q3 24 11 41t18.5 28.5
t22.5 17.5t23 9q25 7 65 7h22.5t22.5 -1t21 -1.5t21 -0.5q10 0 18 0.5t16 1.5q8 2 15.5 3t15.5 3q15 2 30.5 5t31.5 3q32 0 58 -14q20 -10 34.5 -28.5t21.5 -42.5z" />
    <glyph glyph-name="G" unicode="G" horiz-adv-x="651" 
d="M647 178q9 -84 -34 -133q-48 -53 -155 -53q-36 0 -79 6t-92 19h-3l-16 5q-48 12 -84 30q-57 28 -100.5 83.5t-66.5 128.5q-11 35 -16 70t-4 70q1 72 29 132q26 56 64.5 104t85.5 83q51 38 106.5 58t112.5 20q53 0 101 -16q17 -5 39 -19.5t42 -32.5q18 -16 34.5 -39
t15.5 -47q0 -21 -18 -37q-18 -14 -44 -20q-11 -2 -21.5 -3t-21.5 -1q-19 0 -36.5 2.5t-34.5 5.5q-16 3 -30.5 5t-28.5 2q-40 0 -75 -25q-22 -20 -41.5 -45.5t-33.5 -53.5q-17 -31 -25.5 -61.5t-7.5 -58.5q0 -67 49 -110q6 -5 19 -11t30.5 -11t38 -8.5t40.5 -3.5q47 0 57 18
q2 3 4 14.5t0 34.5q-1 19 -4 33.5t-6 19.5q0 1 -1 1q-3 0 -10 -2t-21 -10h-1q-18 -9 -38 -17t-40 -8q-8 0 -17.5 2t-19 9t-17.5 20t-11 35q-10 63 43 109q22 18 48.5 31t47.5 22h1q64 27 111 27q88 0 115 -84q16 -45 18 -92.5t1 -95.5q-1 -27 -1 -52.5t2 -49.5z" />
    <glyph glyph-name="H" unicode="H" horiz-adv-x="517" 
d="M516 154q10 -28 5 -59.5t-23 -56.5q-31 -42 -76 -42q-16 0 -32 6q-37 13 -61 45.5t-39 73t-23 84t-14 79.5h-1q-7 -2 -17 -5t-19.5 -6.5t-15.5 -8t-6 -9.5q4 -20 11.5 -38t16.5 -38q3 -9 8 -19q31 -77 12 -113q-10 -22 -30 -30.5t-40 -14.5q-2 0 -3 -0.5t-3 -0.5
q-1 0 -1 -0.5t-1 -0.5q-4 -1 -7.5 -1h-6.5q-45 0 -78 51q-14 20 -24.5 46.5t-19.5 61.5q-17 66 -24.5 135.5t-8.5 120.5v34q-2 39 -2.5 93.5t7.5 106.5q9 60 28 95q25 45 70 50q32 3 54 -21q16 -18 23.5 -46.5t9 -62.5t-0.5 -70t-5 -67q-1 -10 -1.5 -20t-0.5 -18
q13 4 26.5 8.5t28.5 12.5q7 3 8.5 4.5t1.5 2.5v5.5t-1 8.5q0 4 -0.5 8.5t-0.5 10.5v24q0 29 0.5 58.5t8.5 58.5q4 15 13 30.5t21 27.5t27 19.5t31 7.5q11 0 28.5 -7.5t30.5 -34.5q14 -29 22 -60.5t12.5 -65t6 -67.5t2.5 -68q2 -38 3.5 -73t6.5 -67q5 -30 15 -56t21 -52
q16 -34 27 -70z" />
    <glyph glyph-name="I" unicode="I" horiz-adv-x="285" 
d="M240 261q10 -23 20.5 -47.5t16 -50.5t2.5 -52t-18 -50q-38 -61 -91 -61q-32 0 -68 25q-14 11 -25 22t-18 20q-40 48 -54 121q-12 62 -5 138q7 72 24.5 141t32.5 123q2 5 3.5 11t3.5 13q7 25 15.5 53.5t21.5 54.5t31.5 47t44.5 31q17 7 34 7q29 0 47 -23q16 -19 19 -51
q3 -27 -3 -52q-7 -28 -15.5 -54t-16.5 -51q-12 -36 -22.5 -70.5t-14.5 -69.5t0.5 -71t21.5 -76q3 -7 6 -13.5t7 -14.5z" />
    <glyph glyph-name="J" unicode="J" horiz-adv-x="435" 
d="M442 717q1 -23 -4 -46t-11 -42q-7 -23 -15.5 -45t-16.5 -43q-17 -44 -31 -86.5t-13 -93.5q0 -11 0.5 -22.5t0.5 -23.5q1 -35 1.5 -73t-4.5 -74t-16.5 -68t-34.5 -56q-43 -43 -115 -43q-52 0 -90 13q-52 19 -75 59q-12 20 -18.5 50t1.5 58q9 33 38 48q16 7 29 7
q17 0 32.5 -6t29.5 -13q10 -5 19.5 -8.5t15.5 -3.5q2 0 5 1.5t6 11.5q14 35 12.5 77t-4.5 81l-1 7q-6 82 9 167.5t49 157.5q7 16 18.5 33t26 30.5t32.5 22t38 8.5q14 0 31 -5q18 -7 35.5 -24.5t19.5 -55.5z" />
    <glyph glyph-name="K" unicode="K" horiz-adv-x="582" 
d="M394 482q109 -71 154 -267q4 -17 7 -40t2.5 -47.5t-6 -48.5t-20.5 -43q-28 -35 -79 -37h-4q-32 0 -58 20q-21 18 -34 45q-12 25 -17.5 52.5t-9.5 50.5l-1 4q-5 29 -12 56.5t-20 47.5q-20 32 -60 41q4 -53 1 -109t-20 -109q-12 -40 -45 -68q-33 -30 -74 -30q-43 0 -76 36
v1q-40 43 -26 123q5 32 16 61.5t21 54.5q2 4 2.5 7t2.5 6q2 5 4 10.5t4 10.5q10 23 17.5 46t10.5 48q1 19 -0.5 46.5t-5 55.5t-7.5 52.5t-7 37.5q-2 4 -2 7q-1 2 -1 4t-0.5 4t-0.5 4q-5 35 -5.5 75.5t22.5 74.5q12 18 30 28t38 10q36 0 57 -29q15 -20 23 -44t12.5 -49.5
t6 -52t1.5 -51.5q27 22 47.5 50.5t40.5 59.5q5 8 10.5 16.5t11.5 16.5q26 39 54 64q39 35 83 35h9.5t9.5 -1q34 -7 50 -24t22 -33q6 -17 6.5 -35t-4 -36t-12.5 -34.5t-18 -29.5q-22 -29 -49 -54t-54 -48q-12 -10 -24.5 -20.5t-23.5 -21.5z" />
    <glyph glyph-name="L" unicode="L" horiz-adv-x="524" 
d="M499 193q20 -32 22 -66t-14 -63q-17 -31 -48.5 -49t-69.5 -18q-5 0 -11 0.5t-11 1.5q-16 2 -30 5l-28 6q-22 5 -42.5 8.5t-42.5 3.5q-17 0 -33 -3h-1q-9 -2 -18.5 -4t-20.5 -4q-17 -5 -35.5 -8t-37.5 -3q-7 0 -13.5 0.5t-13.5 1.5q-38 9 -52 38q-11 19 -10.5 44t7 52.5
t17 55t21.5 53.5q7 17 13 32.5t8 24.5v2q9 29 10.5 56.5t-1.5 54t-10 53t-14 53.5q-8 29 -15 58t-10 61q-2 18 0 37.5t8 38t15.5 36t21.5 30.5q30 33 65 33q40 0 75 -41h1q49 -58 58 -163q4 -44 1 -87.5t-7 -80.5v-1q-6 -92 -32 -167q-2 -5 -4 -9.5t-4 -9.5q-2 -6 -6.5 -16
t-6.5 -18q3 0 4 1q14 4 26 9.5t25 11.5q24 11 49.5 21t55.5 10h10q38 -3 75 -26q16 -11 29.5 -25t24.5 -31z" />
    <glyph glyph-name="M" unicode="M" horiz-adv-x="775" 
d="M769 152q5 -27 -2.5 -54.5t-26.5 -50.5q-37 -45 -89 -45q-35 0 -66 26q-48 42 -63 119q-7 30 -7 64t5 67q2 13 4 24t4 21q5 20 7.5 37t0.5 40q-1 2 -1 4.5t-1 4.5q-3 -9 -6 -18.5t-6 -18.5q-14 -45 -26.5 -90t-19.5 -90q0 -2 -0.5 -5t-0.5 -5q-3 -21 -6.5 -44t-13.5 -44
q-24 -53 -79 -59h-2q-42 0 -75 67q-11 25 -20 52t-14 47q-2 6 -3.5 11t-3.5 9q-15 48 -25.5 89t-17.5 79q-1 5 -1.5 11t-2.5 14q-1 11 -2.5 25t-4.5 26q-2 4 -4 12q-2 -9 -3 -21q-1 -14 -1 -25v-13q3 -23 8 -54.5t13 -62.5q8 -32 14.5 -67.5t5.5 -70.5q-3 -82 -48 -137v-1
q-29 -35 -71 -35q-43 0 -81 36q-17 17 -27.5 37t-12.5 42q-6 42 5 80t25 74l11.5 34.5t10.5 33.5v1q9 31 11.5 69.5t1.5 76t-4 70t-5 51.5q-1 4 -1 7.5v6.5q-6 54 4 95.5t34 67.5q39 43 107 43q8 0 16.5 -0.5t16.5 -1.5q45 -8 66 -53q8 -17 12.5 -36.5t7.5 -37.5q1 -7 2 -13
t2 -11l2 -9q4 -20 9.5 -44t12 -48.5t15 -48t18.5 -42.5q14 23 22 55.5t14 60.5q2 9 4 17.5t4 16.5t3.5 17t3.5 18q6 29 13.5 58.5t24.5 52.5q18 26 42.5 33t50.5 7h14h14h1q56 -2 92 -41q31 -35 39 -89q6 -38 3 -75.5t-8 -74.5q-3 -26 -5.5 -51.5t-2.5 -50.5q2 -45 12 -84
t23 -80q8 -26 15.5 -52.5t12.5 -55.5z" />
    <glyph glyph-name="N" unicode="N" horiz-adv-x="655" 
d="M619 564q-11 -26 -19 -50.5t-11 -49.5q-5 -53 -2 -104.5t8 -105.5v-2q2 -17 2.5 -46.5t-3.5 -62.5t-13.5 -64.5t-28.5 -51.5q-23 -27 -57 -27q-30 0 -70 26q-94 62 -163 252q-6 16 -9.5 33t-7.5 34q-5 24 -10 46t-15 41q3 -25 4.5 -49t3.5 -49v-1q2 -37 1.5 -75.5
t-1.5 -73.5q-2 -73 -22 -117q-22 -52 -69 -66q-6 -6 -15 -6h-4t-23 2l-1 1q-10 1 -16.5 1.5t-11.5 0.5q-2 0 -3.5 0.5t-2.5 0.5h-2q-15 2 -17 16q-12 8 -22 23q-12 20 -15.5 45t-1 51.5t9 52.5t13.5 49v1q19 57 25.5 111t2.5 114q-1 0 -1 1q0 20 -2.5 40t-5.5 40
q-4 23 -7 47t-3 48q0 29 10.5 59.5t29.5 56.5q20 28 46 43t52 15q32 0 54 -16.5t36 -33.5q26 -33 42.5 -73.5t30.5 -82.5q15 -45 32 -86.5t45 -70.5q3 17 2.5 35t-2.5 37q-2 16 -3 31.5t0 31.5q3 90 37 149q18 31 49.5 50t64.5 19q15 0 30 -5t28 -16t21.5 -29t10.5 -44
q4 -38 -7 -74.5t-24 -71.5z" />
    <glyph glyph-name="O" unicode="O" horiz-adv-x="620" 
d="M606 443q2 -119 -39 -215q-33 -81 -92 -140q-41 -41 -88 -66q-42 -22 -70 -22h-4q-65 5 -117 29q-50 24 -88 67q-35 39 -59 90.5t-35 113.5q-14 74 -6 153q7 78 35 148q28 72 74 126q51 59 114 85q46 19 87 19q60 0 115 -36t97 -103q35 -56 55.5 -122.5t20.5 -126.5z
M397 337q8 38 8.5 78t-1.5 69q-1 11 -5.5 41.5t-18.5 61.5q-22 55 -56 55q-16 0 -37 -12q-40 -22 -63 -101q-9 -34 -12.5 -64t-4.5 -44q0 -24 4.5 -58t15 -65.5t27 -53.5t40.5 -22q12 0 30 8q55 25 73 107z" />
    <glyph glyph-name="P" unicode="P" horiz-adv-x="570" 
d="M559 625q11 -48 2 -102q-6 -32 -25.5 -58t-46 -48t-57 -41t-59.5 -35q-13 -8 -24.5 -14.5t-21.5 -13.5q-38 -24 -74 -41q1 -6 1.5 -11.5t1.5 -11.5q3 -27 3.5 -52.5t-2.5 -49.5q-3 -20 -10.5 -47.5t-25.5 -51.5q-35 -49 -97 -49h-4q-67 3 -92 40q-22 31 -15 87
q3 22 9.5 44.5t12.5 43.5q3 8 5.5 15.5t4.5 14.5q10 37 11 74.5t-2.5 76t-11.5 76.5l-16 76l-3 11q-24 110 -2 170q12 32 38 53q23 19 61 28q1 0 1 1q41 7 91 7q45 0 87.5 -6.5t80.5 -18.5q90 -30 138 -87q30 -37 41 -80zM299 516q38 41 28 81q-1 5 -5 13.5t-11 16.5t-18 14
t-26 6q-26 0 -57 -18q0 -5 4 -20q2 -9 5.5 -18.5t6.5 -18.5q3 -8 5 -14.5t4 -11.5q3 -17 4 -33.5t2 -33.5v-5q35 19 58 42z" />
    <glyph glyph-name="Q" unicode="Q" horiz-adv-x="655" 
d="M728 128q5 -42 -18 -77q-26 -38 -74 -49q-23 -5 -41 -5q-24 0 -43 5.5t-36 11.5q-14 5 -26.5 9t-26.5 4q-22 0 -43 -11h-1q-36 -14 -62 -17t-30 -3q-75 0 -137 32t-107 93q-30 42 -50 93.5t-28 109.5q-8 56 -3.5 111.5t19.5 105.5q18 55 49 103.5t73 86.5t91 59
q50 22 105 22q88 0 168 -62q60 -48 98 -124q34 -73 40 -152q3 -35 1 -82t-18 -95q-4 -14 -14 -32q-4 -8 -7.5 -16t-5.5 -15q-2 -6 -2.5 -9t-0.5 -5q1 0 3 -0.5t5 -0.5h5q4 1 11 1q25 0 44 -8t32 -21t20.5 -29.5t9.5 -33.5zM268 354q28 45 67 45q22 0 41.5 -12.5t38.5 -27.5
q4 -3 7.5 -6t7.5 -5q5 27 5.5 56.5t-3.5 59.5q-5 40 -16 74t-28 60q-24 35 -49 35q-23 0 -56 -31q-14 -14 -23.5 -27t-14.5 -19q0 -2 -2 -4q-25 -55 -30 -122t10 -136q5 -20 14.5 -39.5t22.5 -34.5q11 -12 26.5 -23.5t35.5 -11.5q5 0 13 2l-5 5q-16 15 -32 32t-27 36
q-30 52 -3 94z" />
    <glyph glyph-name="R" unicode="R" horiz-adv-x="560" 
d="M555 175q5 -15 7.5 -33t1 -37t-7 -37.5t-15.5 -33.5q-24 -36 -68 -36h-8.5t-8.5 1q-43 7 -80 55q-15 20 -28 43.5t-25 47.5q-12 23 -23.5 43.5t-24.5 37.5q-22 28 -44 30q18 -118 -13 -190q-14 -32 -47 -50q-29 -17 -64 -17q-36 0 -61 18q-30 20 -36 58q-7 34 1 64.5
t19 59.5q7 17 12.5 33.5t7.5 33.5q7 51 0.5 102.5t-15.5 98.5q-2 9 -3 18t-3 17q-11 60 -18 108t-2 84q6 42 30 66.5t69 34.5q26 6 52.5 9.5t53.5 3.5q38 0 73.5 -6.5t67.5 -18.5q73 -29 116 -85q57 -74 45 -159q-9 -49 -41 -97q-25 -34 -59 -61q20 -19 38.5 -40t35.5 -45
q42 -59 65 -121zM191 613q-2 -3 -4.5 -15.5t2.5 -42.5q4 -22 10 -44.5t12 -42.5q2 -5 3 -9.5t3 -9.5q14 3 26 13t22 22.5t18 25.5t14 22q2 4 4 7.5t4 5.5q7 11 6.5 17t-2.5 11q-9 17 -44 31q-14 5 -30.5 8.5t-30.5 3.5h-5h-1q-7 0 -7 -3z" />
    <glyph glyph-name="S" unicode="S" horiz-adv-x="515" 
d="M516 227q2 -44 -13.5 -82.5t-44.5 -68.5q-38 -38 -90 -57q-25 -10 -52 -14.5t-54 -4.5q-17 0 -33.5 1.5t-32.5 5.5q-27 6 -52.5 16.5t-46.5 25.5q-47 32 -72 84q-14 31 -17 60q-5 36 9 62q6 12 20.5 24.5t42.5 17.5q5 1 9 1.5t9 0.5q32 0 52 -17.5t37 -36.5
q14 -15 26.5 -27t29.5 -14h8q11 0 19 4t13 9.5t7.5 10.5t3.5 8q4 13 0.5 30t-20.5 29q-21 14 -47 24.5t-52 20.5q-35 12 -69 27t-60 40q-56 58 -40 165q1 48 26 96q21 43 61 77q39 34 86.5 52t95.5 18q39 0 74 -12q24 -8 45.5 -22t38.5 -31q36 -37 51 -85q3 -9 7 -23.5
t5.5 -30.5t-0.5 -32.5t-10 -28.5q-14 -21 -42 -23q-8 -1 -14 -1.5t-12 -0.5q-20 0 -45.5 6t-46.5 30l-9 12q-14 16 -27 28t-30 12h-6q-22 -5 -34 -21.5t-14 -33.5q-1 -8 3 -21t24 -21h1q11 -5 22.5 -8.5t22.5 -8.5q47 -17 89 -35t74 -47q38 -33 55.5 -79t18.5 -111z" />
    <glyph glyph-name="T" unicode="T" horiz-adv-x="558" 
d="M548 701q20 -47 -8 -88q-17 -25 -42.5 -41t-47.5 -24q-24 -9 -50 -14.5t-49 -6.5q8 -38 13.5 -95t6.5 -119q0 -86 -12 -150q-14 -80 -45 -120q-34 -46 -87 -46q-9 0 -18 1.5t-19 3.5q-36 9 -53 40q-11 19 -13 44t2 52t11.5 54t15.5 51q4 14 7 25t5 19q8 35 9 70t2 73v14
q1 30 1 48.5t-3 26.5q-1 5 -5 8t-18 11q-1 1 -5 3l-6 4t-7 4q-18 11 -41 25t-44 31q-53 44 -59 85q-5 40 28 73q26 29 71 29q29 0 59.5 -10.5t59.5 -23.5q23 -10 42.5 -17.5t35.5 -9.5h1q7 -1 14 -1h14q28 0 54 4.5t55 11.5l7 2q22 5 37 5q62 0 81 -52z" />
    <glyph glyph-name="U" unicode="U" horiz-adv-x="627" 
d="M620 752q11 -23 13.5 -44.5t-0.5 -41.5t-10 -39t-14 -37q-9 -22 -16 -43t-8 -43q3 -31 4 -74t0.5 -84t-1.5 -72.5t-2 -37.5q-3 -27 -11.5 -52.5t-21.5 -48.5q-24 -43 -66 -77q-39 -31 -87.5 -47t-99.5 -16q-42 0 -81.5 10.5t-74.5 31.5q-60 37 -88 112q-22 59 -26 136
q-2 69 -8.5 137.5t-13.5 135.5q-2 10 -2.5 19t-1.5 18q-2 13 -2.5 35t2.5 47t12 50t26 45q33 40 87 41q3 1 7 1q42 0 72 -32q14 -15 23.5 -35.5t14.5 -43t6.5 -44.5t0.5 -41q-2 -29 -5.5 -56.5t-8.5 -54.5q-6 -43 -11 -84t-4 -83q1 -33 7 -65.5t26 -49.5q10 -10 28 -10
q17 0 35.5 8.5t29.5 22.5q19 22 26.5 51.5t8 61.5t-4 66t-9.5 67q-3 21 -6 40.5t-4 38.5h-1q-2 24 -1.5 50.5t5 52.5t14.5 50.5t28 44.5q20 22 48 34t60 12q34 0 61 -15q30 -17 45 -48z" />
    <glyph glyph-name="V" unicode="V" horiz-adv-x="640" 
d="M632 757q26 -53 4 -145q-9 -38 -22 -71.5t-24 -53.5q-32 -60 -55.5 -112t-40.5 -109q-5 -15 -8.5 -30.5t-7.5 -32.5q-9 -38 -20 -76.5t-31 -73.5q-15 -28 -42 -43.5t-60 -15.5q-52 0 -91 36q-33 32 -46 71.5t-22 79.5q-4 17 -7.5 32t-8.5 30q-21 61 -40 113.5t-40 102.5
q-5 11 -9.5 22t-9.5 22q-13 28 -24.5 56.5t-18.5 60.5q-3 15 -5 35t0 42t10 43t26 38q34 34 79 34q31 0 57 -17q13 -8 23.5 -20.5t17.5 -28.5q18 -37 28.5 -80.5t18.5 -87.5q4 -17 7 -32.5t6 -29.5q5 -20 8.5 -40.5t6.5 -40.5q3 -23 6.5 -44t8.5 -41q3 -12 6 -17t4 -7
q4 2 10 11t11 26q8 29 14.5 59t13.5 59q5 23 10.5 47.5t12.5 48.5q16 67 28.5 108t27.5 68q17 30 40.5 43.5t57.5 13.5h14h2q53 -9 74 -53z" />
    <glyph glyph-name="W" unicode="W" horiz-adv-x="797" 
d="M799 668q2 -28 -1.5 -56.5t-11.5 -51.5q-9 -24 -19 -45.5t-20 -41.5q-22 -44 -36.5 -84.5t-8.5 -90.5q2 -13 4.5 -25.5t4.5 -26.5q8 -35 12.5 -71.5t-6.5 -72.5q-5 -20 -18.5 -38.5t-32.5 -33.5q-20 -15 -42 -23.5t-43 -8.5q-38 0 -66 25q-17 15 -28 35.5t-17.5 44.5
t-10.5 49.5t-7 49.5q-3 23 -6.5 44t-8.5 37q-13 39 -24.5 57.5t-19.5 25.5q-4 -3 -9 -9.5t-12 -18.5q-8 -14 -13.5 -25l-7.5 -15q-5 -17 -6 -34t-1 -36q0 -18 -0.5 -36t-5.5 -37l-2 -12t-3 -12q-5 -29 -13.5 -57.5t-28.5 -48.5q-15 -17 -37 -25.5t-48 -8.5q-42 0 -77.5 21
t-49.5 53q-11 24 -15 51t-4 55.5t2 57t5 54.5q2 24 4 44t0 32v1q-2 44 -12.5 84t-23.5 82q-6 20 -11.5 39.5t-10.5 39.5q-15 56 -7 102q11 58 57 91h1q32 23 70 23q23 0 46.5 -10t43.5 -27q18 -17 31.5 -38t16.5 -43q4 -32 0.5 -64.5t-10 -65t-14 -64.5t-10.5 -62
q-2 -11 -3.5 -21t-3.5 -21q-5 -29 -8.5 -57.5t-1.5 -54.5q0 -2 0.5 -4.5t0.5 -4.5l3 6q10 22 14 47.5t7 52.5t6.5 54.5t12.5 51.5q12 31 19.5 71.5t20.5 75.5t35.5 59.5t64.5 24.5q47 0 80 -42q12 -15 21 -34.5t13 -39.5v-2q2 -17 6 -38.5t9.5 -43t11.5 -40t12 -30.5
q4 25 1.5 52.5t-6 55.5t-6 56.5t0 55.5t12.5 51.5t33 45.5q37 35 83 35q42 0 78 -33q14 -12 27.5 -37.5t17.5 -70.5z" />
    <glyph glyph-name="X" unicode="X" horiz-adv-x="595" 
d="M556 227q19 -35 22 -73q3 -42 -17 -85h-1q-15 -32 -40.5 -49.5t-56.5 -17.5q-56 0 -89 53q-20 31 -33.5 67t-25.5 72q-5 14 -9.5 27t-9.5 26q-3 -10 -6.5 -20.5t-6.5 -21.5q-12 -39 -26 -77.5t-37 -67.5q-18 -24 -52 -40.5t-67 -16.5q-64 0 -83 58h-1q-15 46 3 102
q13 45 49 98q19 27 39 50t39 41.5t34 31.5t23 20q-2 3 -4.5 8t-10.5 14q-9 11 -20 23t-24 26q-26 26 -53 56.5t-47 62.5q-51 78 -27 139q12 31 38.5 49t59.5 18q31 0 58 -15t43 -41q14 -23 23.5 -47.5t17.5 -48.5q8 -23 17 -45.5t22 -43.5q7 17 13.5 38.5t12.5 42.5
q7 26 14.5 51.5t17.5 45.5q8 16 19.5 32t26 28.5t32 20t37.5 7.5q28 0 52 -15q61 -37 67 -84q3 -20 -3 -40t-18 -40t-29 -40t-35 -41q-32 -35 -60 -72t-38 -77q-2 -6 3 -15t13.5 -19t19 -21.5t21.5 -21.5q25 -24 50.5 -51.5t42.5 -60.5z" />
    <glyph glyph-name="Y" unicode="Y" horiz-adv-x="657" 
d="M653 724q1 -23 -9.5 -46t-28 -46t-40.5 -45t-45 -43q-19 -18 -36.5 -35.5t-22.5 -28.5q-12 -23 -25.5 -49.5t-23.5 -55.5q-22 -62 -13 -104q2 -9 4.5 -17.5t4.5 -16.5q8 -25 13 -51t3 -56v-1q-5 -38 -18 -66q-17 -35 -52 -52q-30 -13 -60 -13q-35 0 -60 17t-37 37
q-10 16 -13.5 32.5t-3 33.5t3.5 34l6 34q5 25 8.5 48t-2.5 44q-11 35 -32.5 67.5t-45.5 64.5l-24 33q-1 0 -1 1l-4 6q-13 22 -31.5 56.5t-35.5 74.5q-40 100 -20 159q17 44 62 60q15 5 26 5q27 0 49 -18.5t39 -45.5t29 -57t21 -53q3 -9 6 -15v-1q2 -4 3 -8t3 -9
q9 -24 18.5 -48t23.5 -44q5 -8 8 -10t4 -3q2 1 5.5 5t9.5 17q5 11 9 22.5t6 17.5q8 26 28 67t49 82q31 43 65 69q41 31 81 31q30 0 57 -18q36 -25 39 -62z" />
    <glyph glyph-name="Z" unicode="Z" horiz-adv-x="562" 
d="M520 215q18 -23 28.5 -52.5t10.5 -58.5q0 -44 -23 -73q-27 -33 -73 -33q-5 0 -10.5 0.5t-11.5 1.5q-23 4 -44.5 12.5t-41.5 17.5q-23 11 -45 19.5t-45 8.5h-8q-17 -1 -32.5 -9t-32.5 -18q-19 -11 -38.5 -21t-42.5 -10q-18 0 -33 6v1q-61 25 -75 78q-12 52 23 121
q15 29 34 55t34 44q38 50 77 106.5t87 129.5q1 2 2 3.5t2 3.5q6 9 11.5 18t10.5 18q2 2 2.5 4t2.5 4q-4 -2 -8.5 -3.5t-9.5 -3.5q-3 -2 -5.5 -2.5t-5.5 -2.5q-28 -13 -58.5 -25t-61.5 -12q-59 0 -92 51q-9 13 -15 30t-9 36q-2 14 -2.5 33.5t6.5 40.5q15 45 56 60q8 3 16 4
t16 1q17 0 33 -5t31 -11l12 -4t11 -4h1q24 -8 48 -8q23 0 49 6q5 2 10 3t10 3q26 6 55.5 12.5t59.5 6.5q58 0 86 -31q7 -8 13.5 -18.5t10 -25t2.5 -33t-8 -40.5q-11 -31 -27.5 -57t-27.5 -40t-22.5 -27t-22.5 -26q-25 -29 -48.5 -58t-44.5 -61q-8 -12 -21 -30
q-11 -17 -24 -36t-24 -38q-8 -14 -11.5 -24.5t-5.5 -17.5q15 3 36.5 9t41.5 11q28 8 45 12t25 5h1q67 0 110 -57z" />
    <glyph glyph-name="bracketleft" unicode="[" horiz-adv-x="417" 
d="M396 731q22 -25 16 -61v-1q-15 -78 -95 -78q-15 0 -34 3t-35 9q-10 3 -18.5 5.5t-16.5 2.5h-1q-2 -5 -0.5 -14t2.5 -14q3 -12 3 -21q0 -35 -1.5 -70t-3.5 -69q-1 -13 -1.5 -26t-1.5 -27q-2 -67 -17 -124t-34 -116q-1 -1 -1 -4q9 3 19 5q6 2 10 3t7 1h11q37 0 73 -17l1 -1
q20 -11 34.5 -28.5t19.5 -37.5q9 -35 -11 -67q-26 -41 -89 -41q-23 0 -46 5t-41 10h-1q-29 8 -61 22t-56 39v1q-26 29 -21 74q2 18 7.5 36t10.5 35q3 8 5.5 15t4.5 14q2 8 4 15t4 15q11 40 21 78.5t12 80.5q1 35 1 69.5v69.5v47v2q-1 29 0.5 59.5t10.5 58.5q21 70 94 82
q14 2 32 3.5t36 1.5q19 0 40 -2t41 -7t37 -13.5t29 -22.5z" />
    <glyph glyph-name="backslash" unicode="\" horiz-adv-x="410" 
d="M321 205q18 -24 35.5 -49t30 -49t19 -47t3.5 -44q-5 -33 -24.5 -51t-50.5 -18q-29 0 -55.5 13.5t-43.5 27.5q-80 67 -126 190q-20 54 -34 111.5t-25 115.5q-5 19 -8.5 38.5t-8.5 39.5q-8 33 -14.5 72t-11 79.5t-7 78.5t-1.5 69q2 29 21 48q20 20 49 20h5q32 -2 55 -29
q18 -21 21 -50q10 -65 19.5 -123.5t22 -116t29.5 -116t43 -121.5q8 -17 23.5 -40t33.5 -49z" />
    <glyph glyph-name="bracketright" unicode="]" horiz-adv-x="412" 
d="M412 89q6 -45 -20 -74v-1q-24 -25 -56 -39t-61 -22h-1q-18 -5 -41 -10t-46 -5q-63 0 -89 41q-20 32 -11 67q5 20 19.5 37.5t34.5 28.5l1 1q36 17 73 17h11q3 0 7 -1t10 -3q4 -1 9 -2t10 -3q0 3 -1 4q-19 59 -34 116t-17 124q-1 14 -1.5 27t-1.5 26q-2 34 -3.5 69t-1.5 70
q0 9 3 21q1 5 2 14t0 14h-1q-8 0 -17 -2.5t-18 -5.5q-16 -6 -35 -9q-20 -3 -34 -3q-80 0 -95 78v1q-6 36 16 61q12 14 29 22.5t37 13.5t41 7t40 2q18 0 36 -1.5t32 -3.5q71 -12 94 -82q9 -28 10 -58.5t1 -59.5v-2v-47q0 -35 -0.5 -69.5t1.5 -69.5q2 -42 12 -80.5t21 -78.5
q2 -8 4 -15t4 -15q2 -7 4.5 -14t5.5 -15q5 -17 10 -35t7 -36z" />
    <glyph glyph-name="asciicircum" unicode="^" horiz-adv-x="420" 
 />
    <glyph glyph-name="underscore" unicode="_" horiz-adv-x="593" 
d="M588 -35q3 -34 -18 -55q-30 -33 -111 -33q-28 0 -57 3t-56 6q-21 2 -40 4t-33 2h-4q-10 0 -31 -3q-21 -2 -48 -4t-56 -2q-60 0 -93 12q-23 9 -36 23q-16 17 -16 42q0 46 42 64q30 14 80 14q24 0 48 -2.5t47 -4.5q16 -2 29 -3.5t23 -1.5q2 0 3.5 0.5t3.5 0.5h3h13
q11 0 26 0.5t32 1.5q21 1 44.5 2t46.5 1q66 0 100 -10q26 -8 38 -19q18 -15 20 -38z" />
    <glyph glyph-name="grave" unicode="`" horiz-adv-x="190" 
d="M188 704q0 -41 -14 -59q-12 -17 -34 -17q-12 0 -25 6h-1q-15 8 -22 22t-12 27q-3 9 -6 15h-1q-7 13 -18.5 24t-22.5 20h-1q-11 9 -19 23t-12.5 29t-4.5 30.5t5 28.5q14 39 57 39q5 0 9 -0.5t9 -1.5q43 -8 73 -59q13 -20 20.5 -41.5t12.5 -38.5q2 -8 4 -20.5t3 -26.5z" />
    <glyph glyph-name="a" unicode="a" horiz-adv-x="482" 
d="M460 191q8 -25 15.5 -53t4.5 -57t-24 -53q-24 -27 -55 -27q-13 0 -29 7v1q-20 10 -33.5 26t-22.5 34q-18 -29 -39 -43q-35 -24 -83 -24q-20 0 -38.5 3.5t-34 8.5t-28 10.5t-19.5 9.5q-35 22 -56 60t-22 81q-2 38 13.5 69t44.5 51q17 11 40.5 20t49.5 17q21 7 42.5 14.5
t39 17t30 21t15.5 26.5q3 17 3.5 26t-0.5 14h-1q-10 -6 -17.5 -17.5t-15.5 -24.5t-16.5 -25.5t-19.5 -23.5q-26 -21 -55 -21t-57 20t-45 53q-15 29 -17 59q-2 34 15 58q33 47 86 69q48 21 107 21q52 0 99 -15q76 -24 98 -105q9 -34 10 -70t0 -69v-12t-1 -12v-14
q0 -32 1.5 -62.5t10.5 -58.5q1 -2 2 -5t2 -5zM283 288q-15 -8 -32 -19t-30.5 -24.5t-22.5 -28t-9 -27.5q0 -8 4 -16t9 -8q1 0 2 0.5t3 0.5q44 15 62 58q11 23 14 64z" />
    <glyph glyph-name="b" unicode="b" horiz-adv-x="525" 
d="M525 392q7 -71 -6.5 -138.5t-45.5 -125.5q-30 -53 -67 -86q-42 -35 -84 -39q-5 -1 -9 -1h-9q-39 0 -74.5 16.5t-62.5 36.5q-14 -25 -36 -39t-48 -14q-27 0 -53 17q-11 8 -22.5 23.5t-10.5 44.5q0 17 4 33.5t9 30.5q18 52 29.5 97t17.5 87q16 105 -3 183q-5 16 -10.5 31
t-10.5 29q-11 29 -20 60t-7 69q2 36 11.5 60.5t23 40t29.5 23.5t31 11h1q3 0 6 0.5t6 0.5q35 0 59 -27q40 -42 54 -153q2 -23 3 -45t2 -41q23 21 53.5 39t68.5 18q47 0 88 -35q24 -20 39 -46t24 -54t13.5 -55.5t6.5 -51.5zM317 281q12 32 17 66.5t2 60.5q-2 13 -5 20t-5 11
q-6 7 -14 7h-2q-12 -1 -22 -7.5t-17.5 -15.5t-13 -18.5t-8.5 -17.5q-11 -26 -17 -56.5t-4 -60.5q2 -29 9 -47.5t18 -18.5h4q15 5 30.5 25t27.5 52z" />
    <glyph glyph-name="c" unicode="c" horiz-adv-x="452" 
d="M412 221q11 -12 18.5 -24.5t11.5 -22.5q23 -54 -5 -100q-21 -33 -65 -54q-19 -8 -40.5 -13.5t-42.5 -7.5h-16q-42 0 -79.5 13t-68 32.5t-52.5 42.5t-33 43q-41 75 -38 168q2 88 43 165q35 62 89 101q60 42 133 46q6 1 12 1h11q29 0 64.5 -8.5t63.5 -37.5q13 -14 23 -32
t13.5 -36.5t-1 -36.5t-18.5 -33v-1q-28 -28 -71 -28q-15 0 -29.5 2.5t-28.5 6.5q-14 3 -25.5 5.5t-22.5 2.5q-12 0 -24.5 -5t-25.5 -25q-8 -13 -14 -33t-8.5 -42t-1 -43t9.5 -35q11 -20 35 -20h1q11 1 23 6t25 12q15 8 32 14.5t36 6.5q9 0 13 -1q28 -4 53 -29z" />
    <glyph glyph-name="d" unicode="d" horiz-adv-x="520" 
d="M510 136q7 -19 8 -35t-1 -28.5t-6.5 -21.5t-8.5 -15q-12 -17 -30.5 -26.5t-38.5 -9.5q-31 0 -56 20q-10 8 -18 20q-18 -26 -47 -41q-24 -13 -48 -17t-41 -4h-13.5t-13.5 2q-61 7 -107 47q-40 34 -64 89q-13 29 -20 59.5t-10.5 59t-4 53t0.5 41.5q2 47 20.5 91.5
t50.5 79.5q33 38 74.5 57.5t86.5 19.5q34 0 67 -12q1 29 3 70t10 80q5 23 11.5 40.5t14.5 31.5q15 23 31.5 29.5t29.5 6.5q20 0 44 -11q60 -27 65 -112q2 -34 -3 -71.5t-11 -72.5q-4 -21 -6.5 -40t-4.5 -35q-3 -49 -5.5 -84t-2.5 -61t2 -46.5t7.5 -42.5t13.5 -48t21 -63z
M258 183q27 14 41 31t20 34.5t5 33.5t-4 28q-4 17 -13 33.5t-21 29.5q-24 24 -45 24q-3 0 -5.5 -0.5t-5.5 -1.5q-15 -6 -25.5 -22t-16 -36.5t-6 -44t4.5 -45.5q2 -12 6.5 -24.5t10.5 -22.5t14.5 -16.5t18.5 -6.5t21 6z" />
    <glyph glyph-name="e" unicode="e" horiz-adv-x="495" 
d="M479 200q13 -36 2 -76q-9 -42 -41 -68q-72 -55 -165 -55q-45 0 -88 13.5t-79 39.5q-80 55 -104 145q-10 38 -11 82t7 90q19 100 70 167q67 88 171 88h15q69 -5 124 -44q27 -20 47.5 -46t31.5 -58q11 -29 19.5 -61t3.5 -65q-4 -45 -38 -69q-14 -11 -28.5 -16.5t-27.5 -9.5
q-9 -3 -15 -6q-98 -37 -190 -52q1 -4 5 -6q6 -6 21 -6q13 0 29.5 4.5t33 11t32.5 14.5t29 15q18 10 32 15q21 9 41 9q26 0 45 -15t28 -41zM168 360q13 1 32 4t39 10q48 15 61 37q2 5 3 12.5t-7 18.5q-8 13 -19 25t-25 12q-11 0 -20 -6.5t-16 -14.5q-22 -25 -37 -63
q-5 -11 -7 -20t-4 -15z" />
    <glyph glyph-name="f" unicode="f" horiz-adv-x="427" 
d="M428 783q19 -51 3 -79q-12 -20 -33 -26t-44 -10q-10 -2 -20 -3.5t-19 -4.5h-1q-21 -4 -32 -25q-10 -17 -10 -39q29 13 54 13q32 0 54 -18.5t32 -52.5q9 -39 -5 -63q-13 -22 -37 -31.5t-47 -15.5q-8 -2 -15 -4t-12 -4q-8 -4 -10 -6q4 -63 4 -124t-8 -121v-3q-2 -19 -6 -41
t-11.5 -44t-20 -40.5t-32.5 -29.5q-24 -13 -45 -13q-40 0 -70 36q-12 15 -19.5 33.5t-9.5 38.5q-2 22 2 56.5t9 74.5q3 23 5.5 46.5t4.5 43.5q2 24 1.5 34t-2.5 13q-17 12 -32 24t-26.5 25t-17.5 26.5t-3 28.5q7 41 85 63q2 16 4 31t4 32q3 29 7 58t12 56t23 51.5t39 44.5
q26 23 57 34.5t64 11.5q44 0 77 -20.5t47 -55.5v-1v0z" />
    <glyph glyph-name="g" unicode="g" horiz-adv-x="532" 
d="M519 498q0 -46 -21 -104q-15 -45 -14 -90.5t6 -95.5q1 -11 1.5 -22t1.5 -22q3 -48 2 -106t-18 -114q-17 -58 -50 -97q-35 -45 -95 -70q-24 -11 -51 -16.5t-55 -5.5q-70 0 -125 32h-1q-13 8 -26 21t-24 29q-24 38 -21 73q5 46 54 63q12 5 24 6.5t25 1.5q14 0 26.5 -2
t24.5 -4q11 -2 21.5 -3.5t21.5 -1.5q28 0 53 14q15 9 25 22t16 28t8.5 31.5t2.5 31.5h-1q-18 -16 -38 -32.5t-42 -30.5t-45 -23t-47 -9q-28 0 -54 14q-61 34 -85 125q-9 34 -12 72.5t1 73.5q7 64 41.5 127.5t85.5 108.5q12 10 28 20t35.5 18t40.5 13t42 5q42 0 71 -21
q11 15 26 26q12 10 26.5 14.5t28.5 4.5q20 0 37 -8.5t28 -25.5q19 -27 21 -71zM209 304q-6 -23 -6.5 -46t4.5 -39q6 -16 15 -16q2 0 8.5 2t18.5 11v1q17 14 34.5 31t28.5 37q19 37 6 85q-8 24 -28 24q-18 0 -39 -16h-1q-28 -22 -41 -74z" />
    <glyph glyph-name="h" unicode="h" horiz-adv-x="535" 
d="M519 396q3 -26 7.5 -74.5t3.5 -103.5q-1 -142 -47 -192q-26 -29 -63 -29q-13 0 -31 5q-1 0 -7 2q-3 0 -3 1q-2 0 -2 1q-63 21 -72 115q-3 37 0.5 76.5t7.5 70.5q2 11 3 19.5t2 16.5v6.5t1 7.5q1 7 1.5 18t0.5 22.5t-2 20.5t-6 14q-4 3 -8 3q-8 0 -17 -5.5t-18 -13
t-16 -15.5t-11 -12l-1 -1q-2 -3 -5.5 -12t-4.5 -32q0 -17 1.5 -37t3.5 -40q2 -24 3.5 -45.5t-0.5 -37.5q-4 -26 -14.5 -52t-27.5 -47t-40.5 -34t-53.5 -13q-13 0 -25 3q-48 8 -67 42q-12 19 -13.5 44t3 52t13.5 54.5t18 53.5q5 16 10 30t7 25v1q11 39 15 77t3 76.5
t-5.5 76.5t-9.5 77q-1 9 -2 18.5t-2 19.5q-1 3 -1 6.5t-1 6.5q-4 25 -5 53t13 52q16 33 54 33q34 0 57 -26q42 -46 57 -139q5 -26 6.5 -51t2.5 -50q15 13 31 25.5t33.5 23t36 17t38.5 6.5q32 0 63 -20q42 -27 63 -87q9 -26 14 -52.5t7 -47.5l1 -3v0z" />
    <glyph glyph-name="i" unicode="i" horiz-adv-x="275" 
d="M94 649q-15 14 -21 38q-8 34 -1 73.5t38 64.5q32 28 68 28q40 0 68 -36q24 -30 27 -69q2 -35 -13.5 -58.5t-45.5 -28.5q-5 -1 -13 -3.5t-16 -6.5l-28 -10t-28 -5q-20 0 -35 13zM220 278q5 -11 9.5 -21.5t9.5 -21.5q6 -17 12 -37t8.5 -42t0.5 -44.5t-11 -43.5
q-13 -32 -40.5 -51t-59.5 -19q-34 0 -62 22v1q-82 67 -82 207q0 54 10.5 107t22.5 100v1q2 8 4.5 16.5t5.5 17.5q8 32 20.5 65.5t41.5 56.5q27 22 56 22q28 0 48.5 -18t27.5 -47q9 -34 -1 -60t-24 -49q-8 -14 -15 -28t-9 -29v-1q-4 -26 5.5 -51.5t21.5 -52.5z" />
    <glyph glyph-name="j" unicode="j" horiz-adv-x="277" 
d="M168 666q-42 0 -72 36q-28 33 -28 73q0 33 22 55q8 8 23.5 15.5t41.5 7.5q14 0 31 -3h1q41 -8 64 -38q10 -13 14.5 -29t2.5 -33q-2 -15 -8.5 -30t-19 -27t-30.5 -19.5t-42 -7.5zM271 147q6 -32 5 -64t-10 -63q-20 -67 -70 -109h-1q-126 -102 -218 -102q-50 0 -84 30
q-41 35 -36 71q3 17 14.5 30.5t28 24t36 19t37.5 16.5q8 3 15.5 6.5t12.5 5.5q44 22 50 62q3 20 -1.5 43.5t-9.5 48.5q-3 14 -6 27t-5 27q-21 156 9 273q5 19 15 42.5t25 44t34.5 34.5t44.5 14q16 0 29 -5q40 -17 45 -78q2 -22 -1 -44.5t-6 -40.5q-1 -5 -1 -9t-1 -8
q-7 -53 4 -107t25 -108q5 -20 10 -40.5t10 -40.5z" />
    <glyph glyph-name="k" unicode="k" horiz-adv-x="510" 
d="M535 108q3 -66 -56 -102q-26 -15 -53 -15q-37 0 -71 26q-38 29 -69 88q-4 6 -7 15t-8 20q-5 14 -11 28.5t-13 27.5q-5 8 -8.5 12.5t-5.5 6.5l-4 4q-1 0 -3 -2t-4.5 -4t-4.5 -6q-10 -14 -12 -31.5t-2 -38.5q-1 -26 -4.5 -53t-21.5 -52h-1q-29 -41 -78 -41q-41 0 -73 29
q-33 32 -38 74q-7 57 -1 113t14 111q5 29 9 58.5t6 58.5v1q2 27 -2.5 55.5t-10.5 60.5q-8 42 -13 84.5t7 84.5q11 32 33 51q24 21 56 21q17 0 30 -5q34 -13 54 -50q8 -15 12.5 -31.5t8.5 -32.5q6 -27 10.5 -59.5t7 -67t1.5 -71t-5 -70.5q13 15 24.5 36t21.5 41
q10 19 19.5 35.5t19.5 29.5q45 52 88 52q8 0 14.5 -1.5t14.5 -3.5q44 -17 53 -56q9 -36 -21 -69q-5 -6 -11.5 -12t-12.5 -12q-17 -16 -30 -31t-18 -34v-1q-3 -9 -0.5 -23.5t10.5 -29.5q8 -16 18.5 -28t21.5 -17q21 -11 41.5 -29.5t37.5 -41.5q19 -26 29 -52.5t11 -50.5z" />
    <glyph glyph-name="l" unicode="l" horiz-adv-x="265" 
d="M258 699q7 -31 8 -65t-4 -72q-5 -33 -12.5 -65.5t-15.5 -64.5q-1 -3 -1.5 -6.5t-2.5 -6.5q-8 -30 -15 -58.5t-12 -57t-7 -57t0 -58.5v-1q2 -12 3 -25q2 -17 4 -38.5t0 -41.5q-5 -54 -38 -74q-22 -13 -46 -13q-38 0 -69 29q-14 12 -23.5 28.5t-14.5 33.5v1q-5 22 -4 46
t5 46t9 40t9 29q0 2 1 3q40 102 28 288q-1 14 -4.5 32t-8.5 38q-5 25 -10.5 52t-6.5 53q-3 63 28 100q27 32 62 32q17 0 40.5 -11t51.5 -46q17 -21 29 -45.5t17 -44.5z" />
    <glyph glyph-name="m" unicode="m" horiz-adv-x="742" 
d="M709 261q9 -26 17 -52.5t13 -53t4.5 -52t-8.5 -49.5q-11 -29 -35.5 -45t-56.5 -16q-28 0 -52.5 12t-39.5 33q-31 41 -37 110q-3 28 -2 56t3 54v1q1 9 2 19.5t3 21.5q3 18 5.5 38t3 39.5t-1.5 37t-9 31.5q-3 5 -6 5q-6 0 -14.5 -5t-13.5 -11q-18 -24 -21 -70
q-2 -26 1 -51.5t7 -51.5q2 -12 3 -24.5t3 -24.5q2 -23 3 -45.5t-3 -45.5q-9 -58 -49 -86q-31 -20 -65 -20q-43 0 -74 31q-31 33 -33 79v1q0 6 0.5 16.5t1.5 25.5q2 28 3.5 64t-0.5 72q-2 52 -9.5 73t-12.5 26t-10 5q-6 0 -16 -5q-13 -6 -15.5 -10.5t-3.5 -6.5q-1 -5 1 -12.5
t4 -17.5q2 -6 3.5 -12t3.5 -13q5 -26 9.5 -49.5t7.5 -46.5q6 -46 7 -95t-19 -93q-13 -27 -43 -44.5t-63 -17.5q-46 0 -71 35q0 1 -1 1q-12 18 -16 39.5t-3.5 45t4.5 47.5t9 46q3 15 5.5 29t3.5 25q2 27 -3.5 53t-13.5 53q-8 28 -14.5 56.5t-4.5 60.5q3 37 33 73q22 27 40 34
t29 7q17 0 33 -11q2 -2 5 -4.5t5 -5.5q8 8 17.5 14.5t19.5 12.5h1l6 4q4 3 7 3q21 11 50 11q26 0 52.5 -11t47.5 -32q20 -20 32 -46q28 41 68.5 63.5t87.5 22.5q28 0 57 -9q59 -18 77 -79q8 -25 9 -52t1 -54q1 -16 1 -30.5t2 -27.5q3 -23 10.5 -47.5t17.5 -51.5z" />
    <glyph glyph-name="n" unicode="n" horiz-adv-x="512" 
d="M502 205q23 -40 29 -78.5t-7 -69.5q-7 -17 -26 -36.5t-59 -29.5q-20 -6 -39 -6q-59 0 -96 45q-17 20 -26.5 46.5t-10.5 56.5q-1 32 5.5 62.5t14.5 59.5q5 19 9.5 37.5t7.5 37.5q3 35 -14 54q-12 14 -30 14q-14 0 -27.5 -10t-24.5 -27q-9 -17 -4 -40t13 -46q3 -10 6 -19.5
t5 -19.5q11 -48 11.5 -83.5t-3.5 -58.5q1 -5 -1 -11q-2 -3 -3 -10q0 -2 -1 -3q0 -1 -0.5 -1.5t-0.5 -2.5v-1q-7 -18 -21 -33.5t-32.5 -27t-40 -18.5t-42.5 -7q-31 0 -54 14.5t-34 40.5q-8 19 -8.5 36.5t3.5 33t11.5 29.5t15.5 27q11 17 14.5 37.5t5.5 43.5q0 5 0.5 9t0.5 9
q1 26 -5 52t-14 52q-8 27 -15 55t-7 58v1q1 16 4.5 31.5t11.5 28.5q18 37 52 43q2 1 4 1q37 0 67 -25q6 -6 11 -12t10 -14q25 29 60 51.5t83 22.5h7q29 -1 56.5 -10.5t50.5 -26.5q55 -41 55 -102q2 -24 1.5 -48t-2.5 -47q-3 -44 -1.5 -85.5t24.5 -79.5z" />
    <glyph glyph-name="o" unicode="o" horiz-adv-x="507" 
d="M495 328q9 -57 2 -112.5t-29 -100.5q-30 -66 -92 -104q-60 -37 -128 -37q-84 0 -149 53q-1 0 -1 1h-1q-5 5 -9 8.5t-6 5.5l-3 3q-5 5 -6 8q-31 38 -50 82q-11 26 -18.5 54.5t-9.5 59.5q-6 61 6.5 119t41.5 103q35 54 87 85q26 15 54 22.5t57 7.5q43 0 83 -16.5t74 -48.5
q37 -35 62 -84t35 -109zM283 379q-18 19 -36 19q-15 0 -29.5 -12t-24.5 -32q0 -1 -2 -7q-2 -2 -2.5 -4.5t-1.5 -4.5q-9 -27 -10.5 -52t3 -46t13.5 -38t21 -28q16 -15 32 -15q18 0 37.5 18.5t27.5 48.5q11 42 3 82q-6 43 -31 71z" />
    <glyph glyph-name="p" unicode="p" horiz-adv-x="517" 
d="M520 282q2 -35 -5 -80t-35 -87q-11 -18 -32.5 -37t-47.5 -35q-17 -11 -48 -24.5t-65 -13.5q-9 0 -17 1t-16 4q0 -9 0.5 -18t0.5 -18q2 -30 2 -60.5t-8 -56.5q-8 -29 -31 -52t-62 -32q-23 -6 -42 -6q-55 0 -81 42q-14 21 -17.5 48.5t-1 55.5t10 54t16.5 45v1q15 30 24 72
t8.5 91.5t-13.5 106t-42 116.5q-22 47 -11 92q13 52 59 75q24 12 44 12q33 0 56 -29q10 -12 17 -27q25 22 52.5 37t62.5 15q12 0 24 -1.5t24 -6.5q70 -26 118 -97l2 -4h1q0 -2 1 -2l2 -4t3 -5q6 -11 9 -15l1 -4q3 -5 3 -8q31 -66 34 -145zM295 187q17 5 26 19.5t13 25.5
q8 20 10.5 42t-0.5 45q-3 35 -19 59q-15 21 -37 22h-2q-17 0 -25 -10t-11 -15q-9 -16 -13.5 -37.5t-4.5 -44.5t5 -45t14 -38q15 -24 34 -24q7 0 10 1z" />
    <glyph glyph-name="q" unicode="q" horiz-adv-x="510" 
d="M481 21q10 -27 16.5 -59.5t1.5 -67.5v-1q-3 -23 -12 -42t-22.5 -33.5t-31 -22.5t-36.5 -8q-15 0 -35.5 7.5t-41.5 33.5q-35 40 -50 111q-5 23 -7.5 47t-4.5 47q-11 -10 -22 -15q-32 -19 -70 -19q-37 0 -69 17.5t-54 50.5q-20 29 -31 61.5t-16 64t-5.5 60t0.5 48.5
q3 47 21.5 96.5t48.5 91.5q35 49 76 75t84 26q54 0 101 -38q16 20 37.5 32t43.5 12q49 0 68 -56h1q5 -17 4.5 -40.5t-3.5 -48t-8 -47t-8 -38.5q-2 -5 -2.5 -9.5t-1.5 -6.5q-3 -50 0.5 -100.5t8.5 -99.5q2 -12 3 -24l2 -24q2 -22 4.5 -42t9.5 -38v-1zM294 294q1 16 -2 34.5
t-9 36t-15 30.5t-21 17q-3 1 -10 1q-11 0 -21 -8.5t-18.5 -22.5t-15.5 -31.5t-11 -35.5q-3 -14 -5 -31.5t-1.5 -35.5t4 -34t11.5 -26q8 -12 25 -14h3q32 0 59 49q16 30 26 69q0 1 0.5 1t0.5 1z" />
    <glyph glyph-name="r" unicode="r" horiz-adv-x="388" 
d="M400 488q6 -42 -13 -70q-11 -18 -30 -23.5t-36 -5.5q-12 0 -22 1t-18 3q-6 2 -10 2.5t-7 2.5q-13 -2 -20 -10q-5 -6 -10.5 -22t-5.5 -50q0 -26 2.5 -53.5t5.5 -53.5q3 -21 5 -38t1 -29q-8 -99 -67 -129q-26 -14 -60 -14q-19 0 -37.5 5t-34 14.5t-26 25t-13.5 36.5v2
q0 30 8 56.5t18 51.5q7 19 13 36.5t8 36.5q4 23 4 44.5t-2.5 42.5t-7 43t-9.5 46l-1 1q-2 9 -3.5 27t-0.5 39t6.5 41.5t17.5 35.5q19 22 47 22q9 0 13 -1q10 -2 22 -9t20 -27q3 -6 4.5 -12.5t3.5 -13.5q8 8 17.5 14.5t19.5 12.5q23 14 46 20.5t44 6.5q56 0 86 -44v-1
q8 -13 14 -29.5t8 -33.5z" />
    <glyph glyph-name="s" unicode="s" horiz-adv-x="450" 
d="M249 360q125 -6 166 -83q22 -41 25 -82.5t-14 -78.5q-20 -44 -62.5 -74.5t-101.5 -43.5q-20 -3 -43 -3q-29 0 -60.5 5t-59.5 15q-23 8 -51.5 24t-45.5 42q-29 46 -5 100q12 29 37.5 45t58.5 16q17 0 34.5 -4.5t32.5 -14.5q9 -5 17 -13l16 -16q11 -11 20.5 -20t18.5 -9
q8 0 16 5q13 10 10 26q-3 12 -13.5 22t-21.5 11q-128 14 -169 84q-26 45 -30 90.5t14 85.5q20 43 58 69q39 28 100 40q11 2 22.5 3t25.5 1q24 0 51.5 -4t53 -13t47.5 -23t36 -35q19 -28 15.5 -56.5t-12.5 -48.5q-13 -30 -37.5 -46.5t-56.5 -16.5q-18 0 -35.5 5.5t-34.5 15.5
q-13 9 -22 20t-17 21q-5 6 -11 13.5t-9 7.5q-1 0 -3 -1t-5 -3t-7 -6q-15 -19 -7 -36q7 -15 25 -25t34 -11z" />
    <glyph glyph-name="t" unicode="t" horiz-adv-x="392" 
d="M398 105q7 -22 0 -44q-8 -22 -30 -41q-35 -29 -80 -29q-32 0 -65.5 14.5t-62.5 41.5q-29 26 -47.5 57t-23.5 62q-6 37 -3.5 73t6.5 71q1 5 1.5 10.5t1.5 11.5q1 4 1.5 8t1.5 8q2 10 3 20.5t2 20.5q0 15 -1 18q-14 -6 -28 -6q-36 0 -62 31q-11 14 -17 31t-6 34q0 42 31 68
q27 22 72 27q-5 31 0 66t18 61q10 20 26 31t35 11q18 0 34 -10t27 -27q11 -16 12 -37.5t1 -41.5v-1q27 11 53 11q27 0 48 -12q22 -12 32 -38q20 -59 -27 -99q-18 -15 -40.5 -25.5t-44.5 -18.5q-3 -1 -5.5 -2t-5.5 -2q-1 -16 -3.5 -36.5t-6.5 -43.5q-5 -26 -8.5 -54.5
t-5.5 -54.5q-2 -34 2 -48t8 -19q2 -3 9 -5q21 -2 44 -8.5t43 -18.5q50 -28 61 -65z" />
    <glyph glyph-name="u" unicode="u" horiz-adv-x="522" 
d="M520 524q12 -32 3.5 -64.5t-36.5 -58.5q-34 -40 -36 -128q-1 -41 5 -80.5t11 -68.5v-1q3 -21 2 -47t-15 -46q-16 -20 -46 -25h-9q-43 0 -73 38q-10 13 -18 29q-26 -35 -63.5 -55.5t-79.5 -20.5q-52 0 -94 33v1h-1q-1 2 -1.5 2t-1.5 1l-3 3q-16 15 -24 34t-11.5 39.5
t-3.5 41v39.5v31q-1 51 -3.5 101.5t-13.5 100.5q-4 18 -6 37.5t1 39t12.5 37.5t29.5 34q32 26 67 26q25 0 46.5 -12.5t35.5 -35.5q16 -26 21.5 -55t4 -58t-8 -57.5t-12.5 -52.5q-2 -6 -3.5 -12t-3.5 -13q-4 -15 -8.5 -31.5t-7 -33t-2 -31t5.5 -25.5q5 -9 8 -10.5t4 -1.5
q13 0 30 17q9 8 16 17.5t10 15.5l1 1q14 24 14.5 42.5t-1.5 44.5q-1 6 -1 12t-1 14q-7 92 16.5 153.5t76.5 90.5q29 16 63 16q36 0 64 -19t40 -49z" />
    <glyph glyph-name="v" unicode="v" horiz-adv-x="482" 
d="M463 545q28 -39 15 -96q-5 -23 -15 -44t-18 -38q-25 -49 -43.5 -97t-37.5 -103q-1 -3 -2 -6.5t-3 -8.5q-8 -26 -17 -52.5t-20.5 -48.5t-25.5 -37.5t-31 -20.5q-1 0 -1.5 -0.5t-1.5 -0.5q-5 -1 -9.5 -1h-9.5q-66 0 -106 76q-17 29 -26.5 61.5t-17.5 58.5q-3 12 -6 22
t-5 15l-1 2q-6 16 -13.5 32t-15.5 33q-11 22 -21 45t-17.5 46t-11 47.5t-1.5 49.5q2 17 10 35t22 34q32 37 70 37q11 0 25.5 -5.5t28.5 -22.5q27 -29 38.5 -68.5t19.5 -77.5q2 -7 3 -13l2 -12l10 -44t10 -43q0 3 0.5 6t0.5 5q4 29 8.5 58t12 57.5t19.5 55.5t31 51
q16 21 40 33t48 12q40 0 63 -32z" />
    <glyph glyph-name="w" unicode="w" horiz-adv-x="627" 
d="M608 555q19 -34 11 -92q-3 -22 -9 -43t-11 -40q-18 -57 -20.5 -113.5t-1.5 -116.5v-9q2 -77 -35 -112q-32 -33 -92 -33h-16v1q-49 3 -73 68q-10 25 -15 52.5t-10 51.5q-2 14 -4.5 26.5t-4.5 20.5v1v1q-2 6 -4 14t-4 16.5t-6 15.5q-3 -6 -7 -17.5t-10 -30.5q-1 -4 -3 -8
q-2 -8 -4.5 -19t-4.5 -22q-5 -24 -11.5 -49.5t-17.5 -48.5q-27 -58 -78 -67q-17 -3 -30 -3q-69 0 -94 63q-11 25 -14.5 54.5t-5.5 55.5h-1q-3 63 -8 112.5t-12 93.5q-2 7 -3 14t-3 15q-6 26 -10.5 54.5t-1.5 55.5q4 31 22 53q21 24 58 33q5 1 8.5 1.5t7.5 0.5q14 0 33 -8.5
t36 -37.5q10 -17 15.5 -35.5t8.5 -32.5q12 -55 8.5 -108.5t-12.5 -108.5q0 -6 -1 -12t-3 -13q-2 -12 -3 -19.5t-1 -12.5q4 6 8 22q4 13 5.5 24.5t2.5 15.5q3 30 6 63q4 48 11.5 99t33.5 93t70 42q28 0 54 -18q24 -18 36 -47q13 -31 19.5 -64.5t11.5 -66.5q2 -14 4 -26.5
t4 -24.5q0 -2 1 -3q0 2 -1 3q-5 32 -8.5 68t-4.5 69q-1 83 28 117q22 25 58 25q8 0 17.5 -1t19.5 -4q43 -14 61 -48z" />
    <glyph glyph-name="x" unicode="x" horiz-adv-x="542" 
d="M441 245q108 -84 108 -152q0 -42 -38 -71q-35 -27 -69 -27q-46 0 -87 47q-17 19 -31 41.5t-27 43.5q-5 10 -11 19.5t-11 17.5q-4 -8 -7.5 -15.5t-6.5 -15.5q-14 -31 -31.5 -61t-47.5 -51q-38 -26 -81 -26q-49 0 -78 34v1q-23 30 -26 54.5t2 41.5q8 25 29.5 45t53.5 31
q34 12 52.5 28.5t39.5 43.5q-10 11 -24.5 23t-31.5 25q-21 17 -43 35t-40 37.5t-30 41t-13 44.5q-4 42 32 80q28 31 64 31q27 0 51.5 -17t46 -43t40 -56t33.5 -56q2 -4 4 -7q3 6 6 12.5t6 12.5q11 24 25 50t31 47q42 53 98 53q5 0 8 -1q37 -2 61 -18t31 -44q9 -35 -11 -72
q-19 -37 -54 -58q-24 -14 -50.5 -33.5t-50.5 -45.5q-2 -2 -2.5 -3t-1.5 -2q2 -1 8 -5q3 -3 7 -5.5t9 -6.5v-1q10 -9 20.5 -17.5t21.5 -16.5q4 -3 8 -6.5t8 -6.5z" />
    <glyph glyph-name="y" unicode="y" horiz-adv-x="535" 
d="M522 543q17 -26 14 -67q-1 -17 -5.5 -34.5t-12.5 -34.5q-29 -67 -57.5 -137.5t-48.5 -144.5q-18 -69 -46.5 -143t-77.5 -138q-19 -23 -41.5 -44.5t-47.5 -37.5q-62 -41 -121 -41q-19 0 -39 5q-52 14 -63 72q-4 20 -1.5 41.5t9.5 42t18.5 37t25.5 27.5q19 14 40.5 21
t43.5 13q23 7 44.5 14.5t37.5 21.5q-34 19 -56 50.5t-42 65.5q-2 4 -4.5 8t-4.5 8q-43 70 -62 169q-18 95 -15.5 150t25.5 84q24 29 71 29q61 0 93 -58q13 -24 19 -51.5t9 -47.5q2 -11 3 -23t2 -23q2 -12 3 -23t3 -22q1 -5 1 -8.5t1 -8.5q3 -20 7.5 -45t12.5 -45
q5 35 12 79.5t20 89.5q20 73 48 116q36 56 84 65q15 3 28 3q29 0 45.5 -11.5t24.5 -23.5z" />
    <glyph glyph-name="z" unicode="z" horiz-adv-x="522" 
d="M490 140q19 -18 27 -44t3 -52q-4 -22 -17 -38t-33 -24q-19 -8 -45 -8t-51 7t-47 15l-6 2q-23 8 -43.5 12t-40.5 4q-5 0 -10.5 -0.5t-10.5 -0.5q-13 -2 -25 -6t-25 -9t-25.5 -9t-26.5 -6q-5 -1 -16 -1q-25 0 -50 11t-39 29q-23 30 -16 64t30.5 61.5t46.5 50.5q4 4 6 7
q35 34 67.5 70.5t64.5 71.5q6 7 17 17q7 8 15.5 16.5t16.5 17.5q9 11 13 18h-9q-14 0 -29.5 -5t-32.5 -11q-18 -8 -36.5 -14t-38.5 -6q-59 0 -92 41q-31 42 -17 96q8 31 30 47t56 16q25 0 49 -7q2 -1 3.5 -1t4.5 -2q2 0 6 -2q27 -9 60 -9q22 0 44 3t45 7q20 4 40 6.5t40 3.5
q4 1 12 1q67 0 92 -37q13 -20 11 -41t-9 -37q-14 -36 -41.5 -62.5t-56.5 -51.5q-12 -11 -23.5 -20.5t-21.5 -19.5q-13 -14 -24.5 -29t-22.5 -29q-18 -24 -37 -47t-43 -43q-2 -2 -4 -3.5t-4 -2.5q14 2 30.5 6.5t28.5 9.5h1q46 17 86 17q71 0 123 -50z" />
    <glyph glyph-name="bar" unicode="|" horiz-adv-x="267" 
d="M242 35q7 -33 13 -66t7.5 -61.5t-2 -52t-15.5 -38.5q-17 -19 -42 -19q-11 0 -28 5q-32 11 -52 37.5t-33 59.5t-20 68.5t-12 65.5q-1 8 -2 14.5t-2 12.5v1q-14 77 -19.5 155.5t-9.5 169.5q-2 44 -3 73t-2.5 55t-3.5 54.5t-5 71.5l-1 6q-4 42 -6.5 94.5t5.5 101.5
q21 124 111 144q7 1 13 1.5t12 0.5q21 0 33.5 -7.5t19.5 -15.5q12 -14 16.5 -34t4.5 -42.5t-3.5 -46t-7.5 -45.5q-2 -13 -3.5 -23t-2.5 -18q-5 -77 -5 -161t5 -186q5 -85 13.5 -170.5t19.5 -170.5q1 -5 3 -14t4 -20z" />
    <glyph glyph-name="asciitilde" unicode="~" horiz-adv-x="637" 
d="M625 520q7 -15 9 -30.5t0.5 -30.5t-5.5 -28t-8 -22q-22 -55 -54 -82q-31 -25 -70 -25q-23 0 -45.5 8t-43.5 20.5t-39.5 27t-33.5 26.5q-2 2 -4.5 4t-4.5 4q-18 11 -39.5 17t-41.5 6q-17 0 -36.5 -6t-33.5 -27q-13 -21 -34 -33t-47 -12q-32 0 -57.5 19t-34.5 49v1
q-12 49 27 99q19 23 39.5 39.5t33.5 24.5q44 28 90 28q26 0 50 -8.5t46.5 -22.5t44 -32t42.5 -36q11 -9 21 -18.5t21 -17.5q1 -1 3 -1q3 2 8 11.5t9 17.5q6 13 13.5 26t18.5 25q26 29 65 29q14 0 34 -5q40 -10 57 -45z" />
    <glyph glyph-name="uni00A0" unicode="&#xa0;" horiz-adv-x="250" 
 />
    <glyph glyph-name="dieresis" unicode="&#xa8;" horiz-adv-x="447" 
d="M98 964q24 0 42.5 -9t31 -23.5t19 -32.5t6.5 -37q0 -34 -20 -63t-59 -36q-4 -2 -9 -2h-3h-14h-6h-2h-1q-2 1 -4 1t-4 1q-20 4 -34 12.5t-22 17.5q-26 28 -26 69q0 43 27 70q10 11 29 21.5t49 10.5zM346 964q24 0 42.5 -9t31 -23.5t19 -32.5t6.5 -37q0 -34 -20 -63
t-59 -36q-4 -2 -9 -2h-3h-14h-6h-2h-1q-2 1 -4 1t-4 1q-20 4 -34 12.5t-22 17.5q-26 28 -26 69q0 43 27 70q10 11 29 21.5t49 10.5z" />
    <glyph glyph-name="guillemotleft" unicode="&#xab;" horiz-adv-x="570" 
d="M434 254q-20 -17 -25.5 -27.5t-4.5 -15.5q0 -10 11.5 -19t23.5 -16q9 -5 18 -9.5l17 -8.5q30 -15 52.5 -30t27.5 -41t-12 -47q-15 -18 -41 -27q-23 -9 -48 -9q-43 0 -61 23l-70 95q-5 7 -10.5 14t-12.5 15q-13 16 -24.5 32t-19.5 31q-10 19 -10 35q0 21 17 35
q14 11 29.5 28t32.5 37q21 23 42.5 46.5t45 42.5t47.5 31t49 12q34 0 47 -14.5t17 -26.5q5 -18 1.5 -36t-7.5 -29q-6 -16 -14.5 -28t-16.5 -18l-8 -5q-29 -20 -52.5 -37t-40.5 -33zM275 129q26 -30 30 -58q6 -35 -15 -61q-11 -14 -28 -21.5t-34 -7.5q-28 0 -44 18l-105 112
q-20 20 -35 44.5t-24 49.5q-12 33 -10 62.5t16 54.5h1q14 23 40.5 55t59.5 61q82 71 151 71q28 0 45 -15q15 -11 20 -36q3 -14 0.5 -31.5t-9.5 -34.5q-4 -11 -13 -25.5t-24 -19.5q-20 -7 -42 -16t-40.5 -19.5t-32 -22.5t-15.5 -25q-2 -10 2 -20.5t11.5 -20.5t17.5 -20
t19 -18q20 -17 33.5 -30t24.5 -26z" />
    <glyph glyph-name="uni00AD" unicode="&#xad;" horiz-adv-x="550" 
d="M546 366q6 -13 1 -29q-2 -7 -8 -15t-20 -17t-38.5 -18.5t-63.5 -19.5q-21 -5 -41.5 -9t-37.5 -7t-29.5 -4.5t-18.5 -1.5q-17 -2 -34 -3t-32 -1q-135 0 -204 58q-17 15 -19.5 28.5t-0.5 21.5q6 19 25 32q16 10 35 14h1q15 3 34 3q17 0 33 -2l32 -4q17 -3 32.5 -5t30.5 -2
q30 1 61.5 4.5t63.5 8.5q30 4 58 7t51 3q49 0 70 -18q13 -11 19 -24z" />
    <glyph glyph-name="macron" unicode="&#xaf;" horiz-adv-x="562" 
d="M548 830q6 -13 1 -29q-2 -7 -8 -15t-20 -17t-38.5 -18.5t-63.5 -19.5q-21 -5 -41.5 -9t-37.5 -7t-29.5 -4.5t-18.5 -1.5q-17 -2 -34 -3t-32 -1q-135 0 -204 58q-17 15 -19.5 28.5t-0.5 21.5q6 19 25 32q16 10 35 14h1q15 3 34 3q17 0 33 -2l32 -4q17 -3 32.5 -5t30.5 -2
q30 1 61.5 4.5t63.5 8.5q30 4 58 7t51 3q49 0 70 -18q13 -11 19 -24z" />
    <glyph glyph-name="acute" unicode="&#xb4;" horiz-adv-x="237" 
d="M236 889q6 -16 3.5 -34t-9 -36.5t-16.5 -36.5t-19 -34q-5 -9 -9.5 -17t-6.5 -13q-11 -24 -24.5 -48t-29 -44t-33 -32.5t-36.5 -12.5q-16 0 -28 9q-11 6 -15.5 13.5t-6.5 14.5q-5 20 7 38.5t25 35.5q4 4 6.5 8t4.5 6q9 20 12 41t5 45l1 7q3 46 24 81q27 50 75 50
q8 0 14.5 -1.5t14.5 -3.5q20 -6 29 -16.5t12 -19.5z" />
    <glyph glyph-name="cedilla" unicode="&#xb8;" horiz-adv-x="255" 
d="M233 88q6 -16 3.5 -34t-9 -36.5t-16.5 -36.5t-19 -34q-5 -9 -9.5 -17t-6.5 -13q-7 -15 -20 -39t-30 -48q-43 -59 -74 -59q-6 0 -15.5 3.5t-17.5 17.5q-14 11 -16 25q-5 20 7 38.5t25 35.5q4 4 6.5 8t4.5 6q9 20 12 41t5 45l1 7q3 46 24 81q27 50 75 50q8 0 14.5 -1.5
t14.5 -3.5q20 -6 29 -16.5t12 -19.5z" />
    <glyph glyph-name="onesuperior" unicode="&#xb9;" horiz-adv-x="202" 
d="M177 792q21 -157 -15 -236q-8 -19 -19 -24.5t-19 -5.5q-19 0 -37 21q-14 18 -29 52t-26 77l-6 24t-7 35t-4.5 38.5t1.5 34.5q7 34 27 54q21 19 46 19q32 0 57 -25q25 -27 31 -64z" />
    <glyph glyph-name="ordmasculine" unicode="&#xba;" horiz-adv-x="362" 
d="M331 788q42 -71 21 -155q-9 -38 -30 -73.5t-52 -64.5q-41 -36 -91 -36q-43 0 -84 25t-64 66q-35 64 -29 134t51 126q26 31 55 48q38 23 76 23q4 0 7.5 -0.5t7.5 -0.5q42 -5 80 -33q16 -11 29 -26.5t23 -32.5zM159 691q-4 -22 1 -41t16 -23q2 -1 5 -1q9 0 17 14.5t10 34.5
q2 17 -2.5 34t-15.5 19q-2 1 -5 1q-7 0 -14.5 -8.5t-11.5 -29.5z" />
    <glyph glyph-name="apostrophe" unicode="&#x2bc;" horiz-adv-x="257" 
d="M244 726q11 -27 5 -62q-6 -37 -28 -81.5t-54 -86.5q-8 -10 -22 -25.5t-31.5 -30.5t-36.5 -25.5t-38 -10.5q-13 0 -25 6q-20 11 -24 32q-5 23 5 49q9 24 18 35q5 9 11.5 17.5t12.5 16.5q13 17 23.5 33t12.5 35q0 3 -0.5 9t-0.5 12q-1 12 -1.5 26.5t1 29t6 28t14.5 24.5
q19 21 54 21q23 0 52 -10q34 -11 46 -42z" />
    <glyph glyph-name="circumflex" unicode="&#x2c6;" horiz-adv-x="395" 
 />
    <glyph glyph-name="caron" unicode="&#x2c7;" horiz-adv-x="478" 
d="M471 1094q11 -29 4 -56q-7 -30 -35 -58q-2 -3 -9 -11.5t-17 -21.5q-14 -20 -36.5 -49t-55.5 -71l-1 -1q-2 -3 -6 -7q-22 -26 -44.5 -45.5t-55.5 -19.5q-23 0 -51 12v1q-7 3 -10 8q-1 2 -5 4q-14 11 -36.5 28.5t-44.5 38.5q-57 55 -62 97q-2 28 16 47q26 26 54 26
q18 0 33 -8.5t28 -20t22.5 -24t15.5 -20.5q1 -3 4 -6q14 -19 20.5 -22t7.5 -3t6 3t13 17q8 13 15 30.5l15 37.5q10 24 20.5 49t24 46.5t30 37.5t37.5 22q1 0 1.5 0.5t1.5 0.5q2 0 5 0.5t6 0.5q27 0 52.5 -18t36.5 -45z" />
    <glyph glyph-name="uni02C9" unicode="&#x2c9;" horiz-adv-x="552" 
d="M550 891q6 -13 1 -29q-2 -7 -8 -15t-20 -17t-38.5 -18.5t-63.5 -19.5q-21 -5 -41.5 -9t-37.5 -7t-29.5 -4.5t-18.5 -1.5q-17 -2 -34 -3t-32 -1q-135 0 -204 58q-17 15 -19.5 28.5t-0.5 21.5q6 19 25 32q16 10 35 14h1q15 3 34 3q17 0 33 -2l32 -4q17 -3 32.5 -5t30.5 -2
q30 1 61.5 4.5t63.5 8.5q30 4 58 7t51 3q49 0 70 -18q13 -11 19 -24z" />
    <glyph glyph-name="breve" unicode="&#x2d8;" horiz-adv-x="437" 
d="M423 952q6 -14 8.5 -29t1 -30t-6 -28t-11.5 -21q-18 -20 -42.5 -34t-39.5 -21q-53 -25 -94 -28q-23 -3 -44 -3q-78 0 -130.5 30t-76.5 87q-13 32 11 68q13 18 30 28.5t35 10.5q9 0 23.5 -5.5t26.5 -26.5q43 -48 81 -48q26 0 49.5 17t44.5 36q19 17 35.5 28.5t34.5 11.5
q46 0 64 -43z" />
    <glyph glyph-name="dotaccent" unicode="&#x2d9;" horiz-adv-x="205" 
d="M203 544q3 -29 -13 -48q-17 -21 -51 -30q-2 0 -2.5 -0.5t-2.5 -0.5q-33 0 -60.5 11t-45.5 31q-28 33 -22 80q0 2 0.5 2.5t0.5 2.5q9 21 31.5 34t48.5 13q42 0 77 -29q34 -30 39 -66z" />
    <glyph glyph-name="ring" unicode="&#x2da;" horiz-adv-x="348" 
d="M322 693q42 -71 21 -155q-9 -38 -30 -73.5t-52 -64.5q-41 -36 -91 -36q-43 0 -84 25t-64 66q-35 64 -29 134t51 126q26 31 55 48q38 23 76 23q4 0 7.5 -0.5t7.5 -0.5q42 -5 80 -33q16 -11 29 -26.5t23 -32.5zM150 596q-4 -22 1 -41t16 -23q2 -1 5 -1q9 0 17 14.5t10 34.5
q2 17 -2.5 34t-15.5 19q-2 1 -5 1q-7 0 -14.5 -8.5t-11.5 -29.5z" />
    <glyph glyph-name="ogonek" unicode="&#x2db;" horiz-adv-x="312" 
d="M314 -117q11 -19 2 -38q-7 -14 -23 -34.5t-35.5 -41.5t-39 -39t-34.5 -28q-12 -7 -29 -7q-21 0 -48 9t-50 24q-62 42 -62 98q0 13 5 30t12.5 35.5t17.5 36.5t21 34q9 13 21 29.5t27 30.5t31 24t33 10q8 0 17 -3q8 -2 21.5 -7.5t21.5 -19.5q3 -5 4.5 -14t-2.5 -20l-1 -1
q-8 -18 -19.5 -30.5t-22.5 -23.5q-15 -14 -24.5 -27t-9.5 -33q0 -13 1.5 -20t3.5 -9q2 -4 3 -4.5t2 -0.5q4 0 7 2q13 6 21.5 16t17.5 22q4 4 7 8t7 9q12 14 34 14q16 0 34 -7.5t28 -23.5z" />
    <glyph glyph-name="tilde" unicode="&#x2dc;" horiz-adv-x="637" 
d="M631 970q7 -15 9 -30.5t0.5 -30.5t-5.5 -28t-8 -22q-22 -55 -54 -82q-31 -25 -70 -25q-23 0 -45.5 8t-43.5 20.5t-39.5 27t-33.5 26.5q-2 2 -4.5 4t-4.5 4q-18 11 -39.5 17t-41.5 6q-17 0 -36.5 -6t-33.5 -27q-13 -21 -34 -33t-47 -12q-32 0 -57.5 19t-34.5 49v1
q-12 49 27 99q19 23 39.5 39.5t33.5 24.5q44 28 90 28q26 0 50 -8.5t46.5 -22.5t44 -32t42.5 -36q11 -9 21 -18.5t21 -17.5q1 -1 3 -1q3 2 8 11.5t9 17.5q6 13 13.5 26t18.5 25q26 29 65 29q14 0 34 -5q40 -10 57 -45z" />
    <glyph glyph-name="hungarumlaut" unicode="&#x2dd;" horiz-adv-x="385" 
d="M180 738q9 -23 4 -58q-4 -35 -21 -78t-42 -81q-8 -13 -20.5 -28.5t-27.5 -29.5t-32 -23.5t-35 -9.5q-7 0 -10 1h-3q-8 0 -19 8q-5 1 -6 3l-5 5t-5 8q-4 5 -6 13q-5 19 4.5 37t19.5 32q3 4 7 10q28 47 29 95q2 50 23 87q28 50 78 50q14 0 26 -4q30 -8 41 -37zM380 760
q22 -28 11 -70q-5 -23 -16 -48.5t-26 -53.5q-17 -30 -32.5 -53.5t-26.5 -38.5q-17 -23 -39 -35.5t-42 -12.5q-26 0 -38 20q-17 28 9 77q14 28 26.5 60t13.5 67q0 56 32 88q27 29 67 29q38 0 61 -29z" />
    <glyph glyph-name="dieresistonos" unicode="&#x385;" horiz-adv-x="359" 
d="M367 543q3 -29 -13 -48q-17 -21 -51 -30q-2 0 -2.5 -0.5t-2.5 -0.5q-33 0 -60.5 11t-45.5 31q-2 2 -3.5 4.5t-3.5 5.5q-3 -11 -11 -21q-17 -21 -51 -30q-2 0 -2.5 -0.5t-2.5 -0.5q-33 0 -60.5 11t-45.5 31q-28 33 -22 80q0 2 0.5 2.5t0.5 2.5q9 21 31.5 34t48.5 13
q42 0 77 -29q6 -6 11.5 -12t10.5 -12v1q0 2 0.5 2.5t0.5 2.5q9 21 31.5 34t48.5 13q42 0 77 -29q34 -30 39 -66zM147 636q-27 0 -38 21q-18 27 9 77q14 28 26.5 60t13.5 67q0 55 31 88q14 14 31.5 21.5t35.5 7.5q38 0 61 -29q23 -28 12 -70q-6 -23 -16.5 -48.5t-26.5 -53.5
q-16 -30 -31.5 -53.5t-26.5 -38.5h-1q-17 -23 -38.5 -36t-41.5 -13z" />
    <glyph glyph-name="afii10017" unicode="&#x410;" horiz-adv-x="554" 
d="M533 195q6 -16 12 -35t7.5 -38.5t-3 -40t-20.5 -39.5q0 -1 -1 -1q-18 -21 -43.5 -32.5t-51.5 -11.5q-14 0 -26 3h-1q-31 8 -51.5 24.5t-34.5 37t-22.5 44t-15.5 46.5q-5 17 -11 33q-1 0 -2 -0.5t-2 -0.5q-10 -4 -19.5 -7.5t-18.5 -8.5t-12.5 -8t-4.5 -4q2 -15 2.5 -32
t-2.5 -34q-6 -40 -32 -64q-28 -26 -68 -26h-3q-53 1 -85 39q-20 24 -28 56.5t-9 66t2.5 63.5t6.5 50q0 7 2 13q1 15 4.5 44.5t10.5 68t17.5 82.5t24.5 88q73 230 177 230q18 0 37 -8q31 -12 53.5 -40.5t40 -64t29.5 -75t22 -74.5q5 -16 9 -30.5t8 -25.5l18 -50t17 -50
q16 -47 32.5 -94t34.5 -94zM223 459q-3 15 -6 25t-5 15q-4 -6 -8.5 -22t-8.5 -49q-2 -25 -2.5 -50t-0.5 -43q23 11 41 24q0 5 -0.5 10.5t-0.5 11.5q-2 17 -3.5 37.5t-5.5 40.5z" />
    <glyph glyph-name="afii10018" unicode="&#x411;" horiz-adv-x="575" 
d="M547 387q32 -65 23.5 -134.5t-56.5 -135.5q-40 -54 -123 -86q-38 -15 -79.5 -23.5t-82.5 -8.5q-60 0 -106 17t-74 49q-47 54 -35 138q4 28 9.5 55.5t10.5 53.5q7 31 13 62t9.5 61.5t3 61t-6.5 61.5q-3 15 -8.5 29.5t-11.5 30.5q-12 31 -20.5 63t-0.5 67q7 36 46 62
q32 22 67 27h5q44 -5 80 -7.5t68 -2.5h23.5t22.5 1q12 1 26 3.5t29 6.5q20 5 40.5 9t40.5 4q32 0 52 -13h1q36 -21 49 -49q14 -26 5 -56q-4 -15 -18 -37.5t-48 -48.5q-13 -11 -35 -23.5t-38 -13.5q-7 -1 -13.5 -1h-12.5q-35 0 -63.5 5t-60.5 13l-15 3q0 -17 -1.5 -34.5
t-3.5 -35.5q87 -5 163 -47q43 -23 74.5 -55.5t51.5 -70.5zM263 212h2q12 0 30.5 3.5t37.5 11.5q10 5 23 13.5t15 22.5q4 40 -40 70q-16 11 -33 18.5t-33 12.5q2 -35 3 -69t-4 -70v-6v1v-1q0 -1 -0.5 -2t-0.5 -2v-3z" />
    <glyph glyph-name="afii10019" unicode="&#x412;" horiz-adv-x="570" 
d="M541 376q66 -180 -52 -277v-1q-60 -48 -136.5 -74t-162.5 -26h-15t-15 1q-21 1 -43.5 7t-43.5 16.5t-39 26t-29 36.5q-11 20 -13.5 50.5t20.5 70.5q15 24 22 55.5t8 71.5q0 36 -4 72.5t-9 70.5q-1 10 -2 19.5t-2 18.5q-15 118 0 183q18 82 84 99q1 0 1 0.5t1 0.5
q32 5 64 8.5t61 3.5q67 0 120 -15q65 -18 104 -55q25 -23 42.5 -60t9.5 -79q-5 -27 -22 -45t-35 -32q-5 -4 -9 -7.5t-8 -7.5q-4 -3 -7 -6t-6 -5q-6 -6 -9 -8q12 -5 30 -12q68 -27 95 -101zM266 320q-15 -7 -23 -13t-12.5 -14t-6 -19.5t-2.5 -27.5v-2q-2 -32 -1 -47t3 -20
q63 25 93 69q12 17 16.5 33t4.5 26q0 16 -6 22q-4 3 -9 4t-10 1q-22 0 -47 -12zM288 593q0 13 -4 18q-7 7 -26 7q-13 0 -25 -2.5t-19 -4.5q-1 0 -1 -0.5t-1 -0.5q-4 -1 -5.5 -2t-3.5 -2q-4 -6 -4.5 -15.5t0.5 -21t2.5 -23t3.5 -20.5q5 -22 5 -34q7 4 17.5 12.5t23.5 23.5
q16 18 25.5 35.5t11.5 29.5z" />
    <glyph glyph-name="afii10020" unicode="&#x413;" horiz-adv-x="537" 
d="M481 817q30 -16 44.5 -48.5t9.5 -74.5q-6 -61 -60 -90q-40 -22 -105 -22q-28 0 -57 4.5t-52 12.5l-8 2q-3 -5 -5 -12l-4 -10l-4 -10q-6 -15 -11 -29.5t-9 -29.5h-1q-14 -42 -19.5 -77.5t-3.5 -67.5q2 -30 11.5 -59t21.5 -60q17 -44 29.5 -89t1.5 -98q-9 -40 -31 -60
q-23 -20 -53 -20q-18 0 -37.5 7t-38.5 20q-17 11 -31.5 26.5t-24.5 32.5q-39 68 -43 163q-2 37 1 78t11 86q7 42 15.5 86.5t20.5 87.5t28 83t38 74q3 5 6 11.5t7 12.5q5 11 11.5 22.5t16 21t23.5 16t35 6.5h3q26 -4 51 -7t51 -3q9 0 17.5 0.5t16.5 1.5t16 3.5t16 5.5
q14 5 28 8.5t29 3.5q20 0 38 -9h1v0z" />
    <glyph glyph-name="afii10021" unicode="&#x414;" horiz-adv-x="813" 
d="M868 58q1 -26 0 -51v-2q-1 -4 -1 -13v-2l-2 -18v-3q-2 -10 -2 -14v-3q-2 -14 -2 -30t2 -33v-2q0 -1 0.5 -1.5t0.5 -2.5v-9q3 -24 -7 -50v-1q-11 -29 -32 -42h-1q-29 -20 -64 -20q-42 0 -74.5 26.5t-42.5 67.5q-2 7 -2.5 12.5t-1.5 11.5q-11 68 17 122q-6 0 -11.5 -0.5
t-10.5 -0.5q-11 0 -20 0.5t-18 1.5q-4 1 -10 1h-9l-1 1q-29 2 -54 3t-49 1h-19t-19 -1q-24 -1 -48.5 -3t-48.5 -4q-33 -3 -66.5 -6t-68.5 -3h-3q5 -11 10 -23.5t9 -26.5q14 -56 -8 -94q-14 -27 -41.5 -43t-59.5 -16q-39 0 -69 25q-26 23 -30.5 50t-5.5 53q-1 9 -1 16.5
t-1 15.5q-2 10 -4 15v1q-3 14 -6 25.5t-5 24.5q-1 5 -2 9t-2 9q-8 33 -2.5 66.5t23.5 57.5q31 40 83 37h22h14h6h3q1 1 2 2.5t4 5.5v1q1 2 2 3t2 3l1 1q2 4 3 5q2 5 5 6l9 12q3 5 6 8.5t6 7.5q2 2 4 9l3 6q2 4 3 8t3 9l6 19q1 5 1.5 11t2.5 12l3 23q0 6 0.5 11t0.5 10
q3 30 3 56v62v8q0 2 -0.5 5t-0.5 5q0 8 1 11v21t-2 20q0 1 -0.5 1.5t-0.5 1.5v8q0 3 -0.5 6t-0.5 5v1q2 29 4.5 58t10.5 58q21 70 73 97h1q3 2 6 3t7 3q2 1 8 3h1q21 8 45 11l17 3q2 0 2.5 0.5t2.5 -0.5q18 -2 36 0h1q2 0 4 0.5t4 0.5h10l42 6h2q8 0 16 3h3q5 1 9.5 1.5
t9.5 1.5q15 2 31.5 4t33.5 2q38 0 63 -13q32 -15 46 -51v-1q1 -1 1 -2t1 -2q2 -5 3.5 -10t3.5 -11q9 -39 5.5 -82t-9.5 -83q-2 -15 -3.5 -29t-3.5 -28q-2 -46 -1.5 -92.5t5.5 -99.5q2 -11 2.5 -22.5t2.5 -23.5q4 -23 6 -47.5t0 -49.5q3 0 6.5 0.5t6.5 0.5h28q14 0 29 -1.5
t26 -9.5v-1l12 -9h1l11 -9q44 -33 46 -80v-1q0 -11 1 -15v-2zM449 184q-4 38 0.5 76.5t10.5 76.5q7 39 11 76t0 74l-13 112l-3 18q-2 6 -1.5 12.5t0.5 11.5v14q-5 3 -10.5 4.5t-10.5 3.5h-3q-4 2 -11 2q-1 0 -1.5 0.5t-1.5 0.5h-5h-5q-1 0 -1.5 -0.5t-2.5 -0.5h-1
q-1 0 -3 -2q-8 -5 -12 -17.5t2 -31.5l1 -1q12 -41 12 -86v-19v-9t-1 -9q0 -6 -0.5 -10.5t-1.5 -8.5q0 -3 -1 -4q-2 -4 -2 -17v-44q-1 -33 -2.5 -66.5t-9.5 -67.5l-3 -24v-7q-1 -4 -1 -8t-2 -9q-3 -22 -11 -42h9h8z" />
    <glyph glyph-name="afii10022" unicode="&#x415;" horiz-adv-x="477" 
d="M492 137q10 -35 -0.5 -66.5t-39.5 -53.5v-1q-26 -18 -57 -18q-14 0 -28 3t-28 7q-11 3 -21.5 5.5t-20.5 2.5q-3 1 -8 1q-14 0 -29 -2.5t-31 -6.5q-15 -3 -31 -6t-32 -4h-7q-65 0 -109 46q-26 28 -40 66t-12 79q1 23 7 42.5t13 37.5q5 13 9.5 25t6.5 25q6 38 1.5 76
t-12.5 69q-25 109 -16 183q7 65 47 111q33 40 95 40q16 0 31.5 -2t29.5 -4l6 -1q22 -3 48 -3q16 0 32 1t33 2h2h1q8 1 15.5 1.5t15.5 0.5q18 0 42.5 -4t44.5 -21q27 -24 30 -65q2 -41 -22 -68q-21 -23 -50 -28t-51 -5q-11 0 -21 0.5t-20 0.5q-6 1 -12 1h-11h-1q-6 1 -12 1.5
t-14 1.5l-16 2t-16 1q-16 0 -23 -4t-10 -8q-7 -10 -8.5 -23.5t0 -29t5.5 -32t9 -32.5q2 -7 3.5 -13.5t3.5 -13.5q13 9 30 21q23 16 46.5 29t51.5 13h11t10 -2q18 -4 32.5 -16t22.5 -29q9 -18 9 -38.5t-8 -37.5q-14 -31 -44 -51.5t-57 -33.5q-26 -11 -55.5 -20t-56.5 -13
q-2 -6 -2 -9q-6 -18 -9 -36q-3 -19 -2 -23q0 -4 2 -6q1 -1 6 -1q14 0 34.5 8t40.5 17q23 10 43.5 18t37.5 8q5 0 8 -1q44 -6 80 -39q17 -16 29 -35.5t18 -39.5z" />
    <glyph glyph-name="afii10024" unicode="&#x416;" horiz-adv-x="865" 
d="M852 626q-22 -30 -49 -55t-55 -48q-12 -10 -24.5 -20t-23.5 -21q52 -33 92 -101q37 -64 58 -148q14 -57 16 -96.5t-7 -66.5t-24.5 -39t-29.5 -20q-2 -2 -4.5 -2.5t-4.5 -2.5q-24 -15 -47 -15q-28 0 -50 21q-18 16 -31 44q-13 25 -20 52.5t-12 48.5v4q-5 29 -12 58t-19 52
q-20 35 -62 44q2 -33 2.5 -78t-6.5 -89q-9 -60 -32 -95q-31 -47 -81 -51q-5 -1 -9.5 -1h-9.5q-58 0 -85 39q-32 46 -9 147q8 35 19.5 68t21.5 59q-26 -2 -45.5 -9.5t-33.5 -30.5q-11 -17 -16 -38t-9 -43q-1 -5 -1.5 -10.5t-1.5 -11.5l-1 -5q-4 -22 -10 -49.5t-18 -52.5
q-13 -30 -34 -46q-26 -21 -62 -20q-52 2 -79 38q-25 31 -27 89q0 26 3 49t7 40q45 197 155 268q-11 11 -23.5 20.5t-25.5 20.5q-32 27 -63.5 56t-52.5 66q-19 32 -21 67.5t14 61.5q25 45 84 45h1q51 -2 96 -48q19 -19 33 -41t25 -40q49 -84 117 -130q-8 37 -12.5 77t2.5 78
q5 31 27 58q29 32 60 32q20 0 39 -14q21 -16 33.5 -41t18.5 -54.5t7 -60.5t1 -59q28 23 48.5 51.5t40.5 59.5l21 33q26 39 54 64q40 34 83 34h10t10 -1q33 -7 49 -23.5t22 -32.5q12 -32 3 -71q-8 -35 -30 -64z" />
    <glyph glyph-name="afii10025" unicode="&#x417;" horiz-adv-x="560" 
d="M560 249q6 -45 -4.5 -84.5t-38.5 -71.5q-38 -44 -103 -68.5t-143 -24.5q-51 0 -96.5 11t-83.5 31q-43 23 -68 56.5t-31 74.5v5q4 39 32 68q27 27 66 36q16 3 35 3q24 0 50 -6q2 -1 6.5 -2.5t16.5 -6.5q10 -4 13 -6l4 -2q2 0 2 -1q28 -11 52.5 -16t44.5 -5q17 0 27 3
t15.5 7.5t7 9.5t1.5 8q1 14 -9 29.5t-28 29.5q-17 14 -47.5 28t-80.5 20q-26 3 -39.5 18.5t-11.5 38.5q1 15 8.5 32t19.5 31q29 32 60 32h6q43 0 65 16q15 12 15 30q0 20 -16.5 38t-40.5 18q-33 0 -61 -37q-1 0 -1 -1q-25 -27 -65 -27q-32 0 -57 19q-26 17 -42 47.5
t-18 64.5q-3 55 36 88q31 26 74 39.5t94 13.5q43 0 85.5 -9.5t79.5 -28.5q41 -20 70 -48t44 -62q27 -57 12 -126q-13 -53 -46 -96q39 -39 60 -93q13 -31 19 -63t10 -61z" />
    <glyph glyph-name="afii10026" unicode="&#x418;" horiz-adv-x="615" 
d="M594 237q32 -108 -2 -176q-13 -26 -29 -39.5t-25 -18.5q-6 -6 -13 -6q-3 -1 -6.5 -1h-6.5q-13 0 -27 3t-28 12t-26.5 24.5t-21.5 40.5q-9 24 -14 56t-5 70v39v58.5t3 58.5q0 4 0.5 22.5t1.5 41.5q-11 -21 -17 -45t-11 -49q-5 -20 -9 -39.5t-11 -36.5v-1q-4 -5 -5 -11
q-13 -29 -29 -63.5t-36.5 -66.5t-46.5 -58.5t-57 -38.5q-28 -11 -50 -11q-38 0 -63 28q-34 37 -38 119q-2 32 -0.5 62.5t3.5 52.5q6 53 7.5 91.5t0.5 66.5t-4 48t-6 36q-2 5 -2.5 10t-1.5 10q-11 46 -16.5 91t5.5 99q10 45 40 72q28 23 65 23q34 0 63.5 -19t43.5 -51v-1
q11 -26 7.5 -60.5t-10.5 -67.5q-2 -15 -4.5 -28.5t-3.5 -24.5v-17.5t-1 -20.5q-1 -17 -2 -39.5t-1 -47t0.5 -48t2.5 -41.5q35 39 61.5 101.5t49.5 128.5q14 42 30 83t34 77q20 40 43.5 52.5t41.5 12.5q23 0 45 -13.5t39 -39.5q33 -50 33 -108q0 -28 -3 -56t-7 -56
q-4 -22 -6.5 -44.5t-4.5 -45.5q-1 -50 6 -98t24 -102z" />
    <glyph glyph-name="afii10027" unicode="&#x419;" horiz-adv-x="622" 
d="M283 810q-71 0 -124.5 36.5t-81.5 102.5q-6 15 -4.5 31.5t11.5 30.5q8 13 20.5 20t26.5 7q10 0 26 -6.5t30 -32.5l1 -1q13 -29 24.5 -45.5t22 -25t20 -10.5t20.5 -2h6q19 1 32 16q8 8 14.5 19t12.5 22q8 13 15 25.5t17 22.5q23 26 58 26q45 0 65 -43q6 -14 8 -29t0.5 -30
t-6 -28t-11.5 -21q-17 -20 -41.5 -34t-40.5 -21q-25 -12 -49.5 -19t-44.5 -9q-7 -1 -13.5 -1.5t-13.5 -0.5zM593 236q32 -108 -2 -176q-13 -26 -29 -39.5t-25 -18.5q-6 -6 -13 -6q-3 -1 -6.5 -1h-6.5q-13 0 -27 3t-28 12t-26.5 24.5t-21.5 40.5q-9 24 -14 56t-5 70v39v58.5
t3 58.5q0 4 0.5 22.5t1.5 41.5q-11 -21 -17 -45t-11 -49q-5 -20 -9 -39.5t-11 -36.5v-1q-4 -5 -5 -11q-13 -29 -29 -63.5t-36.5 -66.5t-46.5 -58.5t-57 -38.5q-28 -11 -50 -11q-38 0 -63 28q-34 37 -38 119q-2 32 -0.5 62.5t3.5 52.5q6 53 7.5 91.5t0.5 66.5t-4 48t-6 36
q-2 5 -2.5 10t-1.5 10q-5 23 -10 45.5t-7 45.5q-4 50 6 99q10 45 40 72q28 23 65 23q34 0 63.5 -19t43.5 -51v-1q11 -26 7.5 -60.5t-10.5 -67.5q-2 -15 -4.5 -28.5t-3.5 -24.5v-17.5t-1 -20.5q-1 -17 -2 -39.5t-1 -47t0.5 -48t2.5 -41.5q35 39 61.5 101.5t49.5 128.5
q14 42 30 83t34 77q20 40 43.5 52.5t41.5 12.5q23 0 45 -13.5t39 -39.5q33 -50 33 -108q0 -28 -3 -56t-7 -56q-4 -22 -6.5 -44.5t-4.5 -45.5q-1 -50 6 -98t24 -102z" />
    <glyph glyph-name="afii10028" unicode="&#x41a;" horiz-adv-x="560" 
d="M370 482q109 -71 154 -267q4 -17 7 -40t2.5 -47.5t-6 -48.5t-20.5 -43q-28 -35 -79 -37h-4q-32 0 -58 20q-21 18 -34 45q-12 25 -17.5 52.5t-9.5 50.5l-1 4q-5 29 -12 56.5t-20 47.5q-20 32 -60 41q4 -53 1 -109t-20 -109q-12 -40 -45 -68q-33 -30 -74 -30q-43 0 -76 36
v1q-40 43 -26 123q5 32 16 61.5t21 54.5q2 4 2.5 7t2.5 6q2 5 4 10.5t4 10.5q10 23 17.5 46t10.5 48q1 19 -0.5 46.5t-5 55.5t-7.5 52.5t-7 37.5q-2 4 -2 7q-1 2 -1 4t-0.5 4t-0.5 4q-5 35 -5.5 75.5t22.5 74.5q12 18 30 28t38 10q36 0 57 -29q15 -20 23 -44t12.5 -49.5
t6 -52t1.5 -51.5q27 22 47.5 50.5t40.5 59.5q5 8 10.5 16.5t11.5 16.5q26 39 54 64q39 35 83 35h9.5t9.5 -1q34 -7 50 -24t22 -33q6 -17 6.5 -35t-4 -36t-12.5 -34.5t-18 -29.5q-22 -29 -49 -54t-54 -48q-12 -10 -24.5 -20.5t-23.5 -21.5z" />
    <glyph glyph-name="afii10029" unicode="&#x41b;" horiz-adv-x="682" 
d="M676 170q12 -48 -2 -92q-17 -51 -66 -70q-26 -9 -51 -9q-64 0 -107 54q-18 23 -29 52t-13 60q-4 40 -1 79.5t7 77.5q3 35 5.5 71t0.5 71q-1 16 -3 31.5t-4 31.5q-4 28 -7 56.5t-1 58.5q-2 2 -14.5 5.5t-40.5 3.5q-20 0 -38.5 -2t-30.5 -5q3 -38 5.5 -83t2.5 -93t-4 -97
t-13 -96q-21 -107 -69 -173q-57 -76 -151 -93q-14 -3 -25 -3q-40 0 -68 30q-25 28 -27 69q0 23 2.5 51.5t14.5 54.5q0 1 1 1q9 18 16 29t13.5 17.5t14 10.5t17.5 7q8 4 19.5 8.5t28.5 15.5q13 14 22.5 25t16.5 25t12.5 32.5t10.5 47.5v1q5 20 5 42v44q0 6 -0.5 12.5
t-0.5 12.5q0 20 -1.5 41.5t-3.5 41.5q-2 23 -3.5 47t-1.5 48q0 50 33 72q15 9 33 11.5t33 2.5h12t11 -1h26h2q15 -2 33 -2.5t36 -0.5h23t22 2q3 0 15 2.5t24 4.5q2 1 3.5 2t3.5 1q24 7 54 13t59 6q57 0 84 -28h1q26 -27 45 -60.5t12 -81.5q-3 -20 -10 -38t-15 -35
q-8 -19 -15 -37t-8 -38q0 -20 0.5 -40.5t1.5 -40.5l2 -58t-1 -58q0 -26 6.5 -47t14.5 -44q5 -13 10 -26.5t10 -30.5z" />
    <glyph glyph-name="afii10030" unicode="&#x41c;" horiz-adv-x="745" 
d="M759 152q5 -27 -2.5 -54.5t-26.5 -50.5q-37 -45 -89 -45q-35 0 -66 26q-48 42 -63 119q-7 30 -7 64t5 67q2 13 4 24t4 21q5 20 7.5 37t0.5 40q-1 2 -1 4.5t-1 4.5q-3 -9 -6 -18.5t-6 -18.5q-14 -45 -26.5 -90t-19.5 -90q0 -2 -0.5 -5t-0.5 -5q-3 -21 -6.5 -44t-13.5 -44
q-24 -53 -79 -59h-2q-42 0 -75 67q-11 25 -20 52t-14 47q-2 6 -3.5 11t-3.5 9q-15 48 -25.5 89t-17.5 79q-1 5 -1.5 11t-2.5 14q-1 11 -2.5 25t-4.5 26q-2 4 -4 12q-2 -9 -3 -21q-1 -14 -1 -25v-13q3 -23 8 -54.5t13 -62.5q8 -32 14.5 -67.5t5.5 -70.5q-3 -82 -48 -137v-1
q-29 -35 -71 -35q-43 0 -81 36q-17 17 -27.5 37t-12.5 42q-6 42 5 80t25 74l11.5 34.5t10.5 33.5v1q9 31 11.5 69.5t1.5 76t-4 70t-5 51.5q-1 4 -1 7.5v6.5q-6 54 4 95.5t34 67.5q39 43 107 43q8 0 16.5 -0.5t16.5 -1.5q45 -8 66 -53q8 -17 12.5 -36.5t7.5 -37.5q1 -7 2 -13
t2 -11l2 -9q4 -20 9.5 -44t12 -48.5t15 -48t18.5 -42.5q14 23 22 55.5t14 60.5q2 9 4 17.5t4 16.5t3.5 17t3.5 18q6 29 13.5 58.5t24.5 52.5q18 26 42.5 33t50.5 7h14h14h1q56 -2 92 -41q31 -35 39 -89q6 -38 3 -75.5t-8 -74.5q-3 -26 -5.5 -51.5t-2.5 -50.5q2 -45 12 -84
t23 -80q8 -26 15.5 -52.5t12.5 -55.5z" />
    <glyph glyph-name="afii10031" unicode="&#x41d;" horiz-adv-x="510" 
d="M520 154q10 -28 5 -59.5t-23 -56.5q-31 -42 -76 -42q-16 0 -32 6q-37 13 -61 45.5t-39 73t-23 84t-14 79.5h-1q-7 -2 -17 -5t-19.5 -6.5t-15.5 -8t-6 -9.5q4 -20 11.5 -38t16.5 -38q3 -9 8 -19q31 -77 12 -113q-10 -22 -30 -30.5t-40 -14.5q-2 0 -3 -0.5t-3 -0.5
q-1 0 -1 -0.5t-1 -0.5q-4 -1 -7.5 -1h-6.5q-45 0 -78 51q-14 20 -24.5 46.5t-19.5 61.5q-17 66 -24.5 135.5t-8.5 120.5v34q-2 39 -2.5 93.5t7.5 106.5q9 60 28 95q25 45 70 50q32 3 54 -21q16 -18 23.5 -46.5t9 -62.5t-0.5 -70t-5 -67q-1 -10 -1.5 -20t-0.5 -18
q13 4 26.5 8.5t28.5 12.5q7 3 8.5 4.5t1.5 2.5v5.5t-1 8.5q0 4 -0.5 8.5t-0.5 10.5v24q0 29 0.5 58.5t8.5 58.5q4 15 13 30.5t21 27.5t27 19.5t31 7.5q11 0 28.5 -7.5t30.5 -34.5q14 -29 22 -60.5t12.5 -65t6 -67.5t2.5 -68q2 -38 3.5 -73t6.5 -67q5 -30 15 -56t21 -52
q16 -34 27 -70z" />
    <glyph glyph-name="afii10032" unicode="&#x41e;" horiz-adv-x="577" 
d="M588 443q2 -119 -39 -215q-33 -81 -92 -140q-41 -41 -88 -66q-42 -22 -70 -22h-4q-65 5 -117 29q-50 24 -88 67q-35 39 -59 90.5t-35 113.5q-14 74 -6 153q7 78 35 148q28 72 74 126q51 59 114 85q46 19 87 19q60 0 115 -36t97 -103q35 -56 55.5 -122.5t20.5 -126.5z
M379 337q8 38 8.5 78t-1.5 69q-1 11 -5.5 41.5t-18.5 61.5q-22 55 -56 55q-16 0 -37 -12q-40 -22 -63 -101q-9 -34 -12.5 -64t-4.5 -44q0 -24 4.5 -58t15 -65.5t27 -53.5t40.5 -22q12 0 30 8q55 25 73 107z" />
    <glyph glyph-name="afii10033" unicode="&#x41f;" horiz-adv-x="620" 
d="M613 222q5 -14 10 -27.5t9 -30.5q9 -33 3.5 -63.5t-24.5 -55.5q-19 -23 -46.5 -36.5t-57.5 -13.5q-29 0 -59 14q-29 15 -50 45q-18 24 -26 51t-9.5 55t1.5 56.5t6 55.5q2 11 3 20l2 18q9 103 -3 204q-1 5 -1 8.5t-1 8.5q-2 21 -4.5 43t-2.5 44v1q0 5 -0.5 6.5t-0.5 2.5
q-1 0 -2.5 0.5t-5.5 0.5q-5 0 -10.5 -0.5t-12.5 -1.5q-5 -1 -9 -1.5t-9 -0.5q-14 -2 -28 -3t-28 -3q0 -10 -1 -19l-2 -18q-4 -25 -6.5 -49t-4.5 -53q-4 -42 -3.5 -85.5t4.5 -92.5q1 -22 6 -49q3 -26 6 -54t1.5 -55.5t-9 -54t-25.5 -48.5q-2 -6 -7 -10l-1 -1l-3 -2
q-2 -2 -4.5 -4l-7.5 -6q-1 0 -1 -1h-1q-7 -5 -8 -7q-1 0 -2 -1q-6 -4 -10 -5q-20 -9 -41 -9q-26 0 -49 12.5t-41 33t-29.5 45t-12.5 48.5q-3 38 1.5 74.5t10.5 72.5q6 37 10 72t1 70q-2 17 -5 35.5t-6 38.5q-9 52 -14.5 107.5t11.5 104.5q4 11 11 23t16 24q7 10 18 20.5
t24 16.5q28 14 60 11h19h5.5t5.5 -1h4q4 0 8 -2q14 -2 27.5 -4t27.5 -4q19 -3 37 -6t36 -3q7 0 13.5 0.5t12.5 1.5q8 2 17 3t17 3q29 5 59 9.5t60 4.5q2 1 6 1q26 0 49.5 -7.5t42.5 -21.5q43 -31 48 -85q3 -31 -6 -56.5t-20 -48.5q-7 -16 -13 -31t-8 -32q-5 -32 -4 -65
t3 -65q3 -42 3 -84q-1 -26 5.5 -46.5t14.5 -42.5z" />
    <glyph glyph-name="afii10034" unicode="&#x420;" horiz-adv-x="545" 
d="M539 625q11 -48 2 -102q-6 -32 -25.5 -58t-46 -48t-57 -41t-59.5 -35q-13 -8 -24.5 -14.5t-21.5 -13.5q-38 -24 -74 -41q1 -6 1.5 -11.5t1.5 -11.5q3 -27 3.5 -52.5t-2.5 -49.5q-3 -20 -10.5 -47.5t-25.5 -51.5q-35 -49 -97 -49h-4q-67 3 -92 40q-22 31 -15 87
q3 22 9.5 44.5t12.5 43.5q3 8 5.5 15.5t4.5 14.5q10 37 11 74.5t-2.5 76t-11.5 76.5l-16 76l-3 11q-24 110 -2 170q12 32 38 53q23 19 61 28q1 0 1 1q41 7 91 7q45 0 87.5 -6.5t80.5 -18.5q90 -30 138 -87q30 -37 41 -80zM279 516q38 41 28 81q-1 5 -5 13.5t-11 16.5t-18 14
t-26 6q-26 0 -57 -18q0 -5 4 -20q2 -9 5.5 -18.5t6.5 -18.5q3 -8 5 -14.5t4 -11.5q3 -17 4 -33.5t2 -33.5v-5q35 19 58 42z" />
    <glyph glyph-name="afii10035" unicode="&#x421;" horiz-adv-x="497" 
d="M391 332q14 0 32 -8t37 -35q13 -18 22.5 -42.5t14.5 -49t5 -47.5t-6 -39q-21 -62 -88 -96q-29 -15 -61.5 -22.5t-67.5 -7.5q-23 0 -44.5 3t-40.5 11q-56 20 -96 64q-36 39 -58 95q-24 58 -31 116.5t-7 101.5q3 104 44 204q22 52 52 96t67 76v1q33 28 73.5 43.5t82.5 15.5
q60 0 107.5 -31t70.5 -86q10 -25 12 -53q3 -35 -12 -57q-6 -9 -18.5 -18t-35.5 -10h-3q-24 0 -46 6.5t-42 14.5q-11 5 -20.5 8.5t-20.5 5.5h-1q-6 3 -13 3q-14 0 -26 -9.5t-21.5 -24t-17 -30.5t-12.5 -29q-15 -42 -23 -82t-10 -60q-2 -18 0 -42.5t9 -47.5t18.5 -39.5
t29.5 -18.5h2q14 0 28 17.5t27 35.5q11 17 22.5 32t25.5 24q20 11 40 11z" />
    <glyph glyph-name="afii10036" unicode="&#x422;" horiz-adv-x="570" 
d="M560 701q20 -47 -8 -88q-17 -25 -42.5 -41t-47.5 -24q-24 -9 -50 -14.5t-49 -6.5q8 -38 13.5 -95t6.5 -119q0 -86 -12 -150q-14 -80 -45 -120q-34 -46 -87 -46q-9 0 -18 1.5t-19 3.5q-36 9 -53 40q-11 19 -13 44t2 52t11.5 54t15.5 51q4 14 7 25t5 19q8 35 9 70t2 73v14
q1 30 1 48.5t-3 26.5q-1 5 -5 8t-18 11q-1 1 -5 3l-6 4t-7 4q-18 11 -41 25t-44 31q-53 44 -59 85q-5 40 28 73q26 29 71 29q29 0 59.5 -10.5t59.5 -23.5q23 -10 42.5 -17.5t35.5 -9.5h1q7 -1 14 -1h14q28 0 54 4.5t55 11.5l7 2q22 5 37 5q62 0 81 -52z" />
    <glyph glyph-name="afii10037" unicode="&#x423;" horiz-adv-x="682" 
d="M673 788q11 -15 14.5 -30.5t2.5 -30.5t-5.5 -29.5t-8.5 -28.5q-1 -2 -1 -3t-1 -3q-14 -43 -33.5 -80t-39.5 -72q-13 -21 -25.5 -43.5t-23.5 -45.5q-3 -7 -5.5 -13t-5.5 -12q-21 -46 -42.5 -91.5t-47.5 -87.5q-20 -34 -39.5 -65t-42.5 -58t-50.5 -49.5t-61.5 -39.5
q-29 -14 -62.5 -26t-67.5 -12q-56 0 -95 39q-25 24 -32 58t7 69t41 54q28 22 66 24h4q14 0 27.5 -3.5t27.5 -7.5q12 -4 22.5 -6.5t19.5 -2.5q8 0 16 4.5t15 24.5q2 5 3 5q5 8 12 22t9 22q-7 8 -13.5 16.5t-14.5 16.5q-5 5 -9.5 11t-9.5 11q-24 30 -41 53t-33 44
q-14 19 -28.5 37.5t-31.5 39.5q-1 0 -1 1q-6 8 -12 15.5t-11 15.5q-9 11 -18 23.5t-19 23.5q-21 26 -29.5 62.5t-1.5 71.5q12 61 64 89q28 14 52 14q56 0 101 -73q17 -29 31.5 -65.5t28.5 -74.5l18 -48t19 -45.5t20.5 -38t22.5 -24.5q14 51 22.5 101t15.5 95q4 29 11 60
t21 58q35 68 108 68h9h14h10h10q25 0 51.5 -6t46.5 -33v-1v0z" />
    <glyph glyph-name="afii10038" unicode="&#x424;" horiz-adv-x="777" 
d="M757 472q12 -43 14.5 -85t-5.5 -78q-18 -88 -78 -135q-28 -21 -61.5 -35.5t-72.5 -29.5l-4 -2q-11 -4 -21.5 -8t-21.5 -9t-21.5 -9t-21.5 -9q-9 -3 -13.5 -14t-9.5 -28q-2 -8 -4 -14.5t-5 -14.5q-24 -57 -46 -89t-60 -32q-14 0 -26 4q-10 2 -21.5 10t-19.5 26
q-8 20 -10 54q0 21 2.5 41.5t4.5 34.5q-70 16 -127 53q-71 48 -107 117q-37 70 -28 164q4 39 15.5 79.5t31.5 78.5q31 64 91 113t133 71q5 2 7.5 15.5t4.5 24.5q2 13 5 27t9 27t16.5 22.5t27.5 13.5q25 6 46 6q27 0 45 -9t29.5 -22.5t18.5 -30t12 -31.5q8 -22 14.5 -35
t18.5 -17h1q23 -8 44 -16t40.5 -19t38 -26t37.5 -36h1q25 -29 44.5 -67.5t31.5 -80.5zM599 328q17 28 10 62q-6 28 -24 53.5t-40 45.5q-2 -57 -11 -111t-20 -106q12 4 25 10t25 12.5t21 14t12 15.5q0 2 2 4zM328 285q19 80 9 147q-4 18 -10.5 35t-14.5 35l-15 39
q-40 -13 -64 -62q-23 -50 -25 -116q0 -29 4.5 -52.5t12.5 -37.5q30 -41 60 -41q11 0 18.5 6t12.5 14t8 17t4 15v1z" />
    <glyph glyph-name="afii10039" unicode="&#x425;" horiz-adv-x="582" 
d="M546 227q19 -35 22 -73q3 -42 -17 -85h-1q-15 -32 -40.5 -49.5t-56.5 -17.5q-56 0 -89 53q-20 31 -33.5 67t-25.5 72q-5 14 -9.5 27t-9.5 26q-3 -10 -6.5 -20.5t-6.5 -21.5q-12 -39 -26 -77.5t-37 -67.5q-18 -24 -52 -40.5t-67 -16.5q-64 0 -83 58h-1q-15 46 3 102
q13 45 49 98q19 27 39 50t39 41.5t34 31.5t23 20q-2 3 -4.5 8t-10.5 14q-9 11 -20 23t-24 26q-26 26 -53 56.5t-47 62.5q-51 78 -27 139q12 31 38.5 49t59.5 18q31 0 58 -15t43 -41q14 -23 23.5 -47.5t17.5 -48.5q8 -23 17 -45.5t22 -43.5q7 17 13.5 38.5t12.5 42.5
q7 26 14.5 51.5t17.5 45.5q8 16 19.5 32t26 28.5t32 20t37.5 7.5q28 0 52 -15q61 -37 67 -84q3 -20 -3 -40t-18 -40t-29 -40t-35 -41q-32 -35 -60 -72t-38 -77q-2 -6 3 -15t13.5 -19t19 -21.5t21.5 -21.5q25 -24 50.5 -51.5t42.5 -60.5z" />
    <glyph glyph-name="afii10040" unicode="&#x426;" horiz-adv-x="645" 
d="M719 14q5 -35 -1.5 -70.5t-23.5 -65.5q-20 -39 -44 -60q-34 -29 -73 -29h-7q-35 2 -60 22q-27 21 -35 55v1q-5 30 4.5 54t20.5 41q3 5 6.5 11.5t3.5 10.5q-2 2 -9 5t-27 6q-30 5 -61 8t-66 3q-27 0 -53 -1t-49 -3q-20 -2 -38.5 -3t-35.5 -1q-32 0 -65.5 7t-58.5 35
q-33 36 -42 110t3 203q4 40 1.5 79.5t-7.5 81.5q-2 26 -4 52.5t-3 52.5q-1 66 14 114q25 66 82 88q26 10 52 10q53 0 85 -41q21 -26 28 -60.5t-1 -71.5q-12 -64 -22.5 -133.5t-15.5 -147.5v-35q-1 -26 -1 -60t3 -65q4 -45 10.5 -57t7.5 -12q13 1 25 1h23q19 1 36.5 1.5
t34.5 3.5q2 0 5 0.5t3 2.5q2 3 1.5 9t-0.5 12q0 7 -0.5 14t0.5 15l1 7q4 46 7 89.5t1 88.5q-1 23 -2 45t-3 45q-2 45 -4 90.5t-3 91.5q-1 34 15 72t41 64q33 33 70 33q32 0 63 -26q25 -21 37 -48t15.5 -55.5t1 -58t-5.5 -56.5q0 -3 -0.5 -5.5t-0.5 -5.5q-7 -76 -8.5 -137.5
t2.5 -118.5q2 -20 4 -39.5t4 -39.5q1 -10 2 -19t2 -19q2 -14 2 -25.5v-22.5q13 -4 23.5 -8.5t20.5 -12.5q29 -20 46.5 -52t22.5 -70z" />
    <glyph glyph-name="afii10041" unicode="&#x427;" horiz-adv-x="597" 
d="M580 216q11 -26 19.5 -54t4.5 -63q-6 -50 -40 -79q-15 -13 -34 -19t-40 -6q-40 0 -78 22q-38 24 -55 66q-19 48 -17.5 98t7.5 99q0 8 1 11h-18q-14 -1 -27.5 -1h-27.5q-32 0 -71 3.5t-74 18.5q-76 33 -99 116q-12 41 -17.5 87.5t-9.5 87.5q-4 35 -4 80t19 87q14 28 45 43
q29 13 60 13q45 0 73 -23q18 -15 27 -38.5t11.5 -49.5t1 -52t-3.5 -45v-2q-1 -9 -2 -17.5t-3 -16.5q-6 -35 -4.5 -58.5t24.5 -39.5q14 -10 31 -12.5t39 -2.5h13h13h9q-3 25 -6 54q-3 27 -5.5 53.5t-2.5 53.5t3.5 53.5t13.5 52.5q18 43 46 67q28 22 61 22q31 0 60 -18
q27 -18 46 -45q22 -32 26 -69q6 -41 -9 -80q-9 -22 -14.5 -40.5t-8 -36.5t-3 -37t0.5 -42q0 -33 -3 -67q-2 -34 -3 -67t7 -59q4 -13 8.5 -24.5t9.5 -23.5z" />
    <glyph glyph-name="afii10042" unicode="&#x428;" horiz-adv-x="945" 
d="M928 309q5 -48 8.5 -96t-3.5 -96q-5 -45 -24.5 -77t-49.5 -47q-16 -7 -30 -7q-10 0 -18 2.5t-15 4.5t-12 4t-10 1q-15 -4 -36 -4t-40 3q-10 1 -19 1.5t-17 0.5h-9.5t-9.5 -1q-29 -6 -57 -7.5t-56 -2.5h-17t-18 -1q-36 -3 -78 -3q-22 0 -43.5 0.5t-43.5 1.5q-21 1 -42.5 2
t-42.5 1q-16 0 -30 -0.5t-28 -1.5q-2 -2 -4 0q-8 1 -15.5 1h-15.5q-22 0 -45 4t-49 26v1q-45 40 -50 117v1q0 38 3.5 74t8.5 72q6 44 10 85.5t0 83.5q-2 15 -4.5 30t-5.5 32q-4 26 -8 53.5t-5 55t1.5 54t11.5 50.5q15 40 46 65q31 22 66 22q37 0 66 -23q32 -24 44 -65
q14 -41 11.5 -81.5t-7.5 -80.5q-3 -27 -6 -51q-10 -161 6 -293q2 -10 2 -15q2 -11 3 -23t2 -25q24 -5 51 -6h12q9 0 18 0.5t19 1.5q-2 14 -2 27.5v27.5q2 23 3.5 44.5t3.5 42.5q4 51 7 99t-2 99q-2 11 -2.5 22.5t-2.5 22.5q-4 35 -6 70.5t4 73.5q9 58 46 95q40 43 97 43
q5 0 10.5 -0.5t10.5 -1.5q55 -7 80 -52q20 -38 14 -95q-6 -46 -25 -88q-20 -43 -21 -94t2 -102q2 -21 2.5 -42t-0.5 -41q0 -31 7 -54.5t18 -52.5l2 -6t2 -5v-1q4 -13 6 -23q1 -4 1.5 -8t1.5 -5q0 -1 1 -1t2 -0.5t3 -0.5h1h8q7 0 13.5 0.5t9.5 0.5q11 2 20.5 6.5t20.5 9.5
q1 1 2 1.5t2 1.5q1 11 1.5 21.5t2.5 21.5l11 100q7 62 4 116.5t-8 105.5q-2 8 -2.5 16t-2.5 16q-5 39 -7.5 81.5t11.5 81.5q12 36 45 63q36 28 73 28q19 0 37 -8q7 -1 13 -7q4 -2 8 -6q0 -1 1 -1l1 -1l7.5 -6t4.5 -4l3 -3q5 -4 7 -11q18 -24 25.5 -53.5t8.5 -61t-2.5 -63.5
t-7.5 -62q-2 -17 -3.5 -32.5t-3.5 -29.5q-2 -39 1 -79.5t7 -80.5z" />
    <glyph glyph-name="afii10043" unicode="&#x429;" horiz-adv-x="955" 
d="M1109 0q9 -38 7.5 -75t-14.5 -68q-16 -39 -55.5 -64t-84.5 -25q-58 0 -92 40q-18 22 -23 41t-2 35.5t11 30.5t16 26q10 14 15.5 24.5t6.5 20.5v3v2v2q0 2 -0.5 3t-0.5 2q-2 6 -14.5 11.5t-46.5 5.5h-22q-5 0 -8.5 -0.5t-7.5 -0.5h-4q-8 1 -15.5 1h-15.5
q-71 0 -141.5 -2.5t-140.5 -5.5t-141.5 -5.5t-143.5 -2.5h-45q-63 2 -100 43q-17 20 -26 44.5t-13 49t-3.5 47.5t2.5 40q1 5 1.5 10.5t0.5 10.5q8 74 12.5 144t-3.5 143q-1 10 -2 19.5t-3 20.5q-5 32 -8.5 66.5t0.5 68.5q9 81 68 119q28 19 58 19q38 0 69 -31
q24 -24 38.5 -61.5t13.5 -74.5q0 -33 -3.5 -66t-7.5 -65q-5 -42 -9 -82t-1 -82v-1q2 -35 4 -66t6 -60v-1q1 -5 1 -11t1 -11q2 -12 2.5 -24t1.5 -25q0 -9 2 -11q6 -2 18 -2q7 0 11 -1h14q30 0 54 7q-1 24 0 53q1 18 3 36t4 35q2 14 3.5 28t2.5 28q3 47 1 93t-5 91
q-4 55 -6 113q-2 48 11 89.5t38 67.5q37 37 89 37q13 0 28 -3q53 -8 77 -49q9 -17 14 -38.5t3 -46.5q-2 -42 -17 -82q-22 -54 -24.5 -106.5t-1.5 -109.5q1 -19 1 -37.5v-38.5q-1 -34 5.5 -60t18.5 -59q3 -8 4.5 -14t3.5 -11q1 -9 4 -14q1 -1 5.5 -1.5t18.5 -2.5h9
q27 0 51 12q1 27 6 56v3q4 34 7.5 68t6.5 69q5 43 0.5 85t-9.5 87q-5 30 -8 61t-4 63q0 16 3.5 34.5t11.5 36.5q8 19 18.5 35t22.5 29q35 35 74 35q34 0 66 -27q30 -24 43.5 -53.5t15.5 -61t-3 -63t-11 -60.5q-2 -7 -3 -13t-2 -11v-1q-14 -64 -11 -132t9 -135l1 -13
q1 -8 1.5 -16.5t2.5 -16.5q2 -12 3 -24.5t2 -25.5q21 -4 56 -28q17 -13 31 -25t20 -18q26 -22 44 -54t28 -70z" />
    <glyph glyph-name="afii10044" unicode="&#x42a;" horiz-adv-x="697" 
d="M689 361q15 -49 8.5 -101t-34.5 -101q-26 -45 -66 -79.5t-88 -51.5q-29 -11 -73.5 -19.5t-94.5 -8.5q-36 0 -66.5 5.5t-54.5 17.5q-61 28 -78 89q-15 56 -6 114t23 116q10 40 17.5 78t6.5 73q0 14 -2 39t-8 52q-2 8 -4 14.5t-4 12.5v-4q1 -1 1 -3q6 -48 -23 -83
q-30 -33 -74 -33q-22 0 -43 9q-44 20 -65 70q-10 25 -13.5 48.5t-3.5 40.5q-2 91 50 143q26 27 64 41t85 14q40 0 84 -11q111 -27 145 -117q25 -64 10 -161q51 2 100.5 -12t91.5 -42q87 -58 115 -150zM400 214q8 2 18 4t21 4q47 19 56 41q2 4 2.5 10t-4.5 17q-14 29 -54 52
q-13 8 -25.5 13t-24.5 10v-3q4 -30 6 -61t-6 -62v-2q-2 -5 -3 -10t-1 -10q-1 -3 -0.5 -4.5t0.5 -2.5q3 1 6.5 1.5t8.5 2.5z" />
    <glyph glyph-name="afii10045" unicode="&#x42b;" horiz-adv-x="827" 
d="M553 392q0 -1 1 -2q27 -48 27 -102q0 -48 -23 -99q-15 -32 -39 -61.5t-54 -53.5q-31 -24 -64 -40t-68 -23q-20 -4 -49 -7.5t-62 -3.5q-84 0 -135 28q-64 35 -72 112q-3 31 1.5 62.5t11.5 62.5v1q16 67 27.5 134.5t2.5 135.5q-2 14 -7.5 30.5t-13.5 35.5q-9 24 -17.5 50.5
t-10.5 52.5q-6 65 40 96q33 24 75 24q37 0 69 -20t49 -55q12 -26 20 -72.5t-3 -118.5q44 -2 83 -12t74 -27q86 -44 136 -127zM268 354q2 -25 3.5 -50.5t-2.5 -52.5q0 -5 -1 -10.5t-3 -10.5q-1 -5 -2.5 -13t-0.5 -11q1 -1 6 -1q40 3 68 16q32 15 35 40l1 1v1q5 39 -40 70
q-16 11 -33.5 18t-31.5 12q0 -6 1 -9zM843 689q10 -50 6 -100.5t-11 -100.5q-2 -11 -3 -21.5t-3 -21.5v-1q-5 -34 -7 -66t-4 -63q-2 -38 -5 -74.5t-9 -72.5t-17.5 -72t-30.5 -72q-1 -4 -6 -7q-24 -18 -52 -18q-42 0 -76 39q-14 17 -22.5 36.5t-10.5 39.5q-5 38 3.5 72
t19.5 66q6 21 12 41t9 40q0 8 0.5 16t1.5 16q5 57 7 109.5t-6 106.5q-2 9 -4.5 20t-4.5 23q-6 26 -11.5 53.5t-5.5 53.5q0 67 49 95q24 11 45 11q51 0 92 -55q16 -20 27.5 -45t16.5 -48z" />
    <glyph glyph-name="afii10046" unicode="&#x42c;" horiz-adv-x="567" 
d="M557 362q20 -48 17 -96q-2 -24 -9 -48t-20 -47q-35 -65 -103 -113q-32 -22 -67 -36.5t-70 -19.5q-25 -4 -48.5 -5.5t-45.5 -1.5q-98 0 -150 38q-27 20 -43 53q-11 26 -13 62q-1 30 5 61t12 59q1 5 3 13q7 30 13.5 63t10.5 67.5t4 70t-7 69.5q-2 11 -7 25t-10 29
q-9 26 -17.5 53t-9.5 53q-1 31 11 54q16 27 47 40q17 8 34 12t32 4q50 0 82 -40q18 -21 28 -50t14.5 -60t4 -62t-3.5 -56q90 -5 163 -41q42 -22 78 -56q36 -36 58 -80q1 -1 1 -2q3 -3 3 -6zM237 384q2 -35 5.5 -68.5t-0.5 -68.5q-3 -24 4.5 -43t22 -26.5t34.5 -1t43 33.5
q15 18 15 50q0 25 -11.5 46.5t-29.5 38t-40 26.5t-43 13z" />
    <glyph glyph-name="afii10047" unicode="&#x42d;" horiz-adv-x="637" 
d="M611 540q31 -112 25 -204q-8 -110 -69 -191q-38 -74 -128 -113q-45 -20 -89 -28.5t-76 -10.5q-11 0 -21.5 -0.5t-21.5 -0.5q-61 0 -110 11q-65 15 -96 51q-33 39 -24 95q3 20 11.5 42t20.5 40q31 48 73 48q13 0 22 -4q4 -2 9 -4t13 -5q14 -7 35.5 -16t46 -17.5t51 -14.5
t50.5 -6q45 0 69 25q31 34 23 120q-3 3 -16 3q-11 0 -23 -2t-22 -4h-4q-9 -2 -19.5 -7t-21.5 -11q-15 -8 -31.5 -15t-34.5 -7q-23 0 -44 15q-14 11 -23 29t-11 41q-2 28 6 55t24 43v1q25 25 71 25q17 0 34.5 -3t31.5 -6h1q13 -3 30 -3q20 0 48 5q-9 28 -21 45t-25.5 26
t-27.5 12t-27 3q-27 0 -57.5 -8.5t-60.5 -18.5q-12 -3 -24 -7t-24 -7q-13 -4 -30 -4q-45 0 -81 33q-32 30 -41 73q-9 40 6 72.5t50 49.5q84 40 173 40q133 0 243 -90q48 -38 83.5 -89t53.5 -105v-1v0z" />
    <glyph glyph-name="afii10048" unicode="&#x42e;" horiz-adv-x="920" 
d="M917 502q7 -55 3.5 -110t-17.5 -106q-29 -112 -101 -193q-39 -45 -91 -71q-51 -24 -105 -24q-99 0 -175 78q-66 70 -96 181q-4 13 -4 26q-1 2 -1 4.5t-1 4.5q-1 1 -8 1h-2h-1q-11 0 -22.5 -1t-23.5 -3q-6 -1 -11.5 -1.5t-10.5 -0.5q-8 -1 -14.5 -1.5t-9.5 -2.5
q-2 -2 -2.5 -6t-0.5 -7q2 -18 7.5 -34.5t13.5 -33.5q12 -30 20.5 -62t-2.5 -71q-11 -42 -43 -63q-31 -22 -69 -22q-34 0 -66 17q-70 38 -80 138q-5 41 -0.5 82t9.5 73q5 46 2.5 92t-6.5 91q-5 47 -7.5 94.5t3.5 95.5q2 23 7.5 42t13.5 35q21 40 58 60q32 17 66 17
q44 0 77 -28q35 -31 39 -79q5 -33 -3.5 -61.5t-19.5 -55.5q-9 -21 -16 -41.5t-7 -42.5v-12q0 -6 -0.5 -12.5t0.5 -12.5q0 -7 2 -11q2 0 3 -0.5t3 -0.5q9 0 19.5 -0.5t19.5 -0.5h10q1 0 1.5 0.5t1.5 0.5q5 1 8.5 1.5t8.5 1.5q1 0 1.5 0.5t1.5 0.5q12 2 16 8t9 29q2 6 3 12
t3 13q18 69 57 133l1 1q32 51 72 88q45 44 100 61q16 5 31.5 7.5t30.5 2.5q54 0 106 -28t97 -81q38 -47 62.5 -103t28.5 -109zM721 502q2 24 -8.5 52t-30.5 48q-27 30 -56 30q-25 0 -47 -24q-35 -38 -50 -107q-8 -35 -9.5 -68t-0.5 -56q2 -20 9.5 -49t21.5 -57
q19 -36 36 -46t26 -10q23 0 49 28l1 1q21 19 32.5 43t17 51t7 56t1.5 58q0 13 0.5 25.5t0.5 24.5z" />
    <glyph glyph-name="afii10049" unicode="&#x42f;" horiz-adv-x="537" 
d="M492 244q2 -11 5.5 -22.5t7.5 -24.5l12 -40t8.5 -40t0.5 -38.5t-12 -34.5q-21 -34 -76 -43h-1q-5 -1 -10 -1.5t-10 -0.5q-48 0 -77 35q-18 22 -26.5 52.5t-11 62t0 60.5t5.5 48h-4q-8 0 -20 -5t-25 -27q-10 -17 -17.5 -38t-15.5 -43q-7 -22 -14 -41.5t-17 -33.5
q-13 -18 -30.5 -34t-38.5 -27q-43 -25 -89 -25q-32 0 -58 13q-29 15 -47 45q-29 46 -22 83q6 28 28 45.5t47 32.5q17 11 34 23t25 27q5 9 9 18t9 17q13 25 26 48.5t35 45.5q-44 34 -70 73q-41 61 -34 124q6 65 46.5 118t105.5 81q72 29 156 29q53 0 102 -10h1
q35 -8 58.5 -30t34.5 -57q16 -53 4 -122q0 -3 -1 -4q0 -4 -1 -8q0 -1 -0.5 -2t-0.5 -2v-1q-2 -8 -3.5 -16t-3.5 -16q-8 -35 -15.5 -72.5t-12 -75t-5 -74.5t7.5 -72zM354 611v4q-2 2 -13 2q-12 0 -27 -3t-28.5 -7.5t-24 -9t-13.5 -6.5q-14 -11 -17 -20t-1 -16q5 -29 44 -64
q25 -22 48 -34v1q8 38 16 76.5t16 76.5z" />
    <glyph glyph-name="afii10065" unicode="&#x430;" horiz-adv-x="482" 
d="M460 191q8 -25 15.5 -53t4.5 -57t-24 -53q-24 -27 -55 -27q-13 0 -29 7v1q-20 10 -33.5 26t-22.5 34q-18 -29 -39 -43q-35 -24 -83 -24q-20 0 -38.5 3.5t-34 8.5t-28 10.5t-19.5 9.5q-35 22 -56 60t-22 81q-2 38 13.5 69t44.5 51q17 11 40.5 20t49.5 17q21 7 42.5 14.5
t39 17t30 21t15.5 26.5q3 17 3.5 26t-0.5 14h-1q-10 -6 -17.5 -17.5t-15.5 -24.5t-16.5 -25.5t-19.5 -23.5q-26 -21 -55 -21t-57 20t-45 53q-15 29 -17 59q-2 34 15 58q33 47 86 69q48 21 107 21q52 0 99 -15q76 -24 98 -105q9 -34 10 -70t0 -69v-12t-1 -12v-14
q0 -32 1.5 -62.5t10.5 -58.5q1 -2 2 -5t2 -5zM283 288q-15 -8 -32 -19t-30.5 -24.5t-22.5 -28t-9 -27.5q0 -8 4 -16t9 -8q1 0 2 0.5t3 0.5q44 15 62 58q11 23 14 64z" />
    <glyph glyph-name="afii10066" unicode="&#x431;" horiz-adv-x="550" 
d="M541 353q2 -52 -15 -109q-15 -50 -33.5 -83.5t-24.5 -41.5q-43 -57 -83 -84q-53 -36 -112 -36q-17 0 -32 3q-58 7 -106 39q-48 31 -78 81q-17 27 -28 57t-17.5 62.5t-9.5 65t-6 63.5q-1 6 -1.5 12.5t-0.5 12.5q-7 62 6 129.5t45 139.5q17 35 38 60.5t50 45.5
q28 18 59.5 30t62.5 23q10 2 15 4q20 6 41 13.5t31 19.5q15 18 38 28t47 10q22 0 40 -9q29 -14 46.5 -41t19.5 -63q2 -42 -15.5 -79t-48.5 -57q-23 -15 -51.5 -19t-60.5 -6q-20 -1 -38.5 -2.5t-35.5 -5.5q34 0 67.5 -10.5t64.5 -30.5q61 -39 96 -104q28 -52 30 -118z
M286 467q-33 0 -57 -33q-11 -14 -19 -33.5t-13 -41.5q-5 -20 -6.5 -46t3 -51t16 -46.5t32.5 -33.5q18 -10 31 -10q19 0 35 14t28 33t19 38t9 28q4 21 3.5 50t-7 56.5t-20.5 48t-38 25.5h-1q-10 2 -15 2z" />
    <glyph glyph-name="afii10067" unicode="&#x432;" horiz-adv-x="490" 
d="M494 287q21 -40 22.5 -87.5t-18.5 -85.5q-34 -66 -113 -95q-59 -21 -145 -21q-21 0 -40 1t-34 2h-3q-14 0 -39 3t-51 16q-52 26 -60 78q-4 29 -2 63t4 66q1 8 1 15t1 14q1 32 3 65t5 65q1 17 2 33l2 32v1q1 9 0.5 18t-1.5 19q-1 12 -1 24.5t2 25.5q8 30 34 51
q17 13 51.5 26t97.5 13q54 0 106.5 -12t86.5 -32q35 -19 52 -55q16 -37 6 -77q-9 -38 -38 -70q-3 -4 -6.5 -7t-7.5 -6q27 -10 48 -27.5t35 -55.5zM212 466q-8 -1 -9 -10q-2 -8 -1 -19t2 -23q3 -17 3 -34q25 5 49 27q12 13 19.5 26.5t7.5 23.5q0 8 -4 10q-2 2 -7.5 4t-16.5 2
q-17 0 -41 -6l-1 -1h-1zM223 237q-8 -6 -10 -28.5t3 -47.5v-1q0 -1 2 -3.5t12 -2.5q11 0 24 4t25.5 11t22.5 17t16 21q11 23 -7 46l-2 2q-9 7 -20 7q-17 0 -35 -8t-31 -17z" />
    <glyph glyph-name="afii10068" unicode="&#x433;" horiz-adv-x="456" 
d="M484 273q22 -35 7 -91q-23 -82 -91 -134q-32 -24 -68.5 -37t-73.5 -13q-17 0 -35 3q-50 8 -91 35q-42 28 -63 70q-20 38 -20 79q-1 43 21 85q14 29 35.5 53t43.5 47q9 9 17 17.5t16 17.5h1q11 14 19.5 23.5t15.5 17.5q-1 0 -2 -1q-28 -11 -62.5 -23.5t-66.5 -12.5
q-28 0 -49 13q-31 22 -33 71q-2 34 13.5 68.5t39.5 53.5q29 21 61.5 26.5t58.5 5.5q12 0 23.5 -0.5t23.5 -1.5q23 -1 44 -6.5t40 -15.5q39 -19 63 -52q26 -33 34 -73.5t-2 -84.5v-1q-9 -37 -33 -57t-49 -35q-10 -6 -19.5 -12t-18.5 -14q-21 -17 -31 -33t-15 -27
q-9 -26 -3 -45l3 -6t7 -4q3 0 10 4.5t16 17t19.5 34t19.5 56.5q6 19 22 26q12 6 29 6q11 0 22.5 -2t22.5 -4q8 -2 12 -2h1q46 -11 65 -42z" />
    <glyph glyph-name="afii10069" unicode="&#x434;" horiz-adv-x="597" 
d="M607 -18q1 -18 1.5 -37t-1.5 -37t-7.5 -34t-17.5 -29q-17 -17 -39.5 -26.5t-48.5 -9.5q-48 0 -82 29q-43 36 -38 92q3 29 17 64q-78 9 -181 9q-11 0 -23 -2.5t-25 -5.5q-6 -2 -10 -2q22 -40 25 -73q5 -64 -49 -100q-26 -20 -57 -20q-29 0 -55.5 17.5t-42.5 48.5
q-9 16 -12.5 31.5t-6.5 31.5t-6.5 30.5t-11.5 27.5q-1 1 -1 2q-8 14 -15 30t-11 33t-3 35.5t11 37.5q12 24 35 38.5t49 14.5q5 0 9.5 -0.5t9.5 -0.5q7 -1 13.5 -1h13.5q8 0 11.5 0.5t5.5 0.5q17 27 21.5 60t4.5 63q1 14 -1.5 32.5t-4.5 38.5q-4 26 -7 53t-2 52t7 47.5
t21 39.5q27 32 82 32h7q12 0 23.5 -1t22.5 -2q14 -1 29 -1.5t29 -0.5h10q9 0 18 2.5t19 5.5q12 4 24 6.5t26 2.5h3q16 6 32 6q38 0 65 -29q24 -26 29 -64q8 -94 11 -179.5t4 -165.5q46 -12 62 -60q7 -22 7.5 -45.5t-1.5 -45.5q0 -9 0.5 -20t1.5 -22zM320 349q-2 17 -4 33.5
t-2 34.5l-14 2l-14 2q-7 2 -14 3l-14 2q-1 -14 -1 -27.5t-1 -27.5q-2 -54 -6 -108t-12 -108q7 -1 14.5 -1.5t15.5 -0.5q11 0 23.5 1t28.5 3h1q3 0 5.5 0.5t5.5 0.5h7t6 1q0 1 -2 11q-9 34 -12.5 68.5t-5.5 67.5q-1 11 -2 21.5t-3 21.5z" />
    <glyph glyph-name="afii10070" unicode="&#x435;" horiz-adv-x="485" 
d="M471 200q13 -36 2 -76q-9 -42 -41 -68q-72 -55 -165 -55q-45 0 -88 13.5t-79 39.5q-80 55 -104 145q-10 38 -11 82t7 90q19 100 70 167q67 88 171 88h15q69 -5 124 -44q27 -20 47.5 -46t31.5 -58q11 -29 19.5 -61t3.5 -65q-4 -45 -38 -69q-14 -11 -28.5 -16.5t-27.5 -9.5
q-9 -3 -15 -6q-98 -37 -190 -52q1 -4 5 -6q6 -6 21 -6q13 0 29.5 4.5t33 11t32.5 14.5t29 15q18 10 32 15q21 9 41 9q26 0 45 -15t28 -41zM160 360q13 1 32 4t39 10q48 15 61 37q2 5 3 12.5t-7 18.5q-8 13 -19 25t-25 12q-11 0 -20 -6.5t-16 -14.5q-22 -25 -37 -63
q-5 -11 -7 -20t-4 -15z" />
    <glyph glyph-name="afii10072" unicode="&#x436;" horiz-adv-x="702" 
d="M721 148q12 -52 -8 -95q-11 -25 -36.5 -41t-52.5 -16q-26 0 -44 15q-20 15 -26 44q-11 49 -39 88q-13 19 -28 31t-32 19q-1 -2 -1 -6v-9q1 -10 1.5 -20t1.5 -18q2 -16 1 -18q0 -25 -9.5 -51t-25.5 -44q-1 -3 -4 -4l-3.5 -3.5t-3.5 -2.5q-23 -20 -56 -20q-26 0 -49 14
q-24 14 -35 40q-14 32 -15.5 65t0.5 65q1 6 1 12v12q-14 -5 -27 -12.5t-24 -15.5q-35 -27 -44 -63q-4 -15 -9.5 -34.5t-16.5 -36.5q-16 -26 -35 -33.5t-34 -7.5q-12 0 -24 3q-2 0 -2.5 0.5t-1.5 0.5q-34 16 -53 38q-18 22 -21 51q-6 58 54 132q15 18 30 33.5t28.5 27.5
t24.5 20.5t16 12.5h1q17 12 19 23q2 12 -12 28.5t-28 31.5q-9 10 -18 19.5t-16 19.5v1q-6 9 -13.5 22t-13.5 28t-8.5 31t2.5 31q11 31 48 44q15 6 30 6q41 0 72 -46q12 -18 22 -40t20 -45q11 -26 22.5 -50.5t24.5 -35.5q0 11 -0.5 26t-2.5 30q-4 42 -3 84t24 68q23 25 61 22
h1q55 -3 77 -60q9 -22 13.5 -47.5t6.5 -50.5q2 -9 2.5 -18.5t2.5 -17.5q12 14 21 31t19 37q11 23 23 45.5t31 39.5q26 24 56 24q20 0 37.5 -10.5t28.5 -27.5q10 -17 10 -36.5t-11 -38.5q-14 -28 -32 -51.5t-35 -46.5q-8 -10 -15 -19t-14 -19h-1q-2 -4 -2.5 -6t-0.5 -4
q1 -6 7 -13.5t15 -15.5t19.5 -15.5t19.5 -14.5q17 -13 32.5 -25t23.5 -26q10 -14 20.5 -36.5t15.5 -48.5z" />
    <glyph glyph-name="afii10073" unicode="&#x437;" horiz-adv-x="432" 
d="M423 265q14 -53 8 -102q-8 -44 -33 -77q-32 -41 -87.5 -63t-127.5 -22q-46 0 -86 9h-1q-24 6 -46.5 20.5t-40 34.5t-28.5 43t-11 44q0 26 17 44.5t48 25.5q13 3 35 3q15 0 33 -1t35 -3q17 -1 34.5 -2t32.5 -1q13 0 20 0.5t10 1.5q-2 6 -22 24q-14 11 -30 13.5t-32 4.5
t-31.5 5t-25.5 16q-13 16 -9 46v1q6 34 30 50q11 7 21.5 10t21.5 5q8 2 15 4t12 4q16 23 20 34.5t4 14.5q-2 0 -4 0.5t-7 0.5q-10 0 -22 -2t-25 -4q-14 -2 -27 -4t-24 -2h-11t-10 2v1q-22 7 -35.5 24t-16.5 41q-5 29 6 55.5t33 43.5h1q36 26 104 26h11t14 -1q55 -2 95 -23
q42 -21 66 -59q25 -37 28 -84t-17 -98q-3 -9 -4 -11l3 -3q6 -5 15 -15q31 -36 41 -74v-1v0z" />
    <glyph glyph-name="afii10074" unicode="&#x438;" horiz-adv-x="537" 
d="M487 177q35 -12 48 -34.5t11 -45.5q-2 -34 -30 -61q-14 -13 -32 -20.5t-38 -8.5q-5 -1 -9.5 -1.5t-9.5 -0.5q-45 0 -71 22t-42 51q-20 -27 -50 -47q-50 -33 -103 -33q-37 0 -66.5 17t-47.5 49q-20 34 -22 73t-1 76q1 11 1 21v20q-1 48 -4.5 100.5t-17.5 103.5
q-8 28 -3.5 54.5t21.5 48.5q16 21 40 33t51 12q36 0 64 -22q30 -27 40 -70q12 -46 4.5 -91t-18.5 -89q-2 -5 -3 -11t-3 -12q-1 -4 -1.5 -8t-2.5 -8q-4 -16 -8 -34t-6 -35q-3 -34 10 -47q5 -5 8.5 -5.5t4.5 -0.5q8 0 17.5 7.5t18.5 19.5t17.5 27.5t14.5 30.5q6 13 4 32t-5 39
q-2 11 -3.5 22t-1.5 22q0 178 112 224h1q12 5 25 7.5t26 2.5q34 0 61 -16t42 -44q11 -22 11.5 -40t-4.5 -33.5t-15 -28.5t-20 -25q-3 -3 -5.5 -6.5t-5.5 -7.5q-20 -26 -23.5 -54t-4.5 -62v-12v-1v-5q-1 -9 -1.5 -23.5t0.5 -30.5q1 -19 3.5 -26.5t4.5 -9.5q2 0 4 -1
q2 0 2.5 -0.5t2.5 -0.5h1q3 -1 7 -3z" />
    <glyph glyph-name="afii10075" unicode="&#x439;" horiz-adv-x="542" 
d="M492 177q35 -12 48 -34.5t11 -45.5q-2 -34 -30 -61q-14 -13 -32 -20.5t-38 -8.5q-5 -1 -9.5 -1.5t-9.5 -0.5q-45 0 -71 22t-42 51q-20 -27 -50 -47q-50 -33 -103 -33q-37 0 -66.5 17t-47.5 49q-20 34 -22 73t-1 76q1 11 1 21v20q-1 48 -4.5 100.5t-17.5 103.5
q-8 28 -3.5 54.5t21.5 48.5q16 21 40 33t51 12q36 0 64 -22q30 -27 40 -70q12 -46 4.5 -91t-18.5 -89q-2 -5 -3 -11t-3 -12q-1 -4 -1.5 -8t-2.5 -8q-4 -16 -8 -34t-6 -35q-3 -34 10 -47q5 -5 8.5 -5.5t4.5 -0.5q8 0 17.5 7.5t18.5 19.5t17.5 27.5t14.5 30.5q6 13 4 32t-5 39
q-2 11 -3.5 22t-1.5 22q0 178 112 224h1q12 5 25 7.5t26 2.5q34 0 61 -16t42 -44q11 -22 11.5 -40t-4.5 -33.5t-15 -28.5t-20 -25q-3 -3 -5.5 -6.5t-5.5 -7.5q-20 -26 -23.5 -54t-4.5 -62v-12v-1v-5q-1 -9 -1.5 -23.5t0.5 -30.5q1 -19 3.5 -26.5t4.5 -9.5q2 0 4 -1
q2 0 2.5 -0.5t2.5 -0.5h1q3 -1 7 -3zM473 830q6 -14 8.5 -29t1 -30t-6 -28t-11.5 -21q-18 -20 -42.5 -34t-39.5 -21q-53 -25 -94 -28q-23 -3 -44 -3q-78 0 -130.5 30t-76.5 87q-13 32 11 68q13 18 30 28.5t35 10.5q9 0 23.5 -5.5t26.5 -26.5q43 -48 81 -48q26 0 49.5 17
t44.5 36q19 17 35.5 28.5t34.5 11.5q46 0 64 -43z" />
    <glyph glyph-name="afii10076" unicode="&#x43a;" horiz-adv-x="505" 
d="M529 205q40 -80 21 -133q-15 -43 -67 -66q-21 -9 -43 -9q-20 0 -50.5 11.5t-67.5 49.5q-14 14 -24 31l-20 34q-11 19 -20.5 35t-21.5 26q-1 0 -3 2q0 -2 -1 -6t-1 -10q-2 -9 -2 -19v-20q0 -23 -3 -35q-9 -44 -35 -70q-29 -29 -74 -29q-3 0 -6 0.5t-6 0.5q-40 3 -66 34
q-18 22 -25.5 54t-8 68.5t3 74t7.5 70.5q4 34 6 57q1 16 -0.5 33t-3.5 35l-4 50t2 50q6 38 33 66q30 30 65 30q14 0 31.5 -6.5t34.5 -28.5q23 -29 29.5 -62.5t8.5 -66.5q1 -11 2 -21.5t3 -21.5q2 3 4.5 6.5t5.5 7.5q8 12 14.5 22.5t7.5 13.5h1q2 4 4.5 7.5t4.5 8.5
q16 29 35.5 58t48.5 49q21 15 52 15q23 0 43.5 -9t31.5 -24q7 -9 11 -23.5t-2 -34.5q-5 -14 -19 -32.5t-37 -45.5q-17 -20 -33.5 -40.5t-27.5 -39.5q-18 -29 -12 -39q2 -2 4.5 -3.5t5.5 -3.5q12 -8 26 -13.5t29 -11.5q29 -11 59.5 -26.5t48.5 -49.5z" />
    <glyph glyph-name="afii10077" unicode="&#x43b;" horiz-adv-x="525" 
d="M507 197q6 -16 11.5 -34t9 -36t3.5 -35.5t-6 -33.5q-11 -28 -35.5 -44t-58.5 -16q-20 0 -39 5.5t-34 16.5q-36 27 -38 68v5v2q-4 23 -5 46.5t-2 46.5q-2 32 -4 63t-10 61q-2 -10 -4 -16v-1q-5 -16 -11.5 -31t-13.5 -29q-6 -12 -11 -23.5t-9 -22.5t-7 -21t-6 -19
q-11 -37 -26.5 -68.5t-56.5 -60.5l-4 -2h-1q-12 -7 -16 -8q-34 -13 -62 -13q-38 0 -67 19.5t-42 52.5q-14 37 -2 78q12 43 50 78q8 8 15.5 14.5t15.5 13.5q23 20 43 39t38 43q7 10 13.5 25t12 30.5t8.5 28.5t4 19v1q2 9 2 20v23q0 15 1 30.5t4.5 30.5t10.5 29t21 26
q27 22 62 22q18 0 36.5 -6t34.5 -17q28 -20 47 -49.5t32 -61.5t20 -62t10 -49q16 -37 31 -75t26 -77q2 -6 4.5 -12.5t4.5 -13.5z" />
    <glyph glyph-name="afii10078" unicode="&#x43c;" horiz-adv-x="617" 
d="M601 158q11 -31 8 -67q-2 -13 -6.5 -30.5t-15.5 -34.5q-24 -33 -62 -33q-19 0 -41 9q-56 23 -71 99q-8 38 -5.5 70t4.5 46q0 1 1 2l2 8t3 9q8 21 10 33.5t-3 18.5q-3 -2 -8 -8t-13 -17q-7 -11 -11.5 -21t-5.5 -12v-1q-5 -14 -5 -30t1 -33q2 -23 1 -46t-12 -46
q-10 -22 -27 -34t-38 -12q-23 0 -44.5 14.5t-35.5 38.5q-17 31 -18.5 60t0.5 58q1 14 2 28.5t-1 29.5q0 1 -2.5 5.5t-12.5 15.5q-3 3 -4 5q-1 -3 -1 -8q-4 -26 -5.5 -51t3.5 -49q5 -29 5.5 -58.5t-14.5 -63.5q-13 -30 -39 -47q-23 -16 -53 -16q-33 0 -57.5 20.5t-32.5 55.5
q-8 36 1.5 68t21.5 63q10 24 18 48q12 38 11 76t-5 80q-2 17 -3 34t-2 35q-3 71 32 108q32 34 93 34q6 0 8 -1q45 0 66 -39q8 -15 12.5 -33t8.5 -36q3 -16 7 -31t10 -24q8 -14 25 -29q6 7 11.5 14.5t10.5 17.5q8 14 12.5 30t8.5 33q2 8 4.5 15.5t4.5 15.5v1q11 32 41 48
q25 15 59 15q29 0 53.5 -10.5t39.5 -28.5t22 -38.5t8.5 -42t-0.5 -42.5t-5 -40q-1 -4 -1.5 -7t-0.5 -6q-8 -57 -0.5 -112.5t32.5 -123.5z" />
    <glyph glyph-name="afii10079" unicode="&#x43d;" horiz-adv-x="545" 
d="M543 136q4 -18 6.5 -36t-0.5 -35q-8 -45 -54 -61q-24 -8 -48 -8q-38 0 -70.5 19t-49.5 51q-14 26 -16.5 52.5t-3.5 52.5q-1 17 -1.5 32t-4.5 30q-3 11 -5.5 12.5t-4.5 1.5q-6 0 -13.5 -3.5t-16 -9t-17 -12t-14.5 -11.5q-8 -6 -11 -8q0 -2 -0.5 -7t1.5 -15q1 -9 3 -20.5
t4 -23.5q6 -34 8.5 -55.5t-2.5 -35.5q-19 -52 -102 -52q-30 0 -59 8h-2q-45 18 -62 93q-6 31 -6.5 59t2.5 45q2 20 4.5 39t4.5 38q5 32 8.5 65t4.5 65q1 25 3.5 51t9.5 51t20 47t34 40q29 24 67 24q31 0 53 -16q26 -19 31 -52v-1q3 -23 -2 -43.5t-11 -40.5
q-5 -16 -8.5 -30.5t-3.5 -28.5q1 -12 2.5 -16.5t2.5 -6.5q8 0 22.5 9t25.5 17t21 14t19 10q4 0 5 11q2 9 2.5 19.5t1.5 22.5q1 24 3.5 46.5t16.5 37.5q29 34 72 34q31 0 56.5 -18t39.5 -48q20 -49 21.5 -102t-0.5 -107q-2 -41 -1.5 -79t8.5 -73v-1v-3l1 -3q0 -8 1.5 -16.5
t3.5 -18.5z" />
    <glyph glyph-name="afii10080" unicode="&#x43e;" horiz-adv-x="520" 
d="M503 328q9 -57 2 -112.5t-29 -100.5q-30 -66 -92 -104q-60 -37 -128 -37q-84 0 -149 53q-1 0 -1 1h-1q-5 5 -9 8.5t-6 5.5l-3 3q-5 5 -6 8q-31 38 -50 82q-11 26 -18.5 54.5t-9.5 59.5q-6 61 6.5 119t41.5 103q35 54 87 85q26 15 54 22.5t57 7.5q43 0 83 -16.5t74 -48.5
q37 -35 62 -84t35 -109zM291 379q-18 19 -36 19q-15 0 -29.5 -12t-24.5 -32q0 -1 -2 -7q-2 -2 -2.5 -4.5t-1.5 -4.5q-9 -27 -10.5 -52t3 -46t13.5 -38t21 -28q16 -15 32 -15q18 0 37.5 18.5t27.5 48.5q11 42 3 82q-6 43 -31 71z" />
    <glyph glyph-name="afii10081" unicode="&#x43f;" horiz-adv-x="532" 
d="M500 183q11 -20 22 -49q16 -55 -12 -93q-15 -20 -39 -31.5t-53 -11.5q-44 0 -78 25q-45 33 -51 99q-2 26 1 52.5t8 50.5q5 32 5.5 65.5t-3.5 69.5q-1 5 -1 10.5t-1 11.5q-1 10 -1 20.5t-2 20.5q-2 11 -3.5 15t-3.5 6q-9 0 -18 0.5t-18 0.5q-11 0 -22 -0.5t-22 -1.5
q-1 -1 -3 -4.5t-5 -12.5t-6 -25t-4 -41q-1 -20 -0.5 -38.5t1 -33t1 -23.5t0.5 -10q1 -10 2.5 -20.5t3.5 -22.5q4 -24 7 -50.5t1 -52.5q-5 -46 -30 -74q-1 -5 -8 -10q-1 -1 -1.5 -1t-1.5 -1q-2 -2 -8 -6l-9 -6q-8 -5 -12 -5q-15 -7 -35 -7q-44 0 -80 36q-33 35 -35 80
q0 26 3 51t8 49q5 29 8.5 55.5t0.5 53.5q-2 8 -2.5 15t-1.5 15q-7 53 -9.5 100.5t12.5 103.5q7 25 27 43.5t46 24.5h1q6 1 12.5 1.5t14.5 0.5q15 0 31.5 -1.5t34.5 -3.5l40 -4t40 -2q9 0 17 0.5t16 1.5q8 2 17.5 3.5t19.5 3.5q20 4 40.5 7.5t40.5 3.5q22 0 37 -4
q18 -5 32.5 -18t22.5 -25q22 -28 30 -60q8 -29 -0.5 -52t-19.5 -43q-5 -9 -9.5 -18t-6.5 -18q-5 -15 -7.5 -33.5t-3.5 -38t-1 -38v-34.5q2 -21 8.5 -37.5t14.5 -34.5z" />
    <glyph glyph-name="afii10082" unicode="&#x440;" horiz-adv-x="512" 
d="M525 282q2 -35 -5 -80t-35 -87q-11 -18 -32.5 -37t-47.5 -35q-17 -11 -48 -24.5t-65 -13.5q-9 0 -17 1t-16 4q0 -9 0.5 -18t0.5 -18q2 -30 2 -60.5t-8 -56.5q-8 -29 -31 -52t-62 -32q-23 -6 -42 -6q-55 0 -81 42q-14 21 -17.5 48.5t-1 55.5t10 54t16.5 45v1q15 30 24 72
t8.5 91.5t-13.5 106t-42 116.5q-22 47 -11 92q13 52 59 75q24 12 44 12q33 0 56 -29q10 -12 17 -27q25 22 52.5 37t62.5 15q12 0 24 -1.5t24 -6.5q70 -26 118 -97l2 -4h1q0 -2 1 -2l2 -4t3 -5q6 -11 9 -15l1 -4q3 -5 3 -8q31 -66 34 -145zM300 187q17 5 26 19.5t13 25.5
q8 20 10.5 42t-0.5 45q-3 35 -19 59q-15 21 -37 22h-2q-17 0 -25 -10t-11 -15q-9 -16 -13.5 -37.5t-4.5 -44.5t5 -45t14 -38q15 -24 34 -24q7 0 10 1z" />
    <glyph glyph-name="afii10083" unicode="&#x441;" horiz-adv-x="445" 
d="M407 221q11 -12 18.5 -24.5t11.5 -22.5q23 -54 -5 -100q-21 -33 -65 -54q-19 -8 -40.5 -13.5t-42.5 -7.5h-16q-42 0 -79.5 13t-68 32.5t-52.5 42.5t-33 43q-41 75 -38 168q2 88 43 165q35 62 89 101q60 42 133 46q6 1 12 1h11q29 0 64.5 -8.5t63.5 -37.5q13 -14 23 -32
t13.5 -36.5t-1 -36.5t-18.5 -33v-1q-28 -28 -71 -28q-15 0 -29.5 2.5t-28.5 6.5q-14 3 -25.5 5.5t-22.5 2.5q-12 0 -24.5 -5t-25.5 -25q-8 -13 -14 -33t-8.5 -42t-1 -43t9.5 -35q11 -20 35 -20h1q11 1 23 6t25 12q15 8 32 14.5t36 6.5q9 0 13 -1q28 -4 53 -29z" />
    <glyph glyph-name="afii10084" unicode="&#x442;" horiz-adv-x="732" 
d="M696 261q9 -26 17 -52.5t13 -53t4.5 -52t-8.5 -49.5q-11 -29 -35.5 -45t-56.5 -16q-28 0 -52.5 12t-39.5 33q-31 41 -37 110q-3 28 -2 56t3 54v1q1 9 2 19.5t3 21.5q3 18 5.5 38t3 39.5t-1.5 37t-9 31.5q-3 5 -6 5q-6 0 -14.5 -5t-13.5 -11q-18 -24 -21 -70
q-2 -26 1 -51.5t7 -51.5q2 -12 3 -24.5t3 -24.5q2 -23 3 -45.5t-3 -45.5q-9 -58 -49 -86q-31 -20 -65 -20q-43 0 -74 31q-31 33 -33 79v1q0 6 0.5 16.5t1.5 25.5q2 28 3.5 64t-0.5 72q-2 52 -9.5 73t-12.5 26t-10 5q-6 0 -16 -5q-13 -6 -15.5 -10.5t-3.5 -6.5q-1 -5 1 -12.5
t4 -17.5q2 -6 3.5 -12t3.5 -13q5 -26 9.5 -49.5t7.5 -46.5q6 -46 7 -95t-19 -93q-13 -27 -43 -44.5t-63 -17.5q-46 0 -71 35q0 1 -1 1q-12 18 -16 39.5t-3.5 45t4.5 47.5t9 46q3 15 5.5 29t3.5 25q2 27 -3.5 53t-13.5 53q-8 28 -14.5 56.5t-4.5 60.5q3 37 33 73q22 27 40 34
t29 7q17 0 33 -11q2 -2 5 -4.5t5 -5.5q8 8 17.5 14.5t19.5 12.5h1l6 4q4 3 7 3q21 11 50 11q26 0 52.5 -11t47.5 -32q20 -20 32 -46q28 41 68.5 63.5t87.5 22.5q28 0 57 -9q59 -18 77 -79q8 -25 9 -52t1 -54q1 -16 1 -30.5t2 -27.5q3 -23 10.5 -47.5t17.5 -51.5z" />
    <glyph glyph-name="afii10085" unicode="&#x443;" horiz-adv-x="527" 
d="M517 543q17 -26 14 -67q-1 -17 -5.5 -34.5t-12.5 -34.5q-29 -67 -57.5 -137.5t-48.5 -144.5q-18 -69 -46.5 -143t-77.5 -138q-19 -23 -41.5 -44.5t-47.5 -37.5q-62 -41 -121 -41q-19 0 -39 5q-52 14 -63 72q-4 20 -1.5 41.5t9.5 42t18.5 37t25.5 27.5q19 14 40.5 21
t43.5 13q23 7 44.5 14.5t37.5 21.5q-34 19 -56 50.5t-42 65.5q-2 4 -4.5 8t-4.5 8q-43 70 -62 169q-18 95 -15.5 150t25.5 84q24 29 71 29q61 0 93 -58q13 -24 19 -51.5t9 -47.5q2 -11 3 -23t2 -23q2 -12 3 -23t3 -22q1 -5 1 -8.5t1 -8.5q3 -20 7.5 -45t12.5 -45
q5 35 12 79.5t20 89.5q20 73 48 116q36 56 84 65q15 3 28 3q29 0 45.5 -11.5t24.5 -23.5z" />
    <glyph glyph-name="afii10086" unicode="&#x444;" horiz-adv-x="755" 
d="M753 365q8 -51 3 -104.5t-24 -105.5q-13 -35 -30.5 -64.5t-37.5 -51.5q-50 -53 -111 -53q-37 0 -76 21q2 -5 2.5 -9t2.5 -9q8 -32 13 -64t-5 -70q-12 -42 -28 -65q-17 -25 -35 -32.5t-32 -7.5q-10 0 -15 1q-39 7 -65 49q-19 31 -33 85q-8 35 -13 70.5t-7 64.5
q-8 -7 -19 -14q-31 -19 -68 -19q-36 0 -67 18t-52 50q-19 28 -29.5 60.5t-15.5 64t-5.5 60t0.5 49.5q3 46 20.5 95.5t45.5 91.5q33 49 73 75.5t83 26.5q42 0 83 -27l4.5 54t10.5 57q10 38 28 60q24 28 60 28q23 0 44 -10q29 -12 40 -41q5 -12 7 -25.5t0 -30.5
q-2 -26 -7.5 -51t-12.5 -48q21 10 45.5 17.5t49.5 7.5q39 0 66 -21q43 -32 69.5 -78.5t37.5 -104.5zM521 403q-24 -9 -43.5 -26.5t-31 -40t-15 -47.5t3.5 -50q7 -21 24.5 -41t38.5 -30.5t42 -5t33 35.5q13 34 13 80q0 22 -2.5 46.5t-9 44t-19.5 30t-34 4.5zM297 283
q0 13 -2 31.5t-8 38.5q-4 11 -12.5 26.5t-23.5 20.5q-3 1 -8 1q-11 0 -20.5 -8.5t-17.5 -22.5t-14.5 -31t-10.5 -35q-3 -14 -5 -32.5t-1.5 -36.5t4 -34.5t11.5 -26.5q9 -12 24 -12h2q23 0 44.5 30.5t36.5 86.5q0 3 1 4z" />
    <glyph glyph-name="afii10087" unicode="&#x445;" horiz-adv-x="362" 
d="M326 245q108 -84 108 -152q0 -42 -38 -71q-35 -27 -69 -27q-46 0 -87 47q-17 19 -31 41.5t-27 43.5q-5 10 -11 19.5t-11 17.5q-4 -8 -7.5 -15.5t-6.5 -15.5q-14 -31 -31.5 -61t-47.5 -51q-38 -26 -81 -26q-49 0 -78 34v1q-23 30 -26 54.5t2 41.5q8 25 29.5 45t53.5 31
q34 12 52.5 28.5t39.5 43.5q-10 11 -24.5 23t-31.5 25q-21 17 -43 35t-40 37.5t-30 41t-13 44.5q-4 42 32 80q28 31 64 31q27 0 51.5 -17t46 -43t40 -56t33.5 -56q2 -4 4 -7q3 6 6 12.5t6 12.5q11 24 25 50t31 47q42 53 98 53q5 0 8 -1q37 -2 61 -18t31 -44q9 -35 -11 -72
q-19 -37 -54 -58q-24 -14 -50.5 -33.5t-50.5 -45.5q-2 -2 -2.5 -3t-1.5 -2q2 -1 8 -5q3 -3 7 -5.5t9 -6.5v-1q10 -9 20.5 -17.5t21.5 -16.5q4 -3 8 -6.5t8 -6.5z" />
    <glyph glyph-name="afii10088" unicode="&#x446;" horiz-adv-x="578" 
d="M632 47q2 -24 -2 -48.5t-9 -47.5q-2 -7 -3 -14t-3 -15q-3 -18 -7.5 -36t-12.5 -35q-20 -39 -62 -54q-18 -6 -38 -6q-31 0 -58 13t-41 36q-24 37 -4 84q6 14 12.5 23t13.5 18q6 8 11 15.5t10 18.5q-27 -2 -54 -6.5t-56 -9.5q-35 -6 -70 -11.5t-71 -5.5q-51 0 -91 13
q-79 26 -97 110q-8 35 -6 73t5 73q2 13 3 25t1 23q2 16 0 35.5t-4 41.5q-3 27 -5 55t-0.5 55t8.5 51t22 42q30 35 87 38h8q49 0 75 -32q16 -20 20 -48t2 -59t-9 -63t-14 -60q-4 -14 -6.5 -26.5l-4.5 -22.5q-2 -22 -1.5 -38.5t3.5 -32t8 -31t13 -35.5q2 -5 4 -9q1 -2 2 -2
q2 -1 11 -1h7h9h8q5 0 8.5 -0.5t8.5 -1.5q5 0 11 -0.5t11 -0.5q7 0 9 1v55v30t1 30q1 12 3 23l4 22q2 12 4 23t1 22v1q0 14 -2.5 28.5t-6.5 30.5q-7 27 -10 55.5t8 60.5q12 35 42 57t65 22q37 0 65 -28q19 -18 28 -40.5t12 -46t1 -46.5t-5 -42q-7 -55 -8.5 -105.5
t0.5 -101.5q1 -11 0 -18v-8t1 -6q1 -1 6 -1q36 -1 74 -20l1 -1q49 -27 54 -88z" />
    <glyph glyph-name="afii10089" unicode="&#x447;" horiz-adv-x="498" 
d="M502 115q5 -29 -3.5 -49.5t-18.5 -31.5q-14 -17 -35.5 -26t-46.5 -9q-46 0 -80 31q-19 16 -28.5 37t-13 43.5t-2 45.5t3.5 45q-33 -14 -70 -14q-47 0 -91 22t-72 61q-20 31 -34 75t-17 88q-4 49 8 91q15 47 51 71q33 22 63 22q43 0 72 -37q20 -26 28.5 -61t1.5 -69h-1
q-2 -8 -4.5 -16t-5.5 -16q-10 -26 -10.5 -39t14.5 -24v-1q10 -7 24 -7q7 0 14 1t15 3q5 1 10.5 2t11.5 2q-1 10 -2 19.5t-3 20.5q-5 36 -7 72.5t11 72.5q15 42 45 61q26 16 58 16q14 0 34.5 -4t47.5 -17h1q2 -1 3.5 -1.5t3.5 -2.5q1 -1 1 -2q48 -57 2 -148q-26 -47 -21 -118
q2 -32 9 -64.5t15 -64.5q11 -44 18 -79v-1v0z" />
    <glyph glyph-name="afii10090" unicode="&#x448;" horiz-adv-x="765" 
d="M756 490q-2 -47 -6 -92q-3 -45 -5 -87.5t2 -87.5q1 -6 1.5 -12.5t1.5 -13.5q2 -25 4.5 -51t-2.5 -52q-10 -65 -66 -85q-24 -9 -50 -9q-16 0 -31.5 2.5t-29.5 5.5q-14 2 -27.5 4.5t-26.5 2.5q-27 0 -49 -12q-14 -8 -36.5 -12t-59.5 -4h-23h-15q-19 0 -36 3.5t-34 7.5
q-15 4 -29.5 6.5t-29.5 2.5h-9t-9 -1h-1q-5 -1 -11.5 -2t-13.5 -3q-11 -3 -23 -5t-24 -2q-38 0 -60 25q-23 14 -36.5 35.5t-18.5 47.5v1q-5 38 -2.5 75.5t7.5 73.5q5 37 7.5 72t-2.5 70q0 2 -0.5 5t-0.5 6q-3 21 -6 47t-2 52t7.5 49.5t21.5 41.5q27 30 75 30h3q40 0 64 -27
q13 -15 19.5 -36t8 -43t0 -44t-2.5 -40q-1 -4 -1 -9v-1q-6 -57 -4 -111t7 -111q1 -11 1.5 -22t1.5 -22q12 -2 24 -2h25q1 1 5 1t7 -0.5t6 -0.5h5q1 2 1 9q1 37 6 73q4 29 6 61q1 20 -1 42t-5 45q-6 47 -7.5 93.5t20.5 86.5q15 27 46 44q27 15 59 15q34 0 59 -17
q26 -19 36 -56q5 -27 -0.5 -52.5t-13.5 -50.5q-5 -14 -8 -26t-5 -24v-1q-5 -29 -5.5 -57.5t-0.5 -58.5v-15v-27t2 -23t5.5 -22.5t9.5 -26.5q2 -5 7.5 -9.5t19.5 -4.5q11 0 22.5 2.5t22.5 6.5q2 18 4.5 36t4.5 35q3 20 5.5 39.5t4.5 39.5q-2 19 -4.5 38t-4.5 37l-9 78
q-4 35 4 65.5t28 52.5q15 17 35 26.5t40 9.5q38 0 62 -26q12 -13 23.5 -37.5t9.5 -67.5z" />
    <glyph glyph-name="afii10091" unicode="&#x449;" horiz-adv-x="885" 
d="M943 -46q11 -72 -23 -112q-33 -38 -99 -38h-3q-66 1 -90 33q-16 22 -12.5 48t9.5 51q5 16 8 31.5t-2 22.5q-8 10 -39 10q-22 0 -45 -4q-2 0 -5 -0.5t-8 -0.5q-15 0 -42.5 2t-63.5 4q-51 4 -109.5 7.5t-104.5 3.5q-33 0 -49 -1.5t-22 -3.5q-1 -1 -3 -1q-9 -1 -17.5 -3
t-18.5 -4q-14 -4 -28.5 -7t-30.5 -3q-17 0 -29 4h-1q-64 16 -84 80q-14 41 -5 112q1 5 1.5 11t1.5 11q5 41 8.5 79.5t-1.5 78.5v1q-2 11 -3.5 21t-3.5 21q-4 26 -6.5 52t-0.5 52q3 46 37 75q15 14 34 21.5t39 7.5q31 0 55 -18t35 -50q13 -38 10 -78t-8 -80q-4 -26 -7 -50.5
t-1 -47.5v-1q2 -27 3.5 -54.5t6.5 -53.5q1 -9 3 -12q2 0 3 0.5t3 0.5q4 0 9 0.5t12 0.5l51 1q0 21 1.5 40.5t3.5 39.5q3 38 4.5 75t-3.5 75q-3 20 -5.5 43t-0.5 46q5 57 35 89q35 38 86 38q26 0 48.5 -10.5t36.5 -29.5q30 -36 17 -88q-3 -14 -8 -25.5t-10 -22.5
q-7 -15 -12.5 -28.5t-4.5 -29.5q2 -38 2.5 -70t-0.5 -63v-15t1 -18.5t3.5 -18.5t7.5 -14q2 -2 6.5 -4t12.5 -2h1q14 1 31 1.5t34 0.5q2 8 2.5 15.5t1.5 15.5q2 6 2.5 12t1.5 11v1q5 41 5 77t-5 77q-2 7 -2.5 13.5t-2.5 13.5q-5 27 -8 57t5 59q11 39 37 60q23 20 58 20
q20 0 39 -7.5t34 -21.5q34 -31 37 -80q3 -31 0.5 -61.5t-6.5 -60.5q-3 -29 -5.5 -57.5t-0.5 -57.5q2 -14 3 -28t3 -28q2 -10 3 -20l2 -20q10 -2 24 -3q22 -2 45.5 -6.5t43.5 -19.5q29 -22 35 -75q2 -20 1 -41.5t-3 -38.5q-1 -11 -1.5 -20.5t0.5 -14.5z" />
    <glyph glyph-name="afii10092" unicode="&#x44a;" horiz-adv-x="505" 
d="M487 289q17 -26 20.5 -59t-7.5 -68q-10 -32 -28 -60t-41 -47h-1q-74 -60 -206 -60h-16q-112 1 -154 50q-31 35 -25 94q3 25 8.5 49.5t11.5 47.5q9 39 16 76.5t1 76.5q-3 20 -6.5 30.5t-6.5 15.5q-2 4 -4 4.5t-4 0.5q-5 0 -11.5 -2.5t-14.5 -4.5q-11 -5 -24 -8.5t-27 -3.5
q-30 0 -58 22q-24 20 -32 40q-9 22 -1 45q8 22 30.5 39.5t53 29.5t66 18.5t69.5 6.5q54 0 93 -15q47 -17 68 -53q19 -33 13 -73q-3 -30 -20 -66q63 -6 119 -28q43 -17 72.5 -42t45.5 -56zM246 158q0 -3 -1 -5h1q4 0 7 -1q20 -7 37 -7q3 0 9.5 0.5t12.5 5t11 13.5t6 26
q1 29 -34 50q-21 12 -47 19q2 -23 3 -45.5t-3 -47.5q-1 -2 -1 -4t-1 -4z" />
    <glyph glyph-name="afii10093" unicode="&#x44b;" horiz-adv-x="677" 
d="M670 167q3 -20 5.5 -40.5t-0.5 -41.5q-6 -51 -50 -74q-25 -11 -46 -11q-34 0 -54 23q-21 22 -21 59q0 17 2 33t4 31q5 28 6.5 54t-9.5 51v1q-4 5 -5 11q-16 37 -29.5 73t-20.5 77q-2 14 -4 36.5t2 48.5t15.5 52.5t35.5 47.5q34 28 74 28q31 0 52.5 -18.5t28.5 -50.5
t7 -68t-2 -72q-1 -22 -1.5 -42.5t1.5 -39.5v-1q1 -12 1 -24.5v-24.5q0 -26 0.5 -51t5.5 -50v-1q0 -4 0.5 -7.5t1.5 -8.5zM471 290q29 -49 9 -115q-8 -27 -22.5 -52.5t-33.5 -45.5q-60 -60 -179 -72q-17 -2 -35.5 -3.5t-38.5 -1.5q-95 0 -141 39q-37 33 -37 87q0 22 5.5 43.5
t10.5 41.5q2 5 2.5 9t2.5 8q13 54 19.5 108.5t-12.5 103.5q-2 6 -4 10q-6 14 -12 30t-9.5 32t-3 32t7.5 30q15 29 56 40q23 5 40 5q54 0 86 -40q25 -32 30.5 -75t0.5 -81q76 -4 138 -31q75 -35 120 -102zM219 267q2 -23 3 -45.5t-3 -48.5q-1 -2 -1 -4t-1 -4q0 -2 -1 -4h1
q5 0 7 -1q9 -3 18 -3q11 0 20.5 5.5t17 13.5t13 16t8.5 14q1 2 3 4q-3 16 -16 25.5t-19 12.5q-12 7 -25.5 11.5t-24.5 7.5z" />
    <glyph glyph-name="afii10094" unicode="&#x44c;" horiz-adv-x="497" 
d="M473 292q21 -32 23.5 -67t-12.5 -70q-13 -30 -37 -55.5t-53.5 -45t-61 -32.5t-60.5 -17q-25 -4 -48 -6t-44 -2q-80 0 -126 27q-50 28 -54 87q-2 24 2.5 48t10.5 47v2q7 26 13.5 53t10.5 53.5t3.5 52.5t-7.5 52q-4 13 -14 35q-8 18 -15 37.5t-8 39.5q-3 52 46 74
q33 15 62 15q48 0 79 -39q14 -17 22 -39.5t12 -48.5q6 -35 1 -72q35 -2 67 -9t61 -18q75 -32 122 -95q4 -4 5 -7zM221 159q17 2 32 4t26 7q21 8 25.5 16t4.5 11t0.5 8t-2.5 11.5t-10 13.5t-21 15q-13 7 -26.5 12t-25.5 8q2 -23 2.5 -45.5t-3.5 -48.5q-1 -2 -1 -6
q-1 -2 -1 -6z" />
    <glyph glyph-name="afii10095" unicode="&#x44d;" horiz-adv-x="527" 
d="M512 361q11 -46 9.5 -91.5t-15.5 -85.5q-34 -95 -123 -136q-35 -16 -87 -30t-107 -14q-46 0 -78 11q-39 14 -65 41q-26 31 -26 72q0 37 22 72q7 9 19.5 18t23.5 14q11 7 27 13t33 6q32 0 43 -27q8 -6 9 -7q22 -17 42 -30t40 -13q16 0 33 12q1 0 1 0.5t1 0.5q5 3 8 4.5
t6 6.5q1 1 1 1.5t1 1.5l2 4q4 4 6 8v1q1 2 2 7t1 9q2 6 2 9v1q-20 0 -36.5 1.5t-30.5 3.5q-4 -1 -12 -1q-34 0 -57 36q-11 17 -16 38q-5 23 3 41h1q7 14 31 24t72 22q3 1 6.5 1.5t6.5 1.5q-2 10 -4 14q-3 13 -7 24t-13 18q-3 2 -8.5 3.5t-8.5 2.5l-16 -6v-1
q-16 -12 -31.5 -18t-29.5 -11q-2 -2 -4.5 -2.5t-4.5 -2.5q-10 -4 -14 -6q-17 -7 -22.5 -8t-7.5 -1h-2q-8 -2 -15 -3t-15 -1q-36 0 -61.5 23t-34.5 65q-11 55 17 93q18 25 50 40t74 20q14 2 28 3.5t28 1.5q111 0 185 -63q27 -23 45.5 -49.5t31.5 -55.5t22 -59t17 -60v-1
q0 -1 0.5 -1t0.5 -1q0 -2 0.5 -2.5t0.5 -2.5z" />
    <glyph glyph-name="afii10096" unicode="&#x44e;" horiz-adv-x="747" 
d="M745 390q6 -42 0.5 -87.5t-22.5 -90.5q-16 -45 -41 -83.5t-56 -67.5q-34 -32 -70.5 -48.5t-74.5 -16.5q-42 0 -80 20q-41 22 -74 64q-31 36 -51 92q-2 7 -3.5 13t-2.5 11q0 2 -0.5 4t-0.5 4h-8h-1q-5 -1 -11 -1h-12q-9 -1 -17.5 -1t-16.5 -1q-8 -2 -10.5 -3t-3.5 -2
q0 -1 0.5 -3.5t3.5 -9.5q11 -22 20 -46t9 -52q0 -44 -31 -72q-30 -25 -69 -25q-33 0 -61 16q-38 24 -51 68q-10 33 -9 79q1 37 6 75q2 25 4.5 50t1.5 51q-1 14 -2.5 29t-3.5 29q-3 26 -5.5 52t-0.5 53q5 58 44 93q17 15 38.5 23.5t44.5 8.5q48 0 75 -35q11 -14 17 -38
t-5 -62q-2 -10 -6 -19t-9 -18q-6 -11 -10.5 -21.5t-4.5 -18.5q1 -23 12.5 -32.5t24.5 -9.5q11 0 24.5 8t18.5 28q5 25 16.5 50t28.5 51v1q23 34 48 55.5t50 34t48 17t43 4.5q24 0 49 -5.5t48 -15.5q40 -18 66 -43q69 -60 83 -156zM496 171q10 0 28 8t38 39q14 20 22.5 43
t9.5 42q1 18 -3 45.5t-15 54.5q-15 38 -30.5 50.5t-24.5 14.5q-5 1 -13 1q-30 0 -51 -34q-11 -18 -18 -38.5t-10 -36.5t-5 -37t-0.5 -43.5t7 -43.5t16.5 -37q17 -23 41 -27q2 0 4 -0.5t4 -0.5z" />
    <glyph glyph-name="afii10097" unicode="&#x44f;" horiz-adv-x="512" 
d="M476 173q2 -5 3 -8.5t3 -8.5q6 -15 11 -31.5t7.5 -32.5t1 -31.5t-9.5 -28.5q-17 -30 -69 -38q-5 -1 -8.5 -1h-8.5q-48 0 -75 34q-25 33 -30 92q-1 20 0.5 38.5t3.5 32.5h-1q-23 0 -35.5 -21t-25.5 -56q-6 -16 -12.5 -31t-14.5 -26q-9 -13 -22.5 -26t-29.5 -23
t-34.5 -16.5t-38.5 -6.5q-25 0 -51 13q-15 7 -26.5 19t-19 27t-10 31t0.5 32q6 25 24.5 39t47.5 14q27 1 36.5 16t17.5 45q5 17 11 35t18 33q-37 25 -61 57q-39 53 -26 111q11 53 54 92q37 35 90 52q62 22 118 22q51 0 91.5 -17.5t66.5 -50.5q21 -26 28.5 -57t-0.5 -63
q-3 -15 -7 -26q-7 -29 -14 -59t-11 -60t-3 -59.5t10 -56.5zM325 351q15 29 21.5 59t-4.5 50q-8 14 -24 14q-27 0 -65 -30l-1 -1q-10 -7 -10.5 -12t-0.5 -7q2 -10 12.5 -22t27.5 -25q11 -8 22.5 -14.5t21.5 -11.5z" />
    <glyph glyph-name="endash" unicode="&#x2013;" horiz-adv-x="530" 
d="M545 354q6 -15 1 -29q-2 -7 -8 -15t-20 -17.5t-38.5 -19t-63.5 -19.5q-21 -5 -41.5 -9t-37.5 -6.5t-29.5 -4.5t-18.5 -2q-35 -3 -66 -3q-137 0 -204 58q-17 15 -19.5 28.5t-0.5 21.5q7 20 25 31q15 10 35 15h1q15 3 34 3q17 0 33 -2.5t32 -4.5q17 -2 32.5 -4t30.5 -2
q17 0 38.5 4.5t46.5 9.5q30 6 63 12t65 6q37 0 61 -10h2q8 0 16 -8q6 -4 12 -10q12 -10 19 -23z" />
    <glyph glyph-name="emdash" unicode="&#x2014;" horiz-adv-x="1132" 
d="M1121 395q15 -14 16.5 -25.5t-0.5 -18.5q-6 -23 -43 -39q-13 -5 -29.5 -10t-36.5 -10q-36 -8 -70.5 -13.5t-51.5 -7.5q-3 -1 -8 -1h-1q-82 -11 -156 -17t-143 -9q-32 -1 -62 -1.5t-59 -0.5q-55 0 -105.5 2.5t-100.5 7.5q-9 1 -18 1.5t-19 1.5q-48 4 -100 12t-94 32
q-5 1 -10 6q-4 2 -6 4t-3 2.5t-3 2.5q-2 1 -6 5q-12 12 -13.5 22t1.5 18q5 17 29 27.5t72 17.5q35 5 66.5 7t45.5 2q8 0 10 -1h6q64 -5 124.5 -9t123.5 -4q14 0 28.5 0.5t28.5 0.5q39 2 79 5.5t78 7.5q40 4 80.5 7t81.5 5q17 2 34 3q20 2 43 3.5t47 1.5q100 0 144 -38z" />
    <glyph glyph-name="quoteleft" unicode="&#x2018;" horiz-adv-x="253" 
d="M249 837q1 -17 -2.5 -33.5t-9.5 -27.5q-14 -25 -22.5 -46.5t-9.5 -44.5q-1 -48 -33 -78t-91 -39q-2 -1 -3 -1t-3 -1h-2h-1q-1 1 -3 1q-42 4 -57 33q-8 15 -7.5 32t5.5 35t13.5 35.5t16.5 32.5q2 5 4 9.5t4 8.5q2 3 3.5 6.5t3.5 8.5q8 18 19 42t26 46q38 59 82 59
q17 0 34 -9h1q32 -21 32 -69z" />
    <glyph glyph-name="quoteright" unicode="&#x2019;" horiz-adv-x="252" 
d="M216 893q15 -8 26 -28.5t1 -58.5q-5 -22 -16 -43.5t-21 -39.5q-5 -7 -8 -12.5t-5 -10.5v-1l-2 -4t-2 -5q-7 -14 -18 -36.5t-25 -43.5q-38 -56 -79 -56q-8 0 -12 1h-3q-7 0 -19 8q-5 4 -9.5 7.5t-6.5 9.5q-4 5 -6 13q-2 10 0 20.5t7 20.5t11.5 19.5t12.5 18.5q3 5 6 9.5
l5 7.5q11 22 14 44t5 47v6q2 20 9.5 40t18.5 37q29 43 72 43q22 0 44 -13z" />
    <glyph glyph-name="quotesinglbase" unicode="&#x201a;" horiz-adv-x="263" 
d="M220 120q22 -30 12 -69q-17 -59 -42.5 -110t-59.5 -92q-15 -17 -34.5 -33t-42.5 -16q-16 0 -31 10q-11 7 -15.5 14.5t-6.5 13.5q-5 18 4 34t19 30q2 4 4 7.5t4 5.5q11 19 15.5 41t7.5 46q4 30 10.5 60t27.5 55q29 32 67 32t61 -29z" />
    <glyph glyph-name="quotedblleft" unicode="&#x201c;" horiz-adv-x="432" 
d="M410 925q24 -37 -19 -122q-10 -22 -13 -44t-5 -48l-1 -5q-2 -20 -9 -40t-18 -37q-30 -44 -72 -44q-22 0 -45 14q-26 16 -34 49q-5 -10 -11 -19q-30 -44 -72 -44q-22 0 -45 14q-15 9 -23.5 22t-12 28.5t-3.5 31.5t2 31q4 29 12.5 57t16.5 45q0 1 1 1q15 29 33 53t38 42
q40 35 73 35q26 0 38 -21q18 -26 -1 -82q14 24 28.5 40t25.5 27q42 37 77 37q26 0 39 -21z" />
    <glyph glyph-name="quotedblright" unicode="&#x201d;" horiz-adv-x="420" 
d="M376 916q15 -9 23.5 -21.5t12 -27t3.5 -30t-2 -28.5q-5 -32 -15 -58.5t-15 -37.5v-1q-10 -21 -29.5 -44.5t-44.5 -43.5q-36 -30 -58 -38t-33 -8q-22 0 -33 17q-11 18 -4.5 49t32.5 81q10 21 13 37t5 39q-6 -15 -13 -29t-14 -26q-4 -7 -7 -12t-5 -10q-12 -39 -29 -64
t-31 -39q-18 -19 -38 -29.5t-38 -10.5q-27 0 -41 22q-12 19 -7 50q5 29 24 68q8 15 9 32.5t2 36.5v16t1 16q3 40 38 73q36 36 80 36q28 0 52 -15q11 -7 21 -20t11 -36q3 7 6 13.5t8 12.5q29 43 72 43q22 0 44 -13z" />
    <glyph glyph-name="quotedblbase" unicode="&#x201e;" horiz-adv-x="422" 
d="M210 105q7 -15 6.5 -34t-6 -39.5t-14.5 -42t-19 -41.5q-2 -5 -3 -8t-3 -6q-5 -9 -18 -32t-31 -46q-50 -66 -91 -66q-10 0 -23 5.5t-24 25.5q-11 21 -1 42.5t21 36.5q6 8 8 11q28 46 29 92v13v6q0 4 2 8q5 35 20 63q28 49 79 49q12 0 26 -3q29 -7 42 -34zM407 115
q20 -33 3 -97q-7 -26 -19 -54.5t-28 -56.5q-7 -12 -19.5 -31t-29 -37t-35.5 -30.5t-38 -12.5q-4 0 -7 1q-15 2 -23 8.5t-12 13.5q-13 23 -1.5 59.5t31.5 83.5q6 13 11.5 26t6.5 18q1 3 1 6t1 5q2 22 6 43.5t15 38.5q18 32 54 41q4 3 11 3h30q5 0 11 -3q12 -4 19.5 -11
t11.5 -14z" />
    <glyph glyph-name="bullet" unicode="&#x2022;" horiz-adv-x="272" 
d="M259 323q0 -53 -31 -92q-35 -43 -94 -43h-1q-58 0 -90 40q-30 36 -30 85v3q0 53 31 92q35 43 93 43h1h1q57 0 90 -41q14 -17 21.5 -38.5t8.5 -45.5v-3v0z" />
    <glyph glyph-name="ellipsis" unicode="&#x2026;" horiz-adv-x="887" 
d="M449 194q26 0 49 -10t37 -27q9 -11 15.5 -31.5t-0.5 -49.5q-10 -41 -42 -60t-65 -19q-41 0 -70 23q-22 19 -30 49q-3 4 -3 10v26q0 6 3 9q6 34 33 55q30 25 73 25zM182 170q35 -30 35 -80q0 -44 -32 -70q-27 -22 -67 -22q-44 0 -75 25q-38 28 -38 75q0 46 33 74
q30 25 70 25q42 0 74 -27zM856 167q25 -30 25 -69q0 -34 -20 -63t-58 -37q-6 -2 -9 -2h-26q-2 0 -8 2q-21 4 -35 12.5t-22 17.5q-27 28 -27 71q0 40 27 69q10 11 29 21t49 10q48 0 75 -32z" />
    <glyph glyph-name="guilsinglleft" unicode="&#x2039;" horiz-adv-x="332" 
d="M284 359q-20 -7 -42 -16t-40.5 -19.5t-32 -22.5t-15.5 -25q-2 -10 2 -20.5t11.5 -20.5t17.5 -20t19 -18q11 -9 21 -16l20 -14q22 -16 38.5 -30.5t21.5 -37.5q6 -35 -18 -65q-14 -17 -35.5 -28t-41.5 -11q-25 0 -39 16l-105 112q-20 20 -35 44.5t-24 49.5q-12 33 -10 62.5
t16 54.5h1q14 23 40.5 55t59.5 61q82 71 151 71q28 0 45 -15q15 -11 20 -36q3 -14 0.5 -31.5t-9.5 -34.5q-10 -24 -20 -33.5t-17 -11.5z" />
    <glyph glyph-name="guilsinglright" unicode="&#x203a;" horiz-adv-x="352" 
d="M333 275q23 -67 -6 -117h-1q-14 -23 -40.5 -55t-59.5 -61q-83 -72 -152 -72q-28 0 -44 15q-15 12 -20 37q-3 14 -0.5 31.5t9.5 34.5q10 24 20 33.5t17 11.5q20 7 42 16t40.5 19.5t32 22.5t15.5 25q2 10 -2 20.5t-11.5 20.5t-17.5 20t-19 18q-11 9 -21 16l-20 14
q-22 15 -39 30t-21 38q-4 17 1 33.5t17 31.5q14 17 35.5 28t41.5 11q25 0 39 -16l105 -112q20 -20 35 -44.5t24 -49.5z" />
    <glyph glyph-name="Euro" unicode="&#x20ac;" horiz-adv-x="585" 
d="M315 562q-28 -25 -42 -73q11 8 22 16.5t22 17.5l21 18q25 19 63 19q47 0 68 -30q6 -9 8.5 -24.5t-7.5 -37.5l-1 -1q-10 -21 -26 -35t-36 -24q4 -1 7 -1.5t7 -1.5q25 -8 37.5 -27.5t9.5 -45.5q-3 -32 -24 -58q-23 -29 -56 -32h-1q-33 -3 -61.5 -6.5t-58.5 -11.5
q5 -20 26 -30q15 -6 32 -6q12 0 25 3t24 6q7 2 14 7t15 11q10 8 22 15.5t26 9.5q5 1 15 1q41 0 64 -40q7 -14 11 -31t4.5 -34.5t-3.5 -33.5t-11 -27q-12 -20 -32 -35t-43 -25.5t-47 -16t-45 -5.5q-4 0 -7.5 0.5t-6.5 0.5q-21 2 -45.5 7t-49.5 14t-49 24t-44 36
q-34 35 -53 89q-2 7 -3.5 13t-3.5 11q-2 10 -4.5 17.5t-8.5 14.5q-2 3 -8 3.5t-14 1.5q-13 0 -29.5 4t-27.5 22q-9 15 -6 36.5t11 36.5q13 22 31 25q-12 9 -16 19q0 1 -1 2q-2 5 -3 13.5t-1 19t2 21t7 19.5q6 10 13 14t12 5q1 1 2 1h6q15 0 29 -7q2 23 8 49.5t16 53.5
q11 26 23 50.5t26 44.5q36 53 83 87t100 45q12 3 30 5.5t38 2.5q80 0 115 -45q19 -24 24 -62q5 -40 -10 -68q-10 -20 -27.5 -31.5t-40.5 -11.5q-15 0 -30 0.5t-29 1.5q-11 1 -22 1.5t-21 0.5q-24 0 -38.5 -4t-23.5 -13q-1 -1 -2 -1z" />
    <glyph glyph-name="afii61352" unicode="&#x2116;" horiz-adv-x="1060" 
d="M598 245q2 -20 2 -49.5t-4 -61.5q-11 -81 -42 -115q-24 -26 -57 -26t-70 25q-30 20 -55 50t-45.5 64.5t-36 70.5t-27.5 67q-5 17 -9 34t-7 34q-5 23 -10 45.5t-16 41.5q3 -24 5.5 -48.5t3.5 -49.5q2 -38 1.5 -76.5t-1.5 -73.5v-1q-1 -69 -22 -116q-25 -54 -70 -67
q-5 -5 -14 -5h-4.5t-21.5 2h-2q-19 1 -28 3q-5 0 -6 1h-2q-15 2 -17 15q-15 12 -23 25q-12 20 -15 45t-0.5 51.5t9 52.5t13.5 48q18 56 25 111t3 115q-1 19 -3.5 38.5t-5.5 38.5q-4 24 -7 49t-3 51q0 29 10.5 59t28.5 56q21 28 47 43t52 15q31 0 53.5 -17t36.5 -34
q26 -32 42 -72.5t30 -82.5q16 -46 33 -87t45 -71q3 17 2.5 34.5t-2.5 36.5q-2 16 -3 32t1 33q1 88 36 148q18 32 49.5 51t64.5 19q37 0 61 -24q25 -24 30 -69v-1q3 -38 -8 -75t-25 -72q-10 -26 -18 -50.5t-11 -48.5q-6 -52 -3 -103.5t10 -108.5zM1089 273q2 -14 -5 -32
t-33 -32q-9 -5 -36 -14t-62 -18t-74.5 -17t-74 -11.5t-60 -2t-33.5 12.5h-2q-5 0 -8 1t-16 9q-2 2 -4.5 3t-4.5 2q-4 2 -6 4q-66 37 -66 83q1 29 23 45.5t62 16.5q19 0 36 -3q12 -2 27 -1.5t25 2t10 3.5t-19 3q-5 2 -8.5 3t-7.5 3q-34 16 -59 46t-35.5 63t-13.5 59
q-9 84 45 161q10 15 24.5 31t32.5 29.5t40.5 22t49.5 8.5q89 0 143 -63q20 -23 32.5 -55t16.5 -67q8 -87 -45 -161q-28 -38 -56 -59q-22 -16 -49 -26q7 2 13.5 2.5t13.5 2.5q19 3 37.5 6t38.5 5q5 0 9 0.5t8 0.5q40 0 63.5 -17t27.5 -49zM785 517q-1 -30 15 -49q5 -5 8 -6
t6 -1q7 0 16 5.5t17 13t14 16.5t8 15q9 22 11.5 49.5t-8.5 48.5q-5 8 -9 9.5t-6 1.5q-12 0 -28 -14t-24 -28l-3 -5q-5 -11 -10.5 -25.5t-6.5 -30.5z" />
    <glyph glyph-name="minus" unicode="&#x2212;" horiz-adv-x="537" 
d="M536 360q6 -13 1 -29q-2 -7 -8 -15t-20 -17t-38.5 -18.5t-63.5 -19.5q-21 -5 -41.5 -9t-37.5 -7t-29.5 -4.5t-18.5 -1.5q-17 -2 -34 -3t-32 -1q-135 0 -204 58q-17 15 -19.5 28.5t-0.5 21.5q6 19 25 32q16 10 35 14h1q15 3 34 3q17 0 33 -2l32 -4q17 -3 32.5 -5t30.5 -2
q30 1 61.5 4.5t63.5 8.5q30 4 58 7t51 3q49 0 70 -18q13 -11 19 -24z" />
    <glyph glyph-name="uni2215" unicode="&#x2215;" horiz-adv-x="375" 
d="M385 681q6 -23 1 -57q-4 -28 -12.5 -56t-16.5 -50q-2 -7 -4 -12t-3 -10q-11 -35 -21.5 -70t-21.5 -69q-9 -26 -17.5 -53.5t-16.5 -54.5q-2 -8 -5 -18t-7 -22q-11 -42 -28.5 -98.5t-41.5 -108.5q-27 -61 -57 -92q-37 -41 -81 -43h-4h-4t-10 2h-1h-1q-2 1 -3 1t-3 1
q-5 1 -9 5q-13 10 -17 25q-5 15 -1 33.5t13.5 40t23 45t28.5 47.5q7 10 12 18.5t7 13.5q26 56 45 115.5t37 126.5q19 65 35 127.5t30 122.5q1 5 2 10.5t2 12.5q3 17 7 36.5t12 36.5q4 11 9 19t12 15q16 16 39 16q17 0 37 -11q26 -14 34 -45z" />
    <glyph glyph-name="uni2219" unicode="&#x2219;" horiz-adv-x="264" 
d="M210 429q26 -18 26 -51q-1 -26 -14 -49.5t-24 -37.5q-15 -20 -29 -31q-17 -16 -31 -16h-1q-17 0 -38.5 6t-39.5 26q-27 29 -27 69q0 41 27 70q11 11 29.5 21.5t48.5 10.5h1q48 0 72 -18z" />
    <glyph glyph-name="radical" unicode="&#x221a;" horiz-adv-x="463" 
 />
    <glyph glyph-name="infinity" unicode="&#x221e;" horiz-adv-x="582" 
 />
    <glyph glyph-name="integral" unicode="&#x222b;" horiz-adv-x="425" 
 />
    <glyph glyph-name="approxequal" unicode="&#x2248;" horiz-adv-x="600" 
 />
    <glyph glyph-name="notequal" unicode="&#x2260;" 
 />
    <glyph glyph-name="lessequal" unicode="&#x2264;" horiz-adv-x="456" 
 />
    <glyph glyph-name="greaterequal" unicode="&#x2265;" horiz-adv-x="450" 
 />
    <glyph glyph-name="zero.alt" unicode="&#xf800;" horiz-adv-x="559" 
d="M551 471q7 -80 -9 -153q-15 -75 -53 -143q-31 -57 -59 -93t-55 -55q-28 -19 -52 -22t-44 -3q-49 0 -96 30t-88 87q-35 50 -58 109.5t-28 117.5q-15 158 62 297q15 28 35 58t45.5 55t57.5 41.5t70 16.5q68 0 122 -33q24 -14 44.5 -35.5t37.5 -48.5q28 -44 45.5 -102
t22.5 -124zM356 462q1 59 -17 104q-8 20 -17 31t-17 11q-3 0 -12.5 -5t-24.5 -26q-11 -15 -20 -32.5t-16 -30.5l-7 -14q-9 -17 -17 -47t-10 -63.5t2.5 -66.5t21.5 -57q9 -14 16 -16t9 -2q23 0 53 39q14 18 24 37t13 31q8 27 13 54t6 53z" />
    <glyph glyph-name="one.alt" unicode="&#xf801;" horiz-adv-x="434" 
d="M391 266q16 -44 28.5 -91t1.5 -93q-8 -38 -43 -61q-30 -21 -70 -21q-41 0 -70 23v1q-43 37 -65 100q-17 51 -22 126q-3 62 2.5 124t12.5 113l-16 -10t-18 -10q-2 -2 -6 -4l-7.5 -3t-4.5 -2q-7 -2 -13.5 -3t-13.5 -1q-30 0 -51.5 17.5t-28.5 46.5q-13 45 2 75q14 28 56 49
q29 16 58 35.5t50 46.5l2 1q19 24 42 45.5t61 26.5h1q4 0 7.5 0.5t8.5 0.5q29 0 45 -11.5t24 -22.5q10 -16 13 -35.5t1 -40t-8 -40.5t-13 -36q-27 -63 -18 -144q4 -40 13.5 -78.5t20.5 -72.5q7 -24 18 -51z" />
    <glyph glyph-name="two.alt" unicode="&#xf802;" horiz-adv-x="565" 
d="M542 196q28 -56 22 -108q-3 -43 -26 -66q-20 -20 -54 -20q-31 0 -65 14t-60 28l-5 2q-39 19 -71 19q-31 0 -58 -17q-5 -3 -10 -6.5t-10 -6.5q-17 -13 -35.5 -23.5t-43.5 -10.5q-10 0 -22 3q-18 4 -33.5 10.5t-26.5 17.5q-24 21 -30 48q-7 31 7 64q7 16 18 30.5t26 25.5
q28 22 50 42.5t40.5 42.5t34 45.5t29.5 50.5q1 4 8 16q9 18 23.5 45.5t25.5 56.5q8 22 11.5 37t4.5 25t-0.5 15t-2.5 7t-4 4t-14 2h-1q-29 0 -46 -19t-33 -44q-14 -22 -30.5 -41t-42.5 -19q-29 0 -64 32q-58 52 -53 120q3 38 26 73.5t61 61.5q34 23 75 35t85 12
q85 0 151 -42q38 -23 59 -60q20 -34 23 -74q3 -38 -7 -77t-32 -74q-19 -30 -37 -60t-33 -56q-21 -35 -32.5 -57.5t-17.5 -36.5l20 15q14 11 18 13h1q20 11 43 11q32 0 67 -22q21 -15 39.5 -36.5t31.5 -47.5z" />
    <glyph glyph-name="three.alt" unicode="&#xf803;" horiz-adv-x="543" 
d="M516 352q21 -65 21 -114q2 -65 -34 -114q-46 -67 -114 -98q-56 -27 -127 -27q-48 0 -91.5 9.5t-78.5 20.5q-28 9 -53 36t-35 58q-14 46 13 79h1q19 24 57 24q20 0 40 -5.5t34 -9.5q19 -6 32.5 -9.5t27.5 -3.5q11 0 21 3t21 8q13 8 25 17.5t20 20.5q19 27 15 49
q-2 13 -8 17.5t-20 4.5q-11 0 -23 -2t-25 -5q-12 -2 -23 -4.5t-22 -2.5q-4 0 -5 1q-21 1 -36.5 9t-25.5 19.5t-15.5 25t-6.5 26.5v1q-3 42 38 77q17 14 37 25.5t40 22.5q19 10 35 19.5t26 18.5q6 5 14 16t15 23q8 16 9.5 25t0.5 12q-2 6 -19 4q-17 0 -31.5 -9.5t-30.5 -23.5
q-14 -13 -31 -25t-39 -17q-5 -2 -10 -2h-10q-43 0 -75 37q-17 21 -25 47.5t-3 51.5q14 73 97 105q54 21 118 21q62 0 114 -20.5t85 -58.5q12 -14 23 -32t18.5 -38.5t9.5 -42.5t-4 -43q-9 -35 -36.5 -63.5t-56.5 -51.5q17 -5 30 -10.5t24 -13.5q19 -14 30.5 -36.5t21.5 -51.5
z" />
    <glyph glyph-name="four.alt" unicode="&#xf804;" horiz-adv-x="626" 
d="M622 285q11 -47 -16 -80q-11 -14 -29 -20.5t-36 -11.5q-5 -2 -11.5 -3.5t-11.5 -3.5q0 -21 -3 -45.5t-11 -47.5q-9 -30 -27 -46q-21 -23 -51 -27q-6 -2 -11.5 -2h-10.5q-45 0 -72 31q-26 29 -32 85q-2 15 -2.5 29.5t0.5 27.5q-34 -9 -75 -16t-76 -7h-15q-21 2 -42 10
t-39 22q-17 14 -29.5 31.5t-17.5 37.5q-9 31 2.5 59t40.5 48q27 18 49 45.5t40.5 59.5t33.5 65.5t27 62.5l2 5q5 11 9 22.5t9 23.5q9 27 20 53.5t27 48.5q20 26 43 39q27 15 61 15q7 0 11 -1q70 -5 101 -58q12 -20 18 -47t8 -65q2 -35 1.5 -70t-2.5 -70q-1 -13 -1.5 -26
t-1.5 -26v-1q0 -8 -0.5 -17t-0.5 -18q23 -4 45 -15.5t39 -29.5q28 -29 37 -67zM322 349q9 41 15.5 82.5t5.5 82.5v11t-1 8q-2 -3 -4.5 -7.5t-4.5 -11.5q-6 -13 -14 -30t-16 -34.5l-16 -35t-15 -31.5q-6 -14 -11 -25t-7 -16l-2 -2q-5 -13 -7 -20q13 1 35 9.5t42 19.5z" />
    <glyph glyph-name="five.alt" unicode="&#xf805;" horiz-adv-x="528" 
d="M237 512q-1 -3 -1 -6q1 0 1.5 0.5t1.5 0.5l4 1q26 11 53 19t54 8q55 0 96 -44q36 -38 54 -93.5t13 -115.5q-6 -82 -41 -143q-31 -54 -81 -88q-26 -17 -53 -27.5t-51.5 -16t-46.5 -7.5t-37 -2q-65 0 -114 26q-58 32 -78 93q-14 49 7 84q19 32 56 39h1q5 1 8.5 1.5t8.5 0.5
q17 0 31 -4t28 -9q15 -6 30 -9t30 -3q35 0 59 16t35 45q10 31 -2 47q-11 16 -36 16q-11 0 -28 -5l-1 -1q-26 -9 -54 -17.5t-56 -8.5q-76 0 -98 80q-8 30 -1.5 49.5t15.5 37.5q3 5 5.5 10t4.5 10q11 26 10 54t-5 50q-2 5 -3 11t-3 13q-5 22 -9 48t-2 50q1 20 8 34t16 23.5
t20 14.5t22 7q16 3 33 3q20 0 38.5 -3t36.5 -7q17 -4 33.5 -7t32.5 -3h9q19 2 41 6q18 2 38.5 4.5t40.5 2.5q75 0 105 -46q17 -25 19 -56t-10 -57q-22 -48 -73 -54q-4 -1 -13 -1q-15 0 -34 3t-39 8q-23 4 -44.5 8t-39.5 4q-28 0 -37 -11q0 -1 -1 -3q-2 -3 -3 -12
q-1 -7 -1 -14.5v-15.5q-1 -11 -1 -20.5t-2 -17.5z" />
    <glyph glyph-name="six.alt" unicode="&#xf806;" horiz-adv-x="526" 
d="M275 584q-26 -20 -42 -48.5t-26 -58.5q11 10 23 17q55 35 107 35q27 0 51 -9q33 -14 56.5 -39.5t37.5 -58t21 -68t7 -68.5q3 -134 -70 -210q-39 -39 -91 -57q-23 -8 -47.5 -12t-50.5 -4q-33 0 -63.5 6.5t-51.5 19.5q-48 28 -80 82t-46 131q-10 59 -9 124t14 122
q12 57 40.5 111.5t69.5 98.5q42 46 94 74q57 31 115 35q8 1 16 1h16q91 0 132 -47q17 -21 21 -47t-5 -51q-9 -23 -27.5 -38.5t-42.5 -19.5q-18 -3 -39 -3q-8 0 -15 0.5t-15 0.5q-8 1 -14.5 1h-13.5q-17 0 -36 -3t-36 -17zM215 290q-5 -15 -6.5 -32t2.5 -32q2 -11 10 -25
t26 -14q9 0 22 5q41 19 55 46q8 14 9 27t-1 22q-5 23 -21 39t-36 16q-9 0 -21 -5q-17 -8 -25.5 -21.5t-13.5 -25.5z" />
    <glyph glyph-name="seven.alt" unicode="&#xf807;" horiz-adv-x="549" 
d="M457 501q11 -5 23.5 -14.5t19.5 -23.5q14 -27 -7 -54q-13 -17 -30 -21t-34 -4h-13h-12q-17 0 -22 -3.5t-7 -11.5q-9 -33 -11.5 -67.5t-3.5 -71.5q-2 -37 -4 -75t-13 -75q-12 -40 -47 -63q-32 -23 -72 -23q-32 0 -58 16t-40 45q-30 58 -7 130q9 31 24 59.5t32 55.5l6 10
t5 10q-41 0 -67 26q-30 31 -28 96q2 36 34 51q21 9 55 9q11 0 20.5 -0.5t17.5 -0.5q6 -1 11 -1.5t9 -0.5h1h2q23 0 31.5 8.5t19.5 30.5q2 5 5 9.5t6 10.5l3 3q11 19 13 24q-6 -2 -13.5 -6t-15.5 -8q-22 -12 -50.5 -25t-62.5 -13h-4q-51 2 -92.5 20.5t-63.5 50.5
q-33 47 -12 108q25 73 91 73q22 0 45 -7t46 -15q20 -8 38 -13.5t33 -5.5h4q10 1 27 6t37 12q33 11 68.5 21.5t66.5 10.5q29 0 49 -12q23 -13 31 -43q7 -27 1 -54t-19 -54t-30.5 -52.5t-34.5 -48.5q-5 -6 -8.5 -12t-7.5 -11l15 -6v0z" />
    <glyph glyph-name="eight.alt" unicode="&#xf808;" horiz-adv-x="501" 
d="M496 299q9 -70 -14 -137q-24 -69 -77 -109q-89 -66 -172 -66q-50 0 -94.5 23t-79.5 66q-29 35 -45.5 77t-16.5 80q0 59 44 103q14 14 31.5 26.5t34.5 23.5q-38 29 -58 84q-11 32 -14 67t3 66q14 73 63 128q27 29 59 46t67 22q8 1 14.5 1.5t13.5 0.5q71 0 126 -44
q25 -20 43 -46.5t27 -56.5q18 -60 0 -117q-15 -48 -53 -81q40 -24 65 -64.5t33 -92.5zM242 518q13 5 26 13.5t23 20t16 24.5t6 27q0 30 -11 37.5t-25 7.5q-8 0 -14 -1t-9 -2q-8 -2 -19.5 -9.5t-22.5 -27.5q-7 -15 -10.5 -31.5t-1.5 -30.5q3 -17 9 -24t16 -7q8 0 17 3z
M204 271q-21 -32 -15 -62q5 -17 18 -24.5t26 -7.5t25 6q37 17 54 39t12 46q-4 20 -20.5 33.5t-34.5 13.5q-8 0 -11 -1q-16 -6 -30 -17t-24 -26z" />
    <glyph glyph-name="nine.alt" unicode="&#xf809;" horiz-adv-x="492" 
d="M471 604q11 -42 13 -83t2 -70q0 -144 -32 -245q-48 -146 -161 -188q-45 -18 -98 -18q-61 0 -107 24q-54 26 -79 77q-11 22 -13 51.5t12 53.5q6 11 19 21.5t38 12.5q2 1 8 1q18 0 37 -6t39 -13q14 -5 28.5 -10t23.5 -5q49 0 74 52q10 20 16 52q-57 -48 -118 -48
q-41 0 -75 24q-34 23 -58 72q-43 89 -34 179q4 47 22 89.5t48 79.5q35 41 79 61q45 21 96 21q38 0 74.5 -13t65.5 -37q58 -49 80 -135zM183 515q5 -26 17.5 -42.5t23.5 -16.5q4 0 9 3q12 7 23.5 23t19 35.5t10.5 41.5t-2 41q-5 17 -12.5 20t-11.5 3q-9 0 -19 -3
q-25 -9 -38 -24t-18 -31t-4.5 -29.5t2.5 -20.5z" />
    <glyph glyph-name="exclam" unicode="!" horiz-adv-x="267" 
d="M194 171q12 -20 14 -49q3 -42 -16 -76q-10 -18 -26 -31q-19 -15 -41 -16q-3 -1 -10 -1q-36 0 -64 25q-30 24 -33 61v1q-1 27 25 55q12 13 26.5 22.5t25.5 15.5q7 5 12.5 7t8.5 4q7 3 10.5 4t6.5 2q9 3 18 3q27 0 43 -27zM240 776q33 -38 23 -84q-5 -19 -14 -36t-19 -34
q-6 -10 -11 -18.5t-9 -16.5q-15 -33 -13.5 -69t6.5 -75q3 -25 5 -50.5t-1 -51.5q-6 -56 -47 -99q-33 -33 -60 -33q-17 0 -31 14q-18 18 -23 69q-2 18 -2 33t1 23v3q0 58 -8 115t-17 114q-2 7 -2.5 13t-2.5 13q-4 21 -6.5 46.5t1.5 51.5q8 62 52 92q14 10 33 15.5t41 5.5
q15 0 29 -2.5t28 -7.5q28 -10 47 -31z" />
    <glyph glyph-name="quotedbl" unicode="&#x22;" horiz-adv-x="365" 
d="M168 790q5 -35 6.5 -63.5t1.5 -54.5q-1 -71 -23 -119q-3 -7 -8 -16t-12 -16.5t-16.5 -12.5t-20.5 -5q-23 0 -37.5 20.5t-14.5 52.5q0 33 -2.5 57.5t-6.5 42.5t-8.5 30.5t-8.5 22.5q-7 17 -11.5 33.5t0.5 42.5q7 34 27 54q21 19 47 19q32 0 57 -25t30 -63zM353 760
q4 -52 3.5 -107.5t-24.5 -104.5q-8 -16 -23 -28q-18 -15 -38 -15q-25 0 -37 23h-1q-2 5 -5 16t-3 35v23q1 5 1 12q2 45 -4.5 70t-14.5 39q-34 63 -11 111q11 20 33 33.5t45 13.5q22 0 36 -10q14 -8 22 -20.5t12 -26t5.5 -27t2.5 -25.5v-2q0 -7 1 -10z" />
    <glyph glyph-name="i.locl" horiz-adv-x="277" 
d="M94 647q-15 14 -21 38q-8 34 -1 73.5t38 64.5q32 28 68 28q40 0 68 -36q24 -30 27 -69q2 -35 -13.5 -58.5t-45.5 -28.5q-5 -1 -13 -3.5t-16 -6.5l-28 -10t-28 -5q-20 0 -35 13zM220 276q5 -11 9.5 -21.5t9.5 -21.5q6 -17 12 -37t8.5 -42t0.5 -44.5t-11 -43.5
q-13 -32 -40.5 -51t-59.5 -19q-34 0 -62 22v1q-82 67 -82 207q0 54 10.5 107t22.5 100v1q2 8 4.5 16.5t5.5 17.5q8 32 20.5 65.5t41.5 56.5q27 22 56 22q28 0 48.5 -18t27.5 -47q9 -34 -1 -60t-24 -49q-8 -14 -15 -28t-9 -29v-1q-4 -26 5.5 -51.5t21.5 -52.5z" />
    <glyph glyph-name="hungarumlaut.cap" horiz-adv-x="457" 
d="M227 1043q9 -23 4 -58q-4 -35 -21 -78t-42 -81q-8 -13 -20.5 -28.5t-27.5 -29.5t-32 -23.5t-35 -9.5q-7 0 -10 1h-3q-8 0 -19 8q-5 1 -6 3l-5 5t-5 8q-4 5 -6 13q-5 19 4.5 37t19.5 32q3 4 7 10q28 47 29 95q2 50 23 87q28 50 78 50q14 0 26 -4q30 -8 41 -37zM427 1065
q22 -28 11 -70q-5 -23 -16 -48.5t-26 -53.5q-17 -30 -32.5 -53.5t-26.5 -38.5q-17 -23 -39 -35.5t-42 -12.5q-26 0 -38 20q-17 28 9 77q14 28 26.5 60t13.5 67q0 56 32 88q27 29 67 29q38 0 61 -29z" />
    <glyph glyph-name="cedilla.cap" horiz-adv-x="260" 
d="M240 -117q22 -30 12 -69q-6 -21 -19.5 -51.5t-35.5 -69.5q-16 -29 -29.5 -52t-16.5 -28h-1q-13 -17 -33 -33.5t-44 -16.5q-16 0 -31 10q-11 7 -15.5 14.5t-6.5 13.5q-5 18 4 34t19 30q2 4 4 7.5t4 5.5q11 19 15.5 41t7.5 46q4 30 10.5 60t27.5 55q29 32 67 32
q19 0 34.5 -7.5t26.5 -21.5z" />
    <glyph glyph-name="tilde.cap" horiz-adv-x="640" 
d="M636 979q7 -15 9 -30.5t0.5 -30.5t-5.5 -28t-8 -22q-22 -55 -54 -82q-31 -25 -70 -25q-23 0 -45.5 8t-43.5 20.5t-39.5 27t-33.5 26.5q-2 2 -4.5 4t-4.5 4q-18 11 -39.5 17t-41.5 6q-17 0 -36.5 -6t-33.5 -27q-13 -21 -34 -33t-47 -12q-32 0 -57.5 19t-34.5 49v1
q-12 49 27 99q19 23 39.5 39.5t33.5 24.5q44 28 90 28q26 0 50 -8.5t46.5 -22.5t44 -32t42.5 -36q11 -9 21 -18.5t21 -17.5q1 -1 3 -1q3 2 8 11.5t9 17.5q6 13 13.5 26t18.5 25q26 29 65 29q14 0 34 -5q40 -10 57 -45z" />
    <glyph glyph-name="ogonek.cap" horiz-adv-x="392" 
d="M375 -370q12 -14 12 -39q0 -59 -60 -110q-24 -22 -53 -36t-55 -18q-12 -2 -23.5 -3t-22.5 -1q-58 0 -98 21q-23 11 -38.5 28.5t-23.5 38.5q-11 31 -5 66t29 78q50 88 175 192q21 18 44 18q22 0 39 -16t25 -45q4 -14 5.5 -29t-1 -29t-9.5 -26.5t-19 -20.5
q-14 -10 -24.5 -16.5t-18.5 -11.5q-11 -7 -18.5 -12t-13 -11.5t-10 -16.5t-9.5 -27q-4 -11 -6 -20q4 0 8.5 0.5t9.5 1.5q3 2 10.5 6t15.5 9q24 15 51 29.5t50 14.5q14 0 22 -5t12 -10z" />
    <glyph glyph-name="ring.cap" horiz-adv-x="362" 
d="M336 1040q44 -61 22 -134q-18 -65 -84 -117q-38 -30 -89 -30q-43 0 -83.5 21t-63.5 55q-36 56 -30 115q3 30 16.5 57.5t36.5 50.5q8 9 20.5 19.5t29 19.5t36.5 15t43 6q10 0 15 -1q21 -2 41 -9t38 -18q16 -10 29 -23t23 -27zM207 920q5 18 0 40q-2 11 -5.5 16.5t-5.5 7.5
h-5q-8 0 -13 -4.5t-8 -10.5t-4.5 -11.5t-1.5 -6.5q-2 -19 3.5 -31t13.5 -14t10 -2t7 2t9 14z" />
    <glyph glyph-name="caron.cap" horiz-adv-x="472" 
d="M472 1102q11 -29 4 -56q-7 -30 -35 -58q-2 -3 -9 -11.5t-17 -21.5q-14 -20 -36.5 -49t-55.5 -71l-1 -1q-2 -3 -6 -7q-22 -26 -44.5 -45.5t-55.5 -19.5q-23 0 -51 12v1q-7 3 -10 8q-1 2 -5 4q-14 11 -36.5 28.5t-44.5 38.5q-57 55 -62 97q-2 28 16 47q26 26 54 26
q18 0 33 -8.5t28 -20t22.5 -24t15.5 -20.5q1 -3 4 -6q14 -19 20.5 -22t7.5 -3t6 3t13 17q8 13 15 30.5l15 37.5q10 24 20.5 49t24 46.5t30 37.5t37.5 22q1 0 1.5 0.5t1.5 0.5q2 0 5 0.5t6 0.5q27 0 52.5 -18t36.5 -45z" />
    <glyph glyph-name="macron.cap" horiz-adv-x="565" 
d="M567 992q6 -13 1 -29q-2 -7 -8 -15t-20 -17t-38.5 -18.5t-63.5 -19.5q-21 -5 -41.5 -9t-37.5 -7t-29.5 -4.5t-18.5 -1.5q-17 -2 -34 -3t-32 -1q-135 0 -204 58q-17 15 -19.5 28.5t-0.5 21.5q6 19 25 32q16 10 35 14h1q15 3 34 3q17 0 33 -2l32 -4q17 -3 32.5 -5t30.5 -2
q30 1 61.5 4.5t63.5 8.5q30 4 58 7t51 3q49 0 70 -18q13 -11 19 -24z" />
    <glyph glyph-name="dieresis.cap" horiz-adv-x="442" 
d="M107 1074q26 0 49 -10t37 -27q9 -11 15.5 -31.5t-0.5 -49.5q-10 -41 -42 -60t-65 -19q-41 0 -70 23q-22 19 -30 49q-3 4 -3 10v26q0 6 3 9q6 34 33 55q30 25 73 25zM338 1080q25 0 43.5 -9t31 -23t19 -32t6.5 -37q0 -40 -25 -70q-21 -24 -53 -30q-6 -2 -9 -2h-26
q-2 0 -8 2q-21 4 -35 12.5t-22 17.5q-27 28 -27 71q0 40 27 69q10 11 29 21t49 10z" />
    <glyph glyph-name="dotaccent.cap" horiz-adv-x="205" 
d="M177 1035q12 -13 19 -29t7 -33q0 -18 -7 -34t-19 -29q-8 -8 -20.5 -15.5t-32.5 -10.5q-6 -2 -8 -2h-26q-3 0 -7 2q-34 4 -57 26q-28 26 -28 63t28 63q29 26 77 26q29 0 46.5 -9t27.5 -18z" />
    <glyph glyph-name="circumflex.cap" horiz-adv-x="507" 
d="M490 1022q17 -26 14 -57q-2 -32 -22 -57t-47 -31h-3q-2 -1 -7 -1q-21 0 -41 9t-39.5 24t-38 33t-36.5 36q-13 14 -25 25.5t-23 20.5q-13 11 -19.5 14t-9.5 3q-5 0 -9.5 -9.5t-8.5 -24.5v-1q-1 -2 -1 -3.5t-1 -4.5q-3 -11 -8 -27.5t-13 -33.5q-9 -17 -25 -32t-42 -15
q-16 0 -35 8q-14 7 -24 18t-14 26q-12 40 18 105q12 26 26 48.5t25 39.5q4 6 7 11t5 8q24 43 70 43q23 0 48 -10t53 -24h1q46 -26 77.5 -44.5t51.5 -30.5l24.5 -14t14.5 -8q38 -17 57 -44z" />
    <glyph glyph-name="acute.cap" horiz-adv-x="260" 
d="M235 1197q23 -28 12 -70q-3 -11 -5.5 -22t-5.5 -23q-9 -43 -21.5 -87.5t-37.5 -76.5q-15 -20 -37.5 -31.5t-47.5 -11.5q-20 0 -36 8.5t-25 22.5q-6 11 -8 29.5t13 46.5q14 28 26 60t13 67q0 28 8.5 50t23.5 38q29 29 67 29t61 -29z" />
    <glyph glyph-name="grave.cap" horiz-adv-x="237" 
d="M227 980q16 -30 15 -49t-8 -30q-14 -24 -46 -24q-22 0 -43 12t-37 32l-1 1q-7 9 -20.5 28.5t-29 46t-29.5 57t-22 61.5q-11 42 12 71q22 28 61 28q37 0 67 -28q31 -33 31 -88q1 -25 10.5 -46t23.5 -44q4 -7 8 -13.5t8 -14.5z" />
    <glyph glyph-name="breve.cap" horiz-adv-x="445" 
d="M432 1075q6 -14 8 -29t0.5 -30t-6 -28t-11.5 -21q-17 -20 -41.5 -34t-40.5 -21q-25 -12 -49.5 -19t-44.5 -9q-7 -1 -13.5 -1.5t-13.5 -0.5q-71 0 -124.5 36.5t-81.5 102.5q-11 25 8 54q14 20 37 33t46 13q39 0 59 -36l1 -1q4 -9 7 -16.5t6 -13.5q5 -11 9 -20t6 -11h6h12
h8q23 2 35.5 13t24.5 28q14 19 33.5 36.5t54.5 17.5q45 0 65 -43z" />
    <glyph glyph-name="commaaccent.cap" horiz-adv-x="265" 
d="M244 75q11 -27 5 -62q-6 -37 -28 -81.5t-54 -86.5q-8 -10 -22 -25.5t-31.5 -30.5t-36.5 -25.5t-38 -10.5q-13 0 -25 6q-20 11 -24 32q-5 23 5 49q9 24 18 35q5 9 11.5 17.5t12.5 16.5q13 17 23.5 33t12.5 35q0 3 -0.5 9t-0.5 12q-1 12 -1.5 26.5t1 29t6 28t14.5 24.5
q19 21 54 21q23 0 52 -10q34 -11 46 -42z" />
    <glyph glyph-name="caron.alt" horiz-adv-x="260" 
d="M247 730q11 -27 5 -62q-6 -37 -28 -81.5t-54 -86.5q-8 -10 -22 -25.5t-31.5 -30.5t-36.5 -25.5t-38 -10.5q-13 0 -25 6q-20 11 -24 32q-5 23 5 49q9 24 18 35q5 9 11.5 17.5t12.5 16.5q13 17 23.5 33t12.5 35q0 3 -0.5 9t-0.5 12q-1 12 -1.5 26.5t1 29t6 28t14.5 24.5
q19 21 54 21q23 0 52 -10q34 -11 46 -42z" />
    <glyph glyph-name="commaaccent" horiz-adv-x="260" 
d="M244 75q11 -27 5 -62q-6 -37 -28 -81.5t-54 -86.5q-8 -10 -22 -25.5t-31.5 -30.5t-36.5 -25.5t-38 -10.5q-13 0 -25 6q-20 11 -24 32q-5 23 5 49q9 24 18 35q5 9 11.5 17.5t12.5 16.5q13 17 23.5 33t12.5 35q0 3 -0.5 9t-0.5 12q-1 12 -1.5 26.5t1 29t6 28t14.5 24.5
q19 21 54 21q23 0 52 -10q34 -11 46 -42z" />
    <glyph glyph-name="revcommaaccent" horiz-adv-x="265" 
d="M264 769q5 -23 -5 -50q-5 -11 -10 -20t-8 -14q-5 -9 -11.5 -17.5t-12.5 -16.5q-13 -17 -23.5 -33t-12.5 -35q0 -3 0.5 -9t0.5 -12q1 -12 1.5 -26.5t-1 -29t-6 -28.5t-14.5 -24q-20 -21 -54 -21q-22 0 -52 9q-34 12 -46 42q-11 25 -5 63q6 37 27.5 81t54.5 86q8 10 22 26
t31.5 31t36.5 25.5t37 10.5q14 0 25 -6q18 -10 25 -32z" />
    <glyph glyph-name="rouble" horiz-adv-x="682" 
d="M632 701q61 -72 43 -179q-6 -32 -25.5 -58t-46 -48t-57 -41t-59.5 -35q-13 -8 -24.5 -14.5t-21.5 -13.5l-36 -21q26 11 51 14q6 1 11.5 1h11.5q45 0 71 -18t31 -52q2 -14 -6 -33t-38 -34q-17 -8 -35.5 -13t-33.5 -8q-8 -2 -10 -2l-91 -23q-9 -48 -35 -80q-36 -45 -94 -45
h-4q-62 2 -89 36q-25 31 -19 83q-8 2 -16 5t-17 8h-1q-12 7 -25 15t-25 18q-34 29 -34 61q0 38 38 55q25 11 61 11q10 0 15 -1l-6 3q-8 2 -14 5t-13 5q-4 2 -7 3q-9 3 -22 8t-24 15q-30 24 -27 63q3 38 25 56q18 15 46 15h8t8 -1q16 -2 31.5 -5.5t30.5 -6.5q1 -1 2 -1
q-4 23 -9 46l-10 46q-2 10 -4 17q-30 128 11 194q27 42 82 56l3 1q14 5 35 7t46 2q24 0 69 -4t97 -20q102 -32 152 -92zM415 513q37 39 27 76q-6 17 -31 31q-28 13 -57 13q-19 0 -31 -6q0 -2 0.5 -7t2.5 -15q2 -11 6 -23t9 -25q8 -22 14 -42.5t8 -37.5q13 7 26.5 16t25.5 20
z" />
    <glyph glyph-name="uni0401" unicode="&#x401;" horiz-adv-x="517" 
d="M505 137q10 -35 -0.5 -66.5t-39.5 -53.5v-1q-26 -18 -57 -18q-14 0 -28 3t-28 7q-11 3 -21.5 5.5t-20.5 2.5q-3 1 -8 1q-14 0 -29 -2.5t-31 -6.5q-15 -3 -31 -6t-32 -4h-7q-65 0 -109 46q-26 28 -40 66t-12 79q1 23 7 42.5t13 37.5q5 13 9.5 25t6.5 25q6 38 1.5 76
t-12.5 69q-25 109 -16 183q7 65 47 111q33 40 95 40q16 0 31.5 -2t29.5 -4l6 -1q22 -3 48 -3q16 0 32 1t33 2h2h1q8 1 15.5 1.5t15.5 0.5q18 0 42.5 -4t44.5 -21q27 -24 30 -65q2 -41 -22 -68q-21 -23 -50 -28t-51 -5q-11 0 -21 0.5t-20 0.5q-6 1 -12 1h-11h-1q-6 1 -12 1.5
t-14 1.5l-16 2t-16 1q-16 0 -23 -4t-10 -8q-7 -10 -8.5 -23.5t0 -29t5.5 -32t9 -32.5q2 -7 3.5 -13.5t3.5 -13.5q13 9 30 21q23 16 46.5 29t51.5 13h11t10 -2q18 -4 32.5 -16t22.5 -29q9 -18 9 -38.5t-8 -37.5q-14 -31 -44 -51.5t-57 -33.5q-26 -11 -55.5 -20t-56.5 -13
q-2 -6 -2 -9q-6 -18 -9 -36q-3 -19 -2 -23q0 -4 2 -6q1 -1 6 -1q14 0 34.5 8t40.5 17q23 10 43.5 18t37.5 8q5 0 8 -1q44 -6 80 -39q17 -16 29 -35.5t18 -39.5zM127 1082q24 0 42.5 -9t31 -23.5t19 -32.5t6.5 -37q0 -34 -20 -63t-59 -36q-4 -2 -9 -2h-3h-14h-6h-2h-1
q-2 1 -4 1t-4 1q-20 4 -34 12.5t-22 17.5q-26 28 -26 69q0 43 27 70q10 11 29 21.5t49 10.5zM375 1082q24 0 42.5 -9t31 -23.5t19 -32.5t6.5 -37q0 -34 -20 -63t-59 -36q-4 -2 -9 -2h-3h-14h-6h-2h-1q-2 1 -4 1t-4 1q-20 4 -34 12.5t-22 17.5q-26 28 -26 69q0 43 27 70
q10 11 29 21.5t49 10.5z" />
    <glyph glyph-name="0401.001" horiz-adv-x="0" 
 />
    <glyph glyph-name="edieresis" unicode="&#xeb;" horiz-adv-x="525" 
d="M496 200q13 -36 2 -76q-9 -42 -41 -68q-72 -55 -165 -55q-45 0 -88 13.5t-79 39.5q-80 55 -104 145q-10 38 -11 82t7 90q19 100 70 167q67 88 171 88h15q69 -5 124 -44q27 -20 47.5 -46t31.5 -58q11 -29 19.5 -61t3.5 -65q-4 -45 -38 -69q-14 -11 -28.5 -16.5t-27.5 -9.5
q-9 -3 -15 -6q-98 -37 -190 -52q1 -4 5 -6q6 -6 21 -6q13 0 29.5 4.5t33 11t32.5 14.5t29 15q18 10 32 15q21 9 41 9q26 0 45 -15t28 -41zM185 360q13 1 32 4t39 10q48 15 61 37q2 5 3 12.5t-7 18.5q-8 13 -19 25t-25 12q-11 0 -20 -6.5t-16 -14.5q-22 -25 -37 -63
q-5 -11 -7 -20t-4 -15zM128 908q24 0 42.5 -9t31 -23.5t19 -32.5t6.5 -37q0 -34 -20 -63t-59 -36q-4 -2 -9 -2h-3h-14h-6h-2h-1q-2 1 -4 1t-4 1q-20 4 -34 12.5t-22 17.5q-26 28 -26 69q0 43 27 70q10 11 29 21.5t49 10.5zM376 908q24 0 42.5 -9t31 -23.5t19 -32.5t6.5 -37
q0 -34 -20 -63t-59 -36q-4 -2 -9 -2h-3h-14h-6h-2h-1q-2 1 -4 1t-4 1q-20 4 -34 12.5t-22 17.5q-26 28 -26 69q0 43 27 70q10 11 29 21.5t49 10.5z" />
    <glyph glyph-name="Edieresis" unicode="&#xcb;" horiz-adv-x="510" 
d="M505 137q10 -35 -0.5 -66.5t-39.5 -53.5v-1q-26 -18 -57 -18q-14 0 -28 3t-28 7q-11 3 -21.5 5.5t-20.5 2.5q-3 1 -8 1q-14 0 -29 -2.5t-31 -6.5q-15 -3 -31 -6t-32 -4h-7q-65 0 -109 46q-26 28 -40 66t-12 79q1 23 7 42.5t13 37.5q5 13 9.5 25t6.5 25q6 38 1.5 76
t-12.5 69q-25 109 -16 183q7 65 47 111q33 40 95 40q16 0 31.5 -2t29.5 -4l6 -1q22 -3 48 -3q16 0 32 1t33 2h2h1q8 1 15.5 1.5t15.5 0.5q18 0 42.5 -4t44.5 -21q27 -24 30 -65q2 -41 -22 -68q-21 -23 -50 -28t-51 -5q-11 0 -21 0.5t-20 0.5q-6 1 -12 1h-11h-1q-6 1 -12 1.5
t-14 1.5l-16 2t-16 1q-16 0 -23 -4t-10 -8q-7 -10 -8.5 -23.5t0 -29t5.5 -32t9 -32.5q2 -7 3.5 -13.5t3.5 -13.5q13 9 30 21q23 16 46.5 29t51.5 13h11t10 -2q18 -4 32.5 -16t22.5 -29q9 -18 9 -38.5t-8 -37.5q-14 -31 -44 -51.5t-57 -33.5q-26 -11 -55.5 -20t-56.5 -13
q-2 -6 -2 -9q-6 -18 -9 -36q-3 -19 -2 -23q0 -4 2 -6q1 -1 6 -1q14 0 34.5 8t40.5 17q23 10 43.5 18t37.5 8q5 0 8 -1q44 -6 80 -39q17 -16 29 -35.5t18 -39.5zM127 1082q24 0 42.5 -9t31 -23.5t19 -32.5t6.5 -37q0 -34 -20 -63t-59 -36q-4 -2 -9 -2h-3h-14h-6h-2h-1
q-2 1 -4 1t-4 1q-20 4 -34 12.5t-22 17.5q-26 28 -26 69q0 43 27 70q10 11 29 21.5t49 10.5zM375 1082q24 0 42.5 -9t31 -23.5t19 -32.5t6.5 -37q0 -34 -20 -63t-59 -36q-4 -2 -9 -2h-3h-14h-6h-2h-1q-2 1 -4 1t-4 1q-20 4 -34 12.5t-22 17.5q-26 28 -26 69q0 43 27 70
q10 11 29 21.5t49 10.5z" />
    <glyph glyph-name="U+00F6" horiz-adv-x="627" 
d="M182 1050q24 0 42.5 -9t31 -23.5t19 -32.5t6.5 -37q0 -34 -20 -63t-59 -36q-4 -2 -9 -2h-3h-14h-6h-2h-1q-2 1 -4 1t-4 1q-20 4 -34 12.5t-22 17.5q-26 28 -26 69q0 43 27 70q10 11 29 21.5t49 10.5zM430 1050q24 0 42.5 -9t31 -23.5t19 -32.5t6.5 -37q0 -34 -20 -63
t-59 -36q-4 -2 -9 -2h-3h-14h-6h-2h-1q-2 1 -4 1t-4 1q-20 4 -34 12.5t-22 17.5q-26 28 -26 69q0 43 27 70q10 11 29 21.5t49 10.5zM606 443q2 -119 -39 -215q-33 -81 -92 -140q-41 -41 -88 -66q-42 -22 -70 -22h-4q-65 5 -117 29q-50 24 -88 67q-35 39 -59 90.5t-35 113.5
q-14 74 -6 153q7 78 35 148q28 72 74 126q51 59 114 85q46 19 87 19q60 0 115 -36t97 -103q35 -56 55.5 -122.5t20.5 -126.5zM397 337q8 38 8.5 78t-1.5 69q-1 11 -5.5 41.5t-18.5 61.5q-22 55 -56 55q-16 0 -37 -12q-40 -22 -63 -101q-9 -34 -12.5 -64t-4.5 -44
q0 -24 4.5 -58t15 -65.5t27 -53.5t40.5 -22q12 0 30 8q55 25 73 107z" />
    <glyph glyph-name="numbersign" unicode="#" horiz-adv-x="601" 
d="M462 410q34 0 60.5 -10t41.5 -29q25 -30 16 -73v-2q-5 -15 -16 -24t-26 -14.5t-31 -8t-29 -3.5q-11 -2 -18 -3q-6 0 -8 -2q0 -2 0.5 -3.5t0.5 -3.5q1 -5 2 -11t1 -13q1 -13 1 -25.5v-25.5v-1q0 -12 -3 -36.5t-10 -49.5q-10 -31 -19 -47q-11 -17 -22.5 -22t-20.5 -5
q-23 0 -47 28q-30 36 -40 79t-11 88q-6 -2 -13 -3t-10 -3q3 -23 3 -48q1 -12 0.5 -28.5t-4.5 -33.5q-9 -38 -35 -59v-1q-25 -20 -49 -20q-9 0 -21.5 4.5t-24.5 19.5q-17 20 -25.5 49t-12.5 52q-6 48 -3 86q-12 7 -26 16.5t-26 21.5t-20.5 26.5t-10.5 32.5q-2 12 1.5 20
t7.5 13q15 17 52 17q20 0 35 -3q1 10 5 23q6 25 6.5 36t-6.5 16q-20 13 -40 31t-26 43t9 45q11 14 36 24q9 4 19 5.5t19 1.5h3q8 0 13.5 -1t10.5 -3q1 2 1 3.5t1 3.5t1 4t1 4q5 21 11 41l1 2q3 14 9.5 40t17.5 52q14 31 28 48q21 26 47 26q18 0 32 -10q41 -26 24 -100
q-6 -27 -16.5 -55t-19.5 -50l-3 -6q14 2 28 7t28 12l10 34t10 35v1l1 2q4 12 10 29t14 34q23 45 52 57q16 6 29 6q24 0 37 -19q19 -27 1 -97q-5 -15 -9.5 -30t-8.5 -26q11 -3 21.5 -7t21.5 -9q53 -26 62 -56q3 -9 1 -25t-25 -32q-21 -15 -46.5 -18t-48.5 -5h-12.5t-11.5 -1
q-11 -2 -15 -14t-2 -46q7 1 14 1.5t15 0.5zM296 420q-14 -5 -27 -8t-22 -5q-3 -14 -4 -29.5t-2 -33.5q23 5 34 9.5t14 17.5q2 8 2.5 17t2.5 18q1 4 1 7t1 7z" />
    <glyph glyph-name="dollar" unicode="$" horiz-adv-x="515" 
d="M518 204q3 -86 -56 -148q-48 -49 -120 -69q-2 -13 -3 -25.5t1 -20.5q5 -27 3 -61t-24 -60q-27 -33 -72 -33q-21 0 -41 8.5t-34 22.5q-22 23 -22 58q0 5 -0.5 9.5t-0.5 9.5q-2 26 -4.5 53.5t-0.5 53.5q-17 8 -32.5 17t-29.5 21q-17 15 -31 32.5t-24 37.5v1q-14 31 -17 60
q-5 36 9 62q6 11 20.5 24t42.5 18q5 1 9 1h9q32 0 52 -17t37 -36q14 -16 26.5 -27.5t29.5 -13.5q3 -1 8 -1q22 0 31.5 13.5t11.5 19.5q4 13 0.5 30t-20.5 28q-21 15 -47 25.5t-52 19.5q-35 13 -69 27.5t-60 40.5q-56 56 -40 165q2 35 13.5 68t34.5 62q38 52 97 82
q-1 82 17 136q29 80 99 95q7 1 13 1.5t12 0.5q31 0 49 -20q20 -24 19 -62t-6 -79l-4 -28t-2 -25h1q50 -19 84 -54q36 -38 51 -85q3 -9 7 -23t5.5 -30.5t-0.5 -32.5t-10 -29q-15 -21 -42 -23q-8 -1 -14 -1h-12q-20 0 -45.5 6t-46.5 30q-3 3 -9 11q-14 16 -27 28.5t-30 12.5
q-4 0 -6 -1q-22 -4 -34 -20.5t-14 -33.5q-1 -9 3 -22t24 -20h1q11 -5 22.5 -9t22.5 -8q47 -17 89 -35t74 -47q38 -33 55.5 -79.5t18.5 -111.5z" />
    <glyph glyph-name="percent" unicode="%" horiz-adv-x="738" 
d="M87 456q-22 20 -35.5 46.5t-17.5 58.5q-5 33 2 65.5t24 61.5q37 63 108 85q27 9 52 9q34 0 63.5 -16t51.5 -45q17 -24 27 -53.5t10 -57.5q1 -29 -4.5 -52.5t-14 -42.5t-19 -34t-20.5 -25q-24 -24 -50 -37q-24 -12 -44 -12h-3q-79 3 -130 49zM207 639q-23 -11 -32 -30
t-5 -36q2 -8 8 -16t22 -8q12 0 23 4q13 5 23.5 18.5t6.5 36.5q-2 13 -10 23.5t-21 10.5q-6 0 -15 -3zM715 182q1 -29 -4.5 -52.5t-14 -42.5t-19 -34t-20.5 -25q-24 -24 -50 -37q-24 -12 -44 -12h-3q-79 3 -130 49q-22 20 -35.5 46.5t-17.5 58.5q-2 9 -2 17.5v17.5
q-13 -20 -25 -37q-78 -106 -171 -149q-17 -8 -36.5 -12t-37.5 -4q-46 0 -69 26q-22 23 -17 64q2 21 14.5 41.5t31 40t41.5 39t47 38.5q25 20 46.5 38t33.5 33q40 54 72 105.5t59.5 103t52 106t51.5 114.5q5 11 12.5 21t15.5 18q22 18 50 18h8.5t8.5 -2q29 -5 45 -30t8 -55
q-7 -30 -19.5 -66.5t-27.5 -74t-32 -73.5t-32 -65v-1q-10 -18 -19.5 -36.5t-19.5 -36.5q-1 -3 -2 -5.5t-3 -5.5q22 15 50 24q27 9 52 9q34 0 63.5 -16t51.5 -45q17 -24 27 -53.5t10 -57.5zM566 125q13 5 23.5 18.5t6.5 36.5q-2 13 -10 23.5t-21 10.5q-6 0 -15 -3
q-23 -11 -32 -30t-5 -36q2 -8 8 -16t22 -8q12 0 23 4z" />
    <glyph glyph-name="less" unicode="&#x3c;" horiz-adv-x="551" 
d="M493 187q19 -27 13 -54t-31.5 -43t-60.5 -16q-19 0 -47.5 7t-63.5 32q-23 17 -48 31t-50 27q-26 14 -49 27.5t-42 28.5q-45 35 -48 76q-1 43 40 95q43 50 137 119q99 70 159 70q47 0 60 -35q6 -17 0 -36.5t-23 -33.5q-4 -3 -9 -7.5t-13 -9.5q-20 -16 -46.5 -37.5
t-52.5 -44.5q-20 -18 -31.5 -31t-17 -21t-7 -11.5t-1.5 -4.5t4 -6.5t21 -15.5q15 -8 34.5 -16t41.5 -16q19 -7 38 -14.5t37 -15.5q39 -18 56 -44z" />
    <glyph glyph-name="greater" unicode="&#x3e;" horiz-adv-x="522" 
d="M492 343q3 -43 -40 -95q-41 -49 -136 -119q-97 -70 -160 -70q-46 0 -59 35q-6 17 0 36.5t23 33.5q4 3 9 7.5t13 9.5q20 16 46.5 37.5t52.5 44.5q20 18 31.5 31t17 21t7 11.5t1.5 4.5t-4 6.5t-21 15.5q-15 8 -34.5 16t-41.5 16q-19 7 -38 14.5t-38 15.5q-38 18 -56 44
t-12 54q6 26 31.5 42.5t60.5 16.5q19 0 47.5 -7.5t63.5 -31.5q23 -17 48 -31t50 -27q26 -14 49 -27.5t42 -28.5q46 -36 47 -76z" />
    <glyph glyph-name="braceleft" unicode="{" horiz-adv-x="385" 
d="M348 665q19 -15 29 -33.5t10 -36.5q0 -20 -14 -34q-5 -5 -14 -9t-24 -4h-1h-1q-11 1 -24 3q-8 1 -17.5 2t-18.5 1q-20 0 -24 -4.5t-4 -6.5q-2 -11 1 -35t7 -49q8 -54 10 -90.5t-9 -55.5q-8 -14 -21 -22.5t-24 -14.5q-14 -9 -18 -12.5t-3 -7.5q1 -8 7.5 -14t14.5 -13
q11 -10 22 -22t13 -31q1 -12 -1 -30.5t-4 -41.5q-3 -23 -5.5 -48.5t-2.5 -48.5q-1 -32 3 -43.5t6 -13.5q0 -1 1 -1h1q4 1 8 1h8q49 0 77 -19t28 -51q2 -33 -25 -58q-26 -26 -64 -29h-7q-7 0 -15.5 -0.5t-17.5 -0.5q-50 0 -84 14q-49 22 -57 75q-5 38 -5 75.5t2 75.5
q1 26 2 49.5t-1 45.5q-1 17 -11 29.5t-24 26.5q-15 15 -29 33.5t-15 45.5q-1 29 16.5 48t37.5 35q14 11 25.5 22.5t13.5 24.5q1 11 -0.5 28t-3.5 37q-3 29 -5.5 60.5t0 60.5t12 52t29.5 36q59 34 112 34q58 0 98 -35z" />
    <glyph glyph-name="braceright" unicode="}" horiz-adv-x="833" 
d="M580 350q11 -9 22.5 -18t20.5 -19.5t14.5 -23t4.5 -27.5q-1 -27 -19 -48.5t-39 -41.5q-17 -17 -31.5 -33.5t-16.5 -33.5q-1 -21 -1 -43.5v-46.5q1 -42 0 -83.5t-7 -80.5q-5 -32 -26 -48.5t-41 -23.5q-38 -13 -99 -13q-14 0 -26 0.5t-22 0.5q-2 1 -4.5 1h-4.5h-1
q-30 1 -50 20q-19 21 -18 46q0 16 8 31.5t24 27.5t40.5 19.5t57.5 7.5h18l2 2.5t3.5 8.5t2.5 17t1 28q-1 26 -4 54.5t-6 55.5q-3 26 -5 45.5t-2 31.5q2 19 14 32.5t26 27.5q9 8 17.5 17.5t10.5 17.5q2 11 -10.5 27.5t-24.5 30.5q-16 19 -28 37q-11 18 -11.5 51.5t2.5 83.5
q2 21 3 41t-1 31q-1 4 -4 7.5t-17 3.5q-7 0 -14 -1l-14 -2t-13 -1.5t-11 -0.5h-2q-39 0 -57 29q-8 14 -7.5 31.5t10.5 34.5q16 28 48.5 43t75.5 15q36 0 80 -12q52 -15 70 -114q8 -38 9.5 -78.5t3.5 -72.5q0 -13 0.5 -23t0.5 -17q2 -14 16 -26.5t31 -25.5z" />
    <glyph glyph-name="florin" unicode="&#x192;" horiz-adv-x="427" 
d="M427 787q19 -51 3 -80q-12 -19 -33 -25t-44 -10l-20 -4t-19 -4h-1q-22 -6 -32 -26q-10 -16 -10 -39q26 13 54 13q32 0 54 -18.5t32 -52.5q9 -38 -5 -62q-13 -23 -37 -32.5t-47 -15.5q-16 -3 -27 -8q-8 -3 -10 -5q2 -45 1.5 -88.5t-2.5 -87.5q-1 -17 -1.5 -34t-1.5 -34
q-1 -51 -8 -92.5t-17 -75t-22 -58.5t-23 -43q-29 -45 -64 -69.5t-70 -24.5q-38 0 -60 27q-22 28 -23 74q0 25 5.5 35.5t15.5 20.5q4 4 10 11t13 23t14 42.5t15 69.5q1 5 3 19t5 34.5t6 44.5t6 50q3 33 4 54t0.5 34t-1.5 19t-2 8q-34 23 -59.5 49t-20.5 56q8 41 85 63
q2 15 4 30.5t4 32.5q3 28 7 57t12 56t23 51.5t39 44.5q53 47 121 47q44 0 77 -20.5t47 -56.5z" />
    <glyph glyph-name="dagger" unicode="&#x2020;" horiz-adv-x="250" 
d="M263 339q23 -12 28.5 -25t3.5 -24q-3 -27 -41 -51q-9 -5 -18.5 -9.5t-17.5 -8.5q3 -32 7 -65t8 -65q1 -5 3 -14t4 -20q7 -33 13 -66t7.5 -61.5t-2 -52t-15.5 -38.5q-17 -19 -42 -19q-11 0 -28 5q-32 11 -52 37.5t-33 59.5t-20 68.5t-12 65.5q-1 8 -2 14.5t-2 12.5v1
q-6 32 -10 67t-8 73q-5 2 -10 3t-8 3q-4 2 -11 7t-15 11.5t-14.5 15.5t-9.5 20q-4 18 7 34q5 9 17 17t32 8h4q-2 30 -3 66q-2 44 -3 73t-2.5 55t-3.5 54.5t-5 71.5l-1 6q-4 42 -6.5 94.5t5.5 101.5q21 124 111 144q7 1 13 1.5t12 0.5q21 0 33.5 -7.5t19.5 -15.5
q12 -14 16.5 -34t4.5 -42.5t-3.5 -46t-7.5 -45.5q-2 -13 -3.5 -23t-2.5 -18q-5 -77 -5 -161t5 -186l6 -84q4 1 10 1q14 0 25 -2.5t22 -7.5z" />
    <glyph glyph-name="daggerdbl" unicode="&#x2021;" horiz-adv-x="250" 
d="M389 322q38 -22 43 -64q4 -27 -12 -45t-34 -29t-37.5 -17t-33.5 -10q-41 -12 -85 -18l6 -51q1 -5 3 -14t4 -20q7 -33 13 -66t7.5 -61.5t-2 -52t-15.5 -38.5q-17 -19 -42 -19q-11 0 -28 5q-32 11 -52 37.5t-33 59.5t-20 68.5t-12 65.5q-1 8 -2 14.5t-2 12.5v1
q-2 13 -4 26.5t-4 27.5q-35 4 -62 10t-44 15l-3 2q-11 5 -24.5 13t-26 18.5t-20.5 23.5t-8 29q3 32 35 46q19 9 50 9q12 0 22.5 -1t15.5 -2h1q26 -5 49 -6q-1 6 -1 12t-1 13q-43 6 -85 26l-1 1q-5 3 -10.5 6t-11.5 5q-11 5 -21 11t-19 14q-22 22 -22 56q2 38 38 55
q25 11 61 11q23 0 41 -3q6 -2 11.5 -2.5t11.5 -1.5q-1 19 -2 36t-2 36t-3 41t-4 52l-1 6q-4 42 -6.5 94.5t5.5 101.5q21 124 111 144q7 1 13 1.5t12 0.5q21 0 33.5 -7.5t19.5 -15.5q12 -14 16.5 -34t4.5 -42.5t-3.5 -46t-7.5 -45.5q-2 -13 -3.5 -23t-2.5 -18
q-7 -122 -3 -272q5 0 15 2q23 3 46 6.5t48 5.5q5 0 9.5 0.5t9.5 0.5q37 0 63 -12q37 -18 42 -58q2 -15 -6 -34t-37 -34q-17 -8 -36 -13t-34 -8q-2 -1 -5 -1.5t-5 -1.5q-12 -2 -23.5 -5t-24.5 -6q-13 -4 -25.5 -7t-26.5 -6q1 -5 1 -9t1 -8q21 7 43 13.5t45 8.5q5 1 9.5 1h9.5
q41 0 70 -17z" />
    <glyph glyph-name="perthousand" unicode="&#x2030;" horiz-adv-x="833" 
d="M787 262q36 -56 21 -124q-7 -30 -23.5 -59t-42.5 -52q-32 -29 -76 -29q-36 0 -71 20.5t-55 52.5q-8 12 -13 25t-9 26q-8 -26 -23 -50.5t-37 -44.5q-31 -29 -73 -29q-35 0 -68.5 20t-52.5 52q-20 33 -25 69.5t4 71.5q-5 -3 -10.5 -6.5t-10.5 -7.5q-3 -2 -7.5 -5.5
t-10.5 -8.5q-32 -26 -64.5 -48t-59.5 -22q-4 0 -11 1.5t-13.5 6t-12.5 13t-8 23.5v1q-6 44 36 89q17 18 35.5 32.5t34.5 26.5q4 2 7.5 4.5t6.5 4.5l15 12q-34 7 -64 24.5t-48 41.5q-37 51 -34 107q5 59 50 104q8 7 20 17t28 18t36 14t43 6q10 0 15 -1q42 -4 77 -22.5
t57 -48.5q49 -65 23 -137q13 7 23.5 13.5t21 12.5t22 12.5t25.5 15.5q5 3 10.5 6.5t11.5 6.5q17 11 37.5 23.5t43 23.5t46 18t45.5 7q49 0 76 -36q23 -29 14 -56q-4 -14 -14.5 -23.5t-25 -17t-30.5 -13t-31 -10.5q-8 -2 -14.5 -4.5t-11.5 -4.5h-1q-50 -21 -98.5 -45.5
t-96.5 -53.5q48 -19 76 -65q12 -20 18 -42q11 35 33 61q23 28 50.5 43t57.5 15q9 0 14 -1q35 -4 64.5 -23.5t47.5 -50.5zM206 532q-8 0 -12.5 -3.5t-7 -8.5t-4 -9.5t-1.5 -7.5q-2 -13 2.5 -25.5t15.5 -15.5q2 -1 6 -1q11 0 18 11t8 25q1 4 -1 17t-16 17q-2 0 -3 0.5t-4 0.5
h-1zM369 184q-1 -8 -0.5 -17t2.5 -16q4 -12 11 -15h2q4 0 8.5 9t6.5 23q2 12 -1 24t-10 14q-1 1 -4 1q-5 0 -9 -7.5t-6 -15.5zM637 176q-2 -13 2.5 -25.5t15.5 -15.5q2 -1 6 -1q11 0 18 11t8 25q1 4 -1 17t-16 17q-2 0 -3 0.5t-4 0.5h-1q-8 0 -12.5 -3.5t-7 -8.5t-4 -9.5
t-1.5 -7.5z" />
    <glyph glyph-name="Scaron" unicode="&#x160;" horiz-adv-x="515" 
d="M516 227q2 -44 -13.5 -82.5t-44.5 -68.5q-38 -38 -90 -57q-25 -10 -52 -14.5t-54 -4.5q-17 0 -33.5 1.5t-32.5 5.5q-27 6 -52.5 16.5t-46.5 25.5q-47 32 -72 84q-14 31 -17 60q-5 36 9 62q6 12 20.5 24.5t42.5 17.5q5 1 9 1.5t9 0.5q32 0 52 -17.5t37 -36.5
q14 -15 26.5 -27t29.5 -14h8q11 0 19 4t13 9.5t7.5 10.5t3.5 8q4 13 0.5 30t-20.5 29q-21 14 -47 24.5t-52 20.5q-35 12 -69 27t-60 40q-56 58 -40 165q1 48 26 96q21 43 61 77q39 34 86.5 52t95.5 18q39 0 74 -12q24 -8 45.5 -22t38.5 -31q36 -37 51 -85q3 -9 7 -23.5
t5.5 -30.5t-0.5 -32.5t-10 -28.5q-14 -21 -42 -23q-8 -1 -14 -1.5t-12 -0.5q-20 0 -45.5 6t-46.5 30l-9 12q-14 16 -27 28t-30 12h-6q-22 -5 -34 -21.5t-14 -33.5q-1 -8 3 -21t24 -21h1q11 -5 22.5 -8.5t22.5 -8.5q47 -17 89 -35t74 -47q38 -33 55.5 -79t18.5 -111z
M491 1094q11 -29 4 -56q-7 -30 -35 -58q-2 -3 -9 -11.5t-17 -21.5q-14 -20 -36.5 -49t-55.5 -71l-1 -1q-2 -3 -6 -7q-22 -26 -44.5 -45.5t-55.5 -19.5q-23 0 -51 12v1q-7 3 -10 8q-1 2 -5 4q-14 11 -36.5 28.5t-44.5 38.5q-57 55 -62 97q-2 28 16 47q26 26 54 26
q18 0 33 -8.5t28 -20t22.5 -24t15.5 -20.5q1 -3 4 -6q14 -19 20.5 -22t7.5 -3t6 3t13 17q8 13 15 30.5l15 37.5q10 24 20.5 49t24 46.5t30 37.5t37.5 22q1 0 1.5 0.5t1.5 0.5q2 0 5 0.5t6 0.5q27 0 52.5 -18t36.5 -45z" />
    <glyph glyph-name="OE" unicode="&#x152;" horiz-adv-x="909" 
d="M606 443q2 -119 -39 -215q-33 -81 -92 -140q-41 -41 -88 -66q-42 -22 -70 -22h-4q-65 5 -117 29q-50 24 -88 67q-35 39 -59 90.5t-35 113.5q-14 74 -6 153q7 78 35 148q28 72 74 126q51 59 114 85q46 19 87 19q60 0 115 -36t97 -103q35 -56 55.5 -122.5t20.5 -126.5z
M397 337q8 38 8.5 78t-1.5 69q-1 11 -5.5 41.5t-18.5 61.5q-22 55 -56 55q-16 0 -37 -12q-40 -22 -63 -101q-9 -34 -12.5 -64t-4.5 -44q0 -24 4.5 -58t15 -65.5t27 -53.5t40.5 -22q12 0 30 8q55 25 73 107zM894 137q10 -35 -0.5 -66.5t-39.5 -53.5v-1q-26 -18 -57 -18
q-14 0 -28 3t-28 7q-11 3 -21.5 5.5t-20.5 2.5q-3 1 -8 1q-14 0 -29 -2.5t-31 -6.5q-15 -3 -31 -6t-32 -4h-7q-65 0 -109 46q-26 28 -40 66t-12 79q1 23 7 42.5t13 37.5q5 13 9.5 25t6.5 25q6 38 1.5 76t-12.5 69q-25 109 -16 183q7 65 47 111q33 40 95 40q16 0 31.5 -2
t29.5 -4l6 -1q22 -3 48 -3q16 0 32 1t33 2h2h1q8 1 15.5 1.5t15.5 0.5q18 0 42.5 -4t44.5 -21q27 -24 30 -65q2 -41 -22 -68q-21 -23 -50 -28t-51 -5q-11 0 -21 0.5t-20 0.5q-6 1 -12 1h-11h-1q-6 1 -12 1.5t-14 1.5l-16 2t-16 1q-16 0 -23 -4t-10 -8q-7 -10 -8.5 -23.5
t0 -29t5.5 -32t9 -32.5q2 -7 3.5 -13.5t3.5 -13.5q13 9 30 21q23 16 46.5 29t51.5 13h11t10 -2q18 -4 32.5 -16t22.5 -29q9 -18 9 -38.5t-8 -37.5q-14 -31 -44 -51.5t-57 -33.5q-26 -11 -55.5 -20t-56.5 -13q-2 -6 -2 -9q-6 -18 -9 -36q-3 -19 -2 -23q0 -4 2 -6q1 -1 6 -1
q14 0 34.5 8t40.5 17q23 10 43.5 18t37.5 8q5 0 8 -1q44 -6 80 -39q17 -16 29 -35.5t18 -39.5z" />
    <glyph glyph-name="trademark" unicode="&#x2122;" horiz-adv-x="712" 
d="M694 585q5 -21 -8 -37q-10 -14 -28 -22t-38 -8t-38 9q-24 13 -34.5 33t-10.5 41q-2 -3 -2.5 -6t-1.5 -5v-1q-2 -8 -4 -17.5t-9 -18.5q-17 -23 -51 -24h-1q-13 0 -23.5 6t-18.5 14.5t-14 18t-10 17.5v-3q-2 -33 -32 -55q-20 -13 -41 -13q-12 0 -24 3.5t-23 8.5
q-24 14 -29 35q-4 19 3.5 34t15.5 28q3 5 6 9.5t5 9.5v1q10 18 5 52q-31 -9 -60 -11q4 -19 6 -43q1 -20 -1.5 -45t-16.5 -45q-23 -38 -69 -38q-5 0 -10.5 0.5t-10.5 1.5q-31 5 -41 25q-9 18 -1.5 38t15.5 35q2 4 3.5 7.5t2.5 5.5q3 10 3.5 21t0.5 23v1q1 4 1 7.5v6.5
q-4 2 -7 2l-2 1q-2 1 -4 1.5t-4 1.5q-34 11 -59 24.5t-27 33.5q-1 8 3 17.5t19 18.5q16 10 41 10q16 0 32.5 -3t33.5 -8q26 -7 42 -8h1q5 0 9 -0.5t8 -0.5q16 0 30.5 2t31.5 4q5 1 10.5 1h10.5h9.5t9.5 -1q10 10 27.5 17.5t47.5 7.5q4 0 8 -0.5t9 -0.5q15 -2 25 -7.5
t16 -12.5t9 -15t5 -14q1 -2 1 -3.5t1 -3.5q2 -4 2 -5q4 -11 9 -23t12 -22q5 6 8 13t5 13l2 6t2 5q2 6 4 10q3 10 8 21.5t16 20.5q11 10 25.5 12.5t29.5 2.5h8h7h1q32 -2 53 -14q22 -14 28 -37q4 -15 2 -29t-5 -27q-5 -17 -5 -28q2 -11 7 -22.5t11 -23.5q5 -9 9 -18t7 -19h1
v0z" />
    <glyph glyph-name="scaron" unicode="&#x161;" horiz-adv-x="450" 
d="M249 360q125 -6 166 -83q22 -41 25 -82.5t-14 -78.5q-20 -44 -62.5 -74.5t-101.5 -43.5q-20 -3 -43 -3q-29 0 -60.5 5t-59.5 15q-23 8 -51.5 24t-45.5 42q-29 46 -5 100q12 29 37.5 45t58.5 16q17 0 34.5 -4.5t32.5 -14.5q9 -5 17 -13l16 -16q11 -11 20.5 -20t18.5 -9
q8 0 16 5q13 10 10 26q-3 12 -13.5 22t-21.5 11q-128 14 -169 84q-26 45 -30 90.5t14 85.5q20 43 58 69q39 28 100 40q11 2 22.5 3t25.5 1q24 0 51.5 -4t53 -13t47.5 -23t36 -35q19 -28 15.5 -56.5t-12.5 -48.5q-13 -30 -37.5 -46.5t-56.5 -16.5q-18 0 -35.5 5.5t-34.5 15.5
q-13 9 -22 20t-17 21q-5 6 -11 13.5t-9 7.5q-1 0 -3 -1t-5 -3t-7 -6q-15 -19 -7 -36q7 -15 25 -25t34 -11zM459 949q11 -29 4 -56q-7 -30 -35 -58q-2 -3 -9 -11.5t-17 -21.5q-14 -20 -36.5 -49t-55.5 -71l-1 -1q-2 -3 -6 -7q-22 -26 -44.5 -45.5t-55.5 -19.5q-23 0 -51 12v1
q-7 3 -10 8q-1 2 -5 4q-14 11 -36.5 28.5t-44.5 38.5q-57 55 -62 97q-2 28 16 47q26 26 54 26q18 0 33 -8.5t28 -20t22.5 -24t15.5 -20.5q1 -3 4 -6q14 -19 20.5 -22t7.5 -3t6 3t13 17q8 13 15 30.5l15 37.5q10 24 20.5 49t24 46.5t30 37.5t37.5 22q1 0 1.5 0.5t1.5 0.5
q2 0 5 0.5t6 0.5q27 0 52.5 -18t36.5 -45z" />
    <glyph glyph-name="oe" unicode="&#x153;" horiz-adv-x="842" 
d="M515 328q9 -57 2 -112.5t-29 -100.5q-30 -66 -92 -104q-60 -37 -128 -37q-84 0 -149 53q-1 0 -1 1h-1q-5 5 -9 8.5t-6 5.5l-3 3q-5 5 -6 8q-31 38 -50 82q-11 26 -18.5 54.5t-9.5 59.5q-6 61 6.5 119t41.5 103q35 54 87 85q26 15 54 22.5t57 7.5q43 0 83 -16.5t74 -48.5
q37 -35 62 -84t35 -109zM303 379q-18 19 -36 19q-15 0 -29.5 -12t-24.5 -32q0 -1 -2 -7q-2 -2 -2.5 -4.5t-1.5 -4.5q-9 -27 -10.5 -52t3 -46t13.5 -38t21 -28q16 -15 32 -15q18 0 37.5 18.5t27.5 48.5q11 42 3 82q-6 43 -31 71zM837 200q13 -36 2 -76q-9 -42 -41 -68
q-72 -55 -165 -55q-45 0 -88 13.5t-79 39.5q-80 55 -104 145q-10 38 -11 82t7 90q19 100 70 167q67 88 171 88h15q69 -5 124 -44q27 -20 47.5 -46t31.5 -58q11 -29 19.5 -61t3.5 -65q-4 -45 -38 -69q-14 -11 -28.5 -16.5t-27.5 -9.5q-9 -3 -15 -6q-98 -37 -190 -52
q1 -4 5 -6q6 -6 21 -6q13 0 29.5 4.5t33 11t32.5 14.5t29 15q18 10 32 15q21 9 41 9q26 0 45 -15t28 -41zM526 360q13 1 32 4t39 10q48 15 61 37q2 5 3 12.5t-7 18.5q-8 13 -19 25t-25 12q-11 0 -20 -6.5t-16 -14.5q-22 -25 -37 -63q-5 -11 -7 -20t-4 -15z" />
    <glyph glyph-name="Ydieresis" unicode="&#x178;" horiz-adv-x="657" 
d="M653 724q1 -23 -9.5 -46t-28 -46t-40.5 -45t-45 -43q-19 -18 -36.5 -35.5t-22.5 -28.5q-12 -23 -25.5 -49.5t-23.5 -55.5q-22 -62 -13 -104q2 -9 4.5 -17.5t4.5 -16.5q8 -25 13 -51t3 -56v-1q-5 -38 -18 -66q-17 -35 -52 -52q-30 -13 -60 -13q-35 0 -60 17t-37 37
q-10 16 -13.5 32.5t-3 33.5t3.5 34l6 34q5 25 8.5 48t-2.5 44q-11 35 -32.5 67.5t-45.5 64.5l-24 33q-1 0 -1 1l-4 6q-13 22 -31.5 56.5t-35.5 74.5q-40 100 -20 159q17 44 62 60q15 5 26 5q27 0 49 -18.5t39 -45.5t29 -57t21 -53q3 -9 6 -15v-1q2 -4 3 -8t3 -9
q9 -24 18.5 -48t23.5 -44q5 -8 8 -10t4 -3q2 1 5.5 5t9.5 17q5 11 9 22.5t6 17.5q8 26 28 67t49 82q31 43 65 69q41 31 81 31q30 0 57 -18q36 -25 39 -62zM203 1082q24 0 42.5 -9t31 -23.5t19 -32.5t6.5 -37q0 -34 -20 -63t-59 -36q-4 -2 -9 -2h-3h-14h-6h-2h-1q-2 1 -4 1
t-4 1q-20 4 -34 12.5t-22 17.5q-26 28 -26 69q0 43 27 70q10 11 29 21.5t49 10.5zM451 1082q24 0 42.5 -9t31 -23.5t19 -32.5t6.5 -37q0 -34 -20 -63t-59 -36q-4 -2 -9 -2h-3h-14h-6h-2h-1q-2 1 -4 1t-4 1q-20 4 -34 12.5t-22 17.5q-26 28 -26 69q0 43 27 70q10 11 29 21.5
t49 10.5z" />
    <glyph glyph-name="exclamdown" unicode="&#xa1;" horiz-adv-x="267" 
d="M185.217 563.824q11.3975 19.2441 13.2979 47.1465q2.84863 40.4102 -15.1973 73.124q-9.49902 17.3184 -24.6963 29.8271q-18.0469 14.4316 -38.9424 15.3945q-2.84961 0.961914 -9.49902 0.961914q-34.1934 0 -60.7891 -24.0537q-28.4941 -23.0918 -31.3438 -58.6924
v-0.961914q-0.950195 -25.9785 23.7461 -52.9189q11.3975 -12.5078 25.1699 -21.6484t24.2207 -14.9131q6.64844 -4.81055 11.873 -6.73535q5.22363 -1.9248 8.07324 -3.84863q6.64941 -2.88672 9.97363 -3.84863t6.17383 -1.9248q8.54785 -2.88574 17.0967 -2.88574
q25.6455 0 40.8428 25.9775zM228.909 -18.2812q31.3438 36.5625 21.8457 80.8213q-4.74902 18.2812 -13.2979 34.6377q-8.54785 16.3574 -18.0469 32.7139q-5.69824 9.62109 -10.4473 17.7998q-4.75 8.17773 -8.54883 15.875q-14.248 31.752 -12.8232 66.3896
t6.1748 72.1611q2.84863 24.0547 4.74902 48.5898q1.89941 24.5352 -0.950195 49.5508q-5.69922 53.8809 -44.6416 95.2539q-31.3447 31.751 -56.9902 31.751q-16.1475 0 -29.4443 -13.4697q-17.0977 -17.3193 -21.8467 -66.3896q-1.89941 -17.3184 -1.89941 -31.751
t0.950195 -22.1299v-2.88574q0 -55.8057 -7.59863 -110.648q-7.59863 -54.8438 -16.1475 -109.687q-1.89941 -6.73535 -2.37402 -12.5078q-0.475586 -5.77246 -2.375 -12.5078q-3.79883 -20.2061 -6.17383 -44.7402q-2.375 -24.5352 1.4248 -49.5518
q7.59863 -59.6533 49.3906 -88.5186q13.2979 -9.62109 31.3447 -14.9131t38.9434 -5.29199q14.2471 0 27.5449 2.40527q13.2969 2.40527 26.5947 7.2168q26.5957 9.62109 44.6426 29.8262z" />
    <glyph glyph-name="cent" unicode="&#xa2;" horiz-adv-x="452" 
d="M413 226q11 -12 18.5 -24.5t11.5 -22.5q21 -51 -2 -95q-14 -26 -42.5 -44.5t-66.5 -28.5q0 -12 0.5 -26t4.5 -20q17 -28 -2 -63q-11 -20 -31 -32.5t-41 -12.5q-12 0 -28 6t-31 26q-25 34 -32 96l-1 3q-1 9 -2 18.5t-2 20.5q-47 21 -79.5 51.5t-46.5 56.5
q-29 54 -36.5 119t9.5 129q15 64 51 115q33 48 80 77q-3 23 -4.5 52t4.5 57q17 74 92 83q4 1 12 1q17 0 27 -5.5t15 -11.5q9 -10 13.5 -24t6 -30.5t0 -34.5t-2.5 -36v-10q44 -3 70.5 -17t40.5 -29q13 -14 23 -32t13.5 -36.5t-1 -36.5t-18.5 -33v-1q-28 -28 -71 -28
q-15 0 -29.5 2.5t-28.5 6.5q-14 3 -25.5 5.5t-22.5 2.5q-12 0 -24.5 -5t-25.5 -25q-8 -13 -14 -33t-8.5 -42t-1 -43t9.5 -35q11 -20 35 -20h1q11 1 23 6t25 12q15 8 32 14.5t36 6.5q9 0 13 -1q28 -4 53 -29z" />
    <glyph glyph-name="sterling" unicode="&#xa3;" horiz-adv-x="524" 
d="M505 192q20 -32 22 -65.5t-14 -63.5q-17 -31 -48.5 -48.5t-69.5 -17.5q-5 0 -11 0.5t-11 1.5q-26 3 -46 15.5t-37 26.5q-17 13 -33 22.5t-33 9.5q-3 0 -5.5 -0.5t-4.5 -0.5h-1q-10 -2 -25.5 -11t-30.5 -20q-22 -15 -44 -27.5t-44 -12.5q-8 0 -12 1q-37 8 -52 38
q-11 19 -10.5 44t7 52t17 54.5t21.5 53.5q7 18 13 33t8 25v1q9 28 9 60q-20 5 -33 12q-4 2 -14.5 8t-22.5 16t-23 23.5t-15 29.5q-6 25 9 47q20 32 58 36q-6 26 -9.5 53t1.5 56q11 89 121 140q42 20 94 31t104 11q25 0 47 -2.5t40 -7.5q42 -12 59 -37q6 -9 9.5 -23t-4.5 -33
q-11 -26 -41 -37t-68 -21q-29 -8 -60 -17.5t-54 -26.5q-39 -32 -32 -94q5 1 8.5 1.5t8.5 1.5q26 5 52.5 9.5t52.5 4.5q41 0 71 -15q32 -17 40 -35t6 -32q-4 -38 -64 -75q-24 -14 -46.5 -23.5t-36.5 -12.5h-1q-33 -7 -74 -9q-3 -9 -6.5 -18t-7.5 -18q-3 -8 -6 -15.5t-6 -15.5
v-1q-2 -4 -4 -8.5t-4 -9.5q-2 -6 -6.5 -16.5t-6.5 -18.5q2 0 4 2q14 4 26 9.5t25 11.5q24 11 49.5 21t55.5 10q6 0 10 -1q38 -2 75 -26q34 -22 54 -56z" />
    <glyph glyph-name="currency" unicode="&#xa4;" horiz-adv-x="602" 
d="M222 601q2 -2 4 -4.5t4 -6.5q35 13 74 13q67 0 125 -40l15 22q11 19 25 34.5t34 15.5q16 0 29 -10q42 -32 47 -84q2 -23 -3.5 -44.5t-11.5 -36.5q-7 -15 -13.5 -26.5t-11.5 -16.5q6 -17 11 -35t8 -37q14 -92 -11 -172l17 -32q6 -15 11.5 -36.5t3.5 -44.5q-5 -52 -47 -84
q-13 -10 -29 -10q-20 0 -34 15.5t-25 34.5q-2 2 -3.5 5t-3.5 5q-59 -35 -126 -35q-45 0 -84 15l-5 -6q-32 -37 -74 -37q-36 0 -79 31q-30 22 -40 51.5t-2 48.5t23.5 23.5t27.5 6.5q5 1 10.5 2t7.5 3q-3 5 -5.5 11t-4.5 12q-11 26 -18.5 54.5t-9.5 59.5q-6 56 4 108.5
t34 96.5v1q-2 2 -7.5 3t-10.5 1q-12 2 -27.5 7t-23.5 23q-8 20 2 49.5t40 51.5q43 31 79 31q42 0 74 -37zM346 396q-18 19 -36 19q-15 0 -29.5 -12t-24.5 -32q0 -1 -2 -7q-2 -2 -2.5 -4.5t-1.5 -4.5q-9 -27 -10.5 -52t3 -46t13.5 -38t21 -28q16 -15 32 -15q18 0 37.5 18.5
t27.5 48.5q11 42 3 82q-6 43 -31 71z" />
    <glyph glyph-name="yen" unicode="&#xa5;" horiz-adv-x="657" 
d="M446 345q-8 -2 -14.5 -3.5t-14.5 -3.5q-2 -7 -4 -17q17 5 34.5 9.5t36.5 6.5q5 1 9.5 1h9.5q40 0 70 -16q38 -21 43 -64q3 -28 -13 -46t-34 -28q-18 -11 -37.5 -17.5t-32.5 -10.5h-1q-14 -4 -28.5 -7.5t-29.5 -5.5q-1 -5 -1 -15v-1q-5 -38 -18 -66q-17 -35 -52 -52
q-30 -13 -60 -13q-35 0 -60 17t-37 37q-14 22 -16 44t1 45q-18 3 -37.5 8t-34.5 13l-3 1q-11 6 -24.5 13.5t-26 18t-20.5 23.5t-8 29v1q2 31 34 46q21 8 51 8q12 0 22.5 -1t15.5 -2q11 -2 20.5 -3t18.5 -2q-2 7 -5 14t-8 14q-31 7 -63 23h-2q-5 4 -10.5 6.5t-10.5 5.5
q-11 5 -21.5 10.5t-19.5 14.5q-21 21 -21 55v1q0 11 6.5 27t29.5 27q-12 23 -25 50t-24 56q-32 88 -13 142q15 44 61 60q15 5 26 5q27 0 49 -18.5t39 -45.5t29 -57t21 -53q3 -9 6 -15v-1q2 -4 3 -8t3 -9q9 -24 18.5 -48t23.5 -44q5 -8 9 -10h7q5 5 11.5 18t14.5 41
q8 26 28 67t49 82q31 43 65 69q41 31 81 31q30 0 57 -18q36 -25 39 -62q1 -23 -9.5 -46t-28 -46t-40.5 -45t-45 -43q-6 -6 -12.5 -12t-12.5 -12h2q37 0 63 -12q37 -17 42 -57v-1q2 -14 -6 -33t-38 -34q-17 -8 -35.5 -13t-33.5 -9q-3 -1 -5.5 -1t-4.5 -1l-48 -12v0z" />
    <glyph glyph-name="brokenbar" unicode="&#xa6;" horiz-adv-x="311" 
d="M281 69q4 -29 5.5 -56.5t2.5 -50.5t0.5 -40.5t-0.5 -25.5q-2 -56 -20 -85q-19 -32 -52 -32q-18 0 -37 10t-35 26t-28 35.5t-17 38.5q-11 23 -12 44.5t0 42.5v19.5t-1 18.5q-2 16 -5.5 32.5t-8.5 33.5t-9 34.5t-5 34.5t2 32.5t12 28.5q25 35 93 41q-16 5 -31.5 16
t-28.5 26t-22.5 31.5t-14.5 33.5q-16 34 -22 66t-9 60q-2 14 -4.5 27.5t-4.5 27.5q-4 19 -7 37.5t-3.5 36.5t3.5 34.5t15 30.5q28 37 103 43h6q28 0 49 -22q40 -41 55 -161q4 -29 5.5 -56.5t2.5 -50.5t0.5 -40.5t-0.5 -25.5q-2 -56 -20 -85q-15 -26 -42 -31q15 -4 30 -19
q40 -41 55 -161z" />
    <glyph glyph-name="section" unicode="&#xa7;" horiz-adv-x="536" 
d="M525 -89q2 -44 -13.5 -82t-44.5 -68q-37 -37 -90 -58q-52 -19 -106 -19q-17 0 -33.5 2t-32.5 5q-56 13 -99 43q-48 33 -72 83v1q-14 31 -17 60q-5 36 9 62q6 11 20.5 24t42.5 18q5 1 9 1h9q32 0 52 -17t37 -36q14 -16 26.5 -27.5t29.5 -13.5q3 -1 8 -1q22 0 31.5 13.5
t11.5 19.5q4 13 0.5 30t-20.5 28q-19 14 -42.5 23.5t-49.5 19.5q-14 3 -26.5 8t-23.5 10q-27 11 -54 27t-47 42q-40 55 -25 148q3 80 60 145q-33 24 -48 57q-24 51 -12 125q1 49 26 95q20 42 61 78q39 33 86.5 51.5t95.5 18.5q39 0 74 -12q50 -19 84 -54q36 -38 51 -85
q3 -9 7 -23t5.5 -30.5t-0.5 -32.5t-10 -29q-15 -21 -42 -23q-8 -1 -14 -1h-12q-20 0 -45.5 6t-46.5 30q-3 3 -9 11q-14 16 -27 28.5t-30 12.5q-4 0 -6 -1q-22 -4 -34 -20.5t-14 -33.5q-1 -9 3 -22t24 -20h1q11 -5 22.5 -9t22.5 -8t21.5 -8t21.5 -8q7 -2 13.5 -3.5t13.5 -3.5
q38 -14 68 -39q47 -32 71 -80q28 -54 28 -131q1 -49 -19 -95q-16 -32 -40 -56q58 -62 59 -176zM297 235q15 23 5 48q-18 15 -33 15q-4 0 -6 -1q-23 -4 -36 -23t-12 -38q19 -19 37 -20q3 -1 8 -1q16 0 24.5 7.5t12.5 12.5z" />
    <glyph glyph-name="copyright" unicode="&#xa9;" horiz-adv-x="617" 
d="M644 473q9 -29 13.5 -57t4.5 -54q1 -85 -29 -160q-26 -62 -74 -110q-48 -50 -112 -77q-26 -11 -50.5 -17.5t-44.5 -6.5h-3q-45 2 -86.5 9.5t-78.5 19.5q-72 26 -122 67q-48 39 -79 97q-26 50 -34 111q-8 63 8 124.5t54 115.5q40 58 98.5 98.5t133.5 60.5q27 7 53.5 11
t52.5 4q38 0 73.5 -9.5t67.5 -26.5q56 -32 97 -88q19 -24 33 -52.5t24 -59.5zM523 358q3 44 -14 95q-9 25 -22.5 48t-29.5 41q-16 17 -41 33.5t-58 16.5q-11 0 -21 -2t-21 -5q-38 -14 -76.5 -38.5t-67.5 -53.5q-12 -12 -25 -27t-23 -33t-16 -38t-6 -42v-1q-2 -48 15 -93
t49 -80q29 -29 63.5 -44.5t72.5 -15.5q13 0 26.5 1.5t27.5 6.5q39 11 70 35t54 59q39 62 42 135v2h1zM424 304q8 -8 12.5 -16t6.5 -14q15 -35 -3 -64q-13 -20 -41 -34q-25 -11 -53 -14h-11q-27 0 -50.5 8t-43 20.5t-33.5 27.5t-21 28q-27 46 -25 107q1 55 28 105
q11 20 25.5 36t31.5 29q38 26 85 29h14q19 0 42 -5.5t40 -23.5t23 -43.5t-12 -44.5q-17 -18 -45 -18q-17 0 -37 5q-9 2 -16.5 4t-14.5 2q-8 0 -16 -3.5t-16 -16.5q-5 -8 -9 -21t-5.5 -27t-0.5 -27t6 -22q6 -13 22 -13h1q8 1 15.5 4t15.5 8q9 5 20 9t23 4q6 0 8 -1
q19 -3 34 -18z" />
    <glyph glyph-name="ordfeminine" unicode="&#xaa;" horiz-adv-x="320" 
d="M285.999 367.728q4.91992 -15.373 9.5332 -32.5908q4.6123 -17.2188 2.76758 -35.0508q-1.84473 -17.833 -14.7607 -32.5918q-14.7617 -16.6035 -33.8281 -16.6035q-7.99609 0 -17.8369 4.30469v0.615234q-12.3008 6.14941 -20.6035 15.9883
q-8.30371 9.83887 -13.8389 20.9072q-11.0713 -17.833 -23.9873 -26.4414q-21.5264 -14.7588 -51.0488 -14.7588q-12.3018 0 -23.6797 2.15234q-11.3789 2.15234 -20.9121 5.22656q-9.5332 3.0752 -17.2207 6.45703q-7.68848 3.38184 -11.9941 5.8418
q-21.5264 13.5283 -34.4424 36.8955q-12.916 23.3682 -13.5312 49.8096q-1.23047 23.3672 8.30273 42.4307q9.5332 19.0625 27.3701 31.3613q10.4561 6.76367 24.9092 12.2979q14.4541 5.53516 30.4453 10.4541q12.916 4.30469 26.1396 8.91699
q13.2236 4.61133 23.9873 10.4531t18.4512 12.9141q7.68848 7.07129 9.5332 16.2949q1.8457 10.4541 2.15332 15.9883t-0.307617 8.60938h-0.615234q-6.15039 -3.68945 -10.7637 -10.7617q-4.6123 -7.07129 -9.5332 -15.0654q-4.91992 -7.99414 -10.1484 -15.6807
q-5.22754 -7.68652 -11.9932 -14.4512q-15.9912 -12.9131 -33.8281 -12.9131q-17.8359 0 -35.0576 12.2988q-17.2217 12.2979 -27.6777 32.5908q-9.22559 17.833 -10.4561 36.2812q-1.22949 20.9072 9.22656 35.666q20.2959 28.9014 52.8936 42.4297
q29.5234 12.9131 65.8105 12.9131q31.9834 0 60.8906 -9.22363q46.7441 -14.7578 60.2754 -64.5674q5.53516 -20.9072 6.15039 -43.0449q0.614258 -22.1377 0 -42.4307v-7.37891t-0.615234 -7.37891v-8.60938q0 -19.6777 0.922852 -38.4326
q0.921875 -18.7559 6.45801 -35.9736q0.614258 -1.22949 1.22949 -3.07422q0.615234 -1.8457 1.23047 -3.0752zM177.135 427.376q-9.22559 -4.91992 -19.6816 -11.6836q-10.4561 -6.76465 -18.7588 -15.0664q-8.30371 -8.30078 -13.8389 -17.2178
q-5.53516 -8.91602 -5.53516 -16.9102q0 -4.91992 2.45996 -9.83887q2.45996 -4.91992 5.53516 -4.91992q0.615234 0 1.23047 0.307617t1.84473 0.307617q27.0625 9.22363 38.1338 35.666q6.76562 14.1436 8.61035 39.3555z" />
    <glyph glyph-name="logicalnot" unicode="&#xac;" horiz-adv-x="580" 
d="M569 297q10 -47 7.5 -75t-6.5 -40q-15 -41 -55 -41h-5q-3 -1 -9 -1q-10 0 -22 5.5t-22 22.5q-6 10 -9.5 21.5t-7.5 22.5q-8 27 -13.5 38t-15.5 11q-2 0 -2.5 -0.5t-1.5 -0.5q-41 -9 -74 -13.5t-41 -5.5q-36 -3 -67 -3q-136 0 -203 58q-17 15 -19.5 28.5t-0.5 21.5
q5 19 24 31q14 10 36 15q16 3 34 3q17 0 33 -2.5t33 -4.5t32.5 -4t30.5 -2q30 1 61.5 4.5t63.5 7.5q30 5 57.5 8t50.5 3q49 0 71 -19q14 -11 24.5 -37.5t15.5 -51.5z" />
    <glyph glyph-name="registered" unicode="&#xae;" horiz-adv-x="730" 
d="M685 473q9 -29 13.5 -57t4.5 -54q1 -85 -29 -160q-26 -62 -74 -110q-48 -50 -112 -77q-26 -11 -50.5 -17.5t-44.5 -6.5h-3q-45 2 -86.5 9.5t-78.5 19.5q-72 26 -122 67q-48 39 -79 97q-26 50 -34 111q-8 63 8 124.5t54 115.5q40 58 98.5 98.5t133.5 60.5q27 7 53.5 11
t52.5 4q38 0 73.5 -9.5t67.5 -26.5q56 -32 97 -88q19 -24 33 -52.5t24 -59.5zM564 358q3 44 -14 95q-9 25 -22.5 48t-29.5 41q-16 17 -41 33.5t-58 16.5q-11 0 -21 -2t-21 -5q-38 -14 -76.5 -38.5t-67.5 -53.5q-12 -12 -25 -27t-23 -33t-16 -38t-6 -42v-1q-2 -48 15 -93
t49 -80q29 -29 63.5 -44.5t72.5 -15.5q13 0 26.5 1.5t27.5 6.5q39 11 70 35t54 59q39 62 42 135v2h1zM479 249q5 -12 4 -28.5t-10 -29.5q-11 -15 -28 -15q-5 0 -7 1q-18 3 -33 22q-7 8 -12 18l-10 20q-5 9 -10 17.5t-10 16.5q-10 12 -18 12q7 -48 -6 -79q-4 -12 -19 -20
q-11 -7 -27 -7q-15 0 -25 7q-12 7 -15 24q-3 14 0.5 26.5t7.5 24.5q6 16 9 28q2 21 -0.5 42.5t-5.5 40.5l-3 15q-5 25 -7.5 45t-0.5 34q5 35 41 42q21 6 44 6q31 0 58 -11q31 -12 48 -35q24 -30 19 -66q-4 -19 -17 -40q-5 -7 -11 -13.5t-14 -11.5q19 -17 31 -35
q16 -24 27 -51zM328 431q-1 -2 -2 -7t1 -17q2 -9 4.5 -18.5t4.5 -17.5q2 -6 3 -8q11 3 19.5 14.5t13.5 19.5l3 6q5 6 2 11q-2 6 -18 13q-13 5 -25 5h-3q-1 0 -2 -1h-1z" />
    <glyph glyph-name="degree" unicode="&#xb0;" horiz-adv-x="362" 
d="M332 827q42 -71 21 -155q-9 -38 -30 -73.5t-52 -64.5q-41 -36 -91 -36q-43 0 -84 25t-64 66q-35 64 -29 134t51 126q26 31 55 48q38 23 76 23q4 0 7.5 -0.5t7.5 -0.5q42 -5 80 -33q16 -11 29 -26.5t23 -32.5zM160 730q-4 -22 1 -41t16 -23q2 -1 5 -1q9 0 17 14.5t10 34.5
q2 17 -2.5 34t-15.5 19q-2 1 -5 1q-7 0 -14.5 -8.5t-11.5 -29.5z" />
    <glyph glyph-name="plusminus" unicode="&#xb1;" horiz-adv-x="545" 
d="M16 346q-17 15 -19.5 28.5t-0.5 21.5q6 19 25 32q16 10 35 14h1q15 3 34 3q17 0 33 -2l32 -4q9 -2 18 -3t17 -2q0 139 58 206q11 14 21.5 18t18.5 4q22 0 39 -22q12 -17 17 -40q5 -25 2.5 -50t-5.5 -49q-2 -15 -4 -29t-3 -28q6 0 9 1q30 4 58 7t51 3q49 0 70 -18
q17 -15 20 -28t0 -23q-9 -36 -90 -61q-27 -8 -54.5 -14t-49.5 -10q8 -57 9.5 -100.5t-18.5 -67.5q-18 -21 -40 -21q-13 0 -23.5 7t-18.5 18t-14 24t-10 25q-9 25 -15.5 52.5t-11.5 50.5q-125 1 -191 57zM523 101q13 -11 19 -24t1 -29q-2 -7 -8 -15t-20 -17t-38.5 -18.5
t-63.5 -19.5q-21 -5 -41.5 -9t-37.5 -7t-29.5 -4.5t-18.5 -1.5q-17 -2 -34 -3t-32 -1q-135 0 -204 58q-17 15 -19.5 28.5t-0.5 21.5q6 19 25 32q16 10 35 14h1q15 3 34 3q17 0 33 -2l32 -4q17 -3 32.5 -5t30.5 -2q30 1 61.5 4.5t63.5 8.5q30 4 58 7t51 3q49 0 70 -18z" />
    <glyph glyph-name="guillemotright" unicode="&#xbb;" horiz-adv-x="572" 
d="M322 200q-8 -15 -19.5 -31t-24.5 -32q-14 -16 -23 -29h-1l-70 -94q-17 -24 -60 -24q-26 0 -48 9q-28 10 -41 27q-18 23 -12 47q5 26 27.5 41t52.5 30l17 8.5t18 9.5q12 7 23 16t12 19q1 5 -4.5 15.5t-25.5 27.5q-17 16 -40.5 33t-52.5 37l-8 5q-18 12 -31 46
q-4 11 -7.5 29t1.5 36q4 12 17 26.5t46 14.5q25 0 49.5 -12t47.5 -31t45 -42.5t43 -46.5q17 -20 32.5 -37t29.5 -28q17 -14 17 -35q0 -16 -10 -35zM551 308q29 -50 6 -117q-9 -25 -24 -49.5t-35 -44.5l-105 -112q-17 -18 -44 -18q-17 0 -34 7.5t-28 21.5q-23 27 -15 61
q4 28 30 58q11 13 24.5 26t33.5 30q9 8 19 18t17.5 20t11.5 20.5t2 20.5q-2 13 -15.5 25t-32 22.5t-40.5 19.5t-42 16q-15 5 -24 19.5t-13 25.5q-7 17 -9.5 34.5t0.5 31.5q5 25 20 36q16 15 44 15q70 0 152 -71q33 -29 59.5 -61t40.5 -55h1z" />
    <glyph glyph-name="questiondown" unicode="&#xbf;" horiz-adv-x="438" 
d="M178.402 502.776q-23.0527 0 -38.5869 13.7031q-15.5352 13.7041 -21.5488 38.2754q-4.00879 18.9014 -1.50391 41.1104q2.50586 22.209 11.0254 43.4736q8.51855 21.2637 22.0498 37.8027q13.5303 16.5381 31.5713 24.0986q21.0469 7.56055 40.0898 7.56055
q17.0381 0 32.5732 -4.72461q15.5352 -4.72559 28.5645 -15.1211q29.0654 -21.7363 32.0723 -56.7041v-0.945312q2.00488 -21.7363 -7.01562 -42.0557q-9.02051 -20.3184 -29.0654 -39.2207q-16.0361 -14.1758 -35.5801 -25.5166t-40.5918 -17.9561
q-6.01367 -1.89062 -12.0273 -2.83496q-6.0127 -0.945312 -12.0264 -0.945312zM28.0635 23.627q-39.0879 52.9238 -34.0771 119.078q2.00488 38.748 19.043 67.0996q17.0381 28.3525 37.084 53.8691q15.0332 19.8467 28.0625 39.6934q13.0293 19.8457 19.043 43.4727
q2.00488 9.45117 3.00684 17.957q1.00293 8.50488 2.00488 18.9004q2.00391 22.6816 8.01758 46.7812t31.0703 43.9453q4.00879 2.83594 12.0273 8.50586q8.01758 5.6709 19.5439 10.8682q11.5264 5.19824 26.0586 9.45117q14.5332 4.25293 29.5664 4.25293
q26.0586 0 43.0977 -12.2861q31.0693 -20.792 34.0762 -58.5947q3.00684 -30.2422 -10.0225 -68.9893q-12.0273 -34.0225 -31.0703 -68.0449q-19.042 -34.0225 -35.0781 -60.4844q-6.01367 -9.45117 -10.5244 -17.4844q-4.50977 -8.03223 -8.51855 -13.7031v-0.945312
l-3.00684 -5.66992q-4.00977 -8.50586 -9.52148 -18.4287q-5.5127 -9.92383 -9.52148 -19.8467t-6.01367 -19.8467q-2.00488 -9.92285 0 -17.4834q0 -1.89062 2.00488 -4.25293q2.00391 -2.36328 10.0225 -2.36328q14.0312 0 22.0498 7.56055
q9.01953 9.45117 14.0312 20.3193q5.01074 10.8682 10.0225 24.0996q5.01172 11.3408 10.0225 22.6816q5.01172 11.3408 14.0312 21.7363q22.0498 23.627 58.1318 23.627q73.1641 -1.89062 99.2236 -59.54q8.01758 -19.8457 9.52148 -44.418
q1.50293 -24.5713 -5.5127 -51.0332q-6.01367 -24.5723 -18.041 -45.8359t-28.0635 -37.3301q-32.0723 -30.2422 -75.6699 -46.3086q-43.5986 -16.0664 -92.709 -16.0664q-42.0947 0 -78.1758 12.2861q-67.1514 19.8467 -105.237 72.7705z" />
    <glyph glyph-name="Agrave" unicode="&#xc0;" horiz-adv-x="563" 
d="M542 195q6 -16 12 -35t7.5 -38.5t-3 -40t-20.5 -39.5q0 -1 -1 -1q-18 -21 -43.5 -32.5t-51.5 -11.5q-14 0 -26 3h-1q-31 8 -51.5 24.5t-34.5 37t-22.5 44t-15.5 46.5q-5 17 -11 33q-1 0 -2 -0.5t-2 -0.5q-10 -4 -19.5 -7.5t-18.5 -8.5t-12.5 -8t-4.5 -4q2 -15 2.5 -32
t-2.5 -34q-6 -40 -32 -64q-28 -26 -68 -26h-3q-53 1 -85 39q-20 24 -28 56.5t-9 66t2.5 63.5t6.5 50q0 7 2 13q1 15 4.5 44.5t10.5 68t17.5 82.5t24.5 88q73 230 177 230q18 0 37 -8q31 -12 53.5 -40.5t40 -64t29.5 -75t22 -74.5q5 -16 9 -30.5t8 -25.5l18 -50t17 -50
q16 -47 32.5 -94t34.5 -94zM232 459q-3 15 -6 25t-5 15q-4 -6 -8.5 -22t-8.5 -49q-2 -25 -2.5 -50t-0.5 -43q23 11 41 24q0 5 -0.5 10.5t-0.5 11.5q-2 17 -3.5 37.5t-5.5 40.5zM357 955q0 -41 -14 -59q-12 -17 -34 -17q-12 0 -25 6h-1q-15 8 -22 22t-12 27q-3 9 -6 15h-1
q-7 13 -18.5 24t-22.5 20h-1q-11 9 -19 23t-12.5 29t-4.5 30.5t5 28.5q14 39 57 39q5 0 9 -0.5t9 -1.5q43 -8 73 -59q13 -20 20.5 -41.5t12.5 -38.5q2 -8 4 -20.5t3 -26.5z" />
    <glyph glyph-name="Aacute" unicode="&#xc1;" horiz-adv-x="563" 
d="M542 195q6 -16 12 -35t7.5 -38.5t-3 -40t-20.5 -39.5q0 -1 -1 -1q-18 -21 -43.5 -32.5t-51.5 -11.5q-14 0 -26 3h-1q-31 8 -51.5 24.5t-34.5 37t-22.5 44t-15.5 46.5q-5 17 -11 33q-1 0 -2 -0.5t-2 -0.5q-10 -4 -19.5 -7.5t-18.5 -8.5t-12.5 -8t-4.5 -4q2 -15 2.5 -32
t-2.5 -34q-6 -40 -32 -64q-28 -26 -68 -26h-3q-53 1 -85 39q-20 24 -28 56.5t-9 66t2.5 63.5t6.5 50q0 7 2 13q1 15 4.5 44.5t10.5 68t17.5 82.5t24.5 88q73 230 177 230q18 0 37 -8q31 -12 53.5 -40.5t40 -64t29.5 -75t22 -74.5q5 -16 9 -30.5t8 -25.5l18 -50t17 -50
q16 -47 32.5 -94t34.5 -94zM232 459q-3 15 -6 25t-5 15q-4 -6 -8.5 -22t-8.5 -49q-2 -25 -2.5 -50t-0.5 -43q23 11 41 24q0 5 -0.5 10.5t-0.5 11.5q-2 17 -3.5 37.5t-5.5 40.5zM377 1181q6 -16 3.5 -34t-9 -36.5t-16.5 -36.5t-19 -34q-5 -9 -9.5 -17t-6.5 -13
q-11 -24 -24.5 -48t-29 -44t-33 -32.5t-36.5 -12.5q-16 0 -28 9q-11 6 -15.5 13.5t-6.5 14.5q-5 20 7 38.5t25 35.5q4 4 6.5 8t4.5 6q9 20 12 41t5 45l1 7q3 46 24 81q27 50 75 50q8 0 14.5 -1.5t14.5 -3.5q20 -6 29 -16.5t12 -19.5z" />
    <glyph glyph-name="Acircumflex" unicode="&#xc2;" horiz-adv-x="563" 
d="M116 1083q24 0 42.5 -9t31 -23.5t19 -32.5t6.5 -37q0 -34 -20 -63t-59 -36q-4 -2 -9 -2h-3h-14h-6h-2h-1q-2 1 -4 1t-4 1q-20 4 -34 12.5t-22 17.5q-26 28 -26 69q0 43 27 70q10 11 29 21.5t49 10.5zM364 1083q24 0 42.5 -9t31 -23.5t19 -32.5t6.5 -37q0 -34 -20 -63
t-59 -36q-4 -2 -9 -2h-3h-14h-6h-2h-1q-2 1 -4 1t-4 1q-20 4 -34 12.5t-22 17.5q-26 28 -26 69q0 43 27 70q10 11 29 21.5t49 10.5zM542 195q6 -16 12 -35t7.5 -38.5t-3 -40t-20.5 -39.5q0 -1 -1 -1q-18 -21 -43.5 -32.5t-51.5 -11.5q-14 0 -26 3h-1q-31 8 -51.5 24.5
t-34.5 37t-22.5 44t-15.5 46.5q-5 17 -11 33q-1 0 -2 -0.5t-2 -0.5q-10 -4 -19.5 -7.5t-18.5 -8.5t-12.5 -8t-4.5 -4q2 -15 2.5 -32t-2.5 -34q-6 -40 -32 -64q-28 -26 -68 -26h-3q-53 1 -85 39q-20 24 -28 56.5t-9 66t2.5 63.5t6.5 50q0 7 2 13q1 15 4.5 44.5t10.5 68
t17.5 82.5t24.5 88q73 230 177 230q18 0 37 -8q31 -12 53.5 -40.5t40 -64t29.5 -75t22 -74.5q5 -16 9 -30.5t8 -25.5l18 -50t17 -50q16 -47 32.5 -94t34.5 -94zM232 459q-3 15 -6 25t-5 15q-4 -6 -8.5 -22t-8.5 -49q-2 -25 -2.5 -50t-0.5 -43q23 11 41 24q0 5 -0.5 10.5
t-0.5 11.5q-2 17 -3.5 37.5t-5.5 40.5z" />
    <glyph glyph-name="Atilde" unicode="&#xc3;" horiz-adv-x="563" 
d="M542 195q6 -16 12 -35t7.5 -38.5t-3 -40t-20.5 -39.5q0 -1 -1 -1q-18 -21 -43.5 -32.5t-51.5 -11.5q-14 0 -26 3h-1q-31 8 -51.5 24.5t-34.5 37t-22.5 44t-15.5 46.5q-5 17 -11 33q-1 0 -2 -0.5t-2 -0.5q-10 -4 -19.5 -7.5t-18.5 -8.5t-12.5 -8t-4.5 -4q2 -15 2.5 -32
t-2.5 -34q-6 -40 -32 -64q-28 -26 -68 -26h-3q-53 1 -85 39q-20 24 -28 56.5t-9 66t2.5 63.5t6.5 50q0 7 2 13q1 15 4.5 44.5t10.5 68t17.5 82.5t24.5 88q73 230 177 230q18 0 37 -8q31 -12 53.5 -40.5t40 -64t29.5 -75t22 -74.5q5 -16 9 -30.5t8 -25.5l18 -50t17 -50
q16 -47 32.5 -94t34.5 -94zM232 459q-3 15 -6 25t-5 15q-4 -6 -8.5 -22t-8.5 -49q-2 -25 -2.5 -50t-0.5 -43q23 11 41 24q0 5 -0.5 10.5t-0.5 11.5q-2 17 -3.5 37.5t-5.5 40.5zM597 1099q7 -15 9 -30.5t0.5 -30.5t-5.5 -28t-8 -22q-22 -55 -54 -82q-31 -25 -70 -25
q-23 0 -45.5 8t-43.5 20.5t-39.5 27t-33.5 26.5q-2 2 -4.5 4t-4.5 4q-18 11 -39.5 17t-41.5 6q-17 0 -36.5 -6t-33.5 -27q-13 -21 -34 -33t-47 -12q-32 0 -57.5 19t-34.5 49v1q-12 49 27 99q19 23 39.5 39.5t33.5 24.5q44 28 90 28q26 0 50 -8.5t46.5 -22.5t44 -32t42.5 -36
q11 -9 21 -18.5t21 -17.5q1 -1 3 -1q3 2 8 11.5t9 17.5q6 13 13.5 26t18.5 25q26 29 65 29q14 0 34 -5q40 -10 57 -45z" />
    <glyph glyph-name="Adieresis" unicode="&#xc4;" horiz-adv-x="563" 
d="M542 195q6 -16 12 -35t7.5 -38.5t-3 -40t-20.5 -39.5q0 -1 -1 -1q-18 -21 -43.5 -32.5t-51.5 -11.5q-14 0 -26 3h-1q-31 8 -51.5 24.5t-34.5 37t-22.5 44t-15.5 46.5q-5 17 -11 33q-1 0 -2 -0.5t-2 -0.5q-10 -4 -19.5 -7.5t-18.5 -8.5t-12.5 -8t-4.5 -4q2 -15 2.5 -32
t-2.5 -34q-6 -40 -32 -64q-28 -26 -68 -26h-3q-53 1 -85 39q-20 24 -28 56.5t-9 66t2.5 63.5t6.5 50q0 7 2 13q1 15 4.5 44.5t10.5 68t17.5 82.5t24.5 88q73 230 177 230q18 0 37 -8q31 -12 53.5 -40.5t40 -64t29.5 -75t22 -74.5q5 -16 9 -30.5t8 -25.5l18 -50t17 -50
q16 -47 32.5 -94t34.5 -94zM232 459q-3 15 -6 25t-5 15q-4 -6 -8.5 -22t-8.5 -49q-2 -25 -2.5 -50t-0.5 -43q23 11 41 24q0 5 -0.5 10.5t-0.5 11.5q-2 17 -3.5 37.5t-5.5 40.5zM156 1084q24 0 42.5 -9t31 -23.5t19 -32.5t6.5 -37q0 -34 -20 -63t-59 -36q-4 -2 -9 -2h-3h-14
h-6h-2h-1q-2 1 -4 1t-4 1q-20 4 -34 12.5t-22 17.5q-26 28 -26 69q0 43 27 70q10 11 29 21.5t49 10.5zM404 1084q24 0 42.5 -9t31 -23.5t19 -32.5t6.5 -37q0 -34 -20 -63t-59 -36q-4 -2 -9 -2h-3h-14h-6h-2h-1q-2 1 -4 1t-4 1q-20 4 -34 12.5t-22 17.5q-26 28 -26 69
q0 43 27 70q10 11 29 21.5t49 10.5z" />
    <glyph glyph-name="Aring" unicode="&#xc5;" horiz-adv-x="563" 
d="M542 195q6 -16 12 -35t7.5 -38.5t-3 -40t-20.5 -39.5q0 -1 -1 -1q-18 -21 -43.5 -32.5t-51.5 -11.5q-14 0 -26 3h-1q-31 8 -51.5 24.5t-34.5 37t-22.5 44t-15.5 46.5q-5 17 -11 33q-1 0 -2 -0.5t-2 -0.5q-10 -4 -19.5 -7.5t-18.5 -8.5t-12.5 -8t-4.5 -4q2 -15 2.5 -32
t-2.5 -34q-6 -40 -32 -64q-28 -26 -68 -26h-3q-53 1 -85 39q-20 24 -28 56.5t-9 66t2.5 63.5t6.5 50q0 7 2 13q1 15 4.5 44.5t10.5 68t17.5 82.5t24.5 88q73 230 177 230q18 0 37 -8q31 -12 53.5 -40.5t40 -64t29.5 -75t22 -74.5q5 -16 9 -30.5t8 -25.5l18 -50t17 -50
q16 -47 32.5 -94t34.5 -94zM232 459q-3 15 -6 25t-5 15q-4 -6 -8.5 -22t-8.5 -49q-2 -25 -2.5 -50t-0.5 -43q23 11 41 24q0 5 -0.5 10.5t-0.5 11.5q-2 17 -3.5 37.5t-5.5 40.5zM395 1200q42 -71 21 -155q-9 -38 -30 -73.5t-52 -64.5q-41 -36 -91 -36q-43 0 -84 25t-64 66
q-35 64 -29 134t51 126q26 31 55 48q38 23 76 23q4 0 7.5 -0.5t7.5 -0.5q42 -5 80 -33q16 -11 29 -26.5t23 -32.5zM223 1103q-4 -22 1 -41t16 -23q2 -1 5 -1q9 0 17 14.5t10 34.5q2 17 -2.5 34t-15.5 19q-2 1 -5 1q-7 0 -14.5 -8.5t-11.5 -29.5z" />
    <glyph glyph-name="AE" unicode="&#xc6;" horiz-adv-x="846" 
d="M540 195q6 -16 12 -35t7.5 -38.5t-3 -40t-20.5 -39.5q0 -1 -1 -1q-18 -21 -43.5 -32.5t-51.5 -11.5q-14 0 -26 3h-1q-31 8 -51.5 24.5t-34.5 37t-22.5 44t-15.5 46.5q-5 17 -11 33q-1 0 -2 -0.5t-2 -0.5q-10 -4 -19.5 -7.5t-18.5 -8.5t-12.5 -8t-4.5 -4q2 -15 2.5 -32
t-2.5 -34q-6 -40 -32 -64q-28 -26 -68 -26h-3q-53 1 -85 39q-20 24 -28 56.5t-9 66t2.5 63.5t6.5 50q0 7 2 13q1 15 4.5 44.5t10.5 68t17.5 82.5t24.5 88q73 230 177 230q18 0 37 -8q31 -12 53.5 -40.5t40 -64t29.5 -75t22 -74.5q5 -16 9 -30.5t8 -25.5l18 -50t17 -50
q16 -47 32.5 -94t34.5 -94zM230 459q-3 15 -6 25t-5 15q-4 -6 -8.5 -22t-8.5 -49q-2 -25 -2.5 -50t-0.5 -43q23 11 41 24q0 5 -0.5 10.5t-0.5 11.5q-2 17 -3.5 37.5t-5.5 40.5zM848 137q10 -35 -0.5 -66.5t-39.5 -53.5v-1q-26 -18 -57 -18q-14 0 -28 3t-28 7
q-11 3 -21.5 5.5t-20.5 2.5q-3 1 -8 1q-14 0 -29 -2.5t-31 -6.5q-15 -3 -31 -6t-32 -4h-7q-65 0 -109 46q-26 28 -40 66t-12 79q1 23 7 42.5t13 37.5q5 13 9.5 25t6.5 25q6 38 1.5 76t-12.5 69q-25 109 -16 183q7 65 47 111q33 40 95 40q16 0 31.5 -2t29.5 -4l6 -1
q22 -3 48 -3q16 0 32 1t33 2h2h1q8 1 15.5 1.5t15.5 0.5q18 0 42.5 -4t44.5 -21q27 -24 30 -65q2 -41 -22 -68q-21 -23 -50 -28t-51 -5q-11 0 -21 0.5t-20 0.5q-6 1 -12 1h-11h-1q-6 1 -12 1.5t-14 1.5l-16 2t-16 1q-16 0 -23 -4t-10 -8q-7 -10 -8.5 -23.5t0 -29t5.5 -32
t9 -32.5q2 -7 3.5 -13.5t3.5 -13.5q13 9 30 21q23 16 46.5 29t51.5 13h11t10 -2q18 -4 32.5 -16t22.5 -29q9 -18 9 -38.5t-8 -37.5q-14 -31 -44 -51.5t-57 -33.5q-26 -11 -55.5 -20t-56.5 -13q-2 -6 -2 -9q-6 -18 -9 -36q-3 -19 -2 -23q0 -4 2 -6q1 -1 6 -1q14 0 34.5 8
t40.5 17q23 10 43.5 18t37.5 8q5 0 8 -1q44 -6 80 -39q17 -16 29 -35.5t18 -39.5z" />
    <glyph glyph-name="Ccedilla" unicode="&#xc7;" horiz-adv-x="503" 
d="M389 332q14 0 32 -8t37 -35q13 -18 22.5 -42.5t14.5 -49t5 -47.5t-6 -39q-21 -62 -88 -96q-29 -15 -61.5 -22.5t-67.5 -7.5q-23 0 -44.5 3t-40.5 11q-56 20 -96 64q-36 39 -58 95q-24 58 -31 116.5t-7 101.5q3 104 44 204q22 52 52 96t67 76v1q33 28 73.5 43.5t82.5 15.5
q60 0 107.5 -31t70.5 -86q10 -25 12 -53q3 -35 -12 -57q-6 -9 -18.5 -18t-35.5 -10h-3q-24 0 -46 6.5t-42 14.5q-11 5 -20.5 8.5t-20.5 5.5h-1q-6 3 -13 3q-14 0 -26 -9.5t-21.5 -24t-17 -30.5t-12.5 -29q-15 -42 -23 -82t-10 -60q-2 -18 0 -42.5t9 -47.5t18.5 -39.5
t29.5 -18.5h2q14 0 28 17.5t27 35.5q11 17 22.5 32t25.5 24q20 11 40 11zM367 12q6 -16 3.5 -34t-9 -36.5t-16.5 -36.5t-19 -34q-5 -9 -9.5 -17t-6.5 -13q-7 -15 -20 -39t-30 -48q-43 -59 -74 -59q-6 0 -15.5 3.5t-17.5 17.5q-14 11 -16 25q-5 20 7 38.5t25 35.5q4 4 6.5 8
t4.5 6q9 20 12 41t5 45l1 7q3 46 24 81q27 50 75 50q8 0 14.5 -1.5t14.5 -3.5q20 -6 29 -16.5t12 -19.5z" />
    <glyph glyph-name="Egrave" unicode="&#xc8;" horiz-adv-x="492" 
d="M494 137q10 -35 -0.5 -66.5t-39.5 -53.5v-1q-26 -18 -57 -18q-14 0 -28 3t-28 7q-11 3 -21.5 5.5t-20.5 2.5q-3 1 -8 1q-14 0 -29 -2.5t-31 -6.5q-15 -3 -31 -6t-32 -4h-7q-65 0 -109 46q-26 28 -40 66t-12 79q1 23 7 42.5t13 37.5q5 13 9.5 25t6.5 25q6 38 1.5 76
t-12.5 69q-25 109 -16 183q7 65 47 111q33 40 95 40q16 0 31.5 -2t29.5 -4l6 -1q22 -3 48 -3q16 0 32 1t33 2h2h1q8 1 15.5 1.5t15.5 0.5q18 0 42.5 -4t44.5 -21q27 -24 30 -65q2 -41 -22 -68q-21 -23 -50 -28t-51 -5q-11 0 -21 0.5t-20 0.5q-6 1 -12 1h-11h-1q-6 1 -12 1.5
t-14 1.5l-16 2t-16 1q-16 0 -23 -4t-10 -8q-7 -10 -8.5 -23.5t0 -29t5.5 -32t9 -32.5q2 -7 3.5 -13.5t3.5 -13.5q13 9 30 21q23 16 46.5 29t51.5 13h11t10 -2q18 -4 32.5 -16t22.5 -29q9 -18 9 -38.5t-8 -37.5q-14 -31 -44 -51.5t-57 -33.5q-26 -11 -55.5 -20t-56.5 -13
q-2 -6 -2 -9q-6 -18 -9 -36q-3 -19 -2 -23q0 -4 2 -6q1 -1 6 -1q14 0 34.5 8t40.5 17q23 10 43.5 18t37.5 8q5 0 8 -1q44 -6 80 -39q17 -16 29 -35.5t18 -39.5zM330 961q0 -41 -14 -59q-12 -17 -34 -17q-12 0 -25 6h-1q-15 8 -22 22t-12 27q-3 9 -6 15h-1q-7 13 -18.5 24
t-22.5 20h-1q-11 9 -19 23t-12.5 29t-4.5 30.5t5 28.5q14 39 57 39q5 0 9 -0.5t9 -1.5q43 -8 73 -59q13 -20 20.5 -41.5t12.5 -38.5q2 -8 4 -20.5t3 -26.5z" />
    <glyph glyph-name="Eacute" unicode="&#xc9;" horiz-adv-x="492" 
d="M494 137q10 -35 -0.5 -66.5t-39.5 -53.5v-1q-26 -18 -57 -18q-14 0 -28 3t-28 7q-11 3 -21.5 5.5t-20.5 2.5q-3 1 -8 1q-14 0 -29 -2.5t-31 -6.5q-15 -3 -31 -6t-32 -4h-7q-65 0 -109 46q-26 28 -40 66t-12 79q1 23 7 42.5t13 37.5q5 13 9.5 25t6.5 25q6 38 1.5 76
t-12.5 69q-25 109 -16 183q7 65 47 111q33 40 95 40q16 0 31.5 -2t29.5 -4l6 -1q22 -3 48 -3q16 0 32 1t33 2h2h1q8 1 15.5 1.5t15.5 0.5q18 0 42.5 -4t44.5 -21q27 -24 30 -65q2 -41 -22 -68q-21 -23 -50 -28t-51 -5q-11 0 -21 0.5t-20 0.5q-6 1 -12 1h-11h-1q-6 1 -12 1.5
t-14 1.5l-16 2t-16 1q-16 0 -23 -4t-10 -8q-7 -10 -8.5 -23.5t0 -29t5.5 -32t9 -32.5q2 -7 3.5 -13.5t3.5 -13.5q13 9 30 21q23 16 46.5 29t51.5 13h11t10 -2q18 -4 32.5 -16t22.5 -29q9 -18 9 -38.5t-8 -37.5q-14 -31 -44 -51.5t-57 -33.5q-26 -11 -55.5 -20t-56.5 -13
q-2 -6 -2 -9q-6 -18 -9 -36q-3 -19 -2 -23q0 -4 2 -6q1 -1 6 -1q14 0 34.5 8t40.5 17q23 10 43.5 18t37.5 8q5 0 8 -1q44 -6 80 -39q17 -16 29 -35.5t18 -39.5zM399 1189q6 -16 3.5 -34t-9 -36.5t-16.5 -36.5t-19 -34q-5 -9 -9.5 -17t-6.5 -13q-11 -24 -24.5 -48t-29 -44
t-33 -32.5t-36.5 -12.5q-16 0 -28 9q-11 6 -15.5 13.5t-6.5 14.5q-5 20 7 38.5t25 35.5q4 4 6.5 8t4.5 6q9 20 12 41t5 45l1 7q3 46 24 81q27 50 75 50q8 0 14.5 -1.5t14.5 -3.5q20 -6 29 -16.5t12 -19.5z" />
    <glyph glyph-name="Ecircumflex" unicode="&#xca;" horiz-adv-x="492" 
d="M116 1083q24 0 42.5 -9t31 -23.5t19 -32.5t6.5 -37q0 -34 -20 -63t-59 -36q-4 -2 -9 -2h-3h-14h-6h-2h-1q-2 1 -4 1t-4 1q-20 4 -34 12.5t-22 17.5q-26 28 -26 69q0 43 27 70q10 11 29 21.5t49 10.5zM364 1083q24 0 42.5 -9t31 -23.5t19 -32.5t6.5 -37q0 -34 -20 -63
t-59 -36q-4 -2 -9 -2h-3h-14h-6h-2h-1q-2 1 -4 1t-4 1q-20 4 -34 12.5t-22 17.5q-26 28 -26 69q0 43 27 70q10 11 29 21.5t49 10.5zM494 137q10 -35 -0.5 -66.5t-39.5 -53.5v-1q-26 -18 -57 -18q-14 0 -28 3t-28 7q-11 3 -21.5 5.5t-20.5 2.5q-3 1 -8 1q-14 0 -29 -2.5
t-31 -6.5q-15 -3 -31 -6t-32 -4h-7q-65 0 -109 46q-26 28 -40 66t-12 79q1 23 7 42.5t13 37.5q5 13 9.5 25t6.5 25q6 38 1.5 76t-12.5 69q-25 109 -16 183q7 65 47 111q33 40 95 40q16 0 31.5 -2t29.5 -4l6 -1q22 -3 48 -3q16 0 32 1t33 2h2h1q8 1 15.5 1.5t15.5 0.5
q18 0 42.5 -4t44.5 -21q27 -24 30 -65q2 -41 -22 -68q-21 -23 -50 -28t-51 -5q-11 0 -21 0.5t-20 0.5q-6 1 -12 1h-11h-1q-6 1 -12 1.5t-14 1.5l-16 2t-16 1q-16 0 -23 -4t-10 -8q-7 -10 -8.5 -23.5t0 -29t5.5 -32t9 -32.5q2 -7 3.5 -13.5t3.5 -13.5q13 9 30 21
q23 16 46.5 29t51.5 13h11t10 -2q18 -4 32.5 -16t22.5 -29q9 -18 9 -38.5t-8 -37.5q-14 -31 -44 -51.5t-57 -33.5q-26 -11 -55.5 -20t-56.5 -13q-2 -6 -2 -9q-6 -18 -9 -36q-3 -19 -2 -23q0 -4 2 -6q1 -1 6 -1q14 0 34.5 8t40.5 17q23 10 43.5 18t37.5 8q5 0 8 -1
q44 -6 80 -39q17 -16 29 -35.5t18 -39.5z" />
    <glyph glyph-name="Igrave" unicode="&#xcc;" horiz-adv-x="285" 
d="M240 261q10 -23 20.5 -47.5t16 -50.5t2.5 -52t-18 -50q-38 -61 -91 -61q-32 0 -68 25q-14 11 -25 22t-18 20q-40 48 -54 121q-12 62 -5 138q7 72 24.5 141t32.5 123q2 5 3.5 11t3.5 13q7 25 15.5 53.5t21.5 54.5t31.5 47t44.5 31q17 7 34 7q29 0 47 -23q16 -19 19 -51
q3 -27 -3 -52q-7 -28 -15.5 -54t-16.5 -51q-12 -36 -22.5 -70.5t-14.5 -69.5t0.5 -71t21.5 -76q3 -7 6 -13.5t7 -14.5zM239 958q0 -41 -14 -59q-12 -17 -34 -17q-12 0 -25 6h-1q-15 8 -22 22t-12 27q-3 9 -6 15h-1q-7 13 -18.5 24t-22.5 20h-1q-11 9 -19 23t-12.5 29
t-4.5 30.5t5 28.5q14 39 57 39q5 0 9 -0.5t9 -1.5q43 -8 73 -59q13 -20 20.5 -41.5t12.5 -38.5q2 -8 4 -20.5t3 -26.5z" />
    <glyph glyph-name="Iacute" unicode="&#xcd;" horiz-adv-x="285" 
d="M240 261q10 -23 20.5 -47.5t16 -50.5t2.5 -52t-18 -50q-38 -61 -91 -61q-32 0 -68 25q-14 11 -25 22t-18 20q-40 48 -54 121q-12 62 -5 138q7 72 24.5 141t32.5 123q2 5 3.5 11t3.5 13q7 25 15.5 53.5t21.5 54.5t31.5 47t44.5 31q17 7 34 7q29 0 47 -23q16 -19 19 -51
q3 -27 -3 -52q-7 -28 -15.5 -54t-16.5 -51q-12 -36 -22.5 -70.5t-14.5 -69.5t0.5 -71t21.5 -76q3 -7 6 -13.5t7 -14.5zM238 1189q6 -16 3.5 -34t-9 -36.5t-16.5 -36.5t-19 -34q-5 -9 -9.5 -17t-6.5 -13q-11 -24 -24.5 -48t-29 -44t-33 -32.5t-36.5 -12.5q-16 0 -28 9
q-11 6 -15.5 13.5t-6.5 14.5q-5 20 7 38.5t25 35.5q4 4 6.5 8t4.5 6q9 20 12 41t5 45l1 7q3 46 24 81q27 50 75 50q8 0 14.5 -1.5t14.5 -3.5q20 -6 29 -16.5t12 -19.5z" />
    <glyph glyph-name="Icircumflex" unicode="&#xce;" horiz-adv-x="322" 
d="M89 1077q24 0 42.5 -9t31 -23.5t19 -32.5t6.5 -37q0 -34 -20 -63t-59 -36q-4 -2 -9 -2h-3h-14h-6h-2h-1q-2 1 -4 1t-4 1q-20 4 -34 12.5t-22 17.5q-26 28 -26 69q0 43 27 70q10 11 29 21.5t49 10.5zM337 1077q24 0 42.5 -9t31 -23.5t19 -32.5t6.5 -37q0 -34 -20 -63
t-59 -36q-4 -2 -9 -2h-3h-14h-6h-2h-1q-2 1 -4 1t-4 1q-20 4 -34 12.5t-22 17.5q-26 28 -26 69q0 43 27 70q10 11 29 21.5t49 10.5zM240 261q10 -23 20.5 -47.5t16 -50.5t2.5 -52t-18 -50q-38 -61 -91 -61q-32 0 -68 25q-14 11 -25 22t-18 20q-40 48 -54 121q-12 62 -5 138
q7 72 24.5 141t32.5 123q2 5 3.5 11t3.5 13q7 25 15.5 53.5t21.5 54.5t31.5 47t44.5 31q17 7 34 7q29 0 47 -23q16 -19 19 -51q3 -27 -3 -52q-7 -28 -15.5 -54t-16.5 -51q-12 -36 -22.5 -70.5t-14.5 -69.5t0.5 -71t21.5 -76q3 -7 6 -13.5t7 -14.5z" />
    <glyph glyph-name="Idieresis" unicode="&#xcf;" horiz-adv-x="285" 
d="M240 261q10 -23 20.5 -47.5t16 -50.5t2.5 -52t-18 -50q-38 -61 -91 -61q-32 0 -68 25q-14 11 -25 22t-18 20q-40 48 -54 121q-12 62 -5 138q7 72 24.5 141t32.5 123q2 5 3.5 11t3.5 13q7 25 15.5 53.5t21.5 54.5t31.5 47t44.5 31q17 7 34 7q29 0 47 -23q16 -19 19 -51
q3 -27 -3 -52q-7 -28 -15.5 -54t-16.5 -51q-12 -36 -22.5 -70.5t-14.5 -69.5t0.5 -71t21.5 -76q3 -7 6 -13.5t7 -14.5zM74 1081q24 0 42.5 -9t31 -23.5t19 -32.5t6.5 -37q0 -34 -20 -63t-59 -36q-4 -2 -9 -2h-3h-14h-6h-2h-1q-2 1 -4 1t-4 1q-20 4 -34 12.5t-22 17.5
q-26 28 -26 69q0 43 27 70q10 11 29 21.5t49 10.5zM322 1081q24 0 42.5 -9t31 -23.5t19 -32.5t6.5 -37q0 -34 -20 -63t-59 -36q-4 -2 -9 -2h-3h-14h-6h-2h-1q-2 1 -4 1t-4 1q-20 4 -34 12.5t-22 17.5q-26 28 -26 69q0 43 27 70q10 11 29 21.5t49 10.5z" />
    </font>
</defs>
</svg>
