<?xml version="1.0" standalone="no"?>
<!DOCTYPE svg PUBLIC "-//W3C//DTD SVG 1.1//EN" "http://www.w3.org/Graphics/SVG/1.1/DTD/svg11.dtd" >
<svg xmlns="http://www.w3.org/2000/svg" xmlns:xlink="http://www.w3.org/1999/xlink" version="1.1">
<metadata>
Created by FontForge 20170910 at Tue May 29 11:04:15 2007
 By jimmywarting
Designed in 1986-2002 by Anatoly Kudryavtsev and licensed by ParaType. This type family belonges to Neogrotesque subclass of closed Sans Serif. Letterforms of lower case is based on the tradition of 1710 Civil type and some modern Italic types. The family has a lot of weights and styles including Extra Condensed, Condensed, Regular, Extra Light, Light, Bold, Extra Bold. For advertising and display matter. Also it can be used for texts in advertising magazines.
</metadata>
<defs>
<font id="Parangon530C" horiz-adv-x="710" >
  <font-face 
    font-family="Parangon 530C"
    font-weight="400"
    font-stretch="normal"
    units-per-em="1000"
    panose-1="2 11 8 3 3 5 2 2 2 4"
    ascent="800"
    descent="-200"
    x-height="500"
    cap-height="700"
    bbox="-20 -330 1487 850"
    underline-thickness="50"
    underline-position="-100"
    stemh="150"
    stemv="200"
    unicode-range="U+0020-FB02"
  />
<missing-glyph horiz-adv-x="233" 
 />
    <glyph glyph-name="fi" unicode="fi" horiz-adv-x="658" 
d="M374 500v-128h-130v-372h-194v464c0 58 1 133 63 186c57 49 144 50 206 50h289v-145h-194v17h-94c-21 0 -45 -1 -61 -17c-13 -13 -15 -30 -15 -44v-11h130zM608 0h-194v500h194v-500z" />
    <glyph glyph-name="fl" unicode="fl" horiz-adv-x="658" 
d="M374 500v-128h-130v-372h-194v464c0 58 1 133 63 186c57 49 144 50 206 50h289v-700h-194v572h-94c-21 0 -45 -1 -61 -17c-13 -13 -15 -30 -15 -44v-11h130z" />
    <glyph glyph-name=".notdef" horiz-adv-x="233" 
 />
    <glyph glyph-name="space" unicode=" " horiz-adv-x="233" 
 />
    <glyph glyph-name="exclam" unicode="!" horiz-adv-x="336" 
d="M65 700h206l-26 -490h-154zM71 172h194v-172h-194v172z" />
    <glyph glyph-name="quotedbl" unicode="&#x22;" horiz-adv-x="570" 
d="M55 700h180v-150l-52 -222h-76l-52 222v150zM335 700h180v-150l-52 -222h-76l-52 222v150z" />
    <glyph glyph-name="numbersign" unicode="#" horiz-adv-x="742" 
d="M276 700h121l-34 -174h83l34 174h121l-34 -174h120l-25 -126h-120l-17 -85h120l-25 -126h-120l-37 -189h-121l37 189h-83l-37 -189h-121l37 189h-120l25 126h120l17 85h-120l25 126h120zM321 315h83l17 85h-83z" />
    <glyph glyph-name="dollar" unicode="$" horiz-adv-x="706" 
d="M55 232h188v-19c0 -46 19 -71 32 -83c20 -18 53 -27 80 -27c23 0 59 5 78 19c16 12 30 32 28 64c-1 29 -13 43 -37 56c-22 12 -50 19 -120 35c-48 11 -115 24 -168 67c-42 35 -67 82 -65 145c3 84 51 130 83 151c40 27 93 40 137 42v78h112v-78c50 -4 104 -21 143 -48
c64 -45 95 -120 92 -198h-186v28c0 35 -14 63 -32 78c-18 16 -47 23 -73 23c-22 0 -45 -5 -61 -16c-23 -15 -28 -32 -29 -53c-1 -20 1 -40 25 -57c22 -16 52 -20 118 -36c78 -19 124 -33 158 -53c62 -35 94 -86 93 -164c-1 -61 -23 -122 -91 -163c-46 -28 -110 -40 -157 -41
v-77h-112v77c-48 3 -94 19 -130 43c-59 39 -107 112 -106 207z" />
    <glyph glyph-name="percent" unicode="%" horiz-adv-x="1080" 
d="M55 501c0 43 9 106 62 156c33 31 82 54 149 54c58 0 108 -16 149 -55c53 -50 62 -110 62 -155c0 -46 -9 -107 -62 -157c-48 -46 -101 -54 -149 -54s-101 8 -149 54c-53 50 -62 111 -62 157zM179 501c0 -28 3 -60 18 -84c12 -19 34 -38 69 -38s57 19 69 38
c15 24 18 56 18 84s-3 60 -18 84c-12 19 -34 38 -69 38s-57 -19 -69 -38c-15 -24 -18 -56 -18 -84zM727 700h126l-500 -700h-126zM603 200c0 43 9 106 62 156c33 31 82 54 149 54c58 0 108 -16 149 -55c53 -50 62 -110 62 -155c0 -46 -9 -107 -62 -157
c-48 -46 -101 -54 -149 -54s-101 8 -149 54c-53 50 -62 111 -62 157zM727 200c0 -28 3 -60 18 -84c12 -19 34 -38 69 -38s57 19 69 38c15 24 18 56 18 84s-3 60 -18 84c-12 19 -34 38 -69 38s-57 -19 -69 -38c-15 -24 -18 -56 -18 -84z" />
    <glyph glyph-name="ampersand" unicode="&#x26;" horiz-adv-x="627" 
d="M292 479l21 24c10 12 22 27 23 50c2 31 -18 53 -44 53s-46 -22 -44 -53c1 -23 13 -38 23 -50zM102 557c1 83 63 163 190 163s189 -80 190 -163c1 -66 -35 -111 -60 -136l-36 -36l261 -286l-99 -99l-256 291l-26 -31c-21 -25 -44 -54 -43 -89c1 -31 23 -69 77 -67
c17 0 42 6 65 27l84 -97c-45 -36 -93 -54 -170 -54c-179 0 -226 110 -224 181c2 84 57 135 107 188l34 36l-34 36c-25 26 -61 69 -60 136z" />
    <glyph glyph-name="quotesingle" unicode="'" horiz-adv-x="290" 
d="M55 700h180v-150l-52 -222h-76l-52 222v150z" />
    <glyph glyph-name="parenleft" unicode="(" horiz-adv-x="420" 
d="M365 812v-156c-23 -20 -55 -51 -84 -101c-44 -78 -55 -154 -55 -230c0 -91 16 -158 56 -230c26 -46 51 -76 83 -101v-156c-83 35 -147 87 -192 140c-88 104 -118 226 -118 347c0 168 60 278 118 347c45 53 109 105 192 140z" />
    <glyph glyph-name="parenright" unicode=")" horiz-adv-x="420" 
d="M55 812c83 -35 147 -87 192 -140c58 -69 118 -179 118 -347c0 -121 -30 -243 -118 -347c-45 -53 -109 -105 -192 -140v156c32 25 57 55 83 101c40 72 56 139 56 230c0 76 -11 152 -55 230c-29 50 -61 81 -84 101v156z" />
    <glyph glyph-name="asterisk" unicode="*" horiz-adv-x="470" 
d="M183 700h100v-105l101 34l31 -95l-100 -34l66 -86l-85 -62l-63 90l82 58l-32 95h-100l-32 -95l82 -58l-63 -89l-85 62l66 85l-96 32l31 95l97 -32v105z" />
    <glyph glyph-name="plus" unicode="+" 
d="M55 370h229v230h142v-230h229v-132h-229v-238h-142v238h-229v132z" />
    <glyph glyph-name="comma" unicode="," horiz-adv-x="304" 
d="M55 172h194v-162c0 -39 -11 -83 -24 -116c-14 -33 -36 -69 -55 -94h-114c22 27 53 72 67 100c10 21 23 56 25 100h-93v172z" />
    <glyph glyph-name="hyphen" unicode="-" horiz-adv-x="390" 
d="M55 345h280v-149h-280v149z" />
    <glyph glyph-name="period" unicode="." horiz-adv-x="304" 
d="M55 172h194v-172h-194v172z" />
    <glyph glyph-name="slash" unicode="/" horiz-adv-x="470" 
d="M320 750h150l-318 -900h-152z" />
    <glyph glyph-name="zero" unicode="0" horiz-adv-x="686" 
d="M45 345c0 65 9 165 62 245c55 83 135 120 237 120s181 -37 237 -120c55 -82 60 -177 60 -245c0 -67 -5 -163 -60 -245c-47 -69 -122 -120 -237 -120c-102 0 -182 38 -237 120c-53 80 -62 180 -62 245zM439 348c0 106 -6 139 -13 161c-13 42 -38 69 -83 69
s-70 -27 -83 -69c-7 -22 -13 -55 -13 -161s6 -139 13 -161c13 -42 38 -69 83 -69s70 27 83 69c7 22 13 55 13 161z" />
    <glyph glyph-name="one" unicode="1" horiz-adv-x="676" 
d="M96 555l390 155v-710h-194v481l-196 -79v153z" />
    <glyph glyph-name="two" unicode="2" horiz-adv-x="686" 
d="M265 434h-196v20c0 65 13 139 92 200c56 43 117 56 186 56c108 0 166 -33 186 -46c43 -29 88 -79 88 -165c0 -63 -22 -107 -64 -147c-9 -8 -38 -35 -132 -94l-116 -73c-14 -9 -25 -18 -30 -37h342v-148h-556v62c0 60 10 116 65 173c28 30 66 55 161 113
c53 32 82 51 103 74c23 26 28 46 28 72c0 19 -2 41 -20 59c-12 12 -31 21 -55 21c-34 0 -57 -17 -68 -35c-9 -14 -14 -36 -14 -81v-24z" />
    <glyph glyph-name="three" unicode="3" horiz-adv-x="686" 
d="M59 454c1 72 28 160 112 212c62 38 133 44 179 44c55 0 127 -9 180 -38c83 -45 97 -114 97 -157c0 -56 -25 -90 -45 -109c-30 -28 -67 -39 -76 -41c27 -8 63 -25 87 -48c26 -25 49 -64 48 -124c-1 -59 -22 -111 -75 -152c-65 -50 -151 -61 -220 -61
c-77 0 -142 12 -202 57c-80 60 -98 145 -99 203h204v-11c0 -25 2 -65 29 -91c21 -20 48 -24 68 -24c30 0 52 9 66 21c20 18 25 41 25 62c0 19 -2 44 -21 63c-14 14 -40 26 -70 26h-34v126h34c33 0 55 16 67 32c14 19 16 38 16 54c0 20 -4 42 -20 59c-10 11 -30 25 -64 25
c-26 0 -50 -9 -64 -23c-23 -23 -24 -55 -24 -76v-29h-198z" />
    <glyph glyph-name="four" unicode="4" horiz-adv-x="686" 
d="M335 690h206l-288 -392v-26h149v108h194v-380h-194v131h-332v201z" />
    <glyph glyph-name="five" unicode="5" horiz-adv-x="686" 
d="M108 690h488v-140h-350l-7 -128c39 30 80 45 140 45c66 -1 118 -20 161 -57c56 -47 82 -109 82 -186c0 -83 -31 -147 -90 -190c-65 -48 -146 -54 -192 -54c-58 0 -138 11 -201 70c-40 38 -70 94 -75 161h195c-1 -18 3 -38 11 -55c13 -27 35 -42 70 -42c30 0 54 11 69 40
c10 20 14 48 14 72c0 53 -14 77 -16 81c-11 19 -31 36 -67 37c-30 1 -48 -10 -62 -27h-193z" />
    <glyph glyph-name="six" unicode="6" horiz-adv-x="686" 
d="M527 572c-35 1 -99 -1 -146 -14c-54 -15 -95 -43 -121 -92c-12 -23 -19 -46 -19 -74c32 35 74 62 149 62c67 0 123 -22 162 -54c41 -34 80 -95 79 -182c-1 -59 -21 -132 -97 -186c-44 -31 -104 -52 -182 -52c-73 0 -133 19 -183 56c-59 44 -88 100 -103 168
c-17 77 -13 162 3 225c20 79 62 144 112 187c98 85 220 94 324 94h22v-138zM427 218c0 27 -7 56 -19 74c-7 11 -26 33 -63 33s-55 -22 -63 -33c-12 -18 -19 -47 -19 -74c-1 -28 5 -57 20 -79c16 -24 37 -33 62 -33c37 0 55 22 63 33c14 21 19 53 19 79z" />
    <glyph glyph-name="seven" unicode="7" horiz-adv-x="686" 
d="M83 690h510v-140c-119 -169 -174 -354 -177 -550h-203c21 189 85 375 210 550h-340v140z" />
    <glyph glyph-name="eight" unicode="8" horiz-adv-x="686" 
d="M249 202c0 -25 6 -45 23 -63c13 -14 35 -29 71 -29s58 15 71 29c20 21 23 42 23 63c0 22 -1 41 -23 63c-20 21 -44 29 -71 29c-36 0 -58 -15 -71 -29c-17 -18 -23 -38 -23 -63zM636 189c1 -66 -23 -115 -76 -153c-63 -46 -145 -56 -217 -56c-71 0 -154 10 -217 56
c-53 39 -76 89 -76 153c1 114 84 160 145 177c-72 20 -124 76 -123 158c1 48 19 109 95 150c52 29 114 36 176 36c59 0 123 -7 176 -36c76 -41 94 -103 95 -150c1 -82 -51 -138 -123 -158c61 -17 144 -63 145 -177zM259 500c0 -16 2 -43 21 -62c12 -12 32 -23 63 -23
c23 0 45 6 62 23c20 20 22 44 22 62c0 16 -2 43 -21 62c-12 12 -32 23 -63 23s-51 -11 -63 -23c-19 -19 -21 -46 -21 -62z" />
    <glyph glyph-name="nine" unicode="9" horiz-adv-x="686" 
d="M159 120c35 0 100 3 146 16c70 20 105 57 122 90c8 16 16 38 17 66c-30 -28 -74 -55 -148 -56c-66 -1 -124 22 -162 54c-41 34 -80 95 -79 182c1 59 21 132 97 186c44 31 104 52 182 52c73 0 133 -19 183 -56c59 -44 88 -100 103 -168c18 -79 13 -160 -4 -225
c-24 -93 -69 -151 -111 -187c-98 -85 -219 -94 -324 -94h-22v140zM425 479c0 23 -4 51 -20 74c-16 24 -37 33 -62 33s-46 -9 -62 -33c-16 -23 -20 -51 -20 -74c-1 -39 10 -64 20 -79c16 -24 37 -33 62 -33s46 9 62 33c10 15 21 40 20 79z" />
    <glyph glyph-name="colon" unicode=":" horiz-adv-x="304" 
d="M55 500h194v-172h-194v172zM55 172h194v-172h-194v172z" />
    <glyph glyph-name="semicolon" unicode=";" horiz-adv-x="304" 
d="M55 500h194v-172h-194v172zM55 172h194v-162c0 -39 -11 -83 -24 -116c-14 -33 -36 -69 -55 -94h-114c22 27 53 72 67 100c10 21 23 56 25 100h-93v172z" />
    <glyph glyph-name="semicolon" unicode="&#x37e;" horiz-adv-x="304" 
d="M55 500h194v-172h-194v172zM55 172h194v-162c0 -39 -11 -83 -24 -116c-14 -33 -36 -69 -55 -94h-114c22 27 53 72 67 100c10 21 23 56 25 100h-93v172z" />
    <glyph glyph-name="less" unicode="&#x3c;" horiz-adv-x="550" 
d="M55 396l440 204v-134l-338 -149v-26l338 -157v-134l-440 212v184z" />
    <glyph glyph-name="equal" unicode="=" 
d="M55 251h600v-126h-600v126zM55 475h600v-126h-600v126z" />
    <glyph glyph-name="greater" unicode="&#x3e;" horiz-adv-x="550" 
d="M55 600l440 -204v-184l-440 -212v134l338 157v26l-338 149v134z" />
    <glyph glyph-name="question" unicode="?" horiz-adv-x="610" 
d="M40 470c-3 66 20 127 54 167c65 77 164 83 214 83s117 -7 170 -39c40 -24 89 -71 92 -155c2 -50 -13 -100 -54 -143c-16 -17 -35 -31 -54 -45c-17 -13 -34 -25 -49 -41c-24 -26 -28 -46 -28 -72v-15h-184v15c0 45 7 85 48 130c18 20 38 36 58 53c12 10 24 21 34 33
c26 30 30 50 29 83c0 19 -3 37 -18 52c-11 11 -28 16 -43 16c-17 0 -37 -7 -48 -18c-10 -9 -21 -28 -21 -63v-41h-200zM196 160h194v-160h-194v160z" />
    <glyph glyph-name="at" unicode="@" horiz-adv-x="1024" 
d="M744 554v-227c0 -30 -1 -88 48 -85c64 4 103 169 48 292c-44 99 -171 186 -320 185c-204 -1 -370 -164 -370 -370c0 -203 167 -370 370 -370c75 0 156 24 225 77l58 -76c-112 -87 -231 -96 -283 -96c-257 0 -465 208 -465 465c0 258 205 464 465 465
c187 0 337 -102 404 -230c82 -156 63 -460 -184 -462c-59 0 -119 16 -149 71c-33 -47 -85 -67 -138 -67c-68 0 -114 31 -141 61c-31 35 -54 86 -54 160c0 52 11 111 54 159c28 31 72 61 141 61c34 0 94 -7 130 -65v52h161zM587 349c0 20 -1 48 -16 71c-16 25 -39 35 -66 35
s-50 -10 -66 -35c-15 -23 -16 -51 -16 -71c0 -21 1 -49 16 -72c16 -25 39 -35 66 -35s50 10 66 35c15 23 16 51 16 72z" />
    <glyph glyph-name="A" unicode="A" horiz-adv-x="780" 
d="M242 700h296l232 -700h-210l-45 153h-250l-45 -153h-210zM379 560l-72 -261h166l-72 261h-22z" />
    <glyph glyph-name="B" unicode="B" horiz-adv-x="705" 
d="M60 700h295c87 0 163 0 222 -35c41 -24 79 -68 81 -141c2 -76 -42 -136 -112 -159c40 -13 124 -54 124 -169c0 -92 -51 -139 -87 -160c-61 -36 -140 -36 -228 -36h-295v700zM258 294v-154h97c24 0 58 -2 83 13c27 17 32 44 32 65c0 20 -5 47 -32 63c-25 15 -59 13 -83 13
h-97zM258 565v-140h97c32 0 61 1 80 14c23 16 26 42 26 57c0 16 -3 40 -26 56s-55 13 -80 13h-97z" />
    <glyph glyph-name="C" unicode="C" horiz-adv-x="750" 
d="M514 280h206c-4 -106 -54 -176 -101 -218c-78 -69 -173 -82 -242 -82c-98 0 -185 27 -254 102c-78 84 -93 188 -93 268s15 184 93 268c69 74 156 102 254 102c129 0 205 -49 243 -83c35 -31 92 -100 97 -212h-204c-1 37 -14 75 -34 100c-17 21 -49 44 -100 44
c-54 0 -89 -25 -113 -65c-26 -44 -30 -100 -30 -151c0 -50 4 -108 30 -152c24 -40 59 -64 113 -65c52 -1 83 21 102 44c20 25 33 62 33 100z" />
    <glyph glyph-name="D" unicode="D" horiz-adv-x="730" 
d="M60 700h190c102 0 226 4 329 -77c66 -52 121 -138 121 -273s-55 -221 -121 -273c-103 -81 -229 -77 -319 -77h-200v700zM258 560v-415h27c46 0 108 -1 155 43c52 48 54 127 54 165c0 54 -7 120 -54 164c-49 46 -106 43 -155 43h-27z" />
    <glyph glyph-name="E" unicode="E" horiz-adv-x="635" 
d="M60 700h530v-145h-332v-123h314v-145h-314v-137h342v-150h-540v700z" />
    <glyph glyph-name="F" unicode="F" horiz-adv-x="600" 
d="M60 700h510v-145h-312v-137h289v-145h-289v-273h-198v700z" />
    <glyph glyph-name="G" unicode="G" horiz-adv-x="760" 
d="M341 390h389v-30c0 -82 -10 -182 -73 -264c-80 -103 -195 -117 -275 -116c-79 1 -176 16 -258 102c-79 83 -94 183 -94 268c0 84 15 185 94 268c81 85 183 102 258 102c110 0 182 -34 227 -68c60 -45 104 -110 114 -202h-198c-2 30 -13 61 -32 84c-26 31 -63 47 -111 45
c-60 -3 -99 -31 -123 -78c-12 -23 -26 -67 -26 -150c0 -49 5 -107 26 -147c20 -37 61 -77 131 -78c49 -1 83 19 102 39c13 14 40 47 37 101h-188v124z" />
    <glyph glyph-name="H" unicode="H" horiz-adv-x="760" 
d="M60 700h198v-256h244v256h198v-700h-198v287h-244v-287h-198v700z" />
    <glyph glyph-name="I" unicode="I" horiz-adv-x="362" 
d="M80 700h202v-700h-202v700z" />
    <glyph glyph-name="J" unicode="J" horiz-adv-x="395" 
d="M152 700h198v-442c0 -55 1 -107 -23 -160c-30 -64 -81 -90 -110 -101c-54 -20 -123 -17 -187 -17h-30v152h30c28 0 73 0 100 30c23 26 22 64 22 98v440z" />
    <glyph glyph-name="K" unicode="K" horiz-adv-x="730" 
d="M60 700h198v-262h91l154 262h215l-208 -329l210 -371h-228l-143 294h-91v-294h-198v700z" />
    <glyph glyph-name="L" unicode="L" horiz-adv-x="520" 
d="M60 700h198v-550h262v-150h-460v700z" />
    <glyph glyph-name="M" unicode="M" horiz-adv-x="1070" 
d="M50 0v382c0 68 -3 163 55 239c43 56 117 96 214 95c138 -2 197 -93 216 -128c47 86 127 127 216 128c96 1 170 -39 213 -95c60 -77 56 -170 56 -239v-382h-202v415c0 28 2 71 -19 103c-11 16 -34 39 -77 38c-36 -1 -58 -18 -71 -38c-21 -32 -19 -74 -19 -103v-415h-194
v415c0 29 2 71 -19 103c-13 20 -35 38 -71 38s-62 -16 -77 -38c-21 -31 -19 -73 -19 -103v-415h-202z" />
    <glyph glyph-name="N" unicode="N" horiz-adv-x="730" 
d="M50 0v385c0 83 6 177 90 254c46 43 120 79 225 79s179 -36 225 -79c84 -77 90 -171 90 -254v-385h-202v383c0 37 4 86 -16 124c-13 25 -42 57 -97 57c-56 0 -84 -33 -96 -56c-21 -39 -17 -90 -17 -125v-383h-202z" />
    <glyph glyph-name="O" unicode="O" horiz-adv-x="780" 
d="M30 350c0 137 51 222 103 273c45 44 125 97 257 97s212 -53 257 -97c52 -51 103 -136 103 -273s-51 -222 -103 -273c-45 -44 -125 -97 -257 -97s-212 53 -257 97c-52 51 -103 136 -103 273zM236 353c0 -71 12 -119 33 -152c14 -21 50 -65 121 -65s107 44 121 65
c21 33 33 81 33 152c0 70 -12 118 -33 151c-14 21 -50 65 -121 65s-107 -44 -121 -65c-21 -33 -33 -81 -33 -151z" />
    <glyph glyph-name="P" unicode="P" horiz-adv-x="670" 
d="M60 700h267c78 0 164 -5 230 -49c78 -52 93 -127 93 -193s-15 -141 -93 -193c-66 -44 -152 -49 -230 -49h-69v-216h-198v700zM258 560v-200h75c23 0 62 2 87 22c28 22 31 58 31 78s-3 56 -31 78c-25 20 -64 22 -87 22h-75z" />
    <glyph glyph-name="Q" unicode="Q" horiz-adv-x="787" 
d="M30 350c0 137 51 222 103 273c45 44 125 97 257 97s212 -53 257 -97c52 -51 103 -136 103 -273c0 -88 -19 -151 -52 -208l79 -68l-88 -98l-79 70c-56 -39 -122 -66 -220 -66c-132 0 -212 53 -257 97c-52 51 -103 136 -103 273zM236 353c0 -71 12 -119 33 -152
c14 -21 50 -65 121 -65s107 44 121 65c21 33 33 81 33 152c0 70 -12 118 -33 151c-14 21 -50 65 -121 65s-107 -44 -121 -65c-21 -33 -33 -81 -33 -151z" />
    <glyph glyph-name="R" unicode="R" horiz-adv-x="726" 
d="M60 700h291c72 0 144 0 204 -30c51 -26 110 -82 109 -183c-1 -72 -34 -116 -61 -140c-17 -15 -41 -30 -73 -37c24 -6 49 -20 68 -60l118 -250h-224l-66 186c-6 18 -21 42 -31 53c-19 20 -40 23 -61 23h-76v-262h-198v700zM258 560v-170h102c26 0 55 -2 78 18
c15 13 26 38 26 67s-11 54 -26 67c-23 20 -52 18 -78 18h-102z" />
    <glyph glyph-name="S" unicode="S" 
d="M35 244h204c-1 -40 12 -83 43 -107c21 -16 51 -24 81 -24c26 0 56 5 75 17c18 12 34 32 33 65c-1 30 -14 47 -38 60c-25 14 -57 20 -129 37c-62 15 -130 32 -178 70c-35 28 -73 78 -71 153c2 57 26 115 94 158s150 49 207 49c63 0 141 -7 211 -57
c77 -55 103 -135 102 -205h-200c1 23 0 78 -34 108c-24 21 -57 24 -83 24c-22 0 -45 -2 -65 -14c-23 -14 -30 -32 -32 -56c-1 -21 1 -41 25 -59c20 -15 50 -22 125 -39c60 -13 117 -24 169 -55c61 -36 102 -90 101 -173c-1 -78 -40 -132 -101 -169
c-70 -42 -153 -50 -219 -49c-62 1 -134 9 -199 51c-89 57 -117 148 -121 215z" />
    <glyph glyph-name="T" unicode="T" horiz-adv-x="600" 
d="M10 700h580v-145h-192v-555h-198v555h-190v145z" />
    <glyph glyph-name="U" unicode="U" horiz-adv-x="740" 
d="M50 700h203v-379c0 -46 -4 -87 16 -123c23 -43 64 -54 101 -54c25 0 75 5 102 55c18 34 15 76 15 122v379h203v-365c0 -100 -7 -197 -90 -275c-69 -65 -161 -78 -230 -78c-71 0 -160 11 -230 78c-83 79 -90 174 -90 275v365z" />
    <glyph glyph-name="V" unicode="V" horiz-adv-x="740" 
d="M10 700h205l144 -550h22l144 550h205l-212 -700h-296z" />
    <glyph glyph-name="W" unicode="W" horiz-adv-x="1080" 
d="M50 700h203v-415c0 -33 -2 -72 18 -102c21 -32 52 -37 76 -37s55 5 76 37c20 30 18 69 18 102v415h198v-415c0 -33 -2 -72 18 -102c21 -32 52 -37 76 -37s55 5 76 37c20 30 18 69 18 102v415h203v-382c0 -69 3 -161 -55 -239c-40 -54 -107 -96 -214 -95
c-49 0 -167 11 -221 136c-54 -125 -172 -136 -221 -136c-107 -1 -174 41 -214 95c-58 78 -55 170 -55 239v382z" />
    <glyph glyph-name="X" unicode="X" horiz-adv-x="754" 
d="M20 700h216l132 -268h18l136 268h212l-186 -330l196 -370h-222l-136 294h-18l-136 -294h-222l196 370z" />
    <glyph glyph-name="Y" unicode="Y" 
d="M10 700h212l133 -272l133 272h212l-244 -426v-274h-202v274z" />
    <glyph glyph-name="Z" unicode="Z" horiz-adv-x="650" 
d="M21 700h604v-165l-384 -385h394v-150h-620v166l384 389h-378v145z" />
    <glyph glyph-name="bracketleft" unicode="[" horiz-adv-x="390" 
d="M55 800h280v-130h-122v-685h122v-135h-280v950z" />
    <glyph glyph-name="backslash" unicode="\" horiz-adv-x="470" 
d="M0 750h150l320 -900h-152z" />
    <glyph glyph-name="bracketright" unicode="]" horiz-adv-x="390" 
d="M55 800h280v-950h-280v135h122v685h-122v130z" />
    <glyph glyph-name="asciicircum" unicode="^" horiz-adv-x="636" 
d="M233 700h170l183 -301h-162l-97 194h-18l-97 -194h-162z" />
    <glyph glyph-name="underscore" unicode="_" horiz-adv-x="660" 
d="M55 -220h550v-110h-550v110z" />
    <glyph glyph-name="grave" unicode="`" horiz-adv-x="334" 
d="M30 700h150l124 -160h-150z" />
    <glyph glyph-name="a" unicode="a" horiz-adv-x="668" 
d="M618 500v-500h-187l-7 65c-12 -22 -51 -81 -156 -81c-74 0 -131 29 -171 74c-36 40 -67 103 -67 192s31 152 67 192c40 45 97 74 171 74c69 0 124 -27 156 -79l7 63h187zM429 253c0 31 -4 62 -20 87c-18 28 -44 41 -78 41c-33 0 -60 -13 -79 -42c-18 -28 -20 -61 -20 -86
c0 -26 2 -59 20 -87c19 -29 46 -42 79 -42c34 0 60 13 78 41s20 64 20 88z" />
    <glyph glyph-name="b" unicode="b" horiz-adv-x="668" 
d="M240 253c0 -24 2 -60 20 -88s44 -41 78 -41c33 0 60 13 79 42c18 28 20 61 20 87c0 25 -2 58 -20 86c-19 29 -46 42 -79 42c-34 0 -60 -13 -78 -41c-16 -25 -20 -56 -20 -87zM50 700h194v-263c32 52 87 79 156 79c74 0 131 -29 171 -74c36 -40 67 -103 67 -192
s-31 -152 -67 -192c-41 -45 -96 -74 -171 -74c-42 0 -114 10 -156 81l-7 -65h-187v700z" />
    <glyph glyph-name="c" unicode="c" horiz-adv-x="642" 
d="M410 200h202c-11 -78 -51 -131 -95 -164c-60 -46 -130 -56 -191 -56c-98 0 -167 29 -213 71c-33 30 -83 92 -83 200c0 94 38 156 81 195c66 61 148 74 215 74c90 0 149 -26 186 -53c39 -29 83 -83 95 -163h-197c-1 19 -7 40 -18 56c-12 16 -33 33 -66 33
c-46 1 -68 -29 -77 -46c-14 -27 -17 -72 -17 -96c0 -27 3 -66 17 -93c21 -39 55 -46 77 -46c34 0 58 17 69 34c10 15 15 37 15 54z" />
    <glyph glyph-name="d" unicode="d" horiz-adv-x="668" 
d="M429 253c0 49 -11 74 -19 86c-12 19 -35 42 -79 42c-33 0 -60 -13 -79 -42c-18 -28 -20 -61 -20 -86c0 -26 2 -59 20 -87c19 -29 46 -42 79 -42c44 0 67 23 79 42c7 12 19 37 19 87zM618 700v-700h-187l-7 65c-42 -71 -114 -81 -155 -81c-76 0 -132 29 -172 74
c-36 40 -67 103 -67 192s31 152 67 192c40 45 96 75 172 74c40 0 113 -10 155 -79v263h194z" />
    <glyph glyph-name="e" unicode="e" horiz-adv-x="646" 
d="M418 170h194c-11 -53 -40 -94 -70 -120c-75 -67 -185 -70 -219 -70c-106 0 -170 35 -207 67c-44 38 -86 101 -86 203c0 58 13 139 86 203c67 58 147 67 207 67c53 0 146 -9 214 -76c39 -38 79 -105 79 -214v-10h-396c-1 -25 4 -57 15 -79c21 -41 56 -49 87 -49
c34 0 59 10 78 34c13 17 17 32 18 44zM323 413c-24 0 -52 -3 -76 -29c-10 -10 -25 -31 -27 -64h207c-2 33 -17 54 -27 64c-24 25 -52 29 -77 29z" />
    <glyph glyph-name="f" unicode="f" horiz-adv-x="366" 
d="M366 500v-128h-122v-376h-194v484c0 56 0 133 61 187c61 53 150 49 216 49h39v-128h-48c-21 0 -50 0 -66 -25c-10 -16 -8 -37 -8 -56v-7h122z" />
    <glyph glyph-name="g" unicode="g" horiz-adv-x="668" 
d="M429 253c0 49 -11 74 -19 86c-12 19 -35 42 -79 42c-33 0 -60 -13 -79 -42c-18 -28 -20 -61 -20 -86c0 -26 2 -59 20 -87c19 -29 46 -42 79 -42c44 0 67 23 79 42c7 12 19 37 19 87zM618 500v-500c0 -57 -9 -123 -66 -171s-128 -49 -197 -49h-52v129h35c22 0 53 3 71 25
c16 19 15 48 15 66v65c-42 -71 -114 -81 -156 -81c-75 0 -130 29 -171 74c-36 40 -67 103 -67 192s31 152 67 192c40 45 97 74 171 74c69 0 124 -27 156 -79l7 63h187z" />
    <glyph glyph-name="h" unicode="h" horiz-adv-x="626" 
d="M50 700h194v-263c15 23 32 37 41 44c32 23 75 35 116 35c68 0 122 -30 150 -68c37 -51 35 -118 35 -167v-281h-198v276c0 28 1 48 -6 65c-6 14 -21 35 -56 35c-28 0 -53 -13 -68 -38c-15 -26 -14 -52 -14 -78v-260h-194v700z" />
    <glyph glyph-name="i" unicode="i" horiz-adv-x="314" 
d="M60 500h194v-500h-194v500zM60 700h194v-145h-194v145z" />
    <glyph glyph-name="j" unicode="j" horiz-adv-x="314" 
d="M60 700h194v-145h-194v145zM60 500h194v-700h-194v700z" />
    <glyph glyph-name="k" unicode="k" horiz-adv-x="630" 
d="M50 700h194v-381h65l101 181h205l-142 -234l147 -266h-216l-95 205h-65v-205h-194v700z" />
    <glyph glyph-name="l" unicode="l" horiz-adv-x="314" 
d="M60 700h194v-700h-194v700z" />
    <glyph glyph-name="m" unicode="m" horiz-adv-x="886" 
d="M50 500h186l8 -65c38 70 101 83 141 83c33 0 99 -11 134 -84c43 71 101 84 147 84c49 0 114 -13 153 -86c27 -51 27 -115 27 -164v-268h-194v276c0 45 -3 58 -6 66c-5 13 -19 32 -48 32c-30 0 -42 -19 -47 -32c-4 -10 -6 -26 -6 -66v-276h-194v276c0 27 2 49 -5 66
c-9 25 -29 32 -44 32c-20 0 -40 -12 -50 -35c-8 -18 -8 -43 -8 -74v-265h-194v500z" />
    <glyph glyph-name="n" unicode="n" horiz-adv-x="626" 
d="M50 500h186l8 -65c5 9 18 28 40 45c27 21 67 35 115 36c94 1 138 -51 150 -68c37 -51 37 -118 37 -167v-281h-199v281c0 36 -3 56 -11 70c-13 22 -33 26 -49 26c-36 0 -56 -18 -68 -38c-13 -23 -15 -48 -15 -74v-265h-194v500z" />
    <glyph glyph-name="o" unicode="o" horiz-adv-x="656" 
d="M30 250c0 96 42 161 91 202c47 39 113 68 207 68s160 -29 207 -68c49 -41 91 -106 91 -202s-42 -161 -91 -202c-47 -39 -113 -68 -207 -68s-160 29 -207 68c-49 41 -91 106 -91 202zM232 253c0 -35 3 -67 16 -92c21 -41 57 -49 80 -49s59 8 80 49c13 25 16 57 16 92
c0 34 -3 65 -16 91c-21 41 -57 49 -80 49s-59 -8 -80 -49c-13 -26 -16 -57 -16 -91z" />
    <glyph glyph-name="p" unicode="p" horiz-adv-x="668" 
d="M239 253c0 -27 3 -61 19 -87c15 -25 40 -42 79 -42c33 0 60 13 79 42c18 28 20 61 20 87c0 25 -2 58 -20 86c-19 29 -46 42 -79 42c-39 0 -64 -17 -79 -42c-16 -26 -19 -60 -19 -86zM50 500h187l7 -63c37 61 105 77 156 77c73 0 132 -29 171 -72c36 -39 67 -104 67 -192
s-31 -153 -67 -192c-31 -34 -87 -72 -171 -72c-69 0 -124 27 -156 79v-265h-194v700z" />
    <glyph glyph-name="q" unicode="q" horiz-adv-x="668" 
d="M429 253c0 26 -3 60 -19 86c-15 25 -40 42 -79 42c-33 0 -60 -13 -79 -42c-18 -28 -20 -61 -20 -86c0 -26 2 -59 20 -87c19 -29 46 -42 79 -42c39 0 64 17 79 42c16 26 19 60 19 87zM618 500v-700h-194v265c-42 -71 -114 -81 -156 -81c-75 0 -130 29 -171 74
c-36 40 -67 103 -67 192s31 152 67 192c40 45 97 74 171 74c69 0 124 -27 156 -79l7 63h187z" />
    <glyph glyph-name="r" unicode="r" horiz-adv-x="446" 
d="M50 500h186l8 -65c8 16 21 34 36 47c26 23 64 35 99 34c32 -1 62 -14 67 -16v-180c-26 27 -71 53 -115 52c-42 -1 -62 -25 -72 -42c-15 -27 -15 -61 -15 -85v-245h-194v500z" />
    <glyph glyph-name="s" unicode="s" horiz-adv-x="590" 
d="M230 168v-12c0 -14 2 -32 19 -47c16 -14 35 -17 52 -17c14 0 30 1 42 10c14 10 17 23 17 35c0 26 -14 35 -36 43c-23 8 -52 13 -98 25c-62 17 -99 29 -125 49c-29 22 -54 61 -52 112c2 48 27 96 81 125c47 25 118 32 171 31c85 -1 133 -19 161 -34c63 -34 92 -92 94 -152
h-194v12c0 14 -1 34 -18 50c-13 12 -28 15 -43 15c-10 0 -28 -1 -41 -11c-7 -6 -16 -16 -16 -33c0 -19 10 -31 16 -36c13 -10 36 -16 81 -26c83 -19 118 -32 140 -43c55 -29 81 -70 79 -129c-2 -50 -25 -99 -93 -130c-20 -9 -67 -27 -166 -27c-62 0 -134 8 -188 44
c-64 43 -79 108 -83 146h200z" />
    <glyph glyph-name="t" unicode="t" horiz-adv-x="380" 
d="M10 500h83v70l194 100v-170h83v-126h-83v-374h-194v374h-83v126z" />
    <glyph glyph-name="u" unicode="u" horiz-adv-x="626" 
d="M40 500h199v-281c0 -25 0 -51 12 -70c6 -10 20 -25 48 -26c19 -1 49 5 68 38c13 23 15 48 15 74v265h194v-500h-186l-8 65c-5 -9 -18 -28 -40 -45c-27 -21 -67 -35 -115 -36c-94 -1 -138 51 -150 68c-37 51 -37 118 -37 167v281z" />
    <glyph glyph-name="v" unicode="v" horiz-adv-x="600" 
d="M10 500h204l78 -370h16l78 370h204l-144 -500h-292z" />
    <glyph glyph-name="w" unicode="w" horiz-adv-x="878" 
d="M40 500h198v-287c0 -27 -1 -41 4 -55c6 -18 22 -35 49 -35c26 0 43 16 50 35c5 14 4 29 4 55v287h188v-287c0 -26 -1 -41 4 -55c7 -19 24 -35 50 -35c27 0 43 17 49 35c5 14 4 28 4 55v287h198v-268c0 -53 -1 -111 -36 -164c-27 -41 -84 -88 -186 -86
c-43 1 -125 12 -177 96c-51 -84 -131 -95 -176 -96c-104 -2 -159 45 -187 86c-35 53 -36 111 -36 164v268z" />
    <glyph glyph-name="x" unicode="x" horiz-adv-x="630" 
d="M15 500h200l93 -181h14l93 181h200l-135 -234l140 -266h-211l-87 205h-14l-87 -205h-211l140 266z" />
    <glyph glyph-name="y" unicode="y" horiz-adv-x="610" 
d="M10 500h204l96 -374h10l76 374h204l-154 -546c-11 -40 -33 -110 -98 -147c-51 -29 -116 -27 -156 -27h-9v133h11c18 0 36 -1 50 6c29 14 35 46 40 65l4 16h-52c-56 0 -77 42 -88 76z" />
    <glyph glyph-name="z" unicode="z" horiz-adv-x="512" 
d="M15 500h475v-128l-235 -244h242v-128h-479v130l235 244h-238v126z" />
    <glyph glyph-name="braceleft" unicode="{" horiz-adv-x="470" 
d="M55 418h25c44 0 83 29 83 99v91c0 173 133 192 233 192h19v-140h-22c-66 0 -74 -45 -74 -87v-96c0 -63 -20 -108 -86 -133c66 -25 86 -70 86 -133v-129c0 -39 8 -87 74 -87h22v-145h-21c-93 0 -231 16 -231 196v125c0 54 -10 99 -82 99h-26v148z" />
    <glyph glyph-name="bar" unicode="|" horiz-adv-x="280" 
d="M65 750h150v-900h-150v900z" />
    <glyph glyph-name="braceright" unicode="}" horiz-adv-x="470" 
d="M55 800h19c100 0 233 -19 233 -192v-91c0 -70 39 -99 83 -99h25v-148h-26c-72 0 -82 -45 -82 -99v-125c0 -180 -138 -196 -231 -196h-21v145h22c66 0 74 48 74 87v129c0 63 20 108 86 133c-66 25 -86 70 -86 133v96c0 42 -8 87 -74 87h-22v140z" />
    <glyph glyph-name="asciitilde" unicode="~" 
d="M55 348c56 48 104 68 152 68c46 0 93 -18 148 -46c60 -30 108 -58 157 -58c43 0 88 21 143 80v-132c-56 -48 -104 -68 -152 -68c-46 0 -93 18 -148 46c-60 30 -108 58 -157 58c-43 0 -88 -21 -143 -80v132z" />
    <glyph glyph-name="nbspace" unicode="&#xa0;" horiz-adv-x="233" 
 />
    <glyph glyph-name="exclamdown" unicode="&#xa1;" horiz-adv-x="336" 
d="M91 490h154l26 -490h-206zM71 700h194v-172h-194v172z" />
    <glyph glyph-name="cent" unicode="&#xa2;" horiz-adv-x="684" 
d="M432 200h197c-10 -99 -68 -151 -88 -166c-58 -46 -128 -51 -144 -52v-182h-108v182c-70 5 -121 36 -154 67c-43 40 -81 105 -80 202c1 93 38 157 79 197c31 30 83 63 155 70v182h108v-182c54 -4 103 -24 138 -51c38 -29 81 -82 91 -163h-194c-1 21 -7 42 -16 57
c-13 20 -35 38 -73 36s-60 -21 -74 -50c-9 -19 -15 -47 -15 -96c0 -53 7 -78 14 -94c13 -29 36 -48 75 -49c42 -1 64 21 75 38c9 15 14 35 14 54z" />
    <glyph glyph-name="sterling" unicode="&#xa3;" horiz-adv-x="668" 
d="M55 379h74v92c0 59 10 132 70 187c51 46 116 56 172 56c57 0 120 -10 173 -56c65 -57 69 -125 69 -174v-14h-178v8c0 20 1 42 -7 62c-10 25 -29 37 -57 37s-47 -12 -57 -37c-8 -20 -7 -42 -7 -62v-99h204v-84h-204v-54c0 -35 2 -64 -30 -102h336v-139h-548v135
c40 6 64 32 64 77v83h-74v84z" />
    <glyph glyph-name="currency" unicode="&#xa4;" horiz-adv-x="686" 
d="M55 547l76 76l61 -61c49 34 91 44 147 44c61 0 105 -10 156 -44l61 61l75 -75l-62 -63c30 -47 45 -99 45 -151s-15 -105 -44 -151l61 -60l-76 -76l-61 61c-53 -35 -109 -48 -157 -48c-41 0 -93 11 -144 49l-62 -61l-75 75l59 60c-30 46 -45 99 -45 151s15 105 46 152z
M343 176c89 0 160 69 160 160c0 88 -71 159 -160 159c-91 0 -160 -70 -160 -159c0 -92 71 -160 160 -160z" />
    <glyph glyph-name="yen" unicode="&#xa5;" horiz-adv-x="770" 
d="M55 690h199l131 -221l131 221h199l-210 -316h179v-83h-203v-79h203v-83h-203v-129h-192v129h-203v83h203v79h-203v83h179z" />
    <glyph glyph-name="brokenbar" unicode="&#xa6;" horiz-adv-x="280" 
d="M65 750h150v-280h-150v280zM65 130h150v-280h-150v280z" />
    <glyph glyph-name="section" unicode="&#xa7;" horiz-adv-x="636" 
d="M290 268l64 -34c37 2 45 28 45 43c0 18 -14 41 -53 61l-64 34c-37 -2 -45 -28 -45 -43c0 -18 14 -41 53 -61zM539 543h-178v11c0 50 -26 57 -41 57c-19 0 -39 -11 -41 -36c-2 -27 12 -42 34 -53l136 -71c53 -28 128 -63 132 -156c2 -51 -22 -116 -101 -139
c50 -38 63 -89 63 -127c0 -84 -62 -169 -225 -169c-195 0 -226 130 -226 200h180v-15c0 -18 1 -59 43 -60c18 0 42 9 44 39c3 32 -16 47 -33 56l-139 75c-54 29 -128 66 -132 156c-2 51 23 115 99 139c-50 39 -57 90 -57 119c1 95 85 162 221 161c137 -1 221 -78 221 -178
v-9z" />
    <glyph glyph-name="dieresis" unicode="&#xa8;" horiz-adv-x="646" 
d="M108 700h168v-145h-168v145zM371 700h168v-145h-168v145z" />
    <glyph glyph-name="copyright" unicode="&#xa9;" horiz-adv-x="1040" 
d="M621 297h144c-7 -90 -58 -139 -72 -151c-52 -46 -120 -55 -171 -55c-60 0 -131 11 -187 72c-36 39 -67 102 -67 187c0 86 31 147 69 188c57 60 121 72 185 72c53 0 119 -10 170 -55c29 -25 67 -74 69 -151h-143c0 24 -7 55 -25 76c-15 18 -40 32 -73 32
c-41 0 -69 -19 -87 -54c-19 -36 -21 -84 -21 -105c0 -61 15 -95 21 -106c20 -38 47 -53 87 -54c27 -1 52 7 72 28c16 17 28 46 29 76zM55 349c0 258 207 465 465 465s465 -207 465 -465s-207 -465 -465 -465s-465 207 -465 465zM155 349c0 -202 163 -365 365 -365
s365 163 365 365s-163 365 -365 365s-365 -163 -365 -365z" />
    <glyph glyph-name="ordfeminine" unicode="&#xaa;" horiz-adv-x="444" 
d="M397 700v-171c0 -36 -6 -62 37 -64l-34 -91c-40 -3 -94 9 -119 54c-16 -21 -47 -51 -104 -51c-43 0 -81 18 -107 46c-33 37 -40 83 -40 121c0 39 7 83 40 120c22 24 56 45 107 46c27 1 69 -5 98 -49v39h122zM278 546c0 15 0 34 -12 53c-13 20 -29 27 -50 27
s-37 -7 -50 -27c-12 -19 -12 -38 -12 -53c0 -16 0 -37 12 -55c10 -16 26 -26 50 -26s40 10 50 26c12 18 12 39 12 55z" />
    <glyph glyph-name="guillemotleft" unicode="&#xab;" horiz-adv-x="590" 
d="M55 325l198 195v-173l-94 -83v-18l94 -93v-173l-198 195v150zM337 325l198 195v-173l-94 -83v-18l94 -93v-173l-198 195v150z" />
    <glyph glyph-name="logicalnot" unicode="&#xac;" horiz-adv-x="630" 
d="M55 332h520v-250h-123v127h-397v123z" />
    <glyph glyph-name="uni00AD" unicode="&#xad;" horiz-adv-x="390" 
d="M55 345h280v-149h-280v149z" />
    <glyph glyph-name="registered" unicode="&#xae;" horiz-adv-x="1040" 
d="M311 595h205c38 0 95 3 143 -21c23 -12 78 -47 76 -128c-1 -42 -18 -72 -43 -94c-11 -10 -28 -21 -52 -26c13 -2 34 -9 49 -43l82 -178h-157l-46 133c-5 13 -13 28 -21 37c-14 15 -27 16 -43 16h-53v-186h-140v490zM451 500v-119h73c15 0 37 2 53 15c15 13 18 28 18 44
c0 14 -3 31 -17 44c-16 15 -40 16 -56 16h-71zM55 349c0 258 207 465 465 465s465 -207 465 -465s-207 -465 -465 -465s-465 207 -465 465zM155 349c0 -202 163 -365 365 -365s365 163 365 365s-163 365 -365 365s-365 -163 -365 -365z" />
    <glyph glyph-name="degree" unicode="&#xb0;" horiz-adv-x="450" 
d="M55 544c0 95 76 170 170 170s170 -75 170 -170c0 -93 -75 -170 -170 -170s-170 77 -170 170zM155 544c0 -37 32 -70 70 -70s70 33 70 70c0 39 -33 71 -70 71s-70 -32 -70 -71z" />
    <glyph glyph-name="plusminus" unicode="&#xb1;" 
d="M55 132h600v-132h-600v132zM55 450h229v150h142v-150h229v-132h-229v-150h-142v150h-229v132z" />
    <glyph glyph-name="acute" unicode="&#xb4;" horiz-adv-x="590" 
d="M298 700h150l-118 -134h-150z" />
    <glyph glyph-name="mu" unicode="&#xb5;" horiz-adv-x="626" 
d="M50 500h194v-265c0 -22 3 -53 15 -74c10 -17 28 -36 64 -38c32 -1 49 13 57 31c8 17 7 36 7 65v281h199v-281c0 -49 2 -116 -35 -167c-28 -38 -81 -69 -152 -68c-56 1 -93 20 -115 36c-20 15 -32 31 -40 43v-263h-194v700z" />
    <glyph glyph-name="paragraph" unicode="&#xb6;" horiz-adv-x="670" 
d="M615 700v-105h-62v-795h-151v795h-110v-375c-89 -2 -144 40 -169 65c-33 33 -68 89 -68 175c0 76 27 131 68 172c66 65 135 68 214 68h278z" />
    <glyph glyph-name="periodcentered" unicode="&#xb7;" horiz-adv-x="304" 
d="M55 352h194v-172h-194v172z" />
    <glyph glyph-name="ordmasculine" unicode="&#xba;" horiz-adv-x="436" 
d="M30 543c0 69 33 109 58 130c43 35 94 40 130 40s87 -5 130 -40c25 -21 58 -61 58 -130c0 -68 -32 -108 -58 -129c-31 -25 -76 -41 -130 -41s-99 16 -130 41c-26 21 -58 61 -58 129zM159 545c0 -20 1 -38 7 -53c13 -34 40 -38 52 -38s39 4 52 38c6 15 7 33 7 53
s-1 38 -7 53c-13 34 -40 38 -52 38s-39 -4 -52 -38c-6 -15 -7 -33 -7 -53z" />
    <glyph glyph-name="guillemotright" unicode="&#xbb;" horiz-adv-x="590" 
d="M337 520l198 -199v-142l-198 -199v173l94 97v10l-94 87v173zM55 520l198 -199v-142l-198 -199v173l94 97v10l-94 87v173z" />
    <glyph glyph-name="questiondown" unicode="&#xbf;" horiz-adv-x="610" 
d="M570 230c3 -66 -20 -127 -54 -167c-65 -77 -164 -83 -214 -83s-117 7 -170 39c-40 24 -89 71 -92 155c-2 50 13 100 54 143c16 17 35 31 54 45c17 13 34 25 49 41c24 26 28 46 28 72v15h184v-15c0 -45 -7 -85 -48 -130c-18 -20 -38 -36 -58 -53c-12 -10 -24 -21 -34 -33
c-26 -30 -30 -50 -29 -83c0 -19 3 -37 18 -52c11 -11 28 -16 43 -16c17 0 37 7 48 18c10 9 21 28 21 63v41h200zM414 540h-194v160h194v-160z" />
    <glyph glyph-name="AE" unicode="&#xc6;" horiz-adv-x="1120" 
d="M242 700h631l47 -145h-335l42 -125h325l47 -145h-325l46 -135h339l51 -150h-550l-42 143h-256l-42 -143h-210zM307 299h166l-72 247h-22z" />
    <glyph glyph-name="multiply" unicode="&#xd7;" horiz-adv-x="660" 
d="M55 488l91 91l184 -184l184 184l91 -91l-184 -184l184 -184l-91 -91l-184 184l-184 -184l-91 91l184 184z" />
    <glyph glyph-name="ae" unicode="&#xe6;" horiz-adv-x="1068" 
d="M616 500v-63c15 21 62 81 165 83c66 1 136 -27 183 -76c69 -73 74 -172 74 -214v-10h-392c-2 -24 2 -54 15 -77c19 -35 48 -47 84 -47c23 0 54 5 75 34c4 5 15 23 15 50h200c-7 -58 -35 -101 -65 -130c-35 -35 -94 -72 -182 -70c-98 2 -144 44 -172 85v-65h-194v65
c-42 -75 -125 -81 -157 -81c-83 0 -137 38 -169 74c-52 58 -66 129 -66 192s14 134 66 192c33 36 86 74 169 74c69 0 124 -27 157 -79v63h194zM427 253c0 25 -2 58 -20 86c-19 29 -46 42 -79 42s-60 -13 -79 -42c-18 -28 -20 -61 -20 -86c0 -26 2 -59 20 -87
c19 -29 46 -42 79 -42s60 13 79 42c18 28 20 61 20 87zM745 409c-40 0 -62 -16 -73 -28c-13 -14 -24 -36 -25 -61h196c-1 25 -12 47 -25 61c-11 12 -33 28 -73 28z" />
    <glyph glyph-name="divide" unicode="&#xf7;" 
d="M271 600h168v-167h-168v167zM271 167h168v-167h-168v167zM55 370h600v-132h-600v132z" />
    <glyph glyph-name="OE" unicode="&#x152;" horiz-adv-x="1146" 
d="M40 350c0 79 15 188 100 275c39 40 118 99 243 95c114 -4 160 -52 184 -85v65h529v-145h-331v-125h321v-145h-321v-135h341v-150h-539v62c-24 -32 -71 -81 -186 -82c-100 -1 -185 39 -241 95c-52 52 -100 137 -100 275zM243 351c0 -48 4 -106 35 -155
c22 -34 63 -70 127 -70c45 0 95 20 127 70c25 39 35 99 35 155c0 55 -10 116 -35 157c-22 35 -63 71 -127 71c-36 0 -89 -12 -127 -71c-33 -51 -35 -109 -35 -157z" />
    <glyph glyph-name="oe" unicode="&#x153;" horiz-adv-x="1053" 
d="M30 250c0 97 39 164 89 207c37 32 99 67 191 63c100 -4 162 -45 208 -118c51 77 117 118 232 118c69 0 137 -17 194 -76c73 -76 79 -169 79 -214v-10h-392c-2 -24 2 -54 15 -77c19 -35 48 -47 84 -47c23 0 54 5 75 34c4 5 15 23 15 50h200c-10 -58 -40 -101 -72 -130
c-67 -61 -147 -70 -199 -70c-116 0 -180 41 -231 108c-47 -65 -107 -105 -210 -108c-52 -1 -124 8 -189 63c-52 45 -89 111 -89 207zM229 251c0 -43 6 -69 13 -85c19 -44 53 -54 81 -54s62 10 81 54c7 16 13 42 13 85c0 46 -7 71 -12 84c-18 47 -54 58 -82 58
s-64 -11 -82 -58c-5 -13 -12 -38 -12 -84zM730 409c-40 0 -62 -16 -73 -28c-13 -14 -24 -36 -25 -61h196c-1 25 -12 47 -25 61c-11 12 -33 28 -73 28z" />
    <glyph glyph-name="florin" unicode="&#x192;" horiz-adv-x="490" 
d="M55 500h108v10c0 46 0 112 52 160c52 49 130 50 195 50h25v-128h-34c-23 0 -55 -1 -69 -28c-8 -14 -6 -34 -6 -53v-11h109v-128h-108v-377c0 -32 -3 -115 -65 -168c-53 -44 -130 -47 -189 -47h-18v133h27c36 0 54 15 60 21c10 10 21 28 21 61v377h-108v128z" />
    <glyph glyph-name="circumflex" unicode="&#x2c6;" horiz-adv-x="500" 
d="M154 700h192l124 -160h-150l-70 104l-70 -104h-150z" />
    <glyph glyph-name="anoteleia" unicode="&#x387;" horiz-adv-x="304" 
d="M55 352h194v-172h-194v172z" />
    <glyph glyph-name="Delta" unicode="&#x394;" horiz-adv-x="724" 
d="M214 700h296l204 -550v-150h-704v150zM351 548l-140 -398h302l-140 398h-22z" />
    <glyph glyph-name="Delta" unicode="&#x2206;" horiz-adv-x="724" 
d="M214 700h296l204 -550v-150h-704v150zM351 548l-140 -398h302l-140 398h-22z" />
    <glyph glyph-name="Omega" unicode="&#x3a9;" horiz-adv-x="780" 
d="M58 150h178v20c-128 26 -195 129 -196 251c-1 111 47 183 105 228c81 63 181 71 245 71c108 0 189 -25 244 -67c37 -28 108 -98 106 -232c-2 -113 -62 -222 -196 -251v-20h178v-150h-298v263c77 14 113 77 112 158c-1 37 -7 79 -40 115c-29 31 -64 43 -106 43
c-40 0 -75 -10 -104 -41c-34 -36 -41 -82 -42 -117c-3 -131 91 -154 112 -158v-263h-298v150z" />
    <glyph glyph-name="Omega" unicode="&#x2126;" horiz-adv-x="780" 
d="M58 150h178v20c-128 26 -195 129 -196 251c-1 111 47 183 105 228c81 63 181 71 245 71c108 0 189 -25 244 -67c37 -28 108 -98 106 -232c-2 -113 -62 -222 -196 -251v-20h178v-150h-298v263c77 14 113 77 112 158c-1 37 -7 79 -40 115c-29 31 -64 43 -106 43
c-40 0 -75 -10 -104 -41c-34 -36 -41 -82 -42 -117c-3 -131 91 -154 112 -158v-263h-298v150z" />
    <glyph glyph-name="mu1" unicode="&#x3bc;" horiz-adv-x="626" 
d="M50 500h194v-265c0 -22 3 -53 15 -74c10 -17 28 -36 64 -38c32 -1 49 13 57 31c8 17 7 36 7 65v281h199v-281c0 -49 2 -116 -35 -167c-28 -38 -81 -69 -152 -68c-56 1 -93 20 -115 36c-20 15 -32 31 -40 43v-263h-194v700z" />
    <glyph glyph-name="pi" unicode="&#x3c0;" horiz-adv-x="674" 
d="M10 500h654v-132h-64v-368h-194v364h-138v-364h-194v368h-64v132z" />
    <glyph glyph-name="afii10023" unicode="&#x401;" horiz-adv-x="635" 
d="M60 700h530v-145h-332v-123h314v-145h-314v-137h342v-150h-540v700zM101 850h168v-100h-168v100zM387 850h168v-100h-168v100z" />
    <glyph glyph-name="afii10051" unicode="&#x402;" horiz-adv-x="845" 
d="M10 700h568v-145h-190v-117h86c78 0 161 2 226 -35c33 -19 100 -71 100 -184s-67 -165 -100 -184c-64 -37 -141 -35 -225 -35h-32v141h32c39 0 68 0 88 11c18 10 37 32 37 68s-19 58 -37 68c-20 11 -49 11 -88 11h-87v-299h-198v555h-180v145z" />
    <glyph glyph-name="afii10052" unicode="&#x403;" horiz-adv-x="535" 
d="M55 700h500v-150h-302v-550h-198v700zM297 850h163l-96 -120h-164z" />
    <glyph glyph-name="afii10053" unicode="&#x404;" horiz-adv-x="770" 
d="M448 421v-138h-205c-1 -40 13 -81 35 -108c16 -19 49 -46 108 -47c41 -1 74 11 102 41c23 25 41 64 41 111h206c-6 -107 -57 -178 -106 -220c-75 -65 -164 -80 -237 -80c-80 0 -181 17 -262 102c-80 84 -95 188 -95 268c0 79 15 185 95 268c48 50 133 103 262 102
c105 0 180 -36 231 -79c45 -38 100 -107 109 -216h-205c-1 38 -14 76 -35 103c-27 34 -61 49 -106 49c-30 0 -74 -6 -108 -46c-24 -29 -37 -70 -35 -110h205z" />
    <glyph glyph-name="afii10054" unicode="&#x405;" 
d="M35 244h204c-1 -40 12 -83 43 -107c21 -16 51 -24 81 -24c26 0 56 5 75 17c18 12 34 32 33 65c-1 30 -14 47 -38 60c-25 14 -57 20 -129 37c-62 15 -130 32 -178 70c-35 28 -73 78 -71 153c2 56 26 116 94 158s150 47 207 47c63 0 144 -9 211 -55
c66 -46 103 -121 102 -205h-200c1 23 0 78 -34 108c-24 21 -57 24 -83 24c-22 0 -45 -2 -65 -14c-23 -14 -30 -32 -32 -56c-1 -21 1 -41 25 -59c20 -15 50 -22 125 -39c60 -13 117 -24 169 -55c61 -36 102 -90 101 -173c-1 -50 -18 -120 -101 -169
c-77 -45 -179 -48 -219 -47c-54 1 -129 8 -195 49c-93 57 -121 148 -125 215z" />
    <glyph glyph-name="afii10055" unicode="&#x406;" horiz-adv-x="332" 
d="M65 700h202v-700h-202v700z" />
    <glyph glyph-name="afii10056" unicode="&#x407;" horiz-adv-x="476" 
d="M137 700h202v-700h-202v700zM10 850h188v-120h-188v120zM278 850h188v-120h-188v120z" />
    <glyph glyph-name="afii10057" unicode="&#x408;" horiz-adv-x="395" 
d="M152 700h198v-442c0 -50 -1 -111 -23 -160c-22 -48 -62 -84 -110 -101c-55 -20 -126 -17 -197 -17h-20v152h30c28 0 73 0 100 30c23 26 22 64 22 98v440z" />
    <glyph glyph-name="afii10058" unicode="&#x409;" horiz-adv-x="1122" 
d="M237 700h296l74 -229h171c75 0 151 1 221 -41c49 -29 108 -88 108 -194c0 -94 -47 -161 -108 -196c-66 -38 -149 -40 -232 -40h-223l-148 548h-22l-148 -548h-216zM714 142h67c26 0 63 2 89 20c16 11 37 33 37 74s-21 63 -37 74c-26 18 -63 20 -89 20h-128z" />
    <glyph glyph-name="afii10059" unicode="&#x40a;" horiz-adv-x="1103" 
d="M55 700h198v-259h234v259h198v-259h73c71 0 153 1 221 -41c51 -32 94 -86 94 -179c0 -104 -54 -157 -94 -181c-64 -39 -153 -40 -232 -40h-260v300h-234v-300h-198v700zM685 300v-158h76c30 0 61 2 83 15c26 16 31 39 31 64c0 14 -3 42 -26 61c-25 20 -62 18 -88 18h-76z
" />
    <glyph glyph-name="afii10060" unicode="&#x40b;" horiz-adv-x="855" 
d="M10 700h568v-145h-190v-148c23 22 44 34 71 44c36 14 70 20 103 20c92 1 163 -41 201 -95c48 -68 47 -157 47 -208v-168h-203v145c0 54 -2 82 -11 105c-23 61 -78 65 -94 65c-48 1 -82 -28 -98 -60c-15 -31 -16 -71 -16 -110v-145h-198v555h-180v145z" />
    <glyph glyph-name="afii10061" unicode="&#x40c;" horiz-adv-x="735" 
d="M60 700h198v-262h91l154 262h215l-208 -329l210 -371h-228l-143 294h-91v-294h-198v700zM369 850h163l-96 -120h-164z" />
    <glyph glyph-name="afii10062" unicode="&#x40e;" horiz-adv-x="690" 
d="M10 700h212l114 -387h20l112 387h212l-169 -501c-22 -66 -55 -151 -133 -191c-31 -16 -75 -26 -152 -26h-14v151h21c33 0 68 4 85 52l5 14h-56c-53 0 -85 26 -98 62zM126 850h134c3 -10 9 -18 17 -25c18 -16 40 -23 66 -23c40 0 60 17 66 22c6 6 13 14 17 26h134
c-16 -46 -43 -76 -64 -93c-50 -41 -106 -49 -153 -49c-55 0 -106 10 -153 50c-25 21 -49 52 -64 92z" />
    <glyph glyph-name="afii10145" unicode="&#x40f;" horiz-adv-x="750" 
d="M55 700h203v-573h234v573h203v-700h-229v-200h-182v200h-229v700z" />
    <glyph glyph-name="afii10017" unicode="&#x410;" horiz-adv-x="780" 
d="M242 700h296l232 -700h-210l-45 153h-250l-45 -153h-210zM379 560l-72 -261h166l-72 261h-22z" />
    <glyph glyph-name="afii10018" unicode="&#x411;" horiz-adv-x="700" 
d="M60 700h558v-143h-360v-119h86c78 0 161 2 226 -35c33 -19 100 -71 100 -184s-67 -165 -100 -184c-65 -37 -148 -35 -226 -35h-284v700zM258 301v-158h87c39 0 68 0 88 11c18 10 37 32 37 68s-19 58 -37 68c-20 11 -49 11 -88 11h-87z" />
    <glyph glyph-name="afii10019" unicode="&#x412;" horiz-adv-x="700" 
d="M60 700h295c87 0 163 0 222 -35c41 -24 79 -68 81 -141c2 -76 -42 -136 -112 -159c40 -13 124 -54 124 -169c0 -92 -51 -139 -87 -160c-61 -36 -140 -36 -228 -36h-295v700zM258 294v-154h97c24 0 58 -2 83 13c27 17 32 44 32 65c0 20 -5 47 -32 63c-25 15 -59 13 -83 13
h-97zM258 565v-140h97c32 0 61 1 80 14c23 16 26 42 26 57c0 16 -3 40 -26 56s-55 13 -80 13h-97z" />
    <glyph glyph-name="afii10020" unicode="&#x413;" horiz-adv-x="510" 
d="M60 700h490v-145h-292v-555h-198v700z" />
    <glyph glyph-name="afii10021" unicode="&#x414;" horiz-adv-x="712" 
d="M210 700h292l200 -550v-150h-692v150zM345 556l-134 -406h290l-134 406h-22z" />
    <glyph glyph-name="afii10022" unicode="&#x415;" horiz-adv-x="635" 
d="M60 700h530v-145h-332v-123h314v-145h-314v-137h342v-150h-540v700z" />
    <glyph glyph-name="afii10024" unicode="&#x416;" horiz-adv-x="1058" 
d="M12 700h213l128 -270h79v270h194v-270h79l128 270h213l-181 -329l183 -371h-218l-125 296h-79v-296h-194v296h-79l-125 -296h-218l183 371z" />
    <glyph glyph-name="afii10025" unicode="&#x417;" 
d="M308 425h47c22 0 64 1 87 23c8 8 22 25 21 59c-1 40 -20 60 -33 68c-18 12 -47 17 -66 17c-28 0 -59 -9 -78 -24c-37 -29 -42 -78 -41 -108h-200c3 84 43 160 117 207c80 51 178 53 207 53c119 0 188 -41 203 -50c73 -45 90 -106 91 -153c2 -72 -38 -132 -108 -152
c74 -25 121 -88 120 -170c-1 -53 -21 -120 -100 -167c-69 -41 -154 -48 -213 -48c-92 1 -160 21 -207 52c-59 39 -115 118 -120 212h204c-1 -39 9 -82 46 -109c27 -20 55 -22 79 -22c23 0 53 4 75 21c18 14 32 38 32 69s-13 56 -29 69c-26 21 -69 22 -87 22h-47v131z" />
    <glyph glyph-name="afii10026" unicode="&#x418;" horiz-adv-x="760" 
d="M60 700h198v-329l244 149v180h198v-700h-198v349l-244 -149v-200h-198v700z" />
    <glyph glyph-name="afii10027" unicode="&#x419;" horiz-adv-x="760" 
d="M60 700h198v-329l244 149v180h198v-700h-198v349l-244 -149v-200h-198v700zM163 850h134c3 -10 9 -18 17 -25c18 -16 40 -23 66 -23c40 0 60 17 66 22c6 6 13 14 17 26h134c-16 -46 -43 -76 -64 -93c-50 -41 -106 -49 -153 -49c-55 0 -106 10 -153 50
c-25 21 -49 52 -64 92z" />
    <glyph glyph-name="afii10028" unicode="&#x41a;" horiz-adv-x="730" 
d="M60 700h198v-262h91l154 262h215l-208 -329l210 -371h-228l-143 294h-91v-294h-198v700z" />
    <glyph glyph-name="afii10029" unicode="&#x41b;" horiz-adv-x="770" 
d="M237 700h296l227 -700h-210l-154 555h-22l-154 -555h-210z" />
    <glyph glyph-name="afii10030" unicode="&#x41c;" horiz-adv-x="866" 
d="M60 700h204l169 -225l169 225h204v-700h-194v492l-179 -243l-179 243v-492h-194v700z" />
    <glyph glyph-name="afii10031" unicode="&#x41d;" horiz-adv-x="760" 
d="M60 700h198v-256h244v256h198v-700h-198v287h-244v-287h-198v700z" />
    <glyph glyph-name="afii10032" unicode="&#x41e;" horiz-adv-x="780" 
d="M30 350c0 137 51 222 103 273c45 44 125 97 257 97s212 -53 257 -97c52 -51 103 -136 103 -273s-51 -222 -103 -273c-45 -44 -125 -97 -257 -97s-212 53 -257 97c-52 51 -103 136 -103 273zM236 353c0 -71 12 -119 33 -152c14 -21 50 -65 121 -65s107 44 121 65
c21 33 33 81 33 152c0 70 -12 118 -33 151c-14 21 -50 65 -121 65s-107 -44 -121 -65c-21 -33 -33 -81 -33 -151z" />
    <glyph glyph-name="afii10033" unicode="&#x41f;" horiz-adv-x="760" 
d="M60 700h640v-700h-198v542h-244v-542h-198v700z" />
    <glyph glyph-name="afii10034" unicode="&#x420;" horiz-adv-x="670" 
d="M60 700h267c78 0 164 -5 230 -49c78 -52 93 -127 93 -193s-15 -141 -93 -193c-66 -44 -152 -49 -230 -49h-69v-216h-198v700zM258 560v-200h75c23 0 62 2 87 22c28 22 31 58 31 78s-3 56 -31 78c-25 20 -64 22 -87 22h-75z" />
    <glyph glyph-name="afii10035" unicode="&#x421;" horiz-adv-x="750" 
d="M514 280h206c-4 -106 -54 -176 -101 -218c-78 -69 -173 -82 -242 -82c-98 0 -185 27 -254 102c-78 84 -93 188 -93 268s15 184 93 268c69 74 156 102 254 102c129 0 205 -49 243 -83c35 -31 92 -100 97 -212h-204c-1 37 -14 75 -34 100c-17 21 -49 44 -100 44
c-54 0 -89 -25 -113 -65c-26 -44 -30 -100 -30 -151c0 -50 4 -108 30 -152c24 -40 59 -64 113 -65c52 -1 83 21 102 44c20 25 33 62 33 100z" />
    <glyph glyph-name="afii10036" unicode="&#x422;" horiz-adv-x="600" 
d="M10 700h580v-145h-192v-555h-198v555h-190v145z" />
    <glyph glyph-name="afii10037" unicode="&#x423;" horiz-adv-x="690" 
d="M10 700h212l114 -387h20l112 387h212l-169 -501c-22 -66 -55 -151 -133 -191c-31 -16 -75 -26 -152 -26h-14v151h21c33 0 68 4 85 52l5 14h-56c-53 0 -85 26 -98 62z" />
    <glyph glyph-name="afii10038" unicode="&#x424;" horiz-adv-x="1000" 
d="M234 352c0 -38 4 -110 36 -162c24 -39 67 -76 137 -79v482c-80 -4 -120 -52 -137 -79c-32 -52 -36 -125 -36 -162zM766 352c0 38 -4 110 -36 162c-24 39 -67 76 -137 79v-482c70 3 113 40 137 79c32 52 36 124 36 162zM30 350c0 145 63 236 140 290c101 71 227 76 330 76
s229 -5 330 -76c77 -54 140 -145 140 -290c0 -165 -82 -250 -140 -290c-97 -67 -233 -75 -330 -76c-98 -1 -233 6 -330 73c-58 40 -140 126 -140 293z" />
    <glyph glyph-name="afii10039" unicode="&#x425;" horiz-adv-x="754" 
d="M20 700h214l134 -268h18l134 268h214l-184 -330l194 -370h-224l-134 294h-18l-134 -294h-224l194 370z" />
    <glyph glyph-name="afii10040" unicode="&#x426;" horiz-adv-x="800" 
d="M60 700h198v-542h244v542h198v-542h100l-60 -158h-680v700z" />
    <glyph glyph-name="afii10041" unicode="&#x427;" horiz-adv-x="715" 
d="M35 700h203v-205c0 -54 2 -82 11 -105c23 -61 78 -65 94 -65c48 -1 82 28 98 60c15 31 16 71 16 110v205h198v-700h-198v225c-23 -20 -45 -32 -71 -41c-33 -12 -61 -15 -96 -15c-103 1 -169 39 -208 95c-50 70 -47 158 -47 231v205z" />
    <glyph glyph-name="afii10042" unicode="&#x428;" horiz-adv-x="1090" 
d="M60 700h198v-542h190v542h194v-542h190v542h198v-700h-970v700z" />
    <glyph glyph-name="afii10043" unicode="&#x429;" horiz-adv-x="1130" 
d="M60 700h198v-542h190v542h194v-542h190v542h198v-542h100l-60 -158h-1010v700z" />
    <glyph glyph-name="afii10044" unicode="&#x42a;" horiz-adv-x="738" 
d="M10 700h296v-228h62c63 0 156 5 232 -40c51 -30 108 -91 108 -196s-57 -166 -108 -196c-76 -45 -169 -40 -232 -40h-260v560h-98v140zM306 331v-186h76c28 0 61 -1 89 17c21 14 37 38 37 76s-16 62 -37 76c-28 18 -61 17 -89 17h-76z" />
    <glyph glyph-name="afii10045" unicode="&#x42b;" horiz-adv-x="966" 
d="M710 700h196v-700h-196v700zM60 700h198v-228h62c63 0 156 5 232 -40c51 -30 108 -91 108 -196s-57 -166 -108 -196c-76 -45 -169 -40 -232 -40h-260v700zM258 331v-186h76c28 0 61 -1 89 17c21 14 37 38 37 76s-16 62 -37 76c-28 18 -61 17 -89 17h-76z" />
    <glyph glyph-name="afii10046" unicode="&#x42c;" horiz-adv-x="685" 
d="M60 700h198v-228h62c63 0 156 5 232 -40c51 -30 108 -91 108 -196s-57 -166 -108 -196c-76 -45 -169 -40 -232 -40h-260v700zM258 331v-186h76c28 0 61 -1 89 17c21 14 37 38 37 76s-16 62 -37 76c-28 18 -61 17 -89 17h-76z" />
    <glyph glyph-name="afii10047" unicode="&#x42d;" horiz-adv-x="760" 
d="M317 421h205c2 40 -11 81 -35 110c-34 40 -78 46 -108 46c-45 0 -79 -15 -106 -49c-21 -27 -34 -65 -35 -103h-205c9 109 64 178 109 216c51 43 126 79 231 79c129 1 214 -52 262 -102c80 -83 95 -189 95 -268c0 -80 -15 -184 -95 -268c-81 -85 -182 -102 -262 -102
c-73 0 -162 15 -237 80c-49 42 -100 113 -106 220h206c0 -47 18 -86 41 -111c28 -30 61 -42 102 -41c59 1 92 28 108 47c22 27 36 68 35 108h-205v138z" />
    <glyph glyph-name="afii10048" unicode="&#x42e;" horiz-adv-x="1090" 
d="M60 700h196v-272h92c10 89 54 155 95 195c58 57 142 97 257 97c132 0 212 -53 257 -97c52 -51 103 -136 103 -273s-51 -222 -103 -273c-45 -44 -125 -97 -257 -97s-212 53 -257 97c-27 26 -85 93 -96 201h-91v-278h-196v700zM546 353c0 -71 12 -119 33 -152
c14 -21 50 -65 121 -65s107 44 121 65c21 33 33 81 33 152c0 70 -12 118 -33 151c-14 21 -50 65 -121 65s-107 -44 -121 -65c-21 -33 -33 -81 -33 -151z" />
    <glyph glyph-name="afii10049" unicode="&#x42f;" horiz-adv-x="726" 
d="M666 700v-700h-198v262h-76c-21 0 -42 -3 -61 -23c-10 -11 -25 -35 -31 -53l-66 -186h-224l118 250c19 40 44 54 68 60c-18 4 -44 13 -72 37c-36 32 -61 77 -62 140c-1 115 75 166 109 183c60 30 132 30 204 30h291zM468 564h-102c-22 0 -57 -2 -80 -22
c-21 -18 -24 -43 -24 -64c0 -25 5 -49 26 -67c23 -19 53 -21 76 -21h104v174z" />
    <glyph glyph-name="afii10065" unicode="&#x430;" horiz-adv-x="668" 
d="M618 500v-500h-187l-7 65c-12 -22 -51 -81 -156 -81c-74 0 -131 29 -171 74c-36 40 -67 103 -67 192s31 152 67 192c40 45 97 74 171 74c69 0 124 -27 156 -79l7 63h187zM429 253c0 31 -4 62 -20 87c-18 28 -44 41 -78 41c-33 0 -60 -13 -79 -42c-18 -28 -20 -61 -20 -86
c0 -26 2 -59 20 -87c19 -29 46 -42 79 -42c34 0 60 13 78 41s20 64 20 88z" />
    <glyph glyph-name="afii10066" unicode="&#x431;" horiz-adv-x="654" 
d="M558 700v-128h-191c-33 0 -76 -1 -102 -23c-10 -9 -29 -30 -29 -71v-29c37 34 77 51 140 51c89 0 143 -36 172 -62c43 -39 78 -101 76 -194c-2 -104 -48 -164 -80 -194c-64 -59 -148 -70 -209 -70c-57 0 -158 8 -227 92c-61 75 -68 182 -68 240v46c0 64 2 191 86 271
c71 69 159 71 247 71h185zM422 244c0 32 -1 63 -17 92c-18 32 -48 46 -77 46s-59 -14 -77 -46c-16 -29 -17 -60 -17 -92s1 -63 17 -92c18 -32 48 -46 77 -46s59 14 77 46c16 29 17 60 17 92z" />
    <glyph glyph-name="afii10067" unicode="&#x432;" horiz-adv-x="636" 
d="M290 430h27c18 0 46 2 65 27c13 17 14 39 14 57c0 19 -2 41 -20 58c-15 14 -38 21 -61 21c-42 0 -62 -23 -71 -40c-10 -19 -12 -48 -12 -111v-165c0 -47 -1 -83 9 -110c15 -39 44 -55 81 -54c30 0 54 12 67 28c16 20 19 47 19 68c0 44 -8 64 -16 75c-21 29 -55 31 -75 31
h-27v115zM40 436c0 70 8 155 74 217c44 42 114 67 202 67c19 0 113 -1 178 -39c51 -30 85 -79 85 -151c0 -50 -16 -84 -37 -107c-19 -21 -48 -40 -84 -48c61 -12 96 -47 102 -54c26 -27 47 -68 46 -129c-1 -79 -36 -132 -95 -167c-70 -42 -161 -45 -188 -45
c-109 0 -174 37 -210 74c-69 71 -73 172 -73 229v153z" />
    <glyph glyph-name="afii10068" unicode="&#x433;" horiz-adv-x="590" 
d="M34 336c2 60 31 118 94 152c28 15 76 33 161 34c53 1 123 -6 171 -31c70 -37 80 -96 81 -125c2 -51 -22 -89 -52 -112c-26 -20 -63 -32 -125 -49c-46 -12 -75 -17 -98 -25c-21 -8 -36 -17 -36 -43c0 -11 3 -26 18 -36c10 -7 24 -9 41 -9c18 0 36 3 51 17
c11 10 20 27 20 47v12h200c-4 -38 -19 -103 -83 -146c-54 -36 -126 -44 -188 -44c-99 0 -146 18 -166 27c-68 31 -91 80 -93 130c-2 59 24 100 79 129c22 11 57 24 140 43c45 10 68 16 81 26c6 5 16 17 16 36c0 17 -9 27 -16 33c-13 10 -31 11 -41 11c-15 0 -30 -3 -43 -15
c-17 -16 -18 -36 -18 -50v-12h-194z" />
    <glyph glyph-name="afii10069" unicode="&#x434;" horiz-adv-x="668" 
d="M429 253c0 49 -11 74 -19 86c-12 19 -35 42 -79 42c-33 0 -60 -13 -79 -42c-18 -28 -20 -61 -20 -86c0 -26 2 -59 20 -87c19 -29 46 -42 79 -42c44 0 67 23 79 42c7 12 19 37 19 87zM618 500v-500c0 -57 -9 -123 -66 -171s-128 -49 -197 -49h-52v129h35c22 0 53 3 71 25
c16 19 15 48 15 66v65c-42 -71 -114 -81 -156 -81c-75 0 -130 29 -171 74c-36 40 -67 103 -67 192s31 152 67 192c40 45 97 74 171 74c69 0 124 -27 156 -79l8 63h186z" />
    <glyph glyph-name="afii10070" unicode="&#x435;" horiz-adv-x="646" 
d="M418 170h194c-11 -53 -40 -94 -70 -120c-75 -67 -185 -70 -219 -70c-106 0 -170 35 -207 67c-44 38 -86 101 -86 203c0 58 13 139 86 203c67 58 147 67 207 67c53 0 146 -9 214 -76c39 -38 79 -105 79 -214v-10h-396c-1 -25 4 -57 15 -79c21 -41 56 -49 87 -49
c34 0 59 10 78 34c13 17 17 32 18 44zM323 413c-24 0 -52 -3 -76 -29c-10 -10 -25 -31 -27 -64h207c-2 33 -17 54 -27 64c-24 25 -52 29 -77 29z" />
    <glyph glyph-name="afii10072" unicode="&#x436;" horiz-adv-x="880" 
d="M15 500h192l92 -191h52v191h178v-191h52l92 191h192l-128 -234l133 -266h-198l-91 211h-52v-211h-178v211h-52l-91 -211h-198l133 266z" />
    <glyph glyph-name="afii10073" unicode="&#x437;" horiz-adv-x="608" 
d="M283 304h22c18 0 38 1 53 16c12 12 14 28 14 39c0 12 -3 30 -18 42s-36 12 -46 12c-17 0 -35 -3 -50 -16c-11 -9 -22 -26 -22 -52v-19h-196c2 84 52 141 108 167c26 12 75 29 166 29c78 0 130 -11 168 -29c52 -25 85 -63 86 -127c0 -24 -4 -47 -19 -69
c-18 -26 -40 -36 -56 -41c30 -7 49 -24 59 -36c19 -22 26 -49 26 -77c0 -66 -33 -109 -91 -136c-57 -27 -122 -29 -178 -29c-54 0 -108 3 -163 28c-71 32 -116 93 -116 172h200v-12c0 -16 1 -41 23 -59c17 -14 35 -15 54 -15c17 0 32 0 47 9c17 10 23 24 24 41
c1 16 -4 32 -13 42c-15 16 -47 17 -60 17h-22v103z" />
    <glyph glyph-name="afii10074" unicode="&#x438;" horiz-adv-x="626" 
d="M40 500h199v-281c0 -25 0 -51 12 -70c6 -10 20 -25 48 -26c19 -1 49 5 68 38c13 23 15 48 15 74v265h194v-500h-186l-8 65c-5 -9 -18 -28 -40 -45c-27 -21 -67 -35 -115 -36c-94 -1 -138 51 -150 68c-37 51 -37 118 -37 167v281z" />
    <glyph glyph-name="afii10075" unicode="&#x439;" horiz-adv-x="626" 
d="M40 500h199v-281c0 -25 0 -51 12 -70c6 -10 20 -25 48 -26c19 -1 49 5 68 38c13 23 15 48 15 74v265h194v-500h-186l-8 65c-5 -9 -18 -28 -40 -45c-27 -21 -67 -35 -115 -36c-94 -1 -138 51 -150 68c-37 51 -37 118 -37 167v281zM92 700h153c0 -15 5 -33 15 -46
s26 -24 51 -24s41 11 51 24s15 31 15 46h153c-8 -56 -35 -98 -63 -124c-49 -44 -112 -52 -156 -52s-107 8 -156 52c-28 26 -55 68 -63 124z" />
    <glyph glyph-name="afii10076" unicode="&#x43a;" horiz-adv-x="630" 
d="M50 500h194v-181h65l101 181h205l-142 -234l147 -266h-216l-95 205h-65v-205h-194v500z" />
    <glyph glyph-name="afii10077" unicode="&#x43b;" horiz-adv-x="610" 
d="M160 500h290l150 -500h-204l-83 375h-16l-83 -375h-204z" />
    <glyph glyph-name="afii10078" unicode="&#x43c;" horiz-adv-x="720" 
d="M50 500h198l112 -152l112 152h198v-500h-188v326l-122 -167l-122 167v-326h-188v500z" />
    <glyph glyph-name="afii10079" unicode="&#x43d;" horiz-adv-x="626" 
d="M50 500h194v-176h138v176h194v-500h-194v197h-138v-197h-194v500z" />
    <glyph glyph-name="afii10080" unicode="&#x43e;" horiz-adv-x="656" 
d="M30 250c0 96 42 161 91 202c47 39 113 68 207 68s160 -29 207 -68c49 -41 91 -106 91 -202s-42 -161 -91 -202c-47 -39 -113 -68 -207 -68s-160 29 -207 68c-49 41 -91 106 -91 202zM232 253c0 -35 3 -67 16 -92c21 -41 57 -49 80 -49s59 8 80 49c13 25 16 57 16 92
c0 34 -3 65 -16 91c-21 41 -57 49 -80 49s-59 -8 -80 -49c-13 -26 -16 -57 -16 -91z" />
    <glyph glyph-name="afii10081" unicode="&#x43f;" horiz-adv-x="626" 
d="M50 500h186l8 -65c5 9 18 28 40 45c27 21 67 35 115 36c94 1 138 -51 150 -68c37 -51 37 -118 37 -167v-281h-199v281c0 36 -3 56 -11 70c-13 22 -33 26 -49 26c-36 0 -56 -18 -68 -38c-13 -23 -15 -48 -15 -74v-265h-194v500z" />
    <glyph glyph-name="afii10082" unicode="&#x440;" horiz-adv-x="668" 
d="M239 253c0 -27 3 -61 19 -87c15 -25 40 -42 79 -42c33 0 60 13 79 42c18 28 20 61 20 87c0 25 -2 58 -20 86c-19 29 -46 42 -79 42c-39 0 -64 -17 -79 -42c-16 -26 -19 -60 -19 -86zM50 500h187l7 -63c37 61 105 77 156 77c73 0 132 -29 171 -72c36 -39 67 -104 67 -192
s-31 -153 -67 -192c-31 -34 -87 -72 -171 -72c-69 0 -124 27 -156 79v-265h-194v700z" />
    <glyph glyph-name="afii10083" unicode="&#x441;" horiz-adv-x="642" 
d="M410 200h202c-11 -78 -51 -131 -95 -164c-60 -46 -130 -56 -191 -56c-98 0 -167 29 -213 71c-33 30 -83 92 -83 200c0 94 38 156 81 195c66 61 148 74 215 74c90 0 149 -26 186 -53c39 -29 83 -83 95 -163h-197c-1 19 -7 40 -18 56c-12 16 -33 33 -66 33
c-46 1 -68 -29 -77 -46c-14 -27 -17 -72 -17 -96c0 -27 3 -66 17 -93c21 -39 55 -46 77 -46c34 0 58 17 69 34c10 15 15 37 15 54z" />
    <glyph glyph-name="afii10084" unicode="&#x442;" horiz-adv-x="440" 
d="M10 500h420v-128h-113v-372h-194v372h-113v128z" />
    <glyph glyph-name="afii10085" unicode="&#x443;" horiz-adv-x="610" 
d="M10 500h204l90 -374h16l76 374h204l-146 -546c-11 -41 -37 -109 -106 -147c-53 -29 -113 -27 -156 -27h-9v133h11c23 0 38 -1 52 5c32 13 38 41 43 64l4 18h-49c-53 0 -89 33 -102 76z" />
    <glyph glyph-name="afii10086" unicode="&#x444;" horiz-adv-x="868" 
d="M228 250c0 -30 1 -78 29 -113c13 -16 40 -41 85 -40v306c-39 0 -68 -19 -85 -40c-28 -34 -29 -84 -29 -113zM638 250c0 29 -1 79 -29 113c-17 21 -46 40 -85 40v-306c39 0 68 19 85 40c28 34 29 84 29 113zM30 250c-1 110 52 170 95 201c81 58 200 61 308 61
s228 -3 308 -61c41 -30 97 -92 97 -201s-56 -171 -97 -201c-58 -42 -146 -62 -217 -60v-192h-182v192c-70 -2 -160 18 -217 60c-40 30 -94 92 -95 201z" />
    <glyph glyph-name="afii10087" unicode="&#x445;" horiz-adv-x="630" 
d="M15 500h200l93 -181h14l93 181h200l-135 -234l140 -266h-211l-87 205h-14l-87 -205h-211l140 266z" />
    <glyph glyph-name="afii10088" unicode="&#x446;" horiz-adv-x="652" 
d="M40 500h198v-274c0 -33 2 -50 7 -63c7 -17 22 -36 56 -36c27 0 45 12 56 35c10 21 9 41 9 64v274h196v-338c0 -21 -1 -50 13 -71c13 -18 42 -34 77 -31v-260h-192v200c-22 0 -41 8 -54 20c-12 11 -22 29 -26 47c-7 -14 -19 -31 -38 -47c-31 -26 -67 -38 -114 -38
c-77 -1 -123 31 -148 64c-40 53 -40 123 -40 188v266z" />
    <glyph glyph-name="afii10089" unicode="&#x447;" horiz-adv-x="572" 
d="M20 500h194v-134c0 -24 -1 -43 5 -58s23 -33 53 -32c28 1 44 15 51 36c6 18 5 38 5 54v134h194v-500h-194v171c-20 -15 -57 -36 -121 -36c-80 0 -126 34 -153 75c-37 56 -34 118 -34 180v110z" />
    <glyph glyph-name="afii10090" unicode="&#x448;" horiz-adv-x="886" 
d="M40 500h194v-276c0 -45 3 -58 6 -66c5 -13 19 -32 48 -32c30 0 42 19 47 32c4 10 6 26 6 66v276h194v-276c0 -27 -2 -49 5 -66c9 -25 29 -32 44 -32c20 0 40 12 50 35c8 18 8 43 8 74v265h194v-500h-186l-8 65c-37 -63 -92 -81 -141 -81c-33 0 -99 9 -134 82
c-25 -44 -71 -82 -147 -82c-85 0 -131 43 -153 84c-24 45 -27 101 -27 164v268z" />
    <glyph glyph-name="afii10091" unicode="&#x449;" horiz-adv-x="931" 
d="M40 500h198v-283c0 -26 -1 -44 5 -59c4 -10 16 -30 48 -30c33 0 45 21 49 30c6 15 5 33 5 59v283h188v-283c0 -26 -1 -44 5 -59c4 -10 16 -30 48 -30c33 0 45 21 49 30c6 15 5 33 5 59v283h198v-338c0 -24 1 -53 18 -74c14 -17 43 -30 75 -28v-260h-195v200
c-19 4 -35 12 -47 24c-11 10 -19 25 -24 42c-12 -22 -28 -38 -50 -53c-34 -23 -63 -29 -102 -29c-34 0 -61 6 -92 27c-25 17 -40 36 -51 61c-26 -41 -77 -90 -165 -88c-75 1 -116 37 -136 69c-32 51 -29 123 -29 174v273z" />
    <glyph glyph-name="afii10092" unicode="&#x44a;" horiz-adv-x="640" 
d="M-20 610h146c26 0 65 0 94 -25c30 -26 32 -58 32 -90v-110c30 28 67 46 125 47c71 1 131 -28 168 -63c57 -54 65 -119 65 -164c0 -43 -10 -104 -67 -157c-64 -59 -148 -68 -210 -68c-51 0 -141 7 -205 75c-54 58 -60 122 -60 185v260h-88v110zM410 208
c0 42 -15 64 -20 71c-16 22 -37 29 -59 29s-43 -7 -59 -29c-5 -7 -20 -29 -20 -71s15 -64 20 -71c16 -22 37 -29 59 -29s43 7 59 29c5 7 20 29 20 71z" />
    <glyph glyph-name="afii10093" unicode="&#x44b;" horiz-adv-x="864" 
d="M620 500h194v-500h-194v500zM40 569h184v-185c30 29 66 47 125 48c82 1 137 -36 166 -64c52 -49 68 -102 67 -163c-1 -42 -9 -105 -67 -158c-63 -57 -149 -67 -209 -67c-51 0 -143 7 -205 75c-55 61 -61 142 -61 206v308zM383 208c0 29 -7 52 -19 69
c-14 19 -36 32 -61 32s-47 -13 -61 -32c-12 -17 -19 -40 -19 -69c0 -38 12 -59 19 -69c15 -21 35 -31 61 -31s46 10 61 31c7 10 19 31 19 69z" />
    <glyph glyph-name="afii10094" unicode="&#x44c;" horiz-adv-x="612" 
d="M40 569h184v-185c30 29 66 48 128 48c89 0 144 -45 164 -64c52 -49 66 -103 66 -161c0 -45 -10 -107 -66 -159c-64 -59 -151 -68 -210 -68c-50 0 -144 7 -206 75c-55 61 -60 141 -60 199v315zM382 208c0 42 -15 64 -20 71c-16 22 -37 29 -59 29s-43 -7 -59 -29
c-5 -7 -20 -29 -20 -71s15 -64 20 -71c16 -22 37 -29 59 -29s43 7 59 29c5 7 20 29 20 71z" />
    <glyph glyph-name="afii10095" unicode="&#x44d;" horiz-adv-x="656" 
d="M294 304h119c0 5 1 31 -12 53c-8 13 -29 39 -76 38c-27 0 -52 -9 -69 -33s-17 -50 -17 -58h-194c11 92 64 142 93 163c37 27 95 53 182 53c104 0 173 -35 217 -76c50 -47 78 -110 79 -193c1 -96 -36 -159 -82 -200c-63 -57 -141 -71 -211 -71c-61 0 -131 10 -191 56
c-44 33 -83 86 -92 164h199c-1 -23 6 -42 15 -56c19 -29 48 -34 71 -34c34 0 61 11 77 42c7 15 10 33 10 48h-118v104z" />
    <glyph glyph-name="afii10096" unicode="&#x44e;" horiz-adv-x="928" 
d="M50 500h192v-181h72c12 62 46 105 79 133c36 30 100 68 207 68c94 0 161 -29 207 -68c49 -41 91 -106 91 -202s-42 -161 -91 -202c-46 -39 -113 -68 -207 -68c-107 0 -171 38 -207 68c-38 32 -76 82 -82 157h-69v-205h-192v500zM504 253c0 -35 3 -67 16 -92
c21 -41 57 -49 80 -49s59 8 80 49c13 25 16 57 16 92c0 34 -3 65 -16 91c-21 41 -57 49 -80 49s-59 -8 -80 -49c-13 -26 -16 -57 -16 -91z" />
    <glyph glyph-name="afii10097" unicode="&#x44f;" horiz-adv-x="596" 
d="M546 500v-500h-190v176h-50l-85 -176h-201l116 198c-29 7 -49 23 -60 36c-20 23 -34 57 -34 100c0 82 47 122 80 140c48 26 110 26 196 26h228zM356 388h-51c-17 0 -40 1 -55 -9c-8 -5 -22 -18 -22 -48c0 -16 4 -35 22 -47c17 -11 37 -10 55 -10h51v114z" />
    <glyph glyph-name="afii10071" unicode="&#x451;" horiz-adv-x="646" 
d="M418 170h194c-11 -53 -40 -94 -70 -120c-75 -67 -185 -70 -219 -70c-106 0 -170 35 -207 67c-44 38 -86 101 -86 203c0 58 13 139 86 203c67 58 147 67 207 67c53 0 146 -9 214 -76c39 -38 79 -105 79 -214v-10h-396c-1 -25 4 -57 15 -79c21 -41 56 -49 87 -49
c34 0 59 10 78 34c13 17 17 32 18 44zM323 413c-24 0 -52 -3 -76 -29c-10 -10 -25 -31 -27 -64h207c-2 33 -17 54 -27 64c-24 25 -52 29 -77 29zM108 700h168v-145h-168v145zM371 700h168v-145h-168v145z" />
    <glyph glyph-name="afii10099" unicode="&#x452;" horiz-adv-x="674" 
d="M98 700h194v-99h207v-108h-207v-151c8 12 20 28 40 43c22 16 59 35 115 36c70 1 126 -30 152 -68c34 -48 30 -121 30 -167v-186c0 -40 -4 -118 -67 -171c-57 -48 -129 -49 -197 -49h-28v129h11c33 0 58 11 71 25c17 20 16 48 16 66v186c0 29 1 48 -7 65
c-8 18 -25 32 -57 31c-36 -2 -54 -21 -64 -38c-12 -21 -15 -52 -15 -74v-170h-194v493h-88v108h88v99z" />
    <glyph glyph-name="afii10100" unicode="&#x453;" horiz-adv-x="590" 
d="M298 700h150l-118 -134h-150zM34 336c2 60 31 118 94 152c28 15 76 33 161 34c53 1 123 -6 171 -31c70 -37 80 -96 81 -125c2 -51 -22 -89 -52 -112c-26 -20 -63 -32 -125 -49c-46 -12 -75 -17 -98 -25c-21 -8 -36 -17 -36 -43c0 -11 3 -26 18 -36c10 -7 24 -9 41 -9
c18 0 36 3 51 17c11 10 20 27 20 47v12h200c-4 -38 -19 -103 -83 -146c-54 -36 -126 -44 -188 -44c-99 0 -146 18 -166 27c-68 31 -91 80 -93 130c-2 59 24 100 79 129c22 11 57 24 140 43c45 10 68 16 81 26c6 5 16 17 16 36c0 17 -9 27 -16 33c-13 10 -31 11 -41 11
c-15 0 -30 -3 -43 -15c-17 -16 -18 -36 -18 -50v-12h-194z" />
    <glyph glyph-name="afii10101" unicode="&#x454;" horiz-adv-x="636" 
d="M352 304v-104h-118c0 -15 3 -33 10 -48c16 -31 43 -42 77 -42c23 0 52 5 71 34c9 14 16 33 15 56h199c-9 -78 -48 -131 -92 -164c-60 -46 -130 -56 -191 -56c-70 0 -148 14 -211 71c-46 41 -83 104 -82 200c1 83 29 146 79 193c44 41 113 76 217 76c87 0 145 -26 182 -53
c29 -21 82 -71 93 -163h-194c0 8 0 34 -17 58s-42 33 -69 33c-47 1 -68 -25 -76 -38c-13 -22 -12 -48 -12 -53h119z" />
    <glyph glyph-name="afii10102" unicode="&#x455;" horiz-adv-x="596" 
d="M30 180h200c-2 -40 11 -61 24 -72c8 -7 23 -14 48 -14c11 0 32 2 44 9c14 8 19 19 20 29c4 30 -17 40 -37 48c-23 9 -51 15 -95 25c-45 10 -93 23 -128 52s-52 70 -51 111c1 40 20 89 78 121c47 26 115 34 167 33c33 0 101 -5 156 -35c65 -36 99 -99 104 -167h-187
c0 19 -2 57 -26 77c-15 12 -32 14 -47 14c-11 0 -26 -1 -38 -10c-11 -8 -16 -19 -16 -32c0 -14 3 -25 15 -35c8 -6 23 -15 83 -29c56 -13 103 -21 142 -43c70 -38 81 -94 80 -128c-1 -50 -27 -96 -97 -127c-50 -22 -114 -29 -171 -29c-52 0 -124 7 -177 45
c-46 33 -83 92 -91 157z" />
    <glyph glyph-name="afii10103" unicode="&#x456;" horiz-adv-x="318" 
d="M60 700h198v-145h-198v145zM62 500h194v-500h-194v500z" />
    <glyph glyph-name="afii10104" unicode="&#x457;" horiz-adv-x="476" 
d="M141 500h194v-500h-194v500zM10 700h188v-145h-188v145zM278 700h188v-145h-188v145z" />
    <glyph glyph-name="afii10105" unicode="&#x458;" horiz-adv-x="318" 
d="M60 700h198v-145h-198v145zM62 500h194v-700h-194v700z" />
    <glyph glyph-name="afii10106" unicode="&#x459;" horiz-adv-x="912" 
d="M532 224l34 -112h50c18 0 38 -1 55 10c18 12 22 31 22 46s-4 34 -22 46c-17 11 -37 10 -55 10h-84zM162 500h286l51 -168h113c63 0 130 1 188 -31c71 -39 81 -102 82 -136c1 -76 -44 -120 -80 -139c-46 -24 -102 -26 -191 -26h-215l-84 371h-14l-84 -371h-204z" />
    <glyph glyph-name="afii10107" unicode="&#x45a;" horiz-adv-x="921" 
d="M50 500h194v-176h138v176h194v-168h45c63 0 130 1 188 -31c71 -39 81 -102 82 -136c1 -76 -44 -120 -80 -139c-50 -27 -116 -26 -207 -26h-222v193h-138v-193h-194v500zM576 112h49c18 0 38 -1 55 10c18 12 22 31 22 46s-4 34 -22 46c-17 11 -37 10 -55 10h-49v-112z" />
    <glyph glyph-name="afii10108" unicode="&#x45b;" horiz-adv-x="679" 
d="M98 700h194v-99h212v-108h-212v-151c8 12 20 28 40 43c22 16 59 35 115 36c71 1 124 -30 152 -68c37 -51 35 -118 35 -167v-186h-199v186c0 29 1 48 -7 65c-8 18 -25 32 -57 31c-36 -2 -54 -21 -64 -38c-12 -21 -15 -52 -15 -74v-170h-194v493h-88v108h88v99z" />
    <glyph glyph-name="afii10109" unicode="&#x45c;" horiz-adv-x="630" 
d="M50 500h194v-181h65l101 181h205l-142 -234l147 -266h-216l-95 205h-65v-205h-194v500zM352 700h150l-118 -134h-150z" />
    <glyph glyph-name="afii10110" unicode="&#x45e;" horiz-adv-x="610" 
d="M10 500h204l96 -374h10l76 374h204l-154 -546c-11 -40 -33 -110 -98 -147c-51 -29 -116 -27 -156 -27h-9v133h11c18 0 36 -1 50 6c29 14 35 46 40 65l4 16h-52c-56 0 -77 42 -88 76zM89 700h151c-1 -14 3 -31 11 -44c9 -14 28 -27 54 -27c24 0 43 11 54 27
c8 13 12 30 11 44h151c-9 -55 -37 -91 -63 -114c-44 -39 -98 -53 -153 -53s-109 14 -153 53c-26 23 -54 59 -63 114z" />
    <glyph glyph-name="afii10193" unicode="&#x45f;" horiz-adv-x="636" 
d="M50 500h199v-388h138v388h199v-500h-177v-200h-182v200h-177v500z" />
    <glyph glyph-name="afii10050" unicode="&#x490;" horiz-adv-x="535" 
d="M55 700h352v150h148v-300h-302v-550h-198v700z" />
    <glyph glyph-name="afii10098" unicode="&#x491;" horiz-adv-x="446" 
d="M50 500h237v200h149v-320h-187v-380h-199v500z" />
    <glyph glyph-name="cyrAE" unicode="&#x4d4;" horiz-adv-x="1120" 
d="M242 700h631l47 -145h-335l42 -125h325l47 -145h-325l46 -135h339l51 -150h-550l-42 143h-256l-42 -143h-210zM307 299h166l-72 247h-22z" />
    <glyph glyph-name="cyrae" unicode="&#x4d5;" horiz-adv-x="1068" 
d="M616 500v-63c15 21 62 81 165 83c66 1 136 -27 183 -76c69 -73 74 -172 74 -214v-10h-392c-2 -24 2 -54 15 -77c19 -35 48 -47 84 -47c23 0 54 5 75 34c4 5 15 23 15 50h200c-7 -58 -35 -101 -65 -130c-35 -35 -94 -72 -182 -70c-98 2 -144 44 -172 85v-65h-194v65
c-42 -75 -125 -81 -157 -81c-83 0 -137 38 -169 74c-52 58 -66 129 -66 192s14 134 66 192c33 36 86 74 169 74c69 0 124 -27 157 -79v63h194zM427 253c0 25 -2 58 -20 86c-19 29 -46 42 -79 42s-60 -13 -79 -42c-18 -28 -20 -61 -20 -86c0 -26 2 -59 20 -87
c19 -29 46 -42 79 -42s60 13 79 42c18 28 20 61 20 87zM745 409c-40 0 -62 -16 -73 -28c-13 -14 -24 -36 -25 -61h196c-1 25 -12 47 -25 61c-11 12 -33 28 -73 28z" />
    <glyph glyph-name="endash" unicode="&#x2013;" horiz-adv-x="630" 
d="M55 332h520v-123h-520v123z" />
    <glyph glyph-name="emdash" unicode="&#x2014;" horiz-adv-x="900" 
d="M0 332h900v-110h-900v110z" />
    <glyph glyph-name="quoteleft" unicode="&#x2018;" horiz-adv-x="304" 
d="M134 700h114c-22 -27 -54 -72 -67 -100c-16 -32 -24 -68 -26 -100h94v-172h-194v162c0 39 11 83 24 116c14 33 36 69 55 94z" />
    <glyph glyph-name="quoteright" unicode="&#x2019;" horiz-adv-x="304" 
d="M55 700h194v-162c0 -39 -11 -83 -24 -116c-14 -33 -36 -69 -55 -94h-114c22 27 54 72 67 100c16 32 24 68 26 100h-94v172z" />
    <glyph glyph-name="quotesinglbase" unicode="&#x201a;" horiz-adv-x="304" 
d="M55 172h194v-162c0 -39 -11 -83 -24 -116c-14 -33 -36 -69 -55 -94h-114c22 27 54 72 67 100c16 32 24 68 26 100h-94v172z" />
    <glyph glyph-name="quotedblleft" unicode="&#x201c;" horiz-adv-x="598" 
d="M349 700h194v-172h-94c2 -32 10 -68 26 -100c13 -28 45 -73 67 -100h-114c-21 27 -40 59 -55 94s-24 70 -24 116v162zM55 700h194v-172h-93c2 -44 15 -79 25 -100c14 -28 45 -73 67 -100h-114c-19 25 -41 61 -55 94c-13 33 -24 77 -24 116v162z" />
    <glyph glyph-name="quotedblright" unicode="&#x201d;" horiz-adv-x="598" 
d="M55 700h194v-162c0 -46 -9 -81 -24 -116s-34 -67 -55 -94h-114c22 27 54 72 67 100c16 32 24 68 26 100h-94v172zM349 700h194v-162c0 -39 -11 -83 -24 -116c-14 -33 -36 -69 -55 -94h-114c22 27 53 72 67 100c10 21 23 56 25 100h-93v172z" />
    <glyph glyph-name="quotedblbase" unicode="&#x201e;" horiz-adv-x="598" 
d="M55 172h194v-162c0 -46 -9 -81 -24 -116s-34 -67 -55 -94h-114c22 27 54 72 67 100c16 32 24 68 26 100h-94v172zM349 172h194v-162c0 -39 -11 -83 -24 -116c-14 -33 -36 -69 -55 -94h-114c22 27 53 72 67 100c10 21 23 56 25 100h-93v172z" />
    <glyph glyph-name="dagger" unicode="&#x2020;" horiz-adv-x="590" 
d="M220 750h150v-173h165v-138h-165v-639h-150v639h-165v138h165v173z" />
    <glyph glyph-name="daggerdbl" unicode="&#x2021;" horiz-adv-x="590" 
d="M220 750h150v-172h165v-137h-165v-292h165v-137h-165v-212h-150v212h-165v137h165v292h-165v137h165v172z" />
    <glyph glyph-name="bullet" unicode="&#x2022;" horiz-adv-x="370" 
d="M55 266c0 73 57 130 130 130s130 -57 130 -130s-57 -130 -130 -130s-130 57 -130 130z" />
    <glyph glyph-name="ellipsis" unicode="&#x2026;" horiz-adv-x="944" 
d="M55 172h194v-172h-194v172zM375 172h194v-172h-194v172zM695 172h194v-172h-194v172z" />
    <glyph glyph-name="perthousand" unicode="&#x2030;" horiz-adv-x="1542" 
d="M55 501c0 43 9 106 62 156c33 31 82 54 149 54c58 0 108 -16 149 -55c53 -50 62 -110 62 -155c0 -46 -9 -107 -62 -157c-48 -46 -101 -54 -149 -54s-101 8 -149 54c-53 50 -62 111 -62 157zM179 501c0 -28 3 -60 18 -84c12 -19 34 -38 69 -38s57 19 69 38
c15 24 18 56 18 84s-3 60 -18 84c-12 19 -34 38 -69 38s-57 -19 -69 -38c-15 -24 -18 -56 -18 -84zM727 700h126l-500 -700h-126zM603 200c0 43 9 106 62 156c33 31 82 54 149 54c58 0 108 -16 149 -55c53 -50 62 -110 62 -155c0 -46 -9 -107 -62 -157
c-48 -46 -101 -54 -149 -54s-101 8 -149 54c-53 50 -62 111 -62 157zM727 200c0 -28 3 -60 18 -84c12 -19 34 -38 69 -38s57 19 69 38c15 24 18 56 18 84s-3 60 -18 84c-12 19 -34 38 -69 38s-57 -19 -69 -38c-15 -24 -18 -56 -18 -84zM1065 200c0 43 9 106 62 156
c33 31 82 54 149 54c58 0 108 -16 149 -55c53 -50 62 -110 62 -155c0 -46 -9 -107 -62 -157c-48 -46 -101 -54 -149 -54s-101 8 -149 54c-53 50 -62 111 -62 157zM1189 200c0 -28 3 -60 18 -84c12 -19 34 -38 69 -38s57 19 69 38c15 24 18 56 18 84s-3 60 -18 84
c-12 19 -34 38 -69 38s-57 -19 -69 -38c-15 -24 -18 -56 -18 -84z" />
    <glyph glyph-name="guilsinglleft" unicode="&#x2039;" horiz-adv-x="308" 
d="M55 325l198 195v-173l-94 -83v-18l94 -93v-173l-198 195v150z" />
    <glyph glyph-name="guilsinglright" unicode="&#x203a;" horiz-adv-x="308" 
d="M55 520l198 -195v-150l-198 -195v173l94 93v18l-94 83v173z" />
    <glyph glyph-name="Euro" unicode="&#x20ac;" horiz-adv-x="698" 
d="M75 459h51c4 28 17 95 72 159c62 73 140 103 241 102c91 -1 149 -27 198 -64l-39 -128c-41 32 -93 52 -141 52c-77 0 -126 -54 -134 -121h258l-20 -84h-250c-2 -28 -1 -55 3 -80h227l-20 -84h-183c20 -55 78 -85 147 -86c65 -1 114 18 158 60v-153
c-59 -40 -112 -52 -186 -52c-72 0 -174 10 -256 102c-46 52 -61 105 -66 129h-80l20 84h42c-2 25 -3 51 -1 80h-61z" />
    <glyph glyph-name="afii61352" unicode="&#x2116;" horiz-adv-x="1133" 
d="M737 296h356v-100h-356v100zM55 0v385c0 83 0 177 79 254c53 52 133 79 218 79s165 -27 218 -79c79 -77 79 -171 79 -254v-385h-184v398c0 37 4 86 -16 124c-13 25 -42 57 -97 57c-56 0 -84 -33 -96 -56c-21 -39 -17 -90 -17 -125v-398h-184zM727 543c0 69 33 109 58 130
c43 35 94 40 130 40s87 -5 130 -40c25 -21 58 -61 58 -130c0 -68 -32 -108 -58 -129c-31 -25 -76 -41 -130 -41s-99 16 -130 41c-26 21 -58 61 -58 129zM856 545c0 -20 1 -38 7 -53c13 -34 40 -38 52 -38s39 4 52 38c6 15 7 33 7 53s-1 38 -7 53c-13 34 -40 38 -52 38
s-39 -4 -52 -38c-6 -15 -7 -33 -7 -53z" />
    <glyph glyph-name="published" unicode="&#x2117;" horiz-adv-x="1041" 
d="M345 595h186c56 0 115 -4 161 -34c55 -36 66 -89 66 -135c0 -47 -11 -98 -66 -135c-48 -33 -107 -35 -161 -35h-48v-151h-138v490zM483 497v-140h53c21 0 47 3 61 15c9 8 21 23 21 55s-12 47 -21 55c-14 12 -40 15 -61 15h-53zM55 349c0 258 208 465 466 465
s465 -207 465 -465s-207 -465 -465 -465s-466 207 -466 465zM156 349c0 -202 163 -365 365 -365s365 163 365 365s-163 365 -365 365s-365 -163 -365 -365z" />
    <glyph glyph-name="trademark" unicode="&#x2122;" horiz-adv-x="900" 
d="M20 700h290v-94h-86v-256h-119v256h-85v94zM335 350v191c0 35 0 81 32 120c17 21 51 48 112 47c21 0 83 -5 111 -68c26 63 90 68 110 68c61 1 95 -26 112 -47c31 -38 33 -86 33 -120v-191h-122v188c0 21 2 38 -5 51c-5 9 -15 18 -32 18s-27 -9 -32 -18
c-7 -13 -5 -30 -5 -51v-188h-119v188c0 21 2 38 -5 51c-5 9 -15 18 -32 18s-27 -9 -32 -18c-7 -13 -5 -30 -5 -51v-188h-121z" />
    <glyph glyph-name="partialdiff" unicode="&#x2202;" horiz-adv-x="686" 
d="M159 570v140h22c103 0 227 -9 325 -94c51 -44 91 -107 111 -187c16 -63 20 -147 3 -225c-15 -68 -44 -124 -103 -168c-50 -37 -110 -56 -183 -56c-78 0 -138 21 -182 52c-56 39 -95 99 -97 186c-2 88 37 146 83 182c41 32 103 54 158 54c49 0 102 -16 148 -50
c-1 19 -6 38 -18 60c-26 49 -67 75 -121 90c-47 13 -111 16 -146 16zM259 216c0 -25 6 -58 16 -75c12 -21 37 -37 68 -37c24 0 46 10 62 37c12 20 17 48 17 75c0 70 -41 106 -81 107c-26 0 -51 -14 -65 -38c-11 -19 -17 -46 -17 -69z" />
    <glyph glyph-name="product" unicode="&#x220f;" horiz-adv-x="750" 
d="M55 700h640v-700h-198v536h-244v-536h-198v700z" />
    <glyph glyph-name="summation" unicode="&#x2211;" horiz-adv-x="640" 
d="M30 700h572v-149h-347l184 -180l-184 -221h355v-150h-580v150l184 221l-184 180v149z" />
    <glyph glyph-name="minus" unicode="&#x2212;" 
d="M55 370h600v-132h-600v132z" />
    <glyph glyph-name="division" unicode="&#x2215;" horiz-adv-x="530" 
d="M414 700h116l-414 -700h-116z" />
    <glyph glyph-name="uni2219" unicode="&#x2219;" horiz-adv-x="304" 
d="M55 352h194v-172h-194v172z" />
    <glyph glyph-name="radical" unicode="&#x221a;" horiz-adv-x="665" 
d="M55 480h182l154 -371h26v641h248v-110h-116v-640h-257l-156 370h-81v110z" />
    <glyph glyph-name="infinity" unicode="&#x221e;" horiz-adv-x="880" 
d="M440 211l-49 -52c-51 -54 -108 -65 -151 -64c-96 3 -185 75 -185 210c0 136 88 209 185 210c76 1 118 -36 151 -68l49 -48l49 48c34 33 75 68 150 68c106 0 186 -81 186 -210c0 -128 -80 -208 -186 -210c-75 -1 -121 33 -150 64zM374 305l-34 38c-31 35 -60 43 -80 43
c-29 0 -69 -21 -69 -81s40 -81 69 -81c20 0 49 8 80 43zM506 305l36 -38c18 -19 48 -42 77 -43c40 -1 70 34 70 81s-30 82 -70 81c-29 -1 -59 -24 -77 -43z" />
    <glyph glyph-name="integral" unicode="&#x222b;" horiz-adv-x="362" 
d="M67 474c-10 47 -22 126 8 180c33 59 93 64 121 64c102 0 111 -74 111 -100c0 -49 -34 -78 -72 -81c-16 -1 -29 3 -41 12l103 -505c22 -110 2 -160 -12 -183c-23 -37 -71 -64 -126 -61c-75 4 -101 54 -104 92c-4 51 32 89 71 92c15 1 31 -3 43 -9z" />
    <glyph glyph-name="approxequal" unicode="&#x2248;" 
d="M55 455c56 48 104 68 152 68c46 0 93 -18 148 -46c60 -30 108 -58 157 -58c43 0 88 21 143 80v-132c-56 -48 -104 -68 -152 -68c-46 0 -93 18 -148 46c-60 30 -108 58 -157 58c-43 0 -88 -21 -143 -80v132zM55 225c56 48 104 68 152 68c46 0 93 -18 148 -46
c60 -30 108 -58 157 -58c43 0 88 21 143 80v-132c-56 -48 -104 -68 -152 -68c-46 0 -93 18 -148 46c-60 30 -108 58 -157 58c-43 0 -88 -21 -143 -80v132z" />
    <glyph glyph-name="notequal" unicode="&#x2260;" 
d="M55 475h334l71 125h132l-71 -125h134v-126h-206l-55 -98h261v-126h-333l-71 -125h-132l71 125h-135v126h207l55 98h-262v126z" />
    <glyph glyph-name="lessequal" unicode="&#x2264;" horiz-adv-x="550" 
d="M55 522l440 178v-134l-338 -123v-26l338 -123v-134l-440 178v184zM55 238l440 -178v-134l-440 178v134z" />
    <glyph glyph-name="greaterequal" unicode="&#x2265;" horiz-adv-x="550" 
d="M55 700l440 -178v-184l-440 -178v134l338 123v26l-338 123v134zM55 60l440 178v-134l-440 -178v134z" />
    <glyph glyph-name="dotmath" unicode="&#x22c5;" horiz-adv-x="304" 
d="M55 352h194v-172h-194v172z" />
    <glyph glyph-name="diameter" unicode="&#x2300;" horiz-adv-x="732" 
d="M210 179l239 334c-30 12 -59 17 -85 17c-44 0 -80 -14 -104 -28c-65 -37 -105 -107 -105 -182c0 -31 7 -90 55 -141zM524 456l-236 -331c28 -11 55 -15 78 -15c48 0 84 17 104 28c65 37 105 107 105 182c0 35 -9 89 -51 136zM561 670h116l-93 -131
c69 -70 91 -154 91 -219c0 -110 -61 -214 -155 -268c-31 -18 -85 -42 -154 -42c-41 0 -87 9 -137 32l-52 -72h-116l90 126c-76 75 -96 163 -96 224c0 110 61 214 155 268c30 17 83 42 153 42c43 0 92 -9 144 -35z" />
    <glyph glyph-name="filledvertrect" unicode="&#x25ae;" horiz-adv-x="238" 
d="M65 700h108v-700h-108v700z" />
    <glyph glyph-name="lozenge" unicode="&#x25ca;" horiz-adv-x="646" 
d="M218 700h210l163 -350l-159 -350h-218l-159 350zM217 350l97 -227h18l97 227l-97 231h-18z" />
    <glyph glyph-name="openbullet" unicode="&#x25e6;" horiz-adv-x="450" 
d="M55 544c0 95 76 170 170 170s170 -75 170 -170c0 -93 -75 -170 -170 -170s-170 77 -170 170zM155 544c0 -37 32 -70 70 -70s70 33 70 70c0 39 -33 71 -70 71s-70 -32 -70 -71z" />
    <glyph glyph-name="star" unicode="&#x2606;" horiz-adv-x="647" 
d="M197 139c2 31 17 52 29 64c30 30 69 36 98 36s66 -6 96 -36c13 -14 27 -35 31 -64h-254zM55 39v20c0 115 51 179 66 196c27 31 88 84 203 84c112 0 174 -51 203 -84c53 -61 63 -139 63 -196v-20h-535zM56 307c-30 148 82 235 268 235c149 0 306 -64 268 -235l-164 77
c2 24 -11 39 -25 48c-11 7 -30 14 -79 14s-68 -7 -79 -14c-14 -9 -27 -24 -25 -48z" />
    <glyph glyph-name="Acute" unicode="&#xf6c9;" horiz-adv-x="535" 
d="M297 850h163l-96 -120h-164z" />
    <glyph glyph-name="Dieresis" unicode="&#xf6cb;" horiz-adv-x="635" 
d="M101 850h168v-100h-168v100zM387 850h168v-100h-168v100z" />
    <glyph glyph-name="cyrBreve" unicode="&#xf6d1;" horiz-adv-x="740" 
d="M153 850h134c3 -10 9 -18 17 -25c18 -16 40 -23 66 -23c40 0 60 17 66 22c6 6 13 14 17 26h134c-16 -46 -43 -76 -64 -93c-50 -41 -106 -49 -153 -49c-55 0 -106 10 -153 50c-25 21 -49 52 -64 92z" />
    <glyph glyph-name="cyrbreve" unicode="&#xf6d4;" horiz-adv-x="616" 
d="M97 700h151c-1 -14 3 -31 11 -44c9 -14 28 -27 54 -27c24 0 43 11 54 27c8 13 12 30 11 44h151c-9 -55 -37 -91 -63 -114c-44 -39 -98 -53 -153 -53s-109 14 -153 53c-26 23 -54 59 -63 114z" />
    <glyph glyph-name="u.alt" horiz-adv-x="616" 
d="M40 500h198v-285c0 -25 1 -45 9 -62s27 -36 61 -36s53 19 61 36s9 37 9 62v285h198v-268c0 -53 -10 -131 -75 -189c-31 -28 -91 -63 -193 -63s-162 35 -193 63c-65 58 -75 136 -75 189v268z" />
    <glyph glyph-name="afii10145.alt" horiz-adv-x="730" 
d="M45 700h203v-379c0 -45 -2 -88 17 -123c23 -43 62 -54 100 -54c60 0 89 29 102 55c15 28 15 69 15 122v379h203v-365c0 -103 -7 -194 -90 -275c-52 -50 -105 -63 -139 -67v-193h-182v192c-35 4 -87 17 -139 68c-83 82 -90 171 -90 275v365z" />
    <glyph glyph-name="afii10193.alt" horiz-adv-x="616" 
d="M40 500h199v-266c0 -25 -1 -52 9 -73c6 -13 22 -36 60 -36s55 24 61 37c8 17 8 40 8 72v266h199v-266c0 -52 -7 -130 -76 -193c-14 -13 -49 -41 -102 -51h1v-190h-182v190h1c-53 10 -88 38 -102 51c-69 63 -76 141 -76 193v266z" />
    <glyph glyph-name="afii10098.alt" horiz-adv-x="396" 
d="M247 700h149v-307h-37c-27 0 -84 5 -107 -25c-12 -16 -13 -43 -13 -84v-284h-199v284c0 54 0 133 67 186c44 35 104 41 140 40v190z" />
    <glyph glyph-name="afii10026.alt" horiz-adv-x="740" 
d="M50 700h203v-379c0 -46 -4 -87 16 -123c23 -43 64 -54 101 -54c25 0 75 5 102 55c18 34 15 76 15 122v379h203v-365c0 -100 -7 -197 -90 -275c-69 -65 -161 -78 -230 -78c-71 0 -160 11 -230 78c-83 79 -90 174 -90 275v365z" />
    <glyph glyph-name="afii10027.alt" horiz-adv-x="740" 
d="M50 700h203v-379c0 -46 -4 -87 16 -123c23 -43 64 -54 101 -54c25 0 75 5 102 55c18 34 15 76 15 122v379h203v-365c0 -100 -7 -197 -90 -275c-69 -65 -161 -78 -230 -78c-71 0 -160 11 -230 78c-83 79 -90 174 -90 275v365zM153 850h134c3 -10 9 -18 17 -25
c18 -16 40 -23 66 -23c40 0 60 17 66 22c6 6 13 14 17 26h134c-16 -46 -43 -76 -64 -93c-50 -41 -106 -49 -153 -49c-55 0 -106 10 -153 50c-25 21 -49 52 -64 92z" />
    <glyph glyph-name="afii10033.alt" horiz-adv-x="730" 
d="M50 0v385c0 83 6 177 90 254c46 43 120 79 225 79s179 -36 225 -79c84 -77 90 -171 90 -254v-385h-202v383c0 37 4 86 -16 124c-13 25 -42 57 -97 57c-56 0 -84 -33 -96 -56c-21 -39 -17 -90 -17 -125v-383h-202z" />
    <glyph glyph-name="r.alt" horiz-adv-x="366" 
d="M40 0v268c0 51 -6 126 42 185c46 57 114 65 159 65s90 -8 125 -18v-133c-19 9 -43 15 -65 15c-19 0 -40 -5 -53 -26c-11 -18 -9 -39 -9 -62v-294h-199z" />
    <glyph glyph-name="afii10040.alt" horiz-adv-x="738" 
d="M45 700h203v-379c0 -46 -4 -87 16 -123c24 -43 64 -54 101 -54c31 0 75 8 100 54c18 34 17 82 17 123v379h203v-365c0 -79 4 -131 -38 -201l81 -68l-91 -101l-80 69c-52 -36 -104 -52 -192 -52c-71 0 -159 11 -230 78c-83 79 -90 174 -90 275v365z" />
    <glyph glyph-name="afii10042.alt" horiz-adv-x="1080" 
d="M50 700h203v-415c0 -33 -2 -72 18 -102c21 -32 52 -37 76 -37s55 5 76 37c20 30 18 69 18 102v415h198v-415c0 -33 -2 -72 18 -102c21 -32 52 -37 76 -37s55 5 76 37c20 30 18 69 18 102v415h203v-382c0 -69 3 -161 -55 -239c-40 -54 -107 -96 -214 -95
c-49 0 -167 11 -221 136c-54 -125 -172 -136 -221 -136c-107 -1 -174 41 -214 95c-58 78 -55 170 -55 239v382z" />
    <glyph glyph-name="afii10043.alt" horiz-adv-x="1090" 
d="M50 700h203v-415c0 -33 -2 -72 18 -102c21 -32 52 -37 76 -37s55 5 76 37c20 30 18 69 18 102v415h198v-415c0 -33 -2 -72 18 -102c21 -32 52 -37 76 -37s56 3 78 45c12 23 16 53 16 94v415h203v-382c0 -78 5 -114 -28 -180l78 -61l-88 -107l-70 59
c-30 -21 -76 -46 -161 -45c-49 0 -167 11 -221 136c-54 -125 -172 -136 -221 -136c-107 -1 -174 41 -214 95c-58 78 -55 170 -55 239v382z" />
    <glyph glyph-name="afii10069.alt" horiz-adv-x="668" 
d="M429 253c0 26 -3 60 -19 86c-15 25 -40 42 -79 42c-33 0 -60 -13 -79 -42c-18 -28 -20 -61 -20 -86c0 -26 2 -59 20 -87c19 -29 46 -42 79 -42c39 0 64 17 79 42c16 26 19 60 19 87zM618 500v-700h-194v265c-42 -71 -114 -81 -156 -81c-75 0 -130 29 -171 74
c-36 40 -67 103 -67 192s31 152 67 192c40 45 97 74 171 74c69 0 124 -27 156 -79l7 63h187z" />
    <glyph glyph-name="afii10074.alt" horiz-adv-x="616" 
d="M40 500h198v-285c0 -25 1 -45 9 -62s27 -36 61 -36s53 19 61 36s9 37 9 62v285h198v-268c0 -53 -10 -131 -75 -189c-31 -28 -91 -63 -193 -63s-162 35 -193 63c-65 58 -75 136 -75 189v268z" />
    <glyph glyph-name="afii10075.alt" horiz-adv-x="616" 
d="M97 700h151c-1 -14 3 -31 11 -44c9 -14 28 -27 54 -27c24 0 43 11 54 27c8 13 12 30 11 44h151c-9 -55 -37 -91 -63 -114c-44 -39 -98 -53 -153 -53s-109 14 -153 53c-26 23 -54 59 -63 114zM40 500h198v-285c0 -25 1 -45 9 -62s27 -36 61 -36s53 19 61 36s9 37 9 62v285
h198v-268c0 -53 -10 -131 -75 -189c-31 -28 -91 -63 -193 -63s-162 35 -193 63c-65 58 -75 136 -75 189v268z" />
    <glyph glyph-name="afii10078.alt" horiz-adv-x="882" 
d="M110 500h241l90 -378l90 378h241l100 -500h-188l-55 375h-16l-87 -375h-170l-87 371h-16l-55 -371h-188z" />
    <glyph glyph-name="afii10081.alt" horiz-adv-x="616" 
d="M40 0v268c0 58 9 131 75 189c64 57 149 63 193 63s129 -6 193 -63c66 -58 75 -131 75 -189v-268h-198v290c0 25 -1 45 -9 62s-27 36 -61 36s-53 -19 -61 -36s-9 -37 -9 -62v-290h-198z" />
    <glyph glyph-name="afii10086.alt" horiz-adv-x="846" 
d="M293 398c-12 -3 -31 -11 -46 -36c-18 -29 -22 -67 -22 -108c0 -49 6 -89 25 -116c12 -18 37 -41 78 -41h3v262c0 44 3 96 59 130c26 16 66 23 109 23c80 0 173 -24 222 -59c42 -30 95 -90 95 -203s-53 -172 -95 -203c-52 -38 -131 -58 -198 -58h-10v-189h-182v189h-5
c-63 0 -146 18 -201 58c-42 31 -95 90 -95 203c0 99 40 163 97 203c44 31 106 51 166 53v-108zM513 403v-306h5c42 0 66 26 78 41c13 19 25 51 25 112s-12 93 -25 112c-12 15 -36 41 -78 41h-5z" />
    <glyph glyph-name="afii10088.alt" horiz-adv-x="652" 
d="M40 500h198v-274c0 -33 2 -50 7 -63c7 -17 22 -36 56 -36c27 0 45 12 56 35c10 21 9 41 9 64v274h196v-338c0 -21 -1 -50 13 -71c13 -18 42 -34 77 -31v-260h-192v200c-22 0 -41 8 -54 20c-12 11 -22 29 -26 47c-7 -14 -19 -31 -38 -47c-31 -26 -67 -38 -114 -38
c-77 -1 -123 31 -148 64c-40 53 -40 123 -40 188v266z" />
    <glyph glyph-name="afii10090.alt" horiz-adv-x="878" 
d="M40 500h198v-287c0 -27 -1 -41 4 -55c6 -18 22 -35 49 -35c26 0 43 16 50 35c5 14 4 29 4 55v287h188v-287c0 -26 -1 -41 4 -55c7 -19 24 -35 50 -35c27 0 43 17 49 35c5 14 4 28 4 55v287h198v-268c0 -53 -1 -111 -36 -164c-27 -41 -84 -88 -186 -86
c-43 1 -125 12 -177 96c-51 -84 -131 -95 -176 -96c-104 -2 -159 45 -187 86c-35 53 -36 111 -36 164v268z" />
    <glyph glyph-name="afii10092.alt" horiz-adv-x="656" 
d="M-20 700h140c29 0 62 0 89 -25c31 -29 30 -67 30 -103v-112c35 29 73 44 131 44c73 0 136 -25 179 -64c63 -57 77 -132 77 -196c0 -61 -14 -139 -78 -196c-38 -34 -104 -68 -216 -68c-66 0 -154 11 -217 79c-62 67 -66 145 -66 223v290h-69v128zM424 245
c0 32 -3 65 -17 91c-21 38 -55 47 -77 47c-29 0 -59 -14 -77 -47c-8 -15 -17 -42 -17 -91s9 -76 17 -91c18 -33 48 -47 77 -47s59 14 77 47c11 20 17 47 17 91z" />
    <glyph glyph-name="afii10093.alt" horiz-adv-x="930" 
d="M686 500h194v-500h-194v500zM40 282v358h190v-180c35 29 73 44 131 44c73 0 136 -25 179 -64c63 -57 77 -132 77 -196c0 -61 -14 -139 -78 -196c-38 -34 -104 -68 -216 -68c-66 0 -154 11 -217 79c-62 67 -66 145 -66 223zM415 245c0 32 -3 65 -17 91
c-21 38 -55 47 -77 47c-29 0 -59 -14 -77 -47c-8 -15 -17 -42 -17 -91s9 -76 17 -91c18 -33 48 -47 77 -47s59 14 77 47c11 20 17 47 17 91z" />
    <glyph glyph-name="afii10094.alt" horiz-adv-x="647" 
d="M40 282v358h190v-180c35 29 73 44 131 44c73 0 136 -25 179 -64c63 -57 77 -132 77 -196c0 -61 -14 -139 -78 -196c-38 -34 -104 -68 -216 -68c-66 0 -154 11 -217 79c-62 67 -66 145 -66 223zM415 245c0 32 -3 65 -17 91c-21 38 -55 47 -77 47c-29 0 -59 -14 -77 -47
c-8 -15 -17 -42 -17 -91s9 -76 17 -91c18 -33 48 -47 77 -47s59 14 77 47c11 20 17 47 17 91z" />
    <glyph glyph-name="n.alt" horiz-adv-x="616" 
d="M40 0v268c0 58 9 131 75 189c64 57 149 63 193 63s129 -6 193 -63c66 -58 75 -131 75 -189v-268h-198v290c0 25 -1 45 -9 62s-27 36 -61 36s-53 -19 -61 -36s-9 -37 -9 -62v-290h-198z" />
    <glyph glyph-name="m.alt" horiz-adv-x="878" 
d="M40 0v268c0 53 1 111 36 164c28 41 83 88 187 86c45 -1 125 -12 176 -96c52 84 134 95 177 96c102 2 159 -45 186 -86c35 -53 36 -111 36 -164v-268h-198v292c0 27 1 41 -4 55c-6 18 -22 35 -49 35c-26 0 -43 -16 -50 -35c-5 -14 -4 -29 -4 -55v-292h-188v292
c0 26 1 41 -4 55c-7 19 -24 35 -50 35c-27 0 -43 -17 -49 -35c-5 -14 -4 -28 -4 -55v-292h-198z" />
    <glyph glyph-name="afii10038.alt" horiz-adv-x="1000" 
d="M347 577c-29 -8 -59 -26 -82 -67c-24 -44 -31 -109 -31 -158c0 -38 4 -110 36 -162c23 -38 65 -75 134 -79v472c0 30 2 69 39 101c39 34 95 33 125 32c87 -2 186 -16 271 -81c66 -50 131 -138 131 -285c0 -165 -82 -250 -140 -290c-98 -69 -224 -75 -333 -76
c-102 0 -228 4 -327 73c-78 54 -139 146 -140 293c-1 165 77 249 136 291c19 13 83 56 181 62v-126zM590 593v-482c28 1 95 7 140 79c32 52 36 124 36 162s-4 110 -36 162c-45 72 -112 78 -140 79z" />
  </font>
</defs>
</svg>
